G04 #@! TF.GenerationSoftware,KiCad,Pcbnew,10.0.1*
G04 #@! TF.CreationDate,2026-06-17T07:57:53-04:00*
G04 #@! TF.ProjectId,LightFusion,4c696768-7446-4757-9369-6f6e2e6b6963,rev?*
G04 #@! TF.SameCoordinates,Original*
G04 #@! TF.FileFunction,Copper,L3,Inr*
G04 #@! TF.FilePolarity,Positive*
%FSLAX46Y46*%
G04 Gerber Fmt 4.6, Leading zero omitted, Abs format (unit mm)*
G04 Created by KiCad (PCBNEW 10.0.1) date 2026-06-17 07:57:53*
%MOMM*%
%LPD*%
G01*
G04 APERTURE LIST*
G04 Aperture macros list*
%AMRoundRect*
0 Rectangle with rounded corners*
0 $1 Rounding radius*
0 $2 $3 $4 $5 $6 $7 $8 $9 X,Y pos of 4 corners*
0 Add a 4 corners polygon primitive as box body*
4,1,4,$2,$3,$4,$5,$6,$7,$8,$9,$2,$3,0*
0 Add four circle primitives for the rounded corners*
1,1,$1+$1,$2,$3*
1,1,$1+$1,$4,$5*
1,1,$1+$1,$6,$7*
1,1,$1+$1,$8,$9*
0 Add four rect primitives between the rounded corners*
20,1,$1+$1,$2,$3,$4,$5,0*
20,1,$1+$1,$4,$5,$6,$7,0*
20,1,$1+$1,$6,$7,$8,$9,0*
20,1,$1+$1,$8,$9,$2,$3,0*%
%AMRotRect*
0 Rectangle, with rotation*
0 The origin of the aperture is its center*
0 $1 length*
0 $2 width*
0 $3 Rotation angle, in degrees counterclockwise*
0 Add horizontal line*
21,1,$1,$2,0,0,$3*%
G04 Aperture macros list end*
G04 #@! TA.AperFunction,ComponentPad*
%ADD10RotRect,1.800000X1.800000X40.000000*%
G04 #@! TD*
G04 #@! TA.AperFunction,ComponentPad*
%ADD11C,1.800000*%
G04 #@! TD*
G04 #@! TA.AperFunction,ComponentPad*
%ADD12RoundRect,0.250001X-0.899999X-0.899999X0.899999X-0.899999X0.899999X0.899999X-0.899999X0.899999X0*%
G04 #@! TD*
G04 #@! TA.AperFunction,ComponentPad*
%ADD13C,2.300000*%
G04 #@! TD*
G04 #@! TA.AperFunction,ComponentPad*
%ADD14C,1.550000*%
G04 #@! TD*
G04 #@! TA.AperFunction,ComponentPad*
%ADD15C,1.016000*%
G04 #@! TD*
G04 #@! TA.AperFunction,ViaPad*
%ADD16C,0.600000*%
G04 #@! TD*
G04 #@! TA.AperFunction,Conductor*
%ADD17C,0.200000*%
G04 #@! TD*
G04 #@! TA.AperFunction,Conductor*
%ADD18C,0.600000*%
G04 #@! TD*
G04 #@! TA.AperFunction,Conductor*
%ADD19C,0.500000*%
G04 #@! TD*
G04 APERTURE END LIST*
D10*
G04 #@! TO.N,GND*
G04 #@! TO.C,J1*
X135255000Y-114300001D03*
D11*
G04 #@! TO.N,/Power/BAT+*
X138319178Y-111728847D03*
G04 #@! TD*
D12*
G04 #@! TO.N,GND*
G04 #@! TO.C,P1*
X147290000Y-113030000D03*
D13*
G04 #@! TO.N,/Power/BAT+*
X152090000Y-113030000D03*
G04 #@! TD*
D14*
G04 #@! TO.N,GND*
G04 #@! TO.C,J_PROG1*
X157479043Y-110380864D03*
X162292843Y-112295541D03*
X161186136Y-113999719D03*
G04 #@! TD*
D15*
G04 #@! TO.N,Net-(E_EEG1-Pad1)*
G04 #@! TO.C,E_EEG1*
X164430000Y-148205000D03*
G04 #@! TD*
G04 #@! TO.N,Net-(R_STIM_P1-Pad2)*
G04 #@! TO.C,STIM_E_P1*
X152501600Y-154076400D03*
G04 #@! TD*
G04 #@! TO.N,Net-(R_STIM_N1-Pad2)*
G04 #@! TO.C,STIM_E_N1*
X145643600Y-153568400D03*
G04 #@! TD*
G04 #@! TO.N,Net-(E_EEG2-Pad1)*
G04 #@! TO.C,E_EEG2*
X127508000Y-134670800D03*
G04 #@! TD*
G04 #@! TO.N,Net-(E_EEG3-Pad1)*
G04 #@! TO.C,E_EEG3*
X154279600Y-137769600D03*
G04 #@! TD*
D16*
G04 #@! TO.N,/EEG_RESET_N*
X167350000Y-118030000D03*
G04 #@! TO.N,GND*
X142290800Y-151942800D03*
X165912800Y-131216400D03*
X156311600Y-124460000D03*
X145389600Y-123901200D03*
X168620000Y-143290000D03*
X148285200Y-146202400D03*
X140030000Y-130910000D03*
X138226800Y-137871200D03*
X168300400Y-119583200D03*
X152196800Y-130403600D03*
X167643646Y-121560754D03*
X141000000Y-120000000D03*
X126644400Y-127101600D03*
X165404800Y-124155200D03*
X150926800Y-146558000D03*
X145034000Y-134467600D03*
X156210000Y-116078000D03*
X159715200Y-118465600D03*
X141935200Y-145288000D03*
X170027600Y-120396000D03*
X152196800Y-129794000D03*
X143754631Y-130454400D03*
X153005662Y-114952400D03*
X166471600Y-117805200D03*
X169164000Y-135788400D03*
X129133600Y-132588000D03*
X143916400Y-148082000D03*
X142700000Y-121250000D03*
X146890000Y-130470000D03*
X166660000Y-136180000D03*
X147624800Y-116885000D03*
X143780000Y-129810000D03*
X133654800Y-132740400D03*
X154584400Y-118821200D03*
X143052800Y-137972800D03*
X165862000Y-137515600D03*
X154076400Y-107137200D03*
X138328400Y-141173200D03*
X129946400Y-121259600D03*
X167284400Y-118872000D03*
X132892800Y-140919200D03*
X155295600Y-129794000D03*
X170660000Y-140450000D03*
X164290088Y-119850459D03*
X161391600Y-128066800D03*
X155295600Y-130403600D03*
X168554400Y-127812800D03*
X147980400Y-121208800D03*
X146405600Y-138226800D03*
X166928800Y-114960400D03*
X152349200Y-123190000D03*
X144400000Y-119100000D03*
X154432000Y-152654000D03*
X148608206Y-151711099D03*
X135585200Y-119938800D03*
X172413363Y-134264400D03*
X153974800Y-148793200D03*
X134315200Y-135686800D03*
X150012400Y-125222000D03*
X145999200Y-107086400D03*
X132537200Y-127050800D03*
X146900000Y-129830000D03*
G04 #@! TO.N,/PD_ADC/3V3_A*
X140487400Y-137490200D03*
X132842000Y-137820400D03*
G04 #@! TO.N,TEMP_ALERT*
X160588007Y-120608007D03*
X162330000Y-119330000D03*
G04 #@! TO.N,3V3_DIG*
X171100000Y-132850000D03*
X158250000Y-124490000D03*
X150825200Y-147929600D03*
X136499600Y-126511400D03*
X157850000Y-131950000D03*
X148437600Y-125710000D03*
X131500000Y-128400000D03*
X157270000Y-120850000D03*
X137500000Y-124250000D03*
X158719117Y-109758883D03*
X150240000Y-121430000D03*
X161950400Y-123750000D03*
X141071600Y-134162800D03*
X149352000Y-115671600D03*
X167538400Y-134975600D03*
X165800000Y-130200000D03*
G04 #@! TO.N,/Power/BAT+*
X150825200Y-110337600D03*
G04 #@! TO.N,VBAT_SYSTEM*
X125690000Y-130950000D03*
X135864176Y-123664176D03*
X145338800Y-149555200D03*
X137864176Y-121664176D03*
X142320000Y-128980000D03*
G04 #@! TO.N,Net-(IC2-IN2N)*
X164200000Y-136590000D03*
X159258000Y-144881600D03*
G04 #@! TO.N,ADC_MOSI*
X136621400Y-127736400D03*
X170170000Y-126210000D03*
X172310000Y-127400000D03*
X164670000Y-117880000D03*
G04 #@! TO.N,ADC_SCK*
X160905000Y-116850000D03*
X137271400Y-127011400D03*
X162112130Y-116195000D03*
X171640000Y-127810000D03*
G04 #@! TO.N,ADC_MISO*
X135971400Y-128281400D03*
X171000000Y-128220000D03*
X163175000Y-117985000D03*
G04 #@! TO.N,/EEG_DRDY*
X170400000Y-128675000D03*
X164770000Y-117165000D03*
G04 #@! TO.N,Net-(E_EEG2-Pad1)*
X158750000Y-146216435D03*
G04 #@! TO.N,/SWDCLK*
X165550000Y-116270000D03*
G04 #@! TO.N,/SWDIO*
X164350000Y-114100000D03*
X161565000Y-115605000D03*
X164000000Y-115190000D03*
G04 #@! TO.N,/RESET*
X163495000Y-115685000D03*
G04 #@! TO.N,PWM_730*
X129110000Y-131180000D03*
X163150000Y-118710000D03*
G04 #@! TO.N,ADC_CS_N*
X157420000Y-125450000D03*
X159240000Y-117550000D03*
X139800000Y-129100000D03*
X149940000Y-127590000D03*
G04 #@! TO.N,I2C_TEMP_SDA*
X155316054Y-120433947D03*
X154965000Y-123780000D03*
G04 #@! TO.N,/MCU_STIM_IN2*
X162915600Y-120396000D03*
X172059600Y-121056400D03*
G04 #@! TO.N,/MCU_STIM_IN1*
X164236400Y-122936000D03*
X152095200Y-149656800D03*
G04 #@! TO.N,ADC_DRDY_N*
X163590000Y-119510000D03*
X160960000Y-123170000D03*
X135321400Y-132098600D03*
X141660000Y-132290000D03*
G04 #@! TO.N,/MCU_STIM_EN*
X162153600Y-125425200D03*
X164236400Y-120548400D03*
G04 #@! TO.N,/LED/LED730_K*
X132280000Y-130470000D03*
G04 #@! TO.N,Net-(U4-OUT1)*
X150368000Y-153162000D03*
X147116800Y-150215600D03*
G04 #@! TO.N,Net-(C_EEG_AC_N1-Pad1)*
X157937200Y-140258800D03*
X129946400Y-140208000D03*
G04 #@! TO.N,/PD_ADC/PHOTO_TIA_IN*
X145135600Y-140004800D03*
G04 #@! TO.N,/LED/LED850_K*
X153840000Y-132470000D03*
G04 #@! TD*
G04 #@! TO.N,/PD_ADC/3V3_A*
D17*
X138785600Y-139496800D02*
X139192000Y-139090400D01*
X132892800Y-139192000D02*
X133197600Y-139496800D01*
X139674600Y-137490200D02*
X140487400Y-137490200D01*
X132842000Y-138074400D02*
X132892800Y-138125200D01*
X132892800Y-138125200D02*
X132892800Y-139192000D01*
X139192000Y-139090400D02*
X139192000Y-137972800D01*
X132842000Y-137820400D02*
X132842000Y-138074400D01*
X139192000Y-137972800D02*
X139674600Y-137490200D01*
X133197600Y-139496800D02*
X138785600Y-139496800D01*
G04 #@! TO.N,3V3_DIG*
X156690000Y-121430000D02*
X157270000Y-120850000D01*
X148437600Y-122923800D02*
X148437600Y-125710000D01*
X136499600Y-126511400D02*
X136429400Y-126441200D01*
X147636200Y-126511400D02*
X148437600Y-125710000D01*
X160950000Y-124450000D02*
X160910000Y-124490000D01*
X136499600Y-126511400D02*
X147636200Y-126511400D01*
X162712400Y-124510800D02*
X162711200Y-124510800D01*
X149352000Y-115671600D02*
X149352000Y-120542000D01*
X136429400Y-126441200D02*
X132334000Y-126441200D01*
X167538400Y-134975600D02*
X168974400Y-134975600D01*
X158719117Y-109758883D02*
X158719117Y-110680883D01*
X149931400Y-121430000D02*
X148437600Y-122923800D01*
X148437600Y-125710000D02*
X148437600Y-126796800D01*
X157270000Y-123510000D02*
X158250000Y-124490000D01*
X149352000Y-120542000D02*
X150240000Y-121430000D01*
X159766000Y-142189200D02*
X154025600Y-147929600D01*
X159766000Y-133866000D02*
X159766000Y-142189200D01*
X165912800Y-130087200D02*
X165912800Y-127711200D01*
X136499600Y-126511400D02*
X136499600Y-125250400D01*
X162711200Y-124510800D02*
X161950400Y-123750000D01*
X161250400Y-124450000D02*
X160950000Y-124450000D01*
X165800000Y-130200000D02*
X165252400Y-130747600D01*
X136499600Y-125250400D02*
X137500000Y-124250000D01*
X147269200Y-133908800D02*
X141325600Y-133908800D01*
X153728400Y-115671600D02*
X149352000Y-115671600D01*
X141325600Y-133908800D02*
X141071600Y-134162800D01*
X148626200Y-132551800D02*
X147370800Y-133807200D01*
X132334000Y-126441200D02*
X131500000Y-127275200D01*
X161950400Y-123750000D02*
X161250400Y-124450000D01*
X168974400Y-134975600D02*
X171100000Y-132850000D01*
X150240000Y-121430000D02*
X149931400Y-121430000D01*
X147370800Y-133807200D02*
X147269200Y-133908800D01*
X165800000Y-130200000D02*
X165912800Y-130087200D01*
X131500000Y-127275200D02*
X131500000Y-128400000D01*
X160910000Y-124490000D02*
X158250000Y-124490000D01*
X157850000Y-131950000D02*
X157850000Y-128800000D01*
X154025600Y-147929600D02*
X150825200Y-147929600D01*
X157850000Y-128800000D02*
X158250000Y-128400000D01*
X148437600Y-126796800D02*
X148626200Y-126985400D01*
X158719117Y-110680883D02*
X153728400Y-115671600D01*
X165252400Y-130747600D02*
X165252400Y-132689600D01*
X157850000Y-131950000D02*
X159766000Y-133866000D01*
X158250000Y-128400000D02*
X158250000Y-124490000D01*
X165252400Y-132689600D02*
X167538400Y-134975600D01*
X150240000Y-121430000D02*
X156690000Y-121430000D01*
X157270000Y-120850000D02*
X157270000Y-123510000D01*
X148626200Y-126985400D02*
X148626200Y-132551800D01*
X165912800Y-127711200D02*
X162712400Y-124510800D01*
G04 #@! TO.N,/Power/BAT+*
D18*
X144602000Y-110998000D02*
X150058000Y-110998000D01*
X142971153Y-112628847D02*
X144602000Y-110998000D01*
D19*
X150825200Y-110337600D02*
X150164800Y-110998000D01*
D18*
X138319178Y-111728847D02*
X139219178Y-112628847D01*
X139219178Y-112628847D02*
X142971153Y-112628847D01*
D17*
X150164800Y-110998000D02*
X150058000Y-110998000D01*
D18*
X150058000Y-110998000D02*
X152090000Y-113030000D01*
G04 #@! TO.N,VBAT_SYSTEM*
D19*
X126400000Y-130240000D02*
X125690000Y-130950000D01*
X126400000Y-129200000D02*
X126400000Y-130240000D01*
X135140000Y-124380000D02*
X135805824Y-123714176D01*
X129970000Y-127340000D02*
X127711200Y-127340000D01*
X132930000Y-124380000D02*
X135140000Y-124380000D01*
X131975000Y-125335000D02*
X132930000Y-124380000D01*
X137864176Y-121664176D02*
X135864176Y-123664176D01*
X127240000Y-127811200D02*
X127240000Y-128360000D01*
X131975000Y-125335000D02*
X129970000Y-127340000D01*
X127240000Y-128360000D02*
X126400000Y-129200000D01*
X127711200Y-127340000D02*
X127240000Y-127811200D01*
G04 #@! TO.N,/MCU_STIM_IN2*
D17*
X163576000Y-121056400D02*
X172059600Y-121056400D01*
X162915600Y-120396000D02*
X163576000Y-121056400D01*
X172059600Y-121056400D02*
X172161200Y-121056400D01*
G04 #@! TO.N,/MCU_STIM_IN1*
X171805600Y-122936000D02*
X174701200Y-125831600D01*
X172923200Y-141224000D02*
X164490400Y-149656800D01*
X164490400Y-149656800D02*
X152095200Y-149656800D01*
X172923200Y-138226800D02*
X172923200Y-141224000D01*
X164236400Y-122936000D02*
X171805600Y-122936000D01*
X174701200Y-136448800D02*
X172923200Y-138226800D01*
X174701200Y-125831600D02*
X174701200Y-136448800D01*
G04 #@! TO.N,Net-(C_EEG_AC_N1-Pad1)*
X129946400Y-140258800D02*
X134162800Y-144475200D01*
X129946400Y-140208000D02*
X129946400Y-140258800D01*
X153720800Y-144475200D02*
X157937200Y-140258800D01*
X134162800Y-144475200D02*
X153720800Y-144475200D01*
G04 #@! TD*
G04 #@! TA.AperFunction,Conductor*
G04 #@! TO.N,GND*
G36*
X150506148Y-104337147D02*
G01*
X151508423Y-104376526D01*
X151513215Y-104376808D01*
X152513249Y-104455512D01*
X152518062Y-104455987D01*
X153514169Y-104573884D01*
X153518948Y-104574544D01*
X154509686Y-104731462D01*
X154514440Y-104732311D01*
X155498233Y-104928000D01*
X155502950Y-104929034D01*
X156478349Y-105163207D01*
X156483000Y-105164421D01*
X157165276Y-105356843D01*
X157448395Y-105436691D01*
X157453054Y-105438104D01*
X158407025Y-105748068D01*
X158411590Y-105749651D01*
X159352679Y-106096836D01*
X159357167Y-106098593D01*
X160283896Y-106482457D01*
X160288312Y-106484388D01*
X160657692Y-106654675D01*
X161199245Y-106904335D01*
X161203626Y-106906460D01*
X161338181Y-106975019D01*
X162097377Y-107361848D01*
X162101633Y-107364124D01*
X162976780Y-107854230D01*
X162980981Y-107856692D01*
X163836215Y-108380780D01*
X163840316Y-108383405D01*
X164674324Y-108940671D01*
X164678318Y-108943455D01*
X165489784Y-109533020D01*
X165493667Y-109535959D01*
X166281377Y-110156939D01*
X166285140Y-110160028D01*
X167047864Y-110811455D01*
X167051489Y-110814676D01*
X167685659Y-111400896D01*
X167788058Y-111495553D01*
X167791568Y-111498928D01*
X168500820Y-112208180D01*
X168504195Y-112211690D01*
X169165108Y-112926662D01*
X169185059Y-112948244D01*
X169188293Y-112951884D01*
X169839720Y-113714608D01*
X169842809Y-113718371D01*
X170463789Y-114506081D01*
X170466728Y-114509964D01*
X171056293Y-115321430D01*
X171059077Y-115325424D01*
X171616343Y-116159432D01*
X171618968Y-116163533D01*
X172143056Y-117018767D01*
X172145518Y-117022968D01*
X172635614Y-117898096D01*
X172637910Y-117902390D01*
X173093288Y-118796122D01*
X173095413Y-118800503D01*
X173515350Y-119711414D01*
X173517301Y-119715875D01*
X173854175Y-120529162D01*
X173901142Y-120642549D01*
X173902917Y-120647084D01*
X174250094Y-121588149D01*
X174251689Y-121592749D01*
X174561644Y-122546694D01*
X174563057Y-122551353D01*
X174835319Y-123516718D01*
X174836549Y-123521430D01*
X175070709Y-124496779D01*
X175071752Y-124501535D01*
X175203405Y-125163399D01*
X175197178Y-125232990D01*
X175154315Y-125288168D01*
X175088425Y-125311412D01*
X175020428Y-125295344D01*
X174994107Y-125275271D01*
X172293190Y-122574355D01*
X172293188Y-122574352D01*
X172174317Y-122455481D01*
X172174316Y-122455480D01*
X172087504Y-122405360D01*
X172087504Y-122405359D01*
X172087500Y-122405358D01*
X172037385Y-122376423D01*
X171884657Y-122335499D01*
X171726543Y-122335499D01*
X171718947Y-122335499D01*
X171718931Y-122335500D01*
X164816166Y-122335500D01*
X164749127Y-122315815D01*
X164747275Y-122314602D01*
X164615585Y-122226609D01*
X164615572Y-122226602D01*
X164469901Y-122166264D01*
X164469889Y-122166261D01*
X164315245Y-122135500D01*
X164315242Y-122135500D01*
X164157558Y-122135500D01*
X164157555Y-122135500D01*
X164002910Y-122166261D01*
X164002898Y-122166264D01*
X163857227Y-122226602D01*
X163857214Y-122226609D01*
X163726111Y-122314210D01*
X163726107Y-122314213D01*
X163614613Y-122425707D01*
X163614610Y-122425711D01*
X163527009Y-122556814D01*
X163527002Y-122556827D01*
X163466664Y-122702498D01*
X163466661Y-122702510D01*
X163435900Y-122857153D01*
X163435900Y-123014846D01*
X163466661Y-123169489D01*
X163466664Y-123169501D01*
X163527002Y-123315172D01*
X163527009Y-123315185D01*
X163614610Y-123446288D01*
X163614613Y-123446292D01*
X163726107Y-123557786D01*
X163726111Y-123557789D01*
X163857214Y-123645390D01*
X163857227Y-123645397D01*
X163963703Y-123689500D01*
X164002903Y-123705737D01*
X164151711Y-123735337D01*
X164157553Y-123736499D01*
X164157556Y-123736500D01*
X164157558Y-123736500D01*
X164315244Y-123736500D01*
X164315245Y-123736499D01*
X164469897Y-123705737D01*
X164615579Y-123645394D01*
X164641297Y-123628210D01*
X164747275Y-123557398D01*
X164813953Y-123536520D01*
X164816166Y-123536500D01*
X171505503Y-123536500D01*
X171572542Y-123556185D01*
X171593184Y-123572819D01*
X174064381Y-126044016D01*
X174097866Y-126105339D01*
X174100700Y-126131697D01*
X174100700Y-136148702D01*
X174081015Y-136215741D01*
X174064381Y-136236383D01*
X172442681Y-137858082D01*
X172442677Y-137858087D01*
X172418919Y-137899240D01*
X172418918Y-137899242D01*
X172363623Y-137995015D01*
X172322699Y-138147743D01*
X172322699Y-138147745D01*
X172322699Y-138315846D01*
X172322700Y-138315859D01*
X172322700Y-140923902D01*
X172303015Y-140990941D01*
X172286381Y-141011583D01*
X165527274Y-147770689D01*
X165465951Y-147804174D01*
X165396259Y-147799190D01*
X165340326Y-147757318D01*
X165325031Y-147730459D01*
X165323721Y-147727296D01*
X165323717Y-147727289D01*
X165213353Y-147562119D01*
X165213350Y-147562115D01*
X165072884Y-147421649D01*
X165072880Y-147421646D01*
X164907710Y-147311282D01*
X164907701Y-147311277D01*
X164724169Y-147235256D01*
X164724161Y-147235254D01*
X164529333Y-147196500D01*
X164529329Y-147196500D01*
X164330671Y-147196500D01*
X164330666Y-147196500D01*
X164135838Y-147235254D01*
X164135830Y-147235256D01*
X163952298Y-147311277D01*
X163952289Y-147311282D01*
X163787119Y-147421646D01*
X163787115Y-147421649D01*
X163646649Y-147562115D01*
X163646646Y-147562119D01*
X163536282Y-147727289D01*
X163536277Y-147727298D01*
X163460256Y-147910830D01*
X163460254Y-147910838D01*
X163421500Y-148105666D01*
X163421500Y-148304333D01*
X163460254Y-148499161D01*
X163460256Y-148499169D01*
X163536277Y-148682701D01*
X163536282Y-148682710D01*
X163646646Y-148847880D01*
X163650512Y-148852591D01*
X163648595Y-148854163D01*
X163676869Y-148905942D01*
X163671885Y-148975634D01*
X163630013Y-149031567D01*
X163564549Y-149055984D01*
X163555703Y-149056300D01*
X152674966Y-149056300D01*
X152607927Y-149036615D01*
X152606075Y-149035402D01*
X152474385Y-148947409D01*
X152474372Y-148947402D01*
X152328701Y-148887064D01*
X152328689Y-148887061D01*
X152174045Y-148856300D01*
X152174042Y-148856300D01*
X152016358Y-148856300D01*
X152016355Y-148856300D01*
X151861710Y-148887061D01*
X151861698Y-148887064D01*
X151716027Y-148947402D01*
X151716014Y-148947409D01*
X151584911Y-149035010D01*
X151584907Y-149035013D01*
X151473413Y-149146507D01*
X151473410Y-149146511D01*
X151385809Y-149277614D01*
X151385802Y-149277627D01*
X151325464Y-149423298D01*
X151325461Y-149423310D01*
X151294700Y-149577953D01*
X151294700Y-149735646D01*
X151325461Y-149890289D01*
X151325464Y-149890301D01*
X151385802Y-150035972D01*
X151385809Y-150035985D01*
X151473410Y-150167088D01*
X151473413Y-150167092D01*
X151584907Y-150278586D01*
X151584911Y-150278589D01*
X151716014Y-150366190D01*
X151716027Y-150366197D01*
X151861698Y-150426535D01*
X151861703Y-150426537D01*
X152016353Y-150457299D01*
X152016356Y-150457300D01*
X152016358Y-150457300D01*
X152174044Y-150457300D01*
X152174045Y-150457299D01*
X152328697Y-150426537D01*
X152474379Y-150366194D01*
X152536123Y-150324938D01*
X152606075Y-150278198D01*
X152672753Y-150257320D01*
X152674966Y-150257300D01*
X164403731Y-150257300D01*
X164403747Y-150257301D01*
X164411343Y-150257301D01*
X164569454Y-150257301D01*
X164569457Y-150257301D01*
X164722185Y-150216377D01*
X164783977Y-150180701D01*
X164859116Y-150137320D01*
X164970920Y-150025516D01*
X164970920Y-150025514D01*
X164981124Y-150015311D01*
X164981128Y-150015306D01*
X171604595Y-143391838D01*
X171665916Y-143358355D01*
X171735608Y-143363339D01*
X171791541Y-143405211D01*
X171815958Y-143470675D01*
X171801106Y-143538948D01*
X171798001Y-143544311D01*
X171618968Y-143836466D01*
X171616343Y-143840567D01*
X171059077Y-144674575D01*
X171056293Y-144678569D01*
X170466728Y-145490035D01*
X170463789Y-145493918D01*
X169842809Y-146281628D01*
X169839720Y-146285391D01*
X169188293Y-147048115D01*
X169185059Y-147051755D01*
X168504195Y-147788309D01*
X168500820Y-147791819D01*
X167791568Y-148501071D01*
X167788058Y-148504446D01*
X167051504Y-149185310D01*
X167047864Y-149188544D01*
X166285140Y-149839971D01*
X166281377Y-149843060D01*
X165493667Y-150464040D01*
X165489784Y-150466979D01*
X164678318Y-151056544D01*
X164674324Y-151059328D01*
X163840316Y-151616594D01*
X163836215Y-151619219D01*
X162980981Y-152143307D01*
X162976780Y-152145769D01*
X162101652Y-152635865D01*
X162097358Y-152638161D01*
X161203626Y-153093539D01*
X161199245Y-153095664D01*
X160288334Y-153515601D01*
X160283873Y-153517552D01*
X159357199Y-153901393D01*
X159352664Y-153903168D01*
X158411599Y-154250345D01*
X158406999Y-154251940D01*
X157453054Y-154561895D01*
X157448395Y-154563308D01*
X156483030Y-154835570D01*
X156478318Y-154836800D01*
X155502969Y-155070960D01*
X155498213Y-155072003D01*
X154514460Y-155267684D01*
X154509667Y-155268540D01*
X153518970Y-155425451D01*
X153514147Y-155426118D01*
X152518079Y-155544010D01*
X152513233Y-155544488D01*
X151513249Y-155623189D01*
X151508388Y-155623475D01*
X150506148Y-155662853D01*
X150501280Y-155662949D01*
X149498218Y-155662949D01*
X149493350Y-155662853D01*
X148491109Y-155623475D01*
X148486248Y-155623189D01*
X147486264Y-155544488D01*
X147481418Y-155544010D01*
X146485350Y-155426118D01*
X146480527Y-155425451D01*
X145489830Y-155268540D01*
X145485037Y-155267684D01*
X144501284Y-155072003D01*
X144496528Y-155070960D01*
X143521179Y-154836800D01*
X143516467Y-154835570D01*
X142551102Y-154563308D01*
X142546443Y-154561895D01*
X141592498Y-154251940D01*
X141587898Y-154250345D01*
X140646833Y-153903168D01*
X140642298Y-153901393D01*
X140569881Y-153871397D01*
X139715624Y-153517552D01*
X139711163Y-153515601D01*
X139610221Y-153469066D01*
X144635100Y-153469066D01*
X144635100Y-153667733D01*
X144673854Y-153862561D01*
X144673856Y-153862569D01*
X144749877Y-154046101D01*
X144749882Y-154046110D01*
X144860246Y-154211280D01*
X144860249Y-154211284D01*
X145000715Y-154351750D01*
X145000719Y-154351753D01*
X145165889Y-154462117D01*
X145165895Y-154462120D01*
X145165896Y-154462121D01*
X145349431Y-154538144D01*
X145544266Y-154576899D01*
X145544270Y-154576900D01*
X145544271Y-154576900D01*
X145742930Y-154576900D01*
X145742931Y-154576899D01*
X145937769Y-154538144D01*
X146121304Y-154462121D01*
X146286481Y-154351753D01*
X146426953Y-154211281D01*
X146537321Y-154046104D01*
X146565918Y-153977066D01*
X151493100Y-153977066D01*
X151493100Y-154175733D01*
X151531854Y-154370561D01*
X151531856Y-154370569D01*
X151607877Y-154554101D01*
X151607882Y-154554110D01*
X151718246Y-154719280D01*
X151718249Y-154719284D01*
X151858715Y-154859750D01*
X151858719Y-154859753D01*
X152023889Y-154970117D01*
X152023895Y-154970120D01*
X152023896Y-154970121D01*
X152207431Y-155046144D01*
X152402266Y-155084899D01*
X152402270Y-155084900D01*
X152402271Y-155084900D01*
X152600930Y-155084900D01*
X152600931Y-155084899D01*
X152795769Y-155046144D01*
X152979304Y-154970121D01*
X153144481Y-154859753D01*
X153284953Y-154719281D01*
X153395321Y-154554104D01*
X153471344Y-154370569D01*
X153510100Y-154175729D01*
X153510100Y-153977071D01*
X153471344Y-153782231D01*
X153395321Y-153598696D01*
X153395320Y-153598695D01*
X153395317Y-153598689D01*
X153284953Y-153433519D01*
X153284950Y-153433515D01*
X153144484Y-153293049D01*
X153144480Y-153293046D01*
X152979310Y-153182682D01*
X152979301Y-153182677D01*
X152795769Y-153106656D01*
X152795761Y-153106654D01*
X152600933Y-153067900D01*
X152600929Y-153067900D01*
X152402271Y-153067900D01*
X152402266Y-153067900D01*
X152207438Y-153106654D01*
X152207430Y-153106656D01*
X152023898Y-153182677D01*
X152023889Y-153182682D01*
X151858719Y-153293046D01*
X151858715Y-153293049D01*
X151718249Y-153433515D01*
X151718246Y-153433519D01*
X151607882Y-153598689D01*
X151607877Y-153598698D01*
X151531856Y-153782230D01*
X151531854Y-153782238D01*
X151493100Y-153977066D01*
X146565918Y-153977066D01*
X146613344Y-153862569D01*
X146652100Y-153667729D01*
X146652100Y-153469071D01*
X146613344Y-153274231D01*
X146539379Y-153095664D01*
X146537324Y-153090702D01*
X146537317Y-153090689D01*
X146532282Y-153083153D01*
X149567500Y-153083153D01*
X149567500Y-153240846D01*
X149598261Y-153395489D01*
X149598264Y-153395501D01*
X149658602Y-153541172D01*
X149658609Y-153541185D01*
X149746210Y-153672288D01*
X149746213Y-153672292D01*
X149857707Y-153783786D01*
X149857711Y-153783789D01*
X149988814Y-153871390D01*
X149988827Y-153871397D01*
X150134498Y-153931735D01*
X150134503Y-153931737D01*
X150289153Y-153962499D01*
X150289156Y-153962500D01*
X150289158Y-153962500D01*
X150446844Y-153962500D01*
X150446845Y-153962499D01*
X150601497Y-153931737D01*
X150747179Y-153871394D01*
X150878289Y-153783789D01*
X150989789Y-153672289D01*
X151077394Y-153541179D01*
X151137737Y-153395497D01*
X151168500Y-153240842D01*
X151168500Y-153083158D01*
X151168500Y-153083155D01*
X151168499Y-153083153D01*
X151137738Y-152928510D01*
X151137737Y-152928503D01*
X151136499Y-152925515D01*
X151077397Y-152782827D01*
X151077390Y-152782814D01*
X150989789Y-152651711D01*
X150989786Y-152651707D01*
X150878292Y-152540213D01*
X150878288Y-152540210D01*
X150747185Y-152452609D01*
X150747172Y-152452602D01*
X150601501Y-152392264D01*
X150601489Y-152392261D01*
X150446845Y-152361500D01*
X150446842Y-152361500D01*
X150289158Y-152361500D01*
X150289155Y-152361500D01*
X150134510Y-152392261D01*
X150134498Y-152392264D01*
X149988827Y-152452602D01*
X149988814Y-152452609D01*
X149857711Y-152540210D01*
X149857707Y-152540213D01*
X149746213Y-152651707D01*
X149746210Y-152651711D01*
X149658609Y-152782814D01*
X149658602Y-152782827D01*
X149598264Y-152928498D01*
X149598261Y-152928510D01*
X149567500Y-153083153D01*
X146532282Y-153083153D01*
X146426953Y-152925519D01*
X146426950Y-152925515D01*
X146286484Y-152785049D01*
X146286480Y-152785046D01*
X146121310Y-152674682D01*
X146121301Y-152674677D01*
X145937769Y-152598656D01*
X145937761Y-152598654D01*
X145742933Y-152559900D01*
X145742929Y-152559900D01*
X145544271Y-152559900D01*
X145544266Y-152559900D01*
X145349438Y-152598654D01*
X145349430Y-152598656D01*
X145165898Y-152674677D01*
X145165889Y-152674682D01*
X145000719Y-152785046D01*
X145000715Y-152785049D01*
X144860249Y-152925515D01*
X144860246Y-152925519D01*
X144749882Y-153090689D01*
X144749877Y-153090698D01*
X144673856Y-153274230D01*
X144673854Y-153274238D01*
X144635100Y-153469066D01*
X139610221Y-153469066D01*
X138800252Y-153095664D01*
X138795871Y-153093539D01*
X137902139Y-152638161D01*
X137897845Y-152635865D01*
X137022717Y-152145769D01*
X137018516Y-152143307D01*
X136163282Y-151619219D01*
X136159181Y-151616594D01*
X135325173Y-151059328D01*
X135321179Y-151056544D01*
X134509713Y-150466979D01*
X134505830Y-150464040D01*
X133718120Y-149843060D01*
X133714357Y-149839971D01*
X133391893Y-149564561D01*
X133391886Y-149564556D01*
X133288616Y-149476355D01*
X133288614Y-149476353D01*
X144538300Y-149476353D01*
X144538300Y-149634046D01*
X144569061Y-149788689D01*
X144569064Y-149788701D01*
X144629402Y-149934372D01*
X144629409Y-149934385D01*
X144717010Y-150065488D01*
X144717013Y-150065492D01*
X144828507Y-150176986D01*
X144828511Y-150176989D01*
X144959614Y-150264590D01*
X144959627Y-150264597D01*
X145105298Y-150324935D01*
X145105303Y-150324937D01*
X145259953Y-150355699D01*
X145259956Y-150355700D01*
X145259958Y-150355700D01*
X145417644Y-150355700D01*
X145417645Y-150355699D01*
X145572297Y-150324937D01*
X145717979Y-150264594D01*
X145849089Y-150176989D01*
X145889325Y-150136753D01*
X146316300Y-150136753D01*
X146316300Y-150294446D01*
X146347061Y-150449089D01*
X146347064Y-150449101D01*
X146407402Y-150594772D01*
X146407409Y-150594785D01*
X146495010Y-150725888D01*
X146495013Y-150725892D01*
X146606507Y-150837386D01*
X146606511Y-150837389D01*
X146737614Y-150924990D01*
X146737627Y-150924997D01*
X146883298Y-150985335D01*
X146883303Y-150985337D01*
X147037953Y-151016099D01*
X147037956Y-151016100D01*
X147037958Y-151016100D01*
X147195644Y-151016100D01*
X147195645Y-151016099D01*
X147350297Y-150985337D01*
X147495979Y-150924994D01*
X147627089Y-150837389D01*
X147738589Y-150725889D01*
X147826194Y-150594779D01*
X147886537Y-150449097D01*
X147917300Y-150294442D01*
X147917300Y-150136758D01*
X147917300Y-150136755D01*
X147917299Y-150136753D01*
X147903124Y-150065492D01*
X147886537Y-149982103D01*
X147866769Y-149934379D01*
X147826197Y-149836427D01*
X147826190Y-149836414D01*
X147738589Y-149705311D01*
X147738586Y-149705307D01*
X147627092Y-149593813D01*
X147627088Y-149593810D01*
X147495985Y-149506209D01*
X147495972Y-149506202D01*
X147350301Y-149445864D01*
X147350289Y-149445861D01*
X147195645Y-149415100D01*
X147195642Y-149415100D01*
X147037958Y-149415100D01*
X147037955Y-149415100D01*
X146883310Y-149445861D01*
X146883298Y-149445864D01*
X146737627Y-149506202D01*
X146737614Y-149506209D01*
X146606511Y-149593810D01*
X146606507Y-149593813D01*
X146495013Y-149705307D01*
X146495010Y-149705311D01*
X146407409Y-149836414D01*
X146407402Y-149836427D01*
X146347064Y-149982098D01*
X146347061Y-149982110D01*
X146316300Y-150136753D01*
X145889325Y-150136753D01*
X145960589Y-150065489D01*
X146048194Y-149934379D01*
X146108537Y-149788697D01*
X146139300Y-149634042D01*
X146139300Y-149476358D01*
X146139300Y-149476355D01*
X146139299Y-149476353D01*
X146128748Y-149423310D01*
X146108537Y-149321703D01*
X146090275Y-149277614D01*
X146048197Y-149176027D01*
X146048190Y-149176014D01*
X145960589Y-149044911D01*
X145960586Y-149044907D01*
X145849092Y-148933413D01*
X145849088Y-148933410D01*
X145717985Y-148845809D01*
X145717972Y-148845802D01*
X145572301Y-148785464D01*
X145572289Y-148785461D01*
X145417645Y-148754700D01*
X145417642Y-148754700D01*
X145259958Y-148754700D01*
X145259955Y-148754700D01*
X145105310Y-148785461D01*
X145105298Y-148785464D01*
X144959627Y-148845802D01*
X144959614Y-148845809D01*
X144828511Y-148933410D01*
X144828507Y-148933413D01*
X144717013Y-149044907D01*
X144717010Y-149044911D01*
X144629409Y-149176014D01*
X144629402Y-149176027D01*
X144569064Y-149321698D01*
X144569061Y-149321710D01*
X144538300Y-149476353D01*
X133288614Y-149476353D01*
X132951621Y-149188534D01*
X132947993Y-149185310D01*
X132937944Y-149176021D01*
X132211439Y-148504446D01*
X132207929Y-148501071D01*
X131498677Y-147791819D01*
X131495302Y-147788309D01*
X131275406Y-147550427D01*
X130814425Y-147051740D01*
X130811204Y-147048115D01*
X130159777Y-146285391D01*
X130156688Y-146281628D01*
X129535708Y-145493918D01*
X129532769Y-145490035D01*
X128943204Y-144678569D01*
X128940420Y-144674575D01*
X128383154Y-143840567D01*
X128380529Y-143836466D01*
X127856441Y-142981232D01*
X127853979Y-142977031D01*
X127363873Y-142101884D01*
X127361587Y-142097609D01*
X127322335Y-142020573D01*
X126906209Y-141203877D01*
X126904084Y-141199496D01*
X126708174Y-140774535D01*
X126484137Y-140288563D01*
X126482206Y-140284147D01*
X126418005Y-140129153D01*
X129145900Y-140129153D01*
X129145900Y-140286846D01*
X129176661Y-140441489D01*
X129176664Y-140441501D01*
X129237002Y-140587172D01*
X129237009Y-140587185D01*
X129324610Y-140718288D01*
X129324613Y-140718292D01*
X129436107Y-140829786D01*
X129436111Y-140829789D01*
X129567214Y-140917390D01*
X129567227Y-140917397D01*
X129654630Y-140953599D01*
X129712903Y-140977737D01*
X129804836Y-140996023D01*
X129866743Y-141028406D01*
X129868323Y-141029958D01*
X133677939Y-144839574D01*
X133677949Y-144839585D01*
X133682279Y-144843915D01*
X133682280Y-144843916D01*
X133794084Y-144955720D01*
X133880895Y-145005839D01*
X133880897Y-145005841D01*
X133918951Y-145027811D01*
X133931015Y-145034777D01*
X134083743Y-145075700D01*
X153634131Y-145075700D01*
X153634147Y-145075701D01*
X153641743Y-145075701D01*
X153799854Y-145075701D01*
X153799857Y-145075701D01*
X153952585Y-145034777D01*
X154002704Y-145005839D01*
X154089516Y-144955720D01*
X154201320Y-144843916D01*
X154201320Y-144843914D01*
X154211528Y-144833707D01*
X154211529Y-144833704D01*
X157951862Y-141093372D01*
X158013183Y-141059889D01*
X158015350Y-141059438D01*
X158073285Y-141047913D01*
X158170697Y-141028537D01*
X158316379Y-140968194D01*
X158447489Y-140880589D01*
X158558989Y-140769089D01*
X158646594Y-140637979D01*
X158706937Y-140492297D01*
X158737700Y-140337642D01*
X158737700Y-140179958D01*
X158737700Y-140179955D01*
X158737699Y-140179953D01*
X158727595Y-140129158D01*
X158706937Y-140025303D01*
X158687063Y-139977322D01*
X158646597Y-139879627D01*
X158646590Y-139879614D01*
X158558989Y-139748511D01*
X158558986Y-139748507D01*
X158447492Y-139637013D01*
X158447488Y-139637010D01*
X158316385Y-139549409D01*
X158316372Y-139549402D01*
X158170701Y-139489064D01*
X158170689Y-139489061D01*
X158016045Y-139458300D01*
X158016042Y-139458300D01*
X157858358Y-139458300D01*
X157858355Y-139458300D01*
X157703710Y-139489061D01*
X157703698Y-139489064D01*
X157558027Y-139549402D01*
X157558014Y-139549409D01*
X157426911Y-139637010D01*
X157426907Y-139637013D01*
X157315413Y-139748507D01*
X157315410Y-139748511D01*
X157227809Y-139879614D01*
X157227802Y-139879627D01*
X157167464Y-140025298D01*
X157167461Y-140025308D01*
X157136561Y-140180650D01*
X157104176Y-140242561D01*
X157102625Y-140244139D01*
X153508384Y-143838381D01*
X153447061Y-143871866D01*
X153420703Y-143874700D01*
X134462897Y-143874700D01*
X134395858Y-143855015D01*
X134375216Y-143838381D01*
X130783219Y-140246384D01*
X130749734Y-140185061D01*
X130746900Y-140158703D01*
X130746900Y-140129155D01*
X130746899Y-140129153D01*
X130732423Y-140056377D01*
X130716137Y-139974503D01*
X130696027Y-139925953D01*
X130655797Y-139828827D01*
X130655790Y-139828814D01*
X130568189Y-139697711D01*
X130568186Y-139697707D01*
X130456692Y-139586213D01*
X130456688Y-139586210D01*
X130325585Y-139498609D01*
X130325572Y-139498602D01*
X130179901Y-139438264D01*
X130179889Y-139438261D01*
X130025245Y-139407500D01*
X130025242Y-139407500D01*
X129867558Y-139407500D01*
X129867555Y-139407500D01*
X129712910Y-139438261D01*
X129712898Y-139438264D01*
X129567227Y-139498602D01*
X129567214Y-139498609D01*
X129436111Y-139586210D01*
X129436107Y-139586213D01*
X129324613Y-139697707D01*
X129324610Y-139697711D01*
X129237009Y-139828814D01*
X129237002Y-139828827D01*
X129176664Y-139974498D01*
X129176661Y-139974510D01*
X129145900Y-140129153D01*
X126418005Y-140129153D01*
X126098342Y-139357418D01*
X126096580Y-139352915D01*
X126085242Y-139322183D01*
X125749400Y-138411841D01*
X125747817Y-138407276D01*
X125538075Y-137761758D01*
X125531510Y-137741553D01*
X132041500Y-137741553D01*
X132041500Y-137899243D01*
X132072261Y-138053889D01*
X132072264Y-138053901D01*
X132132602Y-138199572D01*
X132132609Y-138199585D01*
X132220210Y-138330688D01*
X132220213Y-138330692D01*
X132255980Y-138366458D01*
X132289466Y-138427780D01*
X132292300Y-138454140D01*
X132292300Y-139105330D01*
X132292299Y-139105348D01*
X132292299Y-139271054D01*
X132292298Y-139271054D01*
X132333223Y-139423785D01*
X132353620Y-139459112D01*
X132353621Y-139459116D01*
X132412275Y-139560709D01*
X132412281Y-139560717D01*
X132531149Y-139679585D01*
X132531155Y-139679590D01*
X132712739Y-139861174D01*
X132712749Y-139861185D01*
X132717079Y-139865515D01*
X132717080Y-139865516D01*
X132828884Y-139977320D01*
X132899788Y-140018256D01*
X132965815Y-140056377D01*
X133118542Y-140097300D01*
X133118543Y-140097300D01*
X138698931Y-140097300D01*
X138698947Y-140097301D01*
X138706543Y-140097301D01*
X138864654Y-140097301D01*
X138864657Y-140097301D01*
X139017385Y-140056377D01*
X139083412Y-140018256D01*
X139154316Y-139977320D01*
X139205683Y-139925953D01*
X144335100Y-139925953D01*
X144335100Y-140083646D01*
X144365861Y-140238289D01*
X144365864Y-140238301D01*
X144426202Y-140383972D01*
X144426209Y-140383985D01*
X144513810Y-140515088D01*
X144513813Y-140515092D01*
X144625307Y-140626586D01*
X144625311Y-140626589D01*
X144756414Y-140714190D01*
X144756427Y-140714197D01*
X144902098Y-140774535D01*
X144902103Y-140774537D01*
X145056753Y-140805299D01*
X145056756Y-140805300D01*
X145056758Y-140805300D01*
X145214444Y-140805300D01*
X145214445Y-140805299D01*
X145369097Y-140774537D01*
X145481766Y-140727867D01*
X145514772Y-140714197D01*
X145514772Y-140714196D01*
X145514779Y-140714194D01*
X145645889Y-140626589D01*
X145757389Y-140515089D01*
X145844994Y-140383979D01*
X145905337Y-140238297D01*
X145936100Y-140083642D01*
X145936100Y-139925958D01*
X145936100Y-139925955D01*
X145936099Y-139925953D01*
X145926883Y-139879621D01*
X145905337Y-139771303D01*
X145876130Y-139700790D01*
X145844997Y-139625627D01*
X145844990Y-139625614D01*
X145757389Y-139494511D01*
X145757386Y-139494507D01*
X145645892Y-139383013D01*
X145645888Y-139383010D01*
X145514785Y-139295409D01*
X145514772Y-139295402D01*
X145369101Y-139235064D01*
X145369089Y-139235061D01*
X145214445Y-139204300D01*
X145214442Y-139204300D01*
X145056758Y-139204300D01*
X145056755Y-139204300D01*
X144902110Y-139235061D01*
X144902098Y-139235064D01*
X144756427Y-139295402D01*
X144756414Y-139295409D01*
X144625311Y-139383010D01*
X144625307Y-139383013D01*
X144513813Y-139494507D01*
X144513810Y-139494511D01*
X144426209Y-139625614D01*
X144426202Y-139625627D01*
X144365864Y-139771298D01*
X144365861Y-139771310D01*
X144335100Y-139925953D01*
X139205683Y-139925953D01*
X139266120Y-139865516D01*
X139266120Y-139865514D01*
X139276323Y-139855312D01*
X139276327Y-139855306D01*
X139550506Y-139581128D01*
X139550511Y-139581124D01*
X139560714Y-139570920D01*
X139560716Y-139570920D01*
X139672520Y-139459116D01*
X139751577Y-139322184D01*
X139792500Y-139169457D01*
X139792500Y-138272897D01*
X139801144Y-138243457D01*
X139807667Y-138213472D01*
X139811422Y-138208454D01*
X139812185Y-138205858D01*
X139828812Y-138185222D01*
X139860156Y-138153878D01*
X139921475Y-138120395D01*
X139991167Y-138125379D01*
X140016726Y-138138459D01*
X140108214Y-138199590D01*
X140108227Y-138199597D01*
X140223404Y-138247304D01*
X140253903Y-138259937D01*
X140387554Y-138286522D01*
X140408553Y-138290699D01*
X140408556Y-138290700D01*
X140408558Y-138290700D01*
X140566244Y-138290700D01*
X140566245Y-138290699D01*
X140720897Y-138259937D01*
X140866579Y-138199594D01*
X140997689Y-138111989D01*
X141109189Y-138000489D01*
X141196794Y-137869379D01*
X141257137Y-137723697D01*
X141267765Y-137670266D01*
X153271100Y-137670266D01*
X153271100Y-137868933D01*
X153309854Y-138063761D01*
X153309856Y-138063769D01*
X153385877Y-138247301D01*
X153385882Y-138247310D01*
X153496246Y-138412480D01*
X153496249Y-138412484D01*
X153636715Y-138552950D01*
X153636719Y-138552953D01*
X153801889Y-138663317D01*
X153801895Y-138663320D01*
X153801896Y-138663321D01*
X153985431Y-138739344D01*
X154180266Y-138778099D01*
X154180270Y-138778100D01*
X154180271Y-138778100D01*
X154378930Y-138778100D01*
X154378931Y-138778099D01*
X154573769Y-138739344D01*
X154757304Y-138663321D01*
X154922481Y-138552953D01*
X155062953Y-138412481D01*
X155173321Y-138247304D01*
X155249344Y-138063769D01*
X155288100Y-137868929D01*
X155288100Y-137670271D01*
X155249344Y-137475431D01*
X155173321Y-137291896D01*
X155173320Y-137291895D01*
X155173317Y-137291889D01*
X155062953Y-137126719D01*
X155062950Y-137126715D01*
X154922484Y-136986249D01*
X154922480Y-136986246D01*
X154757310Y-136875882D01*
X154757301Y-136875877D01*
X154573769Y-136799856D01*
X154573761Y-136799854D01*
X154378933Y-136761100D01*
X154378929Y-136761100D01*
X154180271Y-136761100D01*
X154180266Y-136761100D01*
X153985438Y-136799854D01*
X153985430Y-136799856D01*
X153801898Y-136875877D01*
X153801889Y-136875882D01*
X153636719Y-136986246D01*
X153636715Y-136986249D01*
X153496249Y-137126715D01*
X153496246Y-137126719D01*
X153385882Y-137291889D01*
X153385877Y-137291898D01*
X153309856Y-137475430D01*
X153309854Y-137475438D01*
X153271100Y-137670266D01*
X141267765Y-137670266D01*
X141275815Y-137629792D01*
X141287900Y-137569044D01*
X141287900Y-137411355D01*
X141287899Y-137411353D01*
X141277631Y-137359735D01*
X141257137Y-137256703D01*
X141233075Y-137198611D01*
X141196797Y-137111027D01*
X141196790Y-137111014D01*
X141109189Y-136979911D01*
X141109186Y-136979907D01*
X140997692Y-136868413D01*
X140997688Y-136868410D01*
X140866585Y-136780809D01*
X140866572Y-136780802D01*
X140720901Y-136720464D01*
X140720889Y-136720461D01*
X140566245Y-136689700D01*
X140566242Y-136689700D01*
X140408558Y-136689700D01*
X140408555Y-136689700D01*
X140253910Y-136720461D01*
X140253898Y-136720464D01*
X140108227Y-136780802D01*
X140108214Y-136780809D01*
X139976525Y-136868802D01*
X139909847Y-136889680D01*
X139907634Y-136889700D01*
X139595539Y-136889700D01*
X139564091Y-136898126D01*
X139564092Y-136898127D01*
X139442814Y-136930623D01*
X139442809Y-136930626D01*
X139305890Y-137009675D01*
X139305882Y-137009681D01*
X138711481Y-137604082D01*
X138711475Y-137604090D01*
X138667683Y-137679942D01*
X138667683Y-137679943D01*
X138632423Y-137741014D01*
X138632423Y-137741015D01*
X138591499Y-137893743D01*
X138591499Y-137893745D01*
X138591499Y-138061846D01*
X138591500Y-138061859D01*
X138591500Y-138772300D01*
X138571815Y-138839339D01*
X138519011Y-138885094D01*
X138467500Y-138896300D01*
X133617300Y-138896300D01*
X133550261Y-138876615D01*
X133504506Y-138823811D01*
X133493300Y-138772300D01*
X133493300Y-138324137D01*
X133512985Y-138257098D01*
X133514198Y-138255246D01*
X133536723Y-138221535D01*
X133551394Y-138199579D01*
X133611737Y-138053897D01*
X133642500Y-137899242D01*
X133642500Y-137741558D01*
X133642500Y-137741555D01*
X133642499Y-137741553D01*
X133622296Y-137639987D01*
X133611737Y-137586903D01*
X133604339Y-137569042D01*
X133551397Y-137441227D01*
X133551390Y-137441214D01*
X133463789Y-137310111D01*
X133463786Y-137310107D01*
X133352292Y-137198613D01*
X133352288Y-137198610D01*
X133221185Y-137111009D01*
X133221172Y-137111002D01*
X133075501Y-137050664D01*
X133075489Y-137050661D01*
X132920845Y-137019900D01*
X132920842Y-137019900D01*
X132763158Y-137019900D01*
X132763155Y-137019900D01*
X132608510Y-137050661D01*
X132608498Y-137050664D01*
X132462827Y-137111002D01*
X132462814Y-137111009D01*
X132331711Y-137198610D01*
X132331707Y-137198613D01*
X132220213Y-137310107D01*
X132220210Y-137310111D01*
X132132609Y-137441214D01*
X132132602Y-137441227D01*
X132072264Y-137586898D01*
X132072261Y-137586910D01*
X132041500Y-137741553D01*
X125531510Y-137741553D01*
X125437853Y-137453305D01*
X125436440Y-137448646D01*
X125344171Y-137121486D01*
X125164170Y-136483251D01*
X125162956Y-136478600D01*
X124928783Y-135503201D01*
X124927745Y-135498464D01*
X124743353Y-134571466D01*
X126499500Y-134571466D01*
X126499500Y-134770133D01*
X126538254Y-134964961D01*
X126538256Y-134964969D01*
X126614277Y-135148501D01*
X126614282Y-135148510D01*
X126724646Y-135313680D01*
X126724649Y-135313684D01*
X126865115Y-135454150D01*
X126865119Y-135454153D01*
X127030289Y-135564517D01*
X127030295Y-135564520D01*
X127030296Y-135564521D01*
X127213831Y-135640544D01*
X127408666Y-135679299D01*
X127408670Y-135679300D01*
X127408671Y-135679300D01*
X127607330Y-135679300D01*
X127607331Y-135679299D01*
X127802169Y-135640544D01*
X127985704Y-135564521D01*
X128150881Y-135454153D01*
X128291353Y-135313681D01*
X128401721Y-135148504D01*
X128477744Y-134964969D01*
X128516500Y-134770129D01*
X128516500Y-134571471D01*
X128477744Y-134376631D01*
X128407009Y-134205863D01*
X128401722Y-134193098D01*
X128401717Y-134193089D01*
X128291353Y-134027919D01*
X128291350Y-134027915D01*
X128150884Y-133887449D01*
X128150880Y-133887446D01*
X127985710Y-133777082D01*
X127985701Y-133777077D01*
X127802169Y-133701056D01*
X127802161Y-133701054D01*
X127607333Y-133662300D01*
X127607329Y-133662300D01*
X127408671Y-133662300D01*
X127408666Y-133662300D01*
X127213838Y-133701054D01*
X127213830Y-133701056D01*
X127030298Y-133777077D01*
X127030289Y-133777082D01*
X126865119Y-133887446D01*
X126865115Y-133887449D01*
X126724649Y-134027915D01*
X126724646Y-134027919D01*
X126614282Y-134193089D01*
X126614277Y-134193098D01*
X126538256Y-134376630D01*
X126538254Y-134376638D01*
X126499500Y-134571466D01*
X124743353Y-134571466D01*
X124732060Y-134514691D01*
X124731208Y-134509918D01*
X124574293Y-133519199D01*
X124573630Y-133514398D01*
X124571604Y-133497284D01*
X124455736Y-132518313D01*
X124455260Y-132513484D01*
X124453439Y-132490340D01*
X124416403Y-132019753D01*
X134520900Y-132019753D01*
X134520900Y-132177446D01*
X134551661Y-132332089D01*
X134551664Y-132332101D01*
X134612002Y-132477772D01*
X134612009Y-132477785D01*
X134699610Y-132608888D01*
X134699613Y-132608892D01*
X134811107Y-132720386D01*
X134811111Y-132720389D01*
X134942214Y-132807990D01*
X134942227Y-132807997D01*
X135087898Y-132868335D01*
X135087903Y-132868337D01*
X135242553Y-132899099D01*
X135242556Y-132899100D01*
X135242558Y-132899100D01*
X135400244Y-132899100D01*
X135400245Y-132899099D01*
X135554897Y-132868337D01*
X135700579Y-132807994D01*
X135831689Y-132720389D01*
X135943189Y-132608889D01*
X136030794Y-132477779D01*
X136031041Y-132477184D01*
X136066673Y-132391158D01*
X136091137Y-132332097D01*
X136121900Y-132177442D01*
X136121900Y-132019758D01*
X136121900Y-132019755D01*
X136121899Y-132019753D01*
X136100231Y-131910821D01*
X136091137Y-131865103D01*
X136064912Y-131801789D01*
X136030797Y-131719427D01*
X136030790Y-131719414D01*
X135943189Y-131588311D01*
X135943186Y-131588307D01*
X135831692Y-131476813D01*
X135831688Y-131476810D01*
X135700585Y-131389209D01*
X135700572Y-131389202D01*
X135554901Y-131328864D01*
X135554889Y-131328861D01*
X135400245Y-131298100D01*
X135400242Y-131298100D01*
X135242558Y-131298100D01*
X135242555Y-131298100D01*
X135087910Y-131328861D01*
X135087898Y-131328864D01*
X134942227Y-131389202D01*
X134942214Y-131389209D01*
X134811111Y-131476810D01*
X134811107Y-131476813D01*
X134699613Y-131588307D01*
X134699610Y-131588311D01*
X134612009Y-131719414D01*
X134612002Y-131719427D01*
X134551664Y-131865098D01*
X134551661Y-131865110D01*
X134520900Y-132019753D01*
X124416403Y-132019753D01*
X124376557Y-131513466D01*
X124376275Y-131508674D01*
X124351227Y-130871153D01*
X124889500Y-130871153D01*
X124889500Y-131028846D01*
X124920261Y-131183489D01*
X124920264Y-131183501D01*
X124980602Y-131329172D01*
X124980609Y-131329185D01*
X125068210Y-131460288D01*
X125068213Y-131460292D01*
X125179707Y-131571786D01*
X125179711Y-131571789D01*
X125310814Y-131659390D01*
X125310827Y-131659397D01*
X125456498Y-131719735D01*
X125456503Y-131719737D01*
X125611153Y-131750499D01*
X125611156Y-131750500D01*
X125611158Y-131750500D01*
X125768844Y-131750500D01*
X125768845Y-131750499D01*
X125923497Y-131719737D01*
X126069179Y-131659394D01*
X126200289Y-131571789D01*
X126311789Y-131460289D01*
X126399394Y-131329179D01*
X126409192Y-131305521D01*
X126436069Y-131265296D01*
X126600213Y-131101153D01*
X128309500Y-131101153D01*
X128309500Y-131258846D01*
X128340261Y-131413489D01*
X128340264Y-131413501D01*
X128400602Y-131559172D01*
X128400609Y-131559185D01*
X128488210Y-131690288D01*
X128488213Y-131690292D01*
X128599707Y-131801786D01*
X128599711Y-131801789D01*
X128730814Y-131889390D01*
X128730827Y-131889397D01*
X128876498Y-131949735D01*
X128876503Y-131949737D01*
X129031153Y-131980499D01*
X129031156Y-131980500D01*
X129031158Y-131980500D01*
X129188844Y-131980500D01*
X129188845Y-131980499D01*
X129343497Y-131949737D01*
X129465734Y-131899105D01*
X129465735Y-131899105D01*
X129477661Y-131894164D01*
X129489179Y-131889394D01*
X129620289Y-131801789D01*
X129731789Y-131690289D01*
X129819394Y-131559179D01*
X129879737Y-131413497D01*
X129910500Y-131258842D01*
X129910500Y-131101158D01*
X129910500Y-131101155D01*
X129910499Y-131101153D01*
X129891847Y-131007384D01*
X129879737Y-130946503D01*
X129864366Y-130909394D01*
X129819397Y-130800827D01*
X129819390Y-130800814D01*
X129731789Y-130669711D01*
X129731786Y-130669707D01*
X129620292Y-130558213D01*
X129620288Y-130558210D01*
X129515463Y-130488168D01*
X129489184Y-130470609D01*
X129489172Y-130470602D01*
X129343501Y-130410264D01*
X129343489Y-130410261D01*
X129247428Y-130391153D01*
X131479500Y-130391153D01*
X131479500Y-130548846D01*
X131510261Y-130703489D01*
X131510264Y-130703501D01*
X131570602Y-130849172D01*
X131570609Y-130849185D01*
X131658210Y-130980288D01*
X131658213Y-130980292D01*
X131769707Y-131091786D01*
X131769711Y-131091789D01*
X131900814Y-131179390D01*
X131900827Y-131179397D01*
X132046498Y-131239735D01*
X132046503Y-131239737D01*
X132174981Y-131265293D01*
X132201153Y-131270499D01*
X132201156Y-131270500D01*
X132201158Y-131270500D01*
X132358844Y-131270500D01*
X132358845Y-131270499D01*
X132513497Y-131239737D01*
X132649264Y-131183501D01*
X132659172Y-131179397D01*
X132659172Y-131179396D01*
X132659179Y-131179394D01*
X132790289Y-131091789D01*
X132901789Y-130980289D01*
X132989394Y-130849179D01*
X133049737Y-130703497D01*
X133080500Y-130548842D01*
X133080500Y-130391158D01*
X133080500Y-130391155D01*
X133080499Y-130391153D01*
X133078181Y-130379500D01*
X133049737Y-130236503D01*
X133001958Y-130121153D01*
X132989397Y-130090827D01*
X132989390Y-130090814D01*
X132901789Y-129959711D01*
X132901786Y-129959707D01*
X132790292Y-129848213D01*
X132790288Y-129848210D01*
X132659185Y-129760609D01*
X132659172Y-129760602D01*
X132513501Y-129700264D01*
X132513489Y-129700261D01*
X132358845Y-129669500D01*
X132358842Y-129669500D01*
X132201158Y-129669500D01*
X132201155Y-129669500D01*
X132046510Y-129700261D01*
X132046498Y-129700264D01*
X131900827Y-129760602D01*
X131900814Y-129760609D01*
X131769711Y-129848210D01*
X131769707Y-129848213D01*
X131658213Y-129959707D01*
X131658210Y-129959711D01*
X131570609Y-130090814D01*
X131570602Y-130090827D01*
X131510264Y-130236498D01*
X131510261Y-130236510D01*
X131479500Y-130391153D01*
X129247428Y-130391153D01*
X129188845Y-130379500D01*
X129188842Y-130379500D01*
X129031158Y-130379500D01*
X129031155Y-130379500D01*
X128876510Y-130410261D01*
X128876498Y-130410264D01*
X128730827Y-130470602D01*
X128730814Y-130470609D01*
X128599711Y-130558210D01*
X128599707Y-130558213D01*
X128488213Y-130669707D01*
X128488210Y-130669711D01*
X128400609Y-130800814D01*
X128400602Y-130800827D01*
X128340264Y-130946498D01*
X128340261Y-130946510D01*
X128309500Y-131101153D01*
X126600213Y-131101153D01*
X126982952Y-130718415D01*
X127022154Y-130659744D01*
X127065084Y-130595495D01*
X127098088Y-130515816D01*
X127098089Y-130515815D01*
X127109540Y-130488168D01*
X127121659Y-130458912D01*
X127150500Y-130313917D01*
X127150500Y-130166082D01*
X127150500Y-129562229D01*
X127170185Y-129495190D01*
X127186819Y-129474548D01*
X127822948Y-128838419D01*
X127822951Y-128838416D01*
X127905084Y-128715495D01*
X127961658Y-128578913D01*
X127974392Y-128514897D01*
X127990500Y-128433920D01*
X127990500Y-128214500D01*
X128010185Y-128147461D01*
X128062989Y-128101706D01*
X128114500Y-128090500D01*
X130043920Y-128090500D01*
X130173077Y-128064808D01*
X130188913Y-128061658D01*
X130294547Y-128017902D01*
X130325488Y-128005087D01*
X130325488Y-128005086D01*
X130325495Y-128005084D01*
X130384578Y-127965606D01*
X130448416Y-127922952D01*
X130687821Y-127683546D01*
X130707256Y-127672933D01*
X130723989Y-127658435D01*
X130737318Y-127656518D01*
X130749141Y-127650063D01*
X130771228Y-127651642D01*
X130793147Y-127648491D01*
X130805398Y-127654086D01*
X130818833Y-127655047D01*
X130836559Y-127668316D01*
X130856703Y-127677516D01*
X130863984Y-127688846D01*
X130874767Y-127696918D01*
X130882505Y-127717666D01*
X130894477Y-127736294D01*
X130897628Y-127758210D01*
X130899184Y-127762382D01*
X130899500Y-127771229D01*
X130899500Y-127820234D01*
X130879815Y-127887273D01*
X130878602Y-127889125D01*
X130790609Y-128020814D01*
X130790602Y-128020827D01*
X130730264Y-128166498D01*
X130730261Y-128166510D01*
X130699500Y-128321153D01*
X130699500Y-128478846D01*
X130730261Y-128633489D01*
X130730264Y-128633501D01*
X130790602Y-128779172D01*
X130790609Y-128779185D01*
X130878210Y-128910288D01*
X130878213Y-128910292D01*
X130989707Y-129021786D01*
X130989711Y-129021789D01*
X131120814Y-129109390D01*
X131120827Y-129109397D01*
X131266498Y-129169735D01*
X131266503Y-129169737D01*
X131421153Y-129200499D01*
X131421156Y-129200500D01*
X131421158Y-129200500D01*
X131578844Y-129200500D01*
X131578845Y-129200499D01*
X131733497Y-129169737D01*
X131879179Y-129109394D01*
X132010289Y-129021789D01*
X132121789Y-128910289D01*
X132209394Y-128779179D01*
X132269737Y-128633497D01*
X132300500Y-128478842D01*
X132300500Y-128321158D01*
X132300500Y-128321155D01*
X132300499Y-128321153D01*
X132290445Y-128270609D01*
X132269737Y-128166503D01*
X132246080Y-128109390D01*
X132209397Y-128020827D01*
X132209390Y-128020814D01*
X132121398Y-127889125D01*
X132115747Y-127871078D01*
X132105523Y-127855169D01*
X132101071Y-127824207D01*
X132100520Y-127822447D01*
X132100500Y-127820234D01*
X132100500Y-127575297D01*
X132120185Y-127508258D01*
X132136819Y-127487616D01*
X132546416Y-127078019D01*
X132607739Y-127044534D01*
X132634097Y-127041700D01*
X135846460Y-127041700D01*
X135913499Y-127061385D01*
X135934141Y-127078019D01*
X135960746Y-127104624D01*
X135994231Y-127165947D01*
X135989247Y-127235639D01*
X135976167Y-127261196D01*
X135912009Y-127357214D01*
X135912006Y-127357220D01*
X135883286Y-127426556D01*
X135839444Y-127480959D01*
X135792918Y-127500719D01*
X135737907Y-127511661D01*
X135737898Y-127511664D01*
X135592227Y-127572002D01*
X135592214Y-127572009D01*
X135461111Y-127659610D01*
X135461107Y-127659613D01*
X135349613Y-127771107D01*
X135349610Y-127771111D01*
X135262009Y-127902214D01*
X135262002Y-127902227D01*
X135201664Y-128047898D01*
X135201661Y-128047910D01*
X135170900Y-128202553D01*
X135170900Y-128360246D01*
X135201661Y-128514889D01*
X135201664Y-128514901D01*
X135262002Y-128660572D01*
X135262009Y-128660585D01*
X135349610Y-128791688D01*
X135349613Y-128791692D01*
X135461107Y-128903186D01*
X135461111Y-128903189D01*
X135592214Y-128990790D01*
X135592227Y-128990797D01*
X135732104Y-129048735D01*
X135737903Y-129051137D01*
X135892553Y-129081899D01*
X135892556Y-129081900D01*
X135892558Y-129081900D01*
X136050244Y-129081900D01*
X136050245Y-129081899D01*
X136204897Y-129051137D01*
X136277285Y-129021153D01*
X138999500Y-129021153D01*
X138999500Y-129178846D01*
X139030261Y-129333489D01*
X139030264Y-129333501D01*
X139090602Y-129479172D01*
X139090609Y-129479185D01*
X139178210Y-129610288D01*
X139178213Y-129610292D01*
X139289707Y-129721786D01*
X139289711Y-129721789D01*
X139420814Y-129809390D01*
X139420827Y-129809397D01*
X139566498Y-129869735D01*
X139566503Y-129869737D01*
X139721153Y-129900499D01*
X139721156Y-129900500D01*
X139721158Y-129900500D01*
X139878844Y-129900500D01*
X139878845Y-129900499D01*
X140033497Y-129869737D01*
X140151592Y-129820821D01*
X140179172Y-129809397D01*
X140179172Y-129809396D01*
X140179179Y-129809394D01*
X140310289Y-129721789D01*
X140421789Y-129610289D01*
X140509394Y-129479179D01*
X140569737Y-129333497D01*
X140600500Y-129178842D01*
X140600500Y-129021158D01*
X140600500Y-129021155D01*
X140580231Y-128919258D01*
X140580231Y-128919257D01*
X140576630Y-128901153D01*
X141519500Y-128901153D01*
X141519500Y-129058846D01*
X141550261Y-129213489D01*
X141550264Y-129213501D01*
X141610602Y-129359172D01*
X141610609Y-129359185D01*
X141698210Y-129490288D01*
X141698213Y-129490292D01*
X141809707Y-129601786D01*
X141809711Y-129601789D01*
X141940814Y-129689390D01*
X141940827Y-129689397D01*
X142086498Y-129749735D01*
X142086503Y-129749737D01*
X142241153Y-129780499D01*
X142241156Y-129780500D01*
X142241158Y-129780500D01*
X142398844Y-129780500D01*
X142398845Y-129780499D01*
X142553497Y-129749737D01*
X142698414Y-129689711D01*
X142699172Y-129689397D01*
X142699172Y-129689396D01*
X142699179Y-129689394D01*
X142830289Y-129601789D01*
X142941789Y-129490289D01*
X143029394Y-129359179D01*
X143089737Y-129213497D01*
X143120500Y-129058842D01*
X143120500Y-128901158D01*
X143120500Y-128901155D01*
X143120499Y-128901153D01*
X143118426Y-128890730D01*
X143089737Y-128746503D01*
X143054149Y-128660585D01*
X143029397Y-128600827D01*
X143029390Y-128600814D01*
X142941789Y-128469711D01*
X142941786Y-128469707D01*
X142830292Y-128358213D01*
X142830288Y-128358210D01*
X142699185Y-128270609D01*
X142699172Y-128270602D01*
X142553501Y-128210264D01*
X142553489Y-128210261D01*
X142398845Y-128179500D01*
X142398842Y-128179500D01*
X142241158Y-128179500D01*
X142241155Y-128179500D01*
X142086510Y-128210261D01*
X142086498Y-128210264D01*
X141940827Y-128270602D01*
X141940814Y-128270609D01*
X141809711Y-128358210D01*
X141809707Y-128358213D01*
X141698213Y-128469707D01*
X141698210Y-128469711D01*
X141610609Y-128600814D01*
X141610602Y-128600827D01*
X141550264Y-128746498D01*
X141550261Y-128746510D01*
X141519500Y-128901153D01*
X140576630Y-128901153D01*
X140569738Y-128866510D01*
X140569737Y-128866503D01*
X140569735Y-128866498D01*
X140509397Y-128720827D01*
X140509390Y-128720814D01*
X140421789Y-128589711D01*
X140421786Y-128589707D01*
X140310292Y-128478213D01*
X140310288Y-128478210D01*
X140179185Y-128390609D01*
X140179172Y-128390602D01*
X140033501Y-128330264D01*
X140033489Y-128330261D01*
X139878845Y-128299500D01*
X139878842Y-128299500D01*
X139721158Y-128299500D01*
X139721155Y-128299500D01*
X139566510Y-128330261D01*
X139566498Y-128330264D01*
X139420827Y-128390602D01*
X139420814Y-128390609D01*
X139289711Y-128478210D01*
X139289707Y-128478213D01*
X139178213Y-128589707D01*
X139178210Y-128589711D01*
X139090609Y-128720814D01*
X139090602Y-128720827D01*
X139030264Y-128866498D01*
X139030261Y-128866510D01*
X138999500Y-129021153D01*
X136277285Y-129021153D01*
X136350579Y-128990794D01*
X136365114Y-128981082D01*
X136468557Y-128911964D01*
X136473967Y-128908348D01*
X136481689Y-128903189D01*
X136593189Y-128791689D01*
X136680794Y-128660579D01*
X136709512Y-128591243D01*
X136753352Y-128536842D01*
X136799880Y-128517080D01*
X136854897Y-128506137D01*
X137000579Y-128445794D01*
X137131689Y-128358189D01*
X137243189Y-128246689D01*
X137330794Y-128115579D01*
X137391137Y-127969897D01*
X137409380Y-127878179D01*
X137441764Y-127816272D01*
X137499252Y-127783535D01*
X137499062Y-127782907D01*
X137501833Y-127782066D01*
X137502480Y-127781698D01*
X137504483Y-127781261D01*
X137504890Y-127781138D01*
X137504897Y-127781137D01*
X137650579Y-127720794D01*
X137781689Y-127633189D01*
X137893189Y-127521689D01*
X137980794Y-127390579D01*
X138041137Y-127244897D01*
X138047739Y-127211709D01*
X138080124Y-127149798D01*
X138140839Y-127115224D01*
X138169356Y-127111900D01*
X147549531Y-127111900D01*
X147549547Y-127111901D01*
X147557143Y-127111901D01*
X147715254Y-127111901D01*
X147715257Y-127111901D01*
X147805970Y-127087594D01*
X147875817Y-127089257D01*
X147933679Y-127128419D01*
X147934203Y-127129058D01*
X147940481Y-127136765D01*
X147957080Y-127165516D01*
X147993849Y-127202285D01*
X147997842Y-127207187D01*
X148009029Y-127233800D01*
X148022866Y-127259140D01*
X148023960Y-127269319D01*
X148024918Y-127271597D01*
X148024476Y-127274119D01*
X148025700Y-127285498D01*
X148025700Y-132251702D01*
X148006015Y-132318741D01*
X147989381Y-132339383D01*
X147056784Y-133271981D01*
X146995461Y-133305466D01*
X146969103Y-133308300D01*
X141902880Y-133308300D01*
X141835841Y-133288615D01*
X141790086Y-133235811D01*
X141780142Y-133166653D01*
X141809167Y-133103097D01*
X141867945Y-133065323D01*
X141878689Y-133062683D01*
X141885363Y-133061354D01*
X141893497Y-133059737D01*
X142039179Y-132999394D01*
X142170289Y-132911789D01*
X142281789Y-132800289D01*
X142369394Y-132669179D01*
X142429737Y-132523497D01*
X142460500Y-132368842D01*
X142460500Y-132211158D01*
X142460500Y-132211155D01*
X142460499Y-132211153D01*
X142446465Y-132140602D01*
X142429737Y-132056503D01*
X142398256Y-131980500D01*
X142369397Y-131910827D01*
X142369390Y-131910814D01*
X142281789Y-131779711D01*
X142281786Y-131779707D01*
X142170292Y-131668213D01*
X142170288Y-131668210D01*
X142039185Y-131580609D01*
X142039172Y-131580602D01*
X141893501Y-131520264D01*
X141893489Y-131520261D01*
X141738845Y-131489500D01*
X141738842Y-131489500D01*
X141581158Y-131489500D01*
X141581155Y-131489500D01*
X141426510Y-131520261D01*
X141426498Y-131520264D01*
X141280827Y-131580602D01*
X141280814Y-131580609D01*
X141149711Y-131668210D01*
X141149707Y-131668213D01*
X141038213Y-131779707D01*
X141038210Y-131779711D01*
X140950609Y-131910814D01*
X140950602Y-131910827D01*
X140890264Y-132056498D01*
X140890261Y-132056510D01*
X140859500Y-132211153D01*
X140859500Y-132368846D01*
X140890261Y-132523489D01*
X140890264Y-132523501D01*
X140950602Y-132669172D01*
X140950609Y-132669185D01*
X141038210Y-132800288D01*
X141038213Y-132800292D01*
X141149707Y-132911786D01*
X141149711Y-132911789D01*
X141280814Y-132999390D01*
X141280827Y-132999397D01*
X141423072Y-133058316D01*
X141426503Y-133059737D01*
X141433123Y-133061053D01*
X141441311Y-133062683D01*
X141503222Y-133095068D01*
X141537796Y-133155783D01*
X141534057Y-133225553D01*
X141493190Y-133282225D01*
X141428172Y-133307806D01*
X141417120Y-133308300D01*
X141404657Y-133308300D01*
X141246542Y-133308300D01*
X141093815Y-133349223D01*
X141093814Y-133349223D01*
X141093812Y-133349224D01*
X141086301Y-133352335D01*
X141085182Y-133349635D01*
X141037939Y-133362300D01*
X140992755Y-133362300D01*
X140838110Y-133393061D01*
X140838098Y-133393064D01*
X140692427Y-133453402D01*
X140692414Y-133453409D01*
X140561311Y-133541010D01*
X140561307Y-133541013D01*
X140449813Y-133652507D01*
X140449810Y-133652511D01*
X140362209Y-133783614D01*
X140362202Y-133783627D01*
X140301864Y-133929298D01*
X140301861Y-133929310D01*
X140271100Y-134083953D01*
X140271100Y-134241646D01*
X140301861Y-134396289D01*
X140301864Y-134396301D01*
X140362202Y-134541972D01*
X140362209Y-134541985D01*
X140449810Y-134673088D01*
X140449813Y-134673092D01*
X140561307Y-134784586D01*
X140561311Y-134784589D01*
X140692414Y-134872190D01*
X140692427Y-134872197D01*
X140838098Y-134932535D01*
X140838103Y-134932537D01*
X140992753Y-134963299D01*
X140992756Y-134963300D01*
X140992758Y-134963300D01*
X141150444Y-134963300D01*
X141150445Y-134963299D01*
X141305097Y-134932537D01*
X141450779Y-134872194D01*
X141581889Y-134784589D01*
X141693389Y-134673089D01*
X141761289Y-134571470D01*
X141766007Y-134564409D01*
X141819619Y-134519604D01*
X141869109Y-134509300D01*
X147182531Y-134509300D01*
X147182547Y-134509301D01*
X147190143Y-134509301D01*
X147348254Y-134509301D01*
X147348257Y-134509301D01*
X147500985Y-134468377D01*
X147575116Y-134425577D01*
X147637916Y-134389320D01*
X147749720Y-134277516D01*
X147749720Y-134277514D01*
X147759921Y-134267314D01*
X147759925Y-134267309D01*
X147851319Y-134175916D01*
X147851318Y-134175916D01*
X149106720Y-132920516D01*
X149185777Y-132783584D01*
X149226701Y-132630857D01*
X149226701Y-132472742D01*
X149226701Y-132465147D01*
X149226700Y-132465129D01*
X149226700Y-132391153D01*
X153039500Y-132391153D01*
X153039500Y-132548846D01*
X153070261Y-132703489D01*
X153070264Y-132703501D01*
X153130602Y-132849172D01*
X153130609Y-132849185D01*
X153218210Y-132980288D01*
X153218213Y-132980292D01*
X153329707Y-133091786D01*
X153329711Y-133091789D01*
X153460814Y-133179390D01*
X153460827Y-133179397D01*
X153606498Y-133239735D01*
X153606503Y-133239737D01*
X153761153Y-133270499D01*
X153761156Y-133270500D01*
X153761158Y-133270500D01*
X153918844Y-133270500D01*
X153918845Y-133270499D01*
X154073497Y-133239737D01*
X154219179Y-133179394D01*
X154350289Y-133091789D01*
X154461789Y-132980289D01*
X154549394Y-132849179D01*
X154609737Y-132703497D01*
X154640500Y-132548842D01*
X154640500Y-132391158D01*
X154640500Y-132391155D01*
X154640499Y-132391153D01*
X154628173Y-132329185D01*
X154609737Y-132236503D01*
X154587783Y-132183501D01*
X154549397Y-132090827D01*
X154549390Y-132090814D01*
X154461789Y-131959711D01*
X154461786Y-131959707D01*
X154350292Y-131848213D01*
X154350288Y-131848210D01*
X154219185Y-131760609D01*
X154219172Y-131760602D01*
X154073501Y-131700264D01*
X154073489Y-131700261D01*
X153918845Y-131669500D01*
X153918842Y-131669500D01*
X153761158Y-131669500D01*
X153761155Y-131669500D01*
X153606510Y-131700261D01*
X153606498Y-131700264D01*
X153460827Y-131760602D01*
X153460814Y-131760609D01*
X153329711Y-131848210D01*
X153329707Y-131848213D01*
X153218213Y-131959707D01*
X153218210Y-131959711D01*
X153130609Y-132090814D01*
X153130602Y-132090827D01*
X153070264Y-132236498D01*
X153070261Y-132236510D01*
X153039500Y-132391153D01*
X149226700Y-132391153D01*
X149226700Y-128307358D01*
X149246385Y-128240319D01*
X149299189Y-128194564D01*
X149368347Y-128184620D01*
X149424118Y-128209194D01*
X149424646Y-128208405D01*
X149429139Y-128211407D01*
X149429370Y-128211509D01*
X149429708Y-128211786D01*
X149429711Y-128211789D01*
X149429714Y-128211791D01*
X149560814Y-128299390D01*
X149560827Y-128299397D01*
X149702766Y-128358189D01*
X149706503Y-128359737D01*
X149861153Y-128390499D01*
X149861156Y-128390500D01*
X149861158Y-128390500D01*
X150018844Y-128390500D01*
X150018845Y-128390499D01*
X150173497Y-128359737D01*
X150319179Y-128299394D01*
X150450289Y-128211789D01*
X150561789Y-128100289D01*
X150649394Y-127969179D01*
X150709737Y-127823497D01*
X150740500Y-127668842D01*
X150740500Y-127511158D01*
X150740500Y-127511153D01*
X150712997Y-127372891D01*
X150709737Y-127356503D01*
X150695097Y-127321158D01*
X150649397Y-127210827D01*
X150649390Y-127210814D01*
X150561789Y-127079711D01*
X150561786Y-127079707D01*
X150450292Y-126968213D01*
X150450288Y-126968210D01*
X150319185Y-126880609D01*
X150319172Y-126880602D01*
X150173501Y-126820264D01*
X150173489Y-126820261D01*
X150018845Y-126789500D01*
X150018842Y-126789500D01*
X149861158Y-126789500D01*
X149861155Y-126789500D01*
X149706510Y-126820261D01*
X149706498Y-126820264D01*
X149560827Y-126880602D01*
X149560814Y-126880609D01*
X149429708Y-126968212D01*
X149425541Y-126971632D01*
X149361229Y-126998940D01*
X149292362Y-126987144D01*
X149240806Y-126939988D01*
X149227108Y-126907867D01*
X149226701Y-126906348D01*
X149226701Y-126906343D01*
X149185777Y-126753616D01*
X149149400Y-126690609D01*
X149106724Y-126616690D01*
X149106721Y-126616686D01*
X149106720Y-126616684D01*
X149074419Y-126584383D01*
X149059715Y-126557455D01*
X149043123Y-126531637D01*
X149042231Y-126525436D01*
X149040934Y-126523060D01*
X149038100Y-126496702D01*
X149038100Y-126289765D01*
X149057785Y-126222726D01*
X149058998Y-126220874D01*
X149118947Y-126131155D01*
X149146994Y-126089179D01*
X149207337Y-125943497D01*
X149238100Y-125788842D01*
X149238100Y-125631158D01*
X149238100Y-125631155D01*
X149238099Y-125631153D01*
X149222055Y-125550497D01*
X149207337Y-125476503D01*
X149201668Y-125462816D01*
X149146997Y-125330827D01*
X149146990Y-125330814D01*
X149058998Y-125199125D01*
X149038120Y-125132447D01*
X149038100Y-125130234D01*
X149038100Y-123701153D01*
X154164500Y-123701153D01*
X154164500Y-123858846D01*
X154195261Y-124013489D01*
X154195264Y-124013501D01*
X154255602Y-124159172D01*
X154255609Y-124159185D01*
X154343210Y-124290288D01*
X154343213Y-124290292D01*
X154454707Y-124401786D01*
X154454711Y-124401789D01*
X154585814Y-124489390D01*
X154585827Y-124489397D01*
X154731498Y-124549735D01*
X154731503Y-124549737D01*
X154827550Y-124568842D01*
X154886153Y-124580499D01*
X154886156Y-124580500D01*
X154886158Y-124580500D01*
X155043844Y-124580500D01*
X155043845Y-124580499D01*
X155198497Y-124549737D01*
X155344179Y-124489394D01*
X155475289Y-124401789D01*
X155586789Y-124290289D01*
X155674394Y-124159179D01*
X155734737Y-124013497D01*
X155765500Y-123858842D01*
X155765500Y-123701158D01*
X155765500Y-123701155D01*
X155765499Y-123701153D01*
X155756983Y-123658340D01*
X155734737Y-123546503D01*
X155707299Y-123480261D01*
X155674397Y-123400827D01*
X155674390Y-123400814D01*
X155586789Y-123269711D01*
X155586786Y-123269707D01*
X155475292Y-123158213D01*
X155475288Y-123158210D01*
X155344185Y-123070609D01*
X155344172Y-123070602D01*
X155198501Y-123010264D01*
X155198489Y-123010261D01*
X155043845Y-122979500D01*
X155043842Y-122979500D01*
X154886158Y-122979500D01*
X154886155Y-122979500D01*
X154731510Y-123010261D01*
X154731498Y-123010264D01*
X154585827Y-123070602D01*
X154585814Y-123070609D01*
X154454711Y-123158210D01*
X154454707Y-123158213D01*
X154343213Y-123269707D01*
X154343210Y-123269711D01*
X154255609Y-123400814D01*
X154255602Y-123400827D01*
X154195264Y-123546498D01*
X154195261Y-123546510D01*
X154164500Y-123701153D01*
X149038100Y-123701153D01*
X149038100Y-123223896D01*
X149057785Y-123156857D01*
X149074415Y-123136219D01*
X149963303Y-122247330D01*
X150024624Y-122213847D01*
X150075171Y-122213396D01*
X150141562Y-122226602D01*
X150161157Y-122230500D01*
X150161158Y-122230500D01*
X150318844Y-122230500D01*
X150318845Y-122230499D01*
X150473497Y-122199737D01*
X150619179Y-122139394D01*
X150673663Y-122102989D01*
X150750875Y-122051398D01*
X150817553Y-122030520D01*
X150819766Y-122030500D01*
X156545500Y-122030500D01*
X156612539Y-122050185D01*
X156658294Y-122102989D01*
X156669500Y-122154500D01*
X156669500Y-123423330D01*
X156669499Y-123423348D01*
X156669499Y-123589054D01*
X156669498Y-123589054D01*
X156710423Y-123741785D01*
X156732835Y-123780602D01*
X156732836Y-123780606D01*
X156732837Y-123780606D01*
X156789479Y-123878714D01*
X156789481Y-123878717D01*
X156908349Y-123997585D01*
X156908355Y-123997590D01*
X157359872Y-124449107D01*
X157393357Y-124510430D01*
X157388373Y-124580122D01*
X157346501Y-124636055D01*
X157296383Y-124658405D01*
X157186508Y-124680261D01*
X157186498Y-124680264D01*
X157040827Y-124740602D01*
X157040814Y-124740609D01*
X156909711Y-124828210D01*
X156909707Y-124828213D01*
X156798213Y-124939707D01*
X156798210Y-124939711D01*
X156710609Y-125070814D01*
X156710602Y-125070827D01*
X156650264Y-125216498D01*
X156650261Y-125216510D01*
X156619500Y-125371153D01*
X156619500Y-125528846D01*
X156650261Y-125683489D01*
X156650264Y-125683501D01*
X156710602Y-125829172D01*
X156710609Y-125829185D01*
X156798210Y-125960288D01*
X156798213Y-125960292D01*
X156909707Y-126071786D01*
X156909711Y-126071789D01*
X157040814Y-126159390D01*
X157040827Y-126159397D01*
X157126632Y-126194938D01*
X157186503Y-126219737D01*
X157338157Y-126249903D01*
X157341153Y-126250499D01*
X157341156Y-126250500D01*
X157341158Y-126250500D01*
X157498838Y-126250500D01*
X157498842Y-126250500D01*
X157501298Y-126250011D01*
X157502613Y-126250128D01*
X157504907Y-126249903D01*
X157504949Y-126250337D01*
X157570887Y-126256231D01*
X157626070Y-126299088D01*
X157649322Y-126364975D01*
X157649500Y-126371626D01*
X157649500Y-128099902D01*
X157629815Y-128166941D01*
X157613181Y-128187583D01*
X157369481Y-128431282D01*
X157369479Y-128431284D01*
X157350092Y-128464864D01*
X157341898Y-128479058D01*
X157290423Y-128568215D01*
X157249499Y-128720943D01*
X157249499Y-128720945D01*
X157249499Y-128889046D01*
X157249500Y-128889059D01*
X157249500Y-131370234D01*
X157229815Y-131437273D01*
X157228602Y-131439125D01*
X157140609Y-131570814D01*
X157140602Y-131570827D01*
X157080264Y-131716498D01*
X157080261Y-131716510D01*
X157049500Y-131871153D01*
X157049500Y-132028846D01*
X157080261Y-132183489D01*
X157080264Y-132183501D01*
X157140602Y-132329172D01*
X157140609Y-132329185D01*
X157228210Y-132460288D01*
X157228213Y-132460292D01*
X157339707Y-132571786D01*
X157339711Y-132571789D01*
X157470814Y-132659390D01*
X157470827Y-132659397D01*
X157616498Y-132719735D01*
X157616503Y-132719737D01*
X157681147Y-132732595D01*
X157771849Y-132750638D01*
X157833760Y-132783023D01*
X157835339Y-132784574D01*
X159129181Y-134078416D01*
X159162666Y-134139739D01*
X159165500Y-134166097D01*
X159165500Y-141889102D01*
X159145815Y-141956141D01*
X159129181Y-141976783D01*
X153813184Y-147292781D01*
X153751861Y-147326266D01*
X153725503Y-147329100D01*
X151404966Y-147329100D01*
X151337927Y-147309415D01*
X151336075Y-147308202D01*
X151204385Y-147220209D01*
X151204372Y-147220202D01*
X151058701Y-147159864D01*
X151058689Y-147159861D01*
X150904045Y-147129100D01*
X150904042Y-147129100D01*
X150746358Y-147129100D01*
X150746355Y-147129100D01*
X150591710Y-147159861D01*
X150591698Y-147159864D01*
X150446027Y-147220202D01*
X150446014Y-147220209D01*
X150314911Y-147307810D01*
X150314907Y-147307813D01*
X150203413Y-147419307D01*
X150203410Y-147419311D01*
X150115809Y-147550414D01*
X150115802Y-147550427D01*
X150055464Y-147696098D01*
X150055461Y-147696110D01*
X150024700Y-147850753D01*
X150024700Y-148008446D01*
X150055461Y-148163089D01*
X150055464Y-148163101D01*
X150115802Y-148308772D01*
X150115809Y-148308785D01*
X150203410Y-148439888D01*
X150203413Y-148439892D01*
X150314907Y-148551386D01*
X150314911Y-148551389D01*
X150446014Y-148638990D01*
X150446027Y-148638997D01*
X150591698Y-148699335D01*
X150591703Y-148699337D01*
X150746353Y-148730099D01*
X150746356Y-148730100D01*
X150746358Y-148730100D01*
X150904044Y-148730100D01*
X150904045Y-148730099D01*
X151058697Y-148699337D01*
X151204379Y-148638994D01*
X151204385Y-148638990D01*
X151336075Y-148550998D01*
X151402753Y-148530120D01*
X151404966Y-148530100D01*
X153938931Y-148530100D01*
X153938947Y-148530101D01*
X153946543Y-148530101D01*
X154104654Y-148530101D01*
X154104657Y-148530101D01*
X154257385Y-148489177D01*
X154307504Y-148460239D01*
X154394316Y-148410120D01*
X154506120Y-148298316D01*
X154506120Y-148298314D01*
X154516328Y-148288107D01*
X154516329Y-148288104D01*
X158282756Y-144521678D01*
X158344077Y-144488195D01*
X158413769Y-144493179D01*
X158469702Y-144535051D01*
X158494119Y-144600515D01*
X158489098Y-144645350D01*
X158488261Y-144648108D01*
X158457500Y-144802753D01*
X158457500Y-144960446D01*
X158488261Y-145115089D01*
X158488264Y-145115101D01*
X158548602Y-145260772D01*
X158548610Y-145260786D01*
X158555002Y-145270353D01*
X158575878Y-145337030D01*
X158557392Y-145404410D01*
X158505412Y-145451099D01*
X158499351Y-145453802D01*
X158370823Y-145507039D01*
X158370814Y-145507044D01*
X158239711Y-145594645D01*
X158239707Y-145594648D01*
X158128213Y-145706142D01*
X158128210Y-145706146D01*
X158040609Y-145837249D01*
X158040602Y-145837262D01*
X157980264Y-145982933D01*
X157980261Y-145982945D01*
X157949500Y-146137588D01*
X157949500Y-146295281D01*
X157980261Y-146449924D01*
X157980264Y-146449936D01*
X158040602Y-146595607D01*
X158040609Y-146595620D01*
X158128210Y-146726723D01*
X158128213Y-146726727D01*
X158239707Y-146838221D01*
X158239711Y-146838224D01*
X158370814Y-146925825D01*
X158370827Y-146925832D01*
X158516498Y-146986170D01*
X158516503Y-146986172D01*
X158671153Y-147016934D01*
X158671156Y-147016935D01*
X158671158Y-147016935D01*
X158828844Y-147016935D01*
X158828845Y-147016934D01*
X158983497Y-146986172D01*
X159129179Y-146925829D01*
X159260289Y-146838224D01*
X159371789Y-146726724D01*
X159459394Y-146595614D01*
X159519737Y-146449932D01*
X159550500Y-146295277D01*
X159550500Y-146137593D01*
X159550500Y-146137590D01*
X159550499Y-146137588D01*
X159519738Y-145982945D01*
X159519737Y-145982938D01*
X159519735Y-145982933D01*
X159459397Y-145837262D01*
X159459391Y-145837251D01*
X159452998Y-145827683D01*
X159432121Y-145761006D01*
X159450606Y-145693625D01*
X159502585Y-145646936D01*
X159508603Y-145644251D01*
X159637179Y-145590994D01*
X159768289Y-145503389D01*
X159879789Y-145391889D01*
X159967394Y-145260779D01*
X160027737Y-145115097D01*
X160058500Y-144960442D01*
X160058500Y-144802758D01*
X160058500Y-144802755D01*
X160058499Y-144802753D01*
X160033404Y-144676594D01*
X160027737Y-144648103D01*
X160026597Y-144645350D01*
X159967397Y-144502427D01*
X159967390Y-144502414D01*
X159879789Y-144371311D01*
X159879786Y-144371307D01*
X159768292Y-144259813D01*
X159768288Y-144259810D01*
X159637185Y-144172209D01*
X159637172Y-144172202D01*
X159491501Y-144111864D01*
X159491489Y-144111861D01*
X159336845Y-144081100D01*
X159336842Y-144081100D01*
X159179158Y-144081100D01*
X159179155Y-144081100D01*
X159024502Y-144111862D01*
X159021755Y-144112696D01*
X159020245Y-144112709D01*
X159018528Y-144113051D01*
X159018463Y-144112725D01*
X158951888Y-144113318D01*
X158892776Y-144076069D01*
X158863186Y-144012774D01*
X158872513Y-143943530D01*
X158898079Y-143906355D01*
X160246520Y-142557916D01*
X160325577Y-142420984D01*
X160366501Y-142268257D01*
X160366501Y-142110142D01*
X160366501Y-142102547D01*
X160366500Y-142102529D01*
X160366500Y-136511153D01*
X163399500Y-136511153D01*
X163399500Y-136668846D01*
X163430261Y-136823489D01*
X163430264Y-136823501D01*
X163490602Y-136969172D01*
X163490609Y-136969185D01*
X163578210Y-137100288D01*
X163578213Y-137100292D01*
X163689707Y-137211786D01*
X163689711Y-137211789D01*
X163820814Y-137299390D01*
X163820827Y-137299397D01*
X163966498Y-137359735D01*
X163966503Y-137359737D01*
X164089431Y-137384189D01*
X164121153Y-137390499D01*
X164121156Y-137390500D01*
X164121158Y-137390500D01*
X164278844Y-137390500D01*
X164278845Y-137390499D01*
X164433497Y-137359737D01*
X164579179Y-137299394D01*
X164710289Y-137211789D01*
X164821789Y-137100289D01*
X164909394Y-136969179D01*
X164969737Y-136823497D01*
X165000500Y-136668842D01*
X165000500Y-136511158D01*
X165000500Y-136511155D01*
X165000499Y-136511153D01*
X164969738Y-136356510D01*
X164969737Y-136356503D01*
X164911432Y-136215741D01*
X164909397Y-136210827D01*
X164909390Y-136210814D01*
X164821789Y-136079711D01*
X164821786Y-136079707D01*
X164710292Y-135968213D01*
X164710288Y-135968210D01*
X164579185Y-135880609D01*
X164579172Y-135880602D01*
X164433501Y-135820264D01*
X164433489Y-135820261D01*
X164278845Y-135789500D01*
X164278842Y-135789500D01*
X164121158Y-135789500D01*
X164121155Y-135789500D01*
X163966510Y-135820261D01*
X163966498Y-135820264D01*
X163820827Y-135880602D01*
X163820814Y-135880609D01*
X163689711Y-135968210D01*
X163689707Y-135968213D01*
X163578213Y-136079707D01*
X163578210Y-136079711D01*
X163490609Y-136210814D01*
X163490602Y-136210827D01*
X163430264Y-136356498D01*
X163430261Y-136356510D01*
X163399500Y-136511153D01*
X160366500Y-136511153D01*
X160366500Y-133786945D01*
X160366500Y-133786943D01*
X160333102Y-133662300D01*
X160325577Y-133634215D01*
X160296639Y-133584095D01*
X160246520Y-133497284D01*
X160134716Y-133385480D01*
X160134715Y-133385479D01*
X160130385Y-133381149D01*
X160130374Y-133381139D01*
X158684574Y-131935339D01*
X158651089Y-131874016D01*
X158650638Y-131871849D01*
X158620380Y-131719735D01*
X158619737Y-131716503D01*
X158613010Y-131700263D01*
X158559397Y-131570827D01*
X158559390Y-131570814D01*
X158471398Y-131439125D01*
X158450520Y-131372447D01*
X158450500Y-131370234D01*
X158450500Y-129100097D01*
X158459145Y-129070653D01*
X158465668Y-129040671D01*
X158469422Y-129035655D01*
X158470185Y-129033058D01*
X158486814Y-129012420D01*
X158608505Y-128890728D01*
X158608510Y-128890725D01*
X158618714Y-128880520D01*
X158618716Y-128880520D01*
X158730520Y-128768716D01*
X158809577Y-128631784D01*
X158850500Y-128479057D01*
X158850500Y-125214500D01*
X158870185Y-125147461D01*
X158922989Y-125101706D01*
X158974500Y-125090500D01*
X160823331Y-125090500D01*
X160823347Y-125090501D01*
X160830943Y-125090501D01*
X160989055Y-125090501D01*
X160989057Y-125090501D01*
X161122572Y-125054724D01*
X161154666Y-125050500D01*
X161163731Y-125050500D01*
X161163747Y-125050501D01*
X161260855Y-125050501D01*
X161327894Y-125070186D01*
X161373649Y-125122990D01*
X161383593Y-125192148D01*
X161382472Y-125198692D01*
X161353100Y-125346353D01*
X161353100Y-125504046D01*
X161383861Y-125658689D01*
X161383864Y-125658701D01*
X161444202Y-125804372D01*
X161444209Y-125804385D01*
X161531810Y-125935488D01*
X161531813Y-125935492D01*
X161643307Y-126046986D01*
X161643311Y-126046989D01*
X161774414Y-126134590D01*
X161774427Y-126134597D01*
X161920098Y-126194935D01*
X161920103Y-126194937D01*
X162059807Y-126222726D01*
X162074753Y-126225699D01*
X162074756Y-126225700D01*
X162074758Y-126225700D01*
X162232444Y-126225700D01*
X162232445Y-126225699D01*
X162387097Y-126194937D01*
X162532779Y-126134594D01*
X162663889Y-126046989D01*
X162775389Y-125935489D01*
X162862994Y-125804379D01*
X162878012Y-125768119D01*
X162921852Y-125713716D01*
X162988146Y-125691650D01*
X163055845Y-125708928D01*
X163080255Y-125727890D01*
X165275981Y-127923616D01*
X165309466Y-127984939D01*
X165312300Y-128011297D01*
X165312300Y-129504259D01*
X165292615Y-129571298D01*
X165275981Y-129591940D01*
X165178213Y-129689707D01*
X165178210Y-129689711D01*
X165090609Y-129820814D01*
X165090602Y-129820827D01*
X165030264Y-129966498D01*
X165030261Y-129966508D01*
X164999362Y-130121848D01*
X164990597Y-130138603D01*
X164986578Y-130157082D01*
X164967832Y-130182123D01*
X164966977Y-130183759D01*
X164965427Y-130185337D01*
X164931605Y-130219158D01*
X164883686Y-130267078D01*
X164883685Y-130267078D01*
X164883684Y-130267079D01*
X164771879Y-130378884D01*
X164753763Y-130410264D01*
X164736762Y-130439711D01*
X164692823Y-130515815D01*
X164651899Y-130668543D01*
X164651899Y-130668545D01*
X164651899Y-130836646D01*
X164651900Y-130836659D01*
X164651900Y-132602930D01*
X164651899Y-132602948D01*
X164651899Y-132768654D01*
X164651898Y-132768654D01*
X164692823Y-132921385D01*
X164721758Y-132971500D01*
X164721759Y-132971504D01*
X164721760Y-132971504D01*
X164771879Y-133058314D01*
X164771881Y-133058317D01*
X164890749Y-133177185D01*
X164890755Y-133177190D01*
X166703825Y-134990260D01*
X166737310Y-135051583D01*
X166737761Y-135053749D01*
X166768661Y-135209091D01*
X166768664Y-135209101D01*
X166829002Y-135354772D01*
X166829009Y-135354785D01*
X166916610Y-135485888D01*
X166916613Y-135485892D01*
X167028107Y-135597386D01*
X167028111Y-135597389D01*
X167159214Y-135684990D01*
X167159227Y-135684997D01*
X167304898Y-135745335D01*
X167304903Y-135745337D01*
X167459553Y-135776099D01*
X167459556Y-135776100D01*
X167459558Y-135776100D01*
X167617244Y-135776100D01*
X167617245Y-135776099D01*
X167771897Y-135745337D01*
X167917579Y-135684994D01*
X167984105Y-135640543D01*
X168049275Y-135596998D01*
X168115953Y-135576120D01*
X168118166Y-135576100D01*
X168887731Y-135576100D01*
X168887747Y-135576101D01*
X168895343Y-135576101D01*
X169053454Y-135576101D01*
X169053457Y-135576101D01*
X169206185Y-135535177D01*
X169256304Y-135506239D01*
X169343116Y-135456120D01*
X169454920Y-135344316D01*
X169454920Y-135344314D01*
X169465128Y-135334107D01*
X169465129Y-135334104D01*
X171114662Y-133684572D01*
X171175983Y-133651089D01*
X171178150Y-133650638D01*
X171236085Y-133639113D01*
X171333497Y-133619737D01*
X171479179Y-133559394D01*
X171610289Y-133471789D01*
X171721789Y-133360289D01*
X171809394Y-133229179D01*
X171869737Y-133083497D01*
X171900500Y-132928842D01*
X171900500Y-132771158D01*
X171900500Y-132771155D01*
X171900499Y-132771153D01*
X171880215Y-132669179D01*
X171869737Y-132616503D01*
X171867267Y-132610539D01*
X171809397Y-132470827D01*
X171809390Y-132470814D01*
X171721789Y-132339711D01*
X171721786Y-132339707D01*
X171610292Y-132228213D01*
X171610288Y-132228210D01*
X171479185Y-132140609D01*
X171479172Y-132140602D01*
X171333501Y-132080264D01*
X171333489Y-132080261D01*
X171178845Y-132049500D01*
X171178842Y-132049500D01*
X171021158Y-132049500D01*
X171021155Y-132049500D01*
X170866510Y-132080261D01*
X170866498Y-132080264D01*
X170720827Y-132140602D01*
X170720814Y-132140609D01*
X170589711Y-132228210D01*
X170589707Y-132228213D01*
X170478213Y-132339707D01*
X170478210Y-132339711D01*
X170390609Y-132470814D01*
X170390602Y-132470827D01*
X170330264Y-132616498D01*
X170330261Y-132616508D01*
X170299361Y-132771850D01*
X170266976Y-132833761D01*
X170265425Y-132835339D01*
X168761984Y-134338781D01*
X168700661Y-134372266D01*
X168674303Y-134375100D01*
X168118166Y-134375100D01*
X168051127Y-134355415D01*
X168049275Y-134354202D01*
X167917585Y-134266209D01*
X167917572Y-134266202D01*
X167771901Y-134205864D01*
X167771891Y-134205861D01*
X167616549Y-134174961D01*
X167554638Y-134142576D01*
X167553060Y-134141025D01*
X165889219Y-132477184D01*
X165855734Y-132415861D01*
X165852900Y-132389503D01*
X165852900Y-131107424D01*
X165872585Y-131040385D01*
X165925389Y-130994630D01*
X165952709Y-130985807D01*
X165969835Y-130982400D01*
X166033497Y-130969737D01*
X166179179Y-130909394D01*
X166310289Y-130821789D01*
X166421789Y-130710289D01*
X166509394Y-130579179D01*
X166512854Y-130570827D01*
X166540552Y-130503956D01*
X166569737Y-130433497D01*
X166600500Y-130278842D01*
X166600500Y-130121158D01*
X166600500Y-130121155D01*
X166600499Y-130121153D01*
X166569739Y-129966511D01*
X166569736Y-129966501D01*
X166522739Y-129853038D01*
X166513300Y-129805586D01*
X166513300Y-128596153D01*
X169599500Y-128596153D01*
X169599500Y-128753846D01*
X169630261Y-128908489D01*
X169630264Y-128908501D01*
X169690602Y-129054172D01*
X169690609Y-129054185D01*
X169778210Y-129185288D01*
X169778213Y-129185292D01*
X169889707Y-129296786D01*
X169889711Y-129296789D01*
X170020814Y-129384390D01*
X170020827Y-129384397D01*
X170166498Y-129444735D01*
X170166503Y-129444737D01*
X170316372Y-129474548D01*
X170321153Y-129475499D01*
X170321156Y-129475500D01*
X170321158Y-129475500D01*
X170478844Y-129475500D01*
X170478845Y-129475499D01*
X170633497Y-129444737D01*
X170779179Y-129384394D01*
X170910289Y-129296789D01*
X171021789Y-129185289D01*
X171078713Y-129100097D01*
X171111495Y-129051035D01*
X171165107Y-129006229D01*
X171190399Y-128998309D01*
X171233497Y-128989737D01*
X171379179Y-128929394D01*
X171510289Y-128841789D01*
X171621789Y-128730289D01*
X171670688Y-128657105D01*
X171724297Y-128612304D01*
X171749584Y-128604384D01*
X171873497Y-128579737D01*
X172019179Y-128519394D01*
X172150289Y-128431789D01*
X172261789Y-128320289D01*
X172284645Y-128286083D01*
X172306088Y-128253992D01*
X172359700Y-128209186D01*
X172384999Y-128201265D01*
X172463108Y-128185727D01*
X172543497Y-128169737D01*
X172658583Y-128122067D01*
X172689172Y-128109397D01*
X172689172Y-128109396D01*
X172689179Y-128109394D01*
X172820289Y-128021789D01*
X172931789Y-127910289D01*
X173019394Y-127779179D01*
X173026352Y-127762382D01*
X173065096Y-127668844D01*
X173079737Y-127633497D01*
X173110500Y-127478842D01*
X173110500Y-127321158D01*
X173110500Y-127321155D01*
X173110499Y-127321153D01*
X173100642Y-127271597D01*
X173079737Y-127166503D01*
X173058497Y-127115224D01*
X173019397Y-127020827D01*
X173019390Y-127020814D01*
X172931789Y-126889711D01*
X172931786Y-126889707D01*
X172820292Y-126778213D01*
X172820288Y-126778210D01*
X172689185Y-126690609D01*
X172689172Y-126690602D01*
X172543501Y-126630264D01*
X172543489Y-126630261D01*
X172388845Y-126599500D01*
X172388842Y-126599500D01*
X172231158Y-126599500D01*
X172231155Y-126599500D01*
X172076510Y-126630261D01*
X172076498Y-126630264D01*
X171930827Y-126690602D01*
X171930814Y-126690609D01*
X171799711Y-126778210D01*
X171799707Y-126778213D01*
X171688213Y-126889707D01*
X171688208Y-126889713D01*
X171643910Y-126956009D01*
X171590297Y-127000814D01*
X171565001Y-127008734D01*
X171406508Y-127040261D01*
X171406498Y-127040264D01*
X171260827Y-127100602D01*
X171260814Y-127100609D01*
X171129711Y-127188210D01*
X171129707Y-127188213D01*
X171018213Y-127299707D01*
X171018210Y-127299711D01*
X170969313Y-127372891D01*
X170915701Y-127417696D01*
X170890403Y-127425617D01*
X170766508Y-127450261D01*
X170766498Y-127450264D01*
X170620827Y-127510602D01*
X170620814Y-127510609D01*
X170489711Y-127598210D01*
X170489707Y-127598213D01*
X170378213Y-127709707D01*
X170378210Y-127709711D01*
X170288505Y-127843964D01*
X170234893Y-127888769D01*
X170209597Y-127896690D01*
X170166505Y-127905262D01*
X170166500Y-127905263D01*
X170020827Y-127965602D01*
X170020814Y-127965609D01*
X169889711Y-128053210D01*
X169889707Y-128053213D01*
X169778213Y-128164707D01*
X169778210Y-128164711D01*
X169690609Y-128295814D01*
X169690602Y-128295827D01*
X169630264Y-128441498D01*
X169630261Y-128441510D01*
X169599500Y-128596153D01*
X166513300Y-128596153D01*
X166513300Y-127632145D01*
X166513300Y-127632143D01*
X166480882Y-127511158D01*
X166472377Y-127479415D01*
X166426674Y-127400256D01*
X166393320Y-127342484D01*
X166281516Y-127230680D01*
X166281515Y-127230679D01*
X166277185Y-127226349D01*
X166277174Y-127226339D01*
X165181988Y-126131153D01*
X169369500Y-126131153D01*
X169369500Y-126288846D01*
X169400261Y-126443489D01*
X169400264Y-126443501D01*
X169460602Y-126589172D01*
X169460609Y-126589185D01*
X169548210Y-126720288D01*
X169548213Y-126720292D01*
X169659707Y-126831786D01*
X169659711Y-126831789D01*
X169790814Y-126919390D01*
X169790827Y-126919397D01*
X169936498Y-126979735D01*
X169936503Y-126979737D01*
X170042464Y-127000814D01*
X170091153Y-127010499D01*
X170091156Y-127010500D01*
X170091158Y-127010500D01*
X170248844Y-127010500D01*
X170248845Y-127010499D01*
X170403497Y-126979737D01*
X170549179Y-126919394D01*
X170680289Y-126831789D01*
X170791789Y-126720289D01*
X170879394Y-126589179D01*
X170939737Y-126443497D01*
X170970500Y-126288842D01*
X170970500Y-126131158D01*
X170970500Y-126131155D01*
X170970499Y-126131153D01*
X170962148Y-126089172D01*
X170939737Y-125976503D01*
X170912465Y-125910661D01*
X170879397Y-125830827D01*
X170879390Y-125830814D01*
X170791789Y-125699711D01*
X170791786Y-125699707D01*
X170680292Y-125588213D01*
X170680288Y-125588210D01*
X170549185Y-125500609D01*
X170549172Y-125500602D01*
X170403501Y-125440264D01*
X170403489Y-125440261D01*
X170248845Y-125409500D01*
X170248842Y-125409500D01*
X170091158Y-125409500D01*
X170091155Y-125409500D01*
X169936510Y-125440261D01*
X169936498Y-125440264D01*
X169790827Y-125500602D01*
X169790814Y-125500609D01*
X169659711Y-125588210D01*
X169659707Y-125588213D01*
X169548213Y-125699707D01*
X169548210Y-125699711D01*
X169460609Y-125830814D01*
X169460602Y-125830827D01*
X169400264Y-125976498D01*
X169400261Y-125976510D01*
X169369500Y-126131153D01*
X165181988Y-126131153D01*
X163200181Y-124149346D01*
X163192921Y-124142086D01*
X163192920Y-124142084D01*
X163081116Y-124030280D01*
X163078452Y-124028741D01*
X163070619Y-124020981D01*
X163070567Y-124020887D01*
X163070211Y-124020575D01*
X162784973Y-123735337D01*
X162751488Y-123674014D01*
X162751037Y-123671847D01*
X162734568Y-123589054D01*
X162720137Y-123516503D01*
X162720135Y-123516498D01*
X162659797Y-123370827D01*
X162659790Y-123370814D01*
X162572189Y-123239711D01*
X162572186Y-123239707D01*
X162460692Y-123128213D01*
X162460688Y-123128210D01*
X162329585Y-123040609D01*
X162329572Y-123040602D01*
X162183901Y-122980264D01*
X162183889Y-122980261D01*
X162029245Y-122949500D01*
X162029242Y-122949500D01*
X161871558Y-122949500D01*
X161871557Y-122949500D01*
X161845311Y-122954720D01*
X161775720Y-122948491D01*
X161720544Y-122905626D01*
X161706564Y-122880559D01*
X161669394Y-122790821D01*
X161669390Y-122790814D01*
X161581789Y-122659711D01*
X161581786Y-122659707D01*
X161470292Y-122548213D01*
X161470288Y-122548210D01*
X161339185Y-122460609D01*
X161339172Y-122460602D01*
X161193501Y-122400264D01*
X161193489Y-122400261D01*
X161038845Y-122369500D01*
X161038842Y-122369500D01*
X160881158Y-122369500D01*
X160881155Y-122369500D01*
X160726510Y-122400261D01*
X160726498Y-122400264D01*
X160580827Y-122460602D01*
X160580814Y-122460609D01*
X160449711Y-122548210D01*
X160449707Y-122548213D01*
X160338213Y-122659707D01*
X160338210Y-122659711D01*
X160250609Y-122790814D01*
X160250602Y-122790827D01*
X160190264Y-122936498D01*
X160190261Y-122936510D01*
X160159500Y-123091153D01*
X160159500Y-123248846D01*
X160190261Y-123403489D01*
X160190264Y-123403501D01*
X160250602Y-123549172D01*
X160250609Y-123549185D01*
X160338210Y-123680288D01*
X160342076Y-123684999D01*
X160340408Y-123686367D01*
X160369225Y-123739142D01*
X160364241Y-123808834D01*
X160322369Y-123864767D01*
X160256905Y-123889184D01*
X160248059Y-123889500D01*
X158829766Y-123889500D01*
X158762727Y-123869815D01*
X158760875Y-123868602D01*
X158629185Y-123780609D01*
X158629172Y-123780602D01*
X158483501Y-123720264D01*
X158483491Y-123720261D01*
X158328149Y-123689361D01*
X158266238Y-123656976D01*
X158264660Y-123655425D01*
X157906819Y-123297584D01*
X157873334Y-123236261D01*
X157870500Y-123209903D01*
X157870500Y-121429765D01*
X157890185Y-121362726D01*
X157891398Y-121360874D01*
X157920449Y-121317397D01*
X157979394Y-121229179D01*
X158039737Y-121083497D01*
X158070500Y-120928842D01*
X158070500Y-120771158D01*
X158070500Y-120771155D01*
X158070499Y-120771153D01*
X158067686Y-120757011D01*
X158039737Y-120616503D01*
X158031007Y-120595426D01*
X158020693Y-120570525D01*
X158003559Y-120529160D01*
X159787507Y-120529160D01*
X159787507Y-120686853D01*
X159818268Y-120841496D01*
X159818271Y-120841508D01*
X159878609Y-120987179D01*
X159878616Y-120987192D01*
X159966217Y-121118295D01*
X159966220Y-121118299D01*
X160077714Y-121229793D01*
X160077718Y-121229796D01*
X160208821Y-121317397D01*
X160208834Y-121317404D01*
X160318253Y-121362726D01*
X160354510Y-121377744D01*
X160509160Y-121408506D01*
X160509163Y-121408507D01*
X160509165Y-121408507D01*
X160666851Y-121408507D01*
X160666852Y-121408506D01*
X160821504Y-121377744D01*
X160967186Y-121317401D01*
X161098296Y-121229796D01*
X161209796Y-121118296D01*
X161297401Y-120987186D01*
X161357744Y-120841504D01*
X161388507Y-120686849D01*
X161388507Y-120529165D01*
X161388507Y-120529162D01*
X161388506Y-120529160D01*
X161376903Y-120470827D01*
X161357744Y-120374510D01*
X161333054Y-120314902D01*
X161297404Y-120228834D01*
X161297397Y-120228821D01*
X161209796Y-120097718D01*
X161209793Y-120097714D01*
X161098299Y-119986220D01*
X161098295Y-119986217D01*
X160967192Y-119898616D01*
X160967179Y-119898609D01*
X160821508Y-119838271D01*
X160821496Y-119838268D01*
X160666852Y-119807507D01*
X160666849Y-119807507D01*
X160509165Y-119807507D01*
X160509162Y-119807507D01*
X160354517Y-119838268D01*
X160354505Y-119838271D01*
X160208834Y-119898609D01*
X160208821Y-119898616D01*
X160077718Y-119986217D01*
X160077714Y-119986220D01*
X159966220Y-120097714D01*
X159966217Y-120097718D01*
X159878616Y-120228821D01*
X159878609Y-120228834D01*
X159818271Y-120374505D01*
X159818268Y-120374517D01*
X159787507Y-120529160D01*
X158003559Y-120529160D01*
X157979397Y-120470827D01*
X157979390Y-120470814D01*
X157891789Y-120339711D01*
X157891786Y-120339707D01*
X157780292Y-120228213D01*
X157780288Y-120228210D01*
X157649185Y-120140609D01*
X157649172Y-120140602D01*
X157503501Y-120080264D01*
X157503489Y-120080261D01*
X157348845Y-120049500D01*
X157348842Y-120049500D01*
X157191158Y-120049500D01*
X157191155Y-120049500D01*
X157036510Y-120080261D01*
X157036498Y-120080264D01*
X156890827Y-120140602D01*
X156890814Y-120140609D01*
X156759711Y-120228210D01*
X156759707Y-120228213D01*
X156648213Y-120339707D01*
X156648210Y-120339711D01*
X156560609Y-120470814D01*
X156560602Y-120470827D01*
X156500264Y-120616498D01*
X156500261Y-120616510D01*
X156477748Y-120729691D01*
X156463037Y-120757814D01*
X156449844Y-120786703D01*
X156446954Y-120788560D01*
X156445363Y-120791602D01*
X156417780Y-120807308D01*
X156391066Y-120824477D01*
X156386471Y-120825137D01*
X156384648Y-120826176D01*
X156356131Y-120829500D01*
X156203826Y-120829500D01*
X156136787Y-120809815D01*
X156091032Y-120757011D01*
X156081088Y-120687853D01*
X156085168Y-120669497D01*
X156085787Y-120667451D01*
X156085791Y-120667444D01*
X156116554Y-120512789D01*
X156116554Y-120355105D01*
X156116554Y-120355102D01*
X156116553Y-120355100D01*
X156102940Y-120286663D01*
X156085791Y-120200450D01*
X156061003Y-120140606D01*
X156025451Y-120054774D01*
X156025444Y-120054761D01*
X155937843Y-119923658D01*
X155937840Y-119923654D01*
X155826346Y-119812160D01*
X155826342Y-119812157D01*
X155695239Y-119724556D01*
X155695226Y-119724549D01*
X155549555Y-119664211D01*
X155549543Y-119664208D01*
X155394899Y-119633447D01*
X155394896Y-119633447D01*
X155237212Y-119633447D01*
X155237209Y-119633447D01*
X155082564Y-119664208D01*
X155082552Y-119664211D01*
X154936881Y-119724549D01*
X154936868Y-119724556D01*
X154805765Y-119812157D01*
X154805761Y-119812160D01*
X154694267Y-119923654D01*
X154694264Y-119923658D01*
X154606663Y-120054761D01*
X154606656Y-120054774D01*
X154546318Y-120200445D01*
X154546315Y-120200457D01*
X154515554Y-120355100D01*
X154515554Y-120512793D01*
X154546315Y-120667438D01*
X154546940Y-120669497D01*
X154546950Y-120670629D01*
X154547505Y-120673419D01*
X154546976Y-120673524D01*
X154547569Y-120739363D01*
X154510324Y-120798479D01*
X154447032Y-120828074D01*
X154428282Y-120829500D01*
X150819766Y-120829500D01*
X150752727Y-120809815D01*
X150750875Y-120808602D01*
X150619185Y-120720609D01*
X150619172Y-120720602D01*
X150473501Y-120660264D01*
X150473491Y-120660261D01*
X150318151Y-120629362D01*
X150256241Y-120596977D01*
X150254662Y-120595426D01*
X149988819Y-120329583D01*
X149955334Y-120268260D01*
X149952500Y-120241902D01*
X149952500Y-119251153D01*
X161529500Y-119251153D01*
X161529500Y-119408846D01*
X161560261Y-119563489D01*
X161560264Y-119563501D01*
X161620602Y-119709172D01*
X161620609Y-119709185D01*
X161708207Y-119840284D01*
X161708213Y-119840292D01*
X161819707Y-119951786D01*
X161819711Y-119951789D01*
X161950814Y-120039390D01*
X161950826Y-120039397D01*
X162059621Y-120084460D01*
X162114025Y-120128300D01*
X162136090Y-120194594D01*
X162133786Y-120223212D01*
X162115100Y-120317153D01*
X162115100Y-120474846D01*
X162145861Y-120629489D01*
X162145864Y-120629501D01*
X162206202Y-120775172D01*
X162206209Y-120775185D01*
X162293810Y-120906288D01*
X162293813Y-120906292D01*
X162405307Y-121017786D01*
X162405311Y-121017789D01*
X162536414Y-121105390D01*
X162536427Y-121105397D01*
X162653494Y-121153887D01*
X162682103Y-121165737D01*
X162836758Y-121196500D01*
X162837447Y-121196637D01*
X162899358Y-121229022D01*
X162900937Y-121230573D01*
X163207284Y-121536920D01*
X163207286Y-121536921D01*
X163207290Y-121536924D01*
X163344209Y-121615973D01*
X163344216Y-121615977D01*
X163496943Y-121656901D01*
X163496945Y-121656901D01*
X163662654Y-121656901D01*
X163662670Y-121656900D01*
X171479834Y-121656900D01*
X171546873Y-121676585D01*
X171548725Y-121677798D01*
X171680414Y-121765790D01*
X171680427Y-121765797D01*
X171826098Y-121826135D01*
X171826103Y-121826137D01*
X171980753Y-121856899D01*
X171980756Y-121856900D01*
X171980758Y-121856900D01*
X172138444Y-121856900D01*
X172138445Y-121856899D01*
X172293097Y-121826137D01*
X172438779Y-121765794D01*
X172569889Y-121678189D01*
X172681389Y-121566689D01*
X172768994Y-121435579D01*
X172829337Y-121289897D01*
X172860100Y-121135242D01*
X172860100Y-120977558D01*
X172860100Y-120977555D01*
X172860099Y-120977553D01*
X172855570Y-120954785D01*
X172829337Y-120822903D01*
X172823413Y-120808602D01*
X172768997Y-120677227D01*
X172768990Y-120677214D01*
X172681389Y-120546111D01*
X172681386Y-120546107D01*
X172569892Y-120434613D01*
X172569888Y-120434610D01*
X172438785Y-120347009D01*
X172438772Y-120347002D01*
X172293101Y-120286664D01*
X172293089Y-120286661D01*
X172138445Y-120255900D01*
X172138442Y-120255900D01*
X171980758Y-120255900D01*
X171980755Y-120255900D01*
X171826110Y-120286661D01*
X171826098Y-120286664D01*
X171680427Y-120347002D01*
X171680414Y-120347009D01*
X171548725Y-120435002D01*
X171482047Y-120455880D01*
X171479834Y-120455900D01*
X165135947Y-120455900D01*
X165068908Y-120436215D01*
X165023153Y-120383411D01*
X165014330Y-120356094D01*
X165006137Y-120314903D01*
X164975899Y-120241902D01*
X164945797Y-120169227D01*
X164945790Y-120169214D01*
X164858189Y-120038111D01*
X164858186Y-120038107D01*
X164746692Y-119926613D01*
X164746688Y-119926610D01*
X164615585Y-119839009D01*
X164615572Y-119839002D01*
X164469894Y-119778661D01*
X164466949Y-119777768D01*
X164465596Y-119776881D01*
X164464270Y-119776332D01*
X164464374Y-119776080D01*
X164408513Y-119739467D01*
X164380060Y-119675653D01*
X164381335Y-119634918D01*
X164390500Y-119588844D01*
X164390500Y-119431155D01*
X164390499Y-119431153D01*
X164359738Y-119276510D01*
X164359737Y-119276503D01*
X164347286Y-119246443D01*
X164299397Y-119130827D01*
X164299390Y-119130814D01*
X164211789Y-118999711D01*
X164211786Y-118999707D01*
X164100292Y-118888213D01*
X164100288Y-118888210D01*
X164005609Y-118824947D01*
X164002496Y-118821223D01*
X163997989Y-118819426D01*
X163980313Y-118794678D01*
X163960804Y-118771335D01*
X163959423Y-118765431D01*
X163957379Y-118762570D01*
X163953807Y-118741426D01*
X163950649Y-118727924D01*
X163950500Y-118724888D01*
X163950500Y-118631158D01*
X163944392Y-118600454D01*
X163943944Y-118591315D01*
X163950073Y-118565887D01*
X163952405Y-118539836D01*
X163958131Y-118532464D01*
X163960319Y-118523391D01*
X163979222Y-118505313D01*
X163995268Y-118484659D01*
X164004068Y-118481554D01*
X164010816Y-118475102D01*
X164036493Y-118470114D01*
X164061157Y-118461414D01*
X164070241Y-118463560D01*
X164079404Y-118461781D01*
X164103701Y-118471467D01*
X164129154Y-118477482D01*
X164140509Y-118486141D01*
X164144306Y-118487655D01*
X164146473Y-118490689D01*
X164155476Y-118497555D01*
X164159707Y-118501786D01*
X164159711Y-118501789D01*
X164290814Y-118589390D01*
X164290827Y-118589397D01*
X164436498Y-118649735D01*
X164436503Y-118649737D01*
X164591153Y-118680499D01*
X164591156Y-118680500D01*
X164591158Y-118680500D01*
X164748844Y-118680500D01*
X164748845Y-118680499D01*
X164903497Y-118649737D01*
X165049179Y-118589394D01*
X165180289Y-118501789D01*
X165291789Y-118390289D01*
X165379394Y-118259179D01*
X165439737Y-118113497D01*
X165470500Y-117958842D01*
X165470500Y-117951153D01*
X166549500Y-117951153D01*
X166549500Y-118108846D01*
X166580261Y-118263489D01*
X166580264Y-118263501D01*
X166640602Y-118409172D01*
X166640609Y-118409185D01*
X166728210Y-118540288D01*
X166728213Y-118540292D01*
X166839707Y-118651786D01*
X166839711Y-118651789D01*
X166970814Y-118739390D01*
X166970827Y-118739397D01*
X167113017Y-118798293D01*
X167116503Y-118799737D01*
X167271153Y-118830499D01*
X167271156Y-118830500D01*
X167271158Y-118830500D01*
X167428844Y-118830500D01*
X167428845Y-118830499D01*
X167583497Y-118799737D01*
X167729179Y-118739394D01*
X167860289Y-118651789D01*
X167971789Y-118540289D01*
X168059394Y-118409179D01*
X168119737Y-118263497D01*
X168136499Y-118179229D01*
X168168882Y-118117322D01*
X168229597Y-118082747D01*
X168299367Y-118086486D01*
X168345796Y-118115742D01*
X168415327Y-118185273D01*
X168415331Y-118185276D01*
X168521866Y-118256461D01*
X168521875Y-118256466D01*
X168528944Y-118259394D01*
X168640256Y-118305501D01*
X168640260Y-118305501D01*
X168640261Y-118305502D01*
X168765928Y-118330500D01*
X168765931Y-118330500D01*
X168894071Y-118330500D01*
X168978615Y-118313682D01*
X169019744Y-118305501D01*
X169138127Y-118256465D01*
X169244669Y-118185276D01*
X169335276Y-118094669D01*
X169406465Y-117988127D01*
X169455501Y-117869744D01*
X169479020Y-117751510D01*
X169480500Y-117744071D01*
X169480500Y-117615928D01*
X169455502Y-117490261D01*
X169455501Y-117490260D01*
X169455501Y-117490256D01*
X169406465Y-117371873D01*
X169406464Y-117371872D01*
X169406461Y-117371866D01*
X169335276Y-117265331D01*
X169335273Y-117265327D01*
X169244672Y-117174726D01*
X169244668Y-117174723D01*
X169138133Y-117103538D01*
X169138124Y-117103533D01*
X169019744Y-117054499D01*
X169019738Y-117054497D01*
X168894071Y-117029500D01*
X168894069Y-117029500D01*
X168765931Y-117029500D01*
X168765929Y-117029500D01*
X168640261Y-117054497D01*
X168640255Y-117054499D01*
X168521875Y-117103533D01*
X168521866Y-117103538D01*
X168415331Y-117174723D01*
X168415327Y-117174726D01*
X168324726Y-117265327D01*
X168324723Y-117265331D01*
X168253538Y-117371866D01*
X168253533Y-117371875D01*
X168204499Y-117490255D01*
X168202730Y-117496088D01*
X168200917Y-117495538D01*
X168172609Y-117549643D01*
X168111890Y-117584211D01*
X168042121Y-117580465D01*
X167985453Y-117539593D01*
X167980282Y-117532422D01*
X167971787Y-117519708D01*
X167860292Y-117408213D01*
X167860288Y-117408210D01*
X167729185Y-117320609D01*
X167729172Y-117320602D01*
X167583501Y-117260264D01*
X167583489Y-117260261D01*
X167428845Y-117229500D01*
X167428842Y-117229500D01*
X167271158Y-117229500D01*
X167271155Y-117229500D01*
X167116510Y-117260261D01*
X167116498Y-117260264D01*
X166970827Y-117320602D01*
X166970814Y-117320609D01*
X166839711Y-117408210D01*
X166839707Y-117408213D01*
X166728213Y-117519707D01*
X166728210Y-117519711D01*
X166640609Y-117650814D01*
X166640602Y-117650827D01*
X166580264Y-117796498D01*
X166580261Y-117796510D01*
X166549500Y-117951153D01*
X165470500Y-117951153D01*
X165470500Y-117801158D01*
X165470500Y-117801155D01*
X165443170Y-117663763D01*
X165449397Y-117594171D01*
X165461685Y-117570681D01*
X165479394Y-117544179D01*
X165539737Y-117398497D01*
X165570500Y-117243842D01*
X165570500Y-117183869D01*
X165590185Y-117116830D01*
X165642989Y-117071075D01*
X165670309Y-117062252D01*
X165712757Y-117053808D01*
X165783497Y-117039737D01*
X165929179Y-116979394D01*
X166060289Y-116891789D01*
X166171789Y-116780289D01*
X166259394Y-116649179D01*
X166319737Y-116503497D01*
X166350500Y-116348842D01*
X166350500Y-116191158D01*
X166350500Y-116191155D01*
X166350499Y-116191153D01*
X166340445Y-116140609D01*
X166319737Y-116036503D01*
X166317085Y-116030101D01*
X166259397Y-115890827D01*
X166259390Y-115890814D01*
X166171789Y-115759711D01*
X166171786Y-115759707D01*
X166060292Y-115648213D01*
X166060288Y-115648210D01*
X165929185Y-115560609D01*
X165929172Y-115560602D01*
X165783501Y-115500264D01*
X165783489Y-115500261D01*
X165628845Y-115469500D01*
X165628842Y-115469500D01*
X165471158Y-115469500D01*
X165471155Y-115469500D01*
X165316510Y-115500261D01*
X165316498Y-115500264D01*
X165170827Y-115560602D01*
X165170814Y-115560609D01*
X165039711Y-115648210D01*
X165039707Y-115648213D01*
X164928213Y-115759707D01*
X164928210Y-115759711D01*
X164840609Y-115890814D01*
X164840602Y-115890827D01*
X164780264Y-116036498D01*
X164780261Y-116036510D01*
X164749500Y-116191153D01*
X164749500Y-116251130D01*
X164729815Y-116318169D01*
X164677011Y-116363924D01*
X164649692Y-116372747D01*
X164536508Y-116395261D01*
X164536498Y-116395264D01*
X164390827Y-116455602D01*
X164390814Y-116455609D01*
X164259711Y-116543210D01*
X164259707Y-116543213D01*
X164148213Y-116654707D01*
X164148210Y-116654711D01*
X164060609Y-116785814D01*
X164060602Y-116785827D01*
X164000264Y-116931498D01*
X164000261Y-116931510D01*
X163969500Y-117086153D01*
X163969500Y-117243846D01*
X163989961Y-117346712D01*
X163983734Y-117416304D01*
X163940870Y-117471481D01*
X163874981Y-117494725D01*
X163806984Y-117478657D01*
X163780663Y-117458584D01*
X163685292Y-117363213D01*
X163685288Y-117363210D01*
X163554185Y-117275609D01*
X163554172Y-117275602D01*
X163408501Y-117215264D01*
X163408489Y-117215261D01*
X163253845Y-117184500D01*
X163253842Y-117184500D01*
X163096158Y-117184500D01*
X163096155Y-117184500D01*
X162941510Y-117215261D01*
X162941498Y-117215264D01*
X162795827Y-117275602D01*
X162795814Y-117275609D01*
X162664711Y-117363210D01*
X162664707Y-117363213D01*
X162553213Y-117474707D01*
X162553210Y-117474711D01*
X162465609Y-117605814D01*
X162465602Y-117605827D01*
X162405264Y-117751498D01*
X162405261Y-117751510D01*
X162374500Y-117906153D01*
X162374500Y-118063846D01*
X162405260Y-118218488D01*
X162405263Y-118218498D01*
X162426542Y-118269870D01*
X162429821Y-118300372D01*
X162435271Y-118330576D01*
X162433721Y-118336646D01*
X162434011Y-118339340D01*
X162426542Y-118364774D01*
X162390018Y-118452952D01*
X162346178Y-118507356D01*
X162279883Y-118529421D01*
X162275457Y-118529500D01*
X162251155Y-118529500D01*
X162096510Y-118560261D01*
X162096498Y-118560264D01*
X161950827Y-118620602D01*
X161950814Y-118620609D01*
X161819711Y-118708210D01*
X161819707Y-118708213D01*
X161708213Y-118819707D01*
X161708210Y-118819711D01*
X161620609Y-118950814D01*
X161620602Y-118950827D01*
X161560264Y-119096498D01*
X161560261Y-119096510D01*
X161529500Y-119251153D01*
X149952500Y-119251153D01*
X149952500Y-117471153D01*
X158439500Y-117471153D01*
X158439500Y-117628846D01*
X158470261Y-117783489D01*
X158470264Y-117783501D01*
X158530602Y-117929172D01*
X158530609Y-117929185D01*
X158618210Y-118060288D01*
X158618213Y-118060292D01*
X158729707Y-118171786D01*
X158729711Y-118171789D01*
X158860814Y-118259390D01*
X158860827Y-118259397D01*
X158972134Y-118305501D01*
X159006503Y-118319737D01*
X159161153Y-118350499D01*
X159161156Y-118350500D01*
X159161158Y-118350500D01*
X159318844Y-118350500D01*
X159318845Y-118350499D01*
X159473497Y-118319737D01*
X159609264Y-118263501D01*
X159619172Y-118259397D01*
X159619172Y-118259396D01*
X159619179Y-118259394D01*
X159750289Y-118171789D01*
X159861789Y-118060289D01*
X159949394Y-117929179D01*
X160009737Y-117783497D01*
X160040500Y-117628842D01*
X160040500Y-117471158D01*
X160040500Y-117471155D01*
X160027836Y-117407493D01*
X160034063Y-117337902D01*
X160076925Y-117282724D01*
X160142815Y-117259479D01*
X160210812Y-117275546D01*
X160252555Y-117314410D01*
X160283210Y-117360288D01*
X160283213Y-117360292D01*
X160394707Y-117471786D01*
X160394711Y-117471789D01*
X160525814Y-117559390D01*
X160525827Y-117559397D01*
X160637921Y-117605827D01*
X160671503Y-117619737D01*
X160806064Y-117646503D01*
X160826153Y-117650499D01*
X160826156Y-117650500D01*
X160826158Y-117650500D01*
X160983844Y-117650500D01*
X160983845Y-117650499D01*
X161138497Y-117619737D01*
X161284179Y-117559394D01*
X161415289Y-117471789D01*
X161526789Y-117360289D01*
X161614394Y-117229179D01*
X161674737Y-117083497D01*
X161682605Y-117043938D01*
X161714988Y-116982030D01*
X161775703Y-116947455D01*
X161845473Y-116951194D01*
X161851639Y-116953556D01*
X161878633Y-116964737D01*
X162018241Y-116992507D01*
X162033283Y-116995499D01*
X162033286Y-116995500D01*
X162033288Y-116995500D01*
X162190974Y-116995500D01*
X162190975Y-116995499D01*
X162345627Y-116964737D01*
X162491309Y-116904394D01*
X162622419Y-116816789D01*
X162733919Y-116705289D01*
X162821524Y-116574179D01*
X162821527Y-116574172D01*
X162884198Y-116422870D01*
X162885726Y-116423503D01*
X162919653Y-116371726D01*
X162983463Y-116343265D01*
X163052530Y-116353820D01*
X163068914Y-116363052D01*
X163081896Y-116371726D01*
X163115821Y-116394394D01*
X163115823Y-116394395D01*
X163115827Y-116394397D01*
X163261498Y-116454735D01*
X163261503Y-116454737D01*
X163416153Y-116485499D01*
X163416156Y-116485500D01*
X163416158Y-116485500D01*
X163573844Y-116485500D01*
X163573845Y-116485499D01*
X163728497Y-116454737D01*
X163841166Y-116408067D01*
X163874172Y-116394397D01*
X163874172Y-116394396D01*
X163874179Y-116394394D01*
X164005289Y-116306789D01*
X164116789Y-116195289D01*
X164116791Y-116195287D01*
X164204391Y-116064183D01*
X164204394Y-116064179D01*
X164230932Y-116000109D01*
X164274771Y-115945708D01*
X164298028Y-115933007D01*
X164379179Y-115899394D01*
X164510289Y-115811789D01*
X164621789Y-115700289D01*
X164709394Y-115569179D01*
X164769737Y-115423497D01*
X164800500Y-115268842D01*
X164800500Y-115111158D01*
X164800500Y-115111155D01*
X164800499Y-115111153D01*
X164788375Y-115050202D01*
X164769737Y-114956503D01*
X164752162Y-114914075D01*
X164744694Y-114844606D01*
X164775969Y-114782127D01*
X164797833Y-114763521D01*
X164860289Y-114721789D01*
X164971786Y-114610292D01*
X164971789Y-114610289D01*
X165059394Y-114479179D01*
X165119737Y-114333497D01*
X165150500Y-114178842D01*
X165150500Y-114021158D01*
X165150500Y-114021155D01*
X165150499Y-114021153D01*
X165125416Y-113895054D01*
X165119737Y-113866503D01*
X165119735Y-113866498D01*
X165059397Y-113720827D01*
X165059390Y-113720814D01*
X164971789Y-113589711D01*
X164971786Y-113589707D01*
X164860292Y-113478213D01*
X164860288Y-113478210D01*
X164729185Y-113390609D01*
X164729172Y-113390602D01*
X164583501Y-113330264D01*
X164583489Y-113330261D01*
X164428845Y-113299500D01*
X164428842Y-113299500D01*
X164271158Y-113299500D01*
X164271155Y-113299500D01*
X164116510Y-113330261D01*
X164116498Y-113330264D01*
X163970827Y-113390602D01*
X163970814Y-113390609D01*
X163839711Y-113478210D01*
X163839707Y-113478213D01*
X163728213Y-113589707D01*
X163728210Y-113589711D01*
X163640609Y-113720814D01*
X163640602Y-113720827D01*
X163580264Y-113866498D01*
X163580261Y-113866510D01*
X163549500Y-114021153D01*
X163549500Y-114178846D01*
X163580260Y-114333488D01*
X163580262Y-114333494D01*
X163580263Y-114333497D01*
X163597837Y-114375925D01*
X163605306Y-114445393D01*
X163574031Y-114507872D01*
X163552168Y-114526478D01*
X163489707Y-114568213D01*
X163378213Y-114679707D01*
X163378207Y-114679715D01*
X163290607Y-114810818D01*
X163290604Y-114810824D01*
X163264066Y-114874890D01*
X163220224Y-114929292D01*
X163196960Y-114941995D01*
X163115827Y-114975602D01*
X163115818Y-114975607D01*
X162984715Y-115063207D01*
X162984707Y-115063213D01*
X162873213Y-115174707D01*
X162873210Y-115174711D01*
X162785609Y-115305814D01*
X162785602Y-115305827D01*
X162722932Y-115457130D01*
X162721409Y-115456499D01*
X162714890Y-115466442D01*
X162708511Y-115485210D01*
X162696126Y-115495061D01*
X162687449Y-115508296D01*
X162669342Y-115516365D01*
X162653830Y-115528705D01*
X162638085Y-115530296D01*
X162623631Y-115536739D01*
X162604038Y-115533738D01*
X162584315Y-115535733D01*
X162564605Y-115527701D01*
X162554566Y-115526164D01*
X162550899Y-115524374D01*
X162544329Y-115521033D01*
X162491309Y-115485606D01*
X162401563Y-115448432D01*
X162397252Y-115446240D01*
X162375205Y-115425451D01*
X162351603Y-115406431D01*
X162348722Y-115400479D01*
X162346418Y-115398306D01*
X162345095Y-115392984D01*
X162337364Y-115377008D01*
X162337068Y-115377131D01*
X162334956Y-115372033D01*
X162334800Y-115371710D01*
X162334738Y-115371506D01*
X162274397Y-115225827D01*
X162274390Y-115225814D01*
X162186789Y-115094711D01*
X162186786Y-115094707D01*
X162075292Y-114983213D01*
X162075288Y-114983210D01*
X161944185Y-114895609D01*
X161944172Y-114895602D01*
X161798501Y-114835264D01*
X161798489Y-114835261D01*
X161643845Y-114804500D01*
X161643842Y-114804500D01*
X161486158Y-114804500D01*
X161486155Y-114804500D01*
X161331510Y-114835261D01*
X161331498Y-114835264D01*
X161185827Y-114895602D01*
X161185814Y-114895609D01*
X161054711Y-114983210D01*
X161054707Y-114983213D01*
X160943213Y-115094707D01*
X160943210Y-115094711D01*
X160855609Y-115225814D01*
X160855602Y-115225827D01*
X160795264Y-115371498D01*
X160795261Y-115371510D01*
X160764500Y-115526153D01*
X160764500Y-115683846D01*
X160795261Y-115838489D01*
X160795264Y-115838501D01*
X160820540Y-115899523D01*
X160828009Y-115968992D01*
X160796733Y-116031471D01*
X160736644Y-116067123D01*
X160730172Y-116068592D01*
X160671507Y-116080261D01*
X160671498Y-116080264D01*
X160525827Y-116140602D01*
X160525814Y-116140609D01*
X160394711Y-116228210D01*
X160394707Y-116228213D01*
X160283213Y-116339707D01*
X160283210Y-116339711D01*
X160195609Y-116470814D01*
X160195602Y-116470827D01*
X160135264Y-116616498D01*
X160135261Y-116616510D01*
X160104500Y-116771153D01*
X160104500Y-116928846D01*
X160117163Y-116992507D01*
X160110936Y-117062098D01*
X160068073Y-117117276D01*
X160002183Y-117140520D01*
X159934186Y-117124452D01*
X159892444Y-117085589D01*
X159861789Y-117039711D01*
X159861786Y-117039707D01*
X159750292Y-116928213D01*
X159750288Y-116928210D01*
X159619185Y-116840609D01*
X159619172Y-116840602D01*
X159473501Y-116780264D01*
X159473489Y-116780261D01*
X159318845Y-116749500D01*
X159318842Y-116749500D01*
X159161158Y-116749500D01*
X159161155Y-116749500D01*
X159006510Y-116780261D01*
X159006498Y-116780264D01*
X158860827Y-116840602D01*
X158860814Y-116840609D01*
X158729711Y-116928210D01*
X158729707Y-116928213D01*
X158618213Y-117039707D01*
X158618210Y-117039711D01*
X158530609Y-117170814D01*
X158530602Y-117170827D01*
X158470264Y-117316498D01*
X158470261Y-117316510D01*
X158439500Y-117471153D01*
X149952500Y-117471153D01*
X149952500Y-116396100D01*
X149972185Y-116329061D01*
X150024989Y-116283306D01*
X150076500Y-116272100D01*
X153641731Y-116272100D01*
X153641747Y-116272101D01*
X153649343Y-116272101D01*
X153807454Y-116272101D01*
X153807457Y-116272101D01*
X153960185Y-116231177D01*
X154022344Y-116195289D01*
X154097116Y-116152120D01*
X154208920Y-116040316D01*
X154208920Y-116040314D01*
X154219124Y-116030111D01*
X154219127Y-116030106D01*
X159199637Y-111049599D01*
X159278694Y-110912667D01*
X159319618Y-110759940D01*
X159319618Y-110601825D01*
X159319618Y-110594230D01*
X159319617Y-110594212D01*
X159319617Y-110338648D01*
X159339302Y-110271609D01*
X159340515Y-110269757D01*
X159368241Y-110228263D01*
X159428511Y-110138062D01*
X159488854Y-109992380D01*
X159519617Y-109837725D01*
X159519617Y-109680041D01*
X159519617Y-109680038D01*
X159519616Y-109680036D01*
X159509306Y-109628206D01*
X159488854Y-109525386D01*
X159461933Y-109460392D01*
X159428514Y-109379710D01*
X159428507Y-109379697D01*
X159340906Y-109248594D01*
X159340903Y-109248590D01*
X159229409Y-109137096D01*
X159229405Y-109137093D01*
X159098302Y-109049492D01*
X159098289Y-109049485D01*
X158952618Y-108989147D01*
X158952606Y-108989144D01*
X158797962Y-108958383D01*
X158797959Y-108958383D01*
X158640275Y-108958383D01*
X158640272Y-108958383D01*
X158485627Y-108989144D01*
X158485615Y-108989147D01*
X158339944Y-109049485D01*
X158339931Y-109049492D01*
X158208828Y-109137093D01*
X158208824Y-109137096D01*
X158097330Y-109248590D01*
X158097327Y-109248594D01*
X158009726Y-109379697D01*
X158009719Y-109379710D01*
X157949381Y-109525381D01*
X157949378Y-109525393D01*
X157918617Y-109680036D01*
X157918617Y-109837729D01*
X157949378Y-109992372D01*
X157949381Y-109992384D01*
X158009719Y-110138055D01*
X158009726Y-110138068D01*
X158097719Y-110269757D01*
X158103369Y-110287803D01*
X158113594Y-110303713D01*
X158118045Y-110334672D01*
X158118597Y-110336434D01*
X158118617Y-110338648D01*
X158118617Y-110380785D01*
X158098932Y-110447824D01*
X158082298Y-110468466D01*
X153515984Y-115034781D01*
X153454661Y-115068266D01*
X153428303Y-115071100D01*
X149931766Y-115071100D01*
X149864727Y-115051415D01*
X149862875Y-115050202D01*
X149731185Y-114962209D01*
X149731172Y-114962202D01*
X149585501Y-114901864D01*
X149585489Y-114901861D01*
X149430845Y-114871100D01*
X149430842Y-114871100D01*
X149273158Y-114871100D01*
X149273155Y-114871100D01*
X149118510Y-114901861D01*
X149118498Y-114901864D01*
X148972827Y-114962202D01*
X148972814Y-114962209D01*
X148841711Y-115049810D01*
X148841707Y-115049813D01*
X148730213Y-115161307D01*
X148730210Y-115161311D01*
X148642609Y-115292414D01*
X148642602Y-115292427D01*
X148582264Y-115438098D01*
X148582261Y-115438110D01*
X148551500Y-115592753D01*
X148551500Y-115750446D01*
X148582261Y-115905089D01*
X148582264Y-115905101D01*
X148642602Y-116050772D01*
X148642609Y-116050785D01*
X148730602Y-116182474D01*
X148751480Y-116249151D01*
X148751500Y-116251365D01*
X148751500Y-120455330D01*
X148751499Y-120455348D01*
X148751499Y-120621054D01*
X148751498Y-120621054D01*
X148757258Y-120642549D01*
X148791719Y-120771158D01*
X148792424Y-120773787D01*
X148793220Y-120775165D01*
X148793224Y-120775181D01*
X148793228Y-120775179D01*
X148871477Y-120910712D01*
X148871481Y-120910717D01*
X148990349Y-121029585D01*
X148990354Y-121029589D01*
X149148783Y-121188019D01*
X149182268Y-121249341D01*
X149177284Y-121319033D01*
X149148783Y-121363380D01*
X148068886Y-122443278D01*
X147957082Y-122555081D01*
X147957080Y-122555083D01*
X147950035Y-122567286D01*
X147934881Y-122593535D01*
X147878023Y-122692015D01*
X147837099Y-122844743D01*
X147837099Y-122844745D01*
X147837099Y-123012846D01*
X147837100Y-123012859D01*
X147837100Y-125130234D01*
X147817415Y-125197273D01*
X147816202Y-125199125D01*
X147728209Y-125330814D01*
X147728202Y-125330827D01*
X147667864Y-125476498D01*
X147667861Y-125476508D01*
X147636962Y-125631849D01*
X147604577Y-125693759D01*
X147603026Y-125695338D01*
X147423784Y-125874581D01*
X147362461Y-125908066D01*
X147336103Y-125910900D01*
X137224100Y-125910900D01*
X137215414Y-125908349D01*
X137206453Y-125909638D01*
X137182412Y-125898659D01*
X137157061Y-125891215D01*
X137151133Y-125884374D01*
X137142897Y-125880613D01*
X137128607Y-125858378D01*
X137111306Y-125838411D01*
X137109018Y-125827896D01*
X137105123Y-125821835D01*
X137100100Y-125786900D01*
X137100100Y-125550497D01*
X137119785Y-125483458D01*
X137136419Y-125462816D01*
X137323964Y-125275271D01*
X137514662Y-125084572D01*
X137575983Y-125051089D01*
X137578150Y-125050638D01*
X137636085Y-125039113D01*
X137733497Y-125019737D01*
X137870589Y-124962952D01*
X137879172Y-124959397D01*
X137879172Y-124959396D01*
X137879179Y-124959394D01*
X138010289Y-124871789D01*
X138121789Y-124760289D01*
X138209394Y-124629179D01*
X138269737Y-124483497D01*
X138300500Y-124328842D01*
X138300500Y-124171158D01*
X138300500Y-124171155D01*
X138300499Y-124171153D01*
X138272151Y-124028640D01*
X138269737Y-124016503D01*
X138217131Y-123889500D01*
X138209397Y-123870827D01*
X138209390Y-123870814D01*
X138121789Y-123739711D01*
X138121786Y-123739707D01*
X138010292Y-123628213D01*
X138010288Y-123628210D01*
X137879185Y-123540609D01*
X137879172Y-123540602D01*
X137733501Y-123480264D01*
X137733489Y-123480261D01*
X137578845Y-123449500D01*
X137578842Y-123449500D01*
X137439581Y-123449500D01*
X137372542Y-123429815D01*
X137326787Y-123377011D01*
X137316843Y-123307853D01*
X137345868Y-123244297D01*
X137351900Y-123237819D01*
X137930011Y-122659707D01*
X138179471Y-122410246D01*
X138219695Y-122383369D01*
X138243355Y-122373570D01*
X138374465Y-122285965D01*
X138485965Y-122174465D01*
X138573570Y-122043355D01*
X138633913Y-121897673D01*
X138664676Y-121743018D01*
X138664676Y-121585334D01*
X138664676Y-121585331D01*
X138664675Y-121585329D01*
X138660967Y-121566688D01*
X138633913Y-121430679D01*
X138600031Y-121348880D01*
X138573573Y-121285003D01*
X138573566Y-121284990D01*
X138485965Y-121153887D01*
X138485962Y-121153883D01*
X138374468Y-121042389D01*
X138374464Y-121042386D01*
X138243361Y-120954785D01*
X138243348Y-120954778D01*
X138097677Y-120894440D01*
X138097665Y-120894437D01*
X137943021Y-120863676D01*
X137943018Y-120863676D01*
X137785334Y-120863676D01*
X137785331Y-120863676D01*
X137630686Y-120894437D01*
X137630674Y-120894440D01*
X137485003Y-120954778D01*
X137484990Y-120954785D01*
X137353887Y-121042386D01*
X137353883Y-121042389D01*
X137242389Y-121153883D01*
X137242383Y-121153891D01*
X137154783Y-121284994D01*
X137154781Y-121284998D01*
X137144981Y-121308656D01*
X137118103Y-121348880D01*
X135548879Y-122918103D01*
X135508656Y-122944981D01*
X135484995Y-122954782D01*
X135484994Y-122954783D01*
X135353891Y-123042383D01*
X135353883Y-123042389D01*
X135242389Y-123153883D01*
X135242383Y-123153891D01*
X135154783Y-123284994D01*
X135154779Y-123285001D01*
X135150886Y-123294400D01*
X135124009Y-123334622D01*
X134865451Y-123593181D01*
X134804128Y-123626666D01*
X134777770Y-123629500D01*
X132856080Y-123629500D01*
X132711092Y-123658340D01*
X132711086Y-123658342D01*
X132574508Y-123714914D01*
X132574496Y-123714921D01*
X132525269Y-123747813D01*
X132451588Y-123797044D01*
X132451580Y-123797050D01*
X131392048Y-124856584D01*
X129695451Y-126553181D01*
X129634128Y-126586666D01*
X129607770Y-126589500D01*
X127637280Y-126589500D01*
X127500632Y-126616682D01*
X127500622Y-126616684D01*
X127498925Y-126617021D01*
X127492288Y-126618341D01*
X127492284Y-126618342D01*
X127355711Y-126674912D01*
X127355698Y-126674919D01*
X127232784Y-126757048D01*
X127232780Y-126757051D01*
X126657050Y-127332780D01*
X126641203Y-127356498D01*
X126613941Y-127397300D01*
X126574919Y-127455699D01*
X126574912Y-127455711D01*
X126518343Y-127592282D01*
X126518340Y-127592292D01*
X126489500Y-127737279D01*
X126489500Y-127997769D01*
X126469815Y-128064808D01*
X126453181Y-128085450D01*
X125817052Y-128721578D01*
X125817049Y-128721581D01*
X125785555Y-128768715D01*
X125785556Y-128768716D01*
X125734914Y-128844508D01*
X125678343Y-128981082D01*
X125678340Y-128981092D01*
X125649500Y-129126079D01*
X125649500Y-129877770D01*
X125629815Y-129944809D01*
X125613181Y-129965451D01*
X125374704Y-130203927D01*
X125334478Y-130230806D01*
X125310826Y-130240603D01*
X125310814Y-130240609D01*
X125179711Y-130328210D01*
X125179707Y-130328213D01*
X125068213Y-130439707D01*
X125068211Y-130439710D01*
X124980609Y-130570814D01*
X124980602Y-130570827D01*
X124920264Y-130716498D01*
X124920261Y-130716510D01*
X124889500Y-130871153D01*
X124351227Y-130871153D01*
X124336896Y-130506399D01*
X124336800Y-130501531D01*
X124336800Y-129498468D01*
X124336896Y-129493600D01*
X124338816Y-129444735D01*
X124376275Y-128491322D01*
X124376556Y-128486536D01*
X124455262Y-127486494D01*
X124455738Y-127481669D01*
X124456005Y-127479415D01*
X124573633Y-126485572D01*
X124574292Y-126480807D01*
X124731212Y-125490053D01*
X124732058Y-125485317D01*
X124927751Y-124501505D01*
X124928781Y-124496809D01*
X125162959Y-123521387D01*
X125164166Y-123516760D01*
X125436443Y-122551342D01*
X125437853Y-122546694D01*
X125467491Y-122455479D01*
X125747822Y-121592707D01*
X125749394Y-121588173D01*
X126096592Y-120647052D01*
X126098335Y-120642598D01*
X126482213Y-119715833D01*
X126484128Y-119711455D01*
X126904087Y-118800495D01*
X126906209Y-118796122D01*
X126908023Y-118792562D01*
X127361608Y-117902350D01*
X127363861Y-117898136D01*
X127853994Y-117022941D01*
X127856425Y-117018793D01*
X127962781Y-116845236D01*
X129287113Y-116845236D01*
X129287113Y-117154179D01*
X129321699Y-117461145D01*
X129321702Y-117461163D01*
X129390444Y-117762343D01*
X129390448Y-117762355D01*
X129492475Y-118053930D01*
X129492481Y-118053944D01*
X129626516Y-118332270D01*
X129626518Y-118332273D01*
X129790878Y-118593851D01*
X129925427Y-118762570D01*
X129972201Y-118821223D01*
X129983493Y-118835382D01*
X130201939Y-119053828D01*
X130443470Y-119246443D01*
X130705048Y-119410803D01*
X130983384Y-119544843D01*
X131080581Y-119578854D01*
X131274965Y-119646872D01*
X131274977Y-119646876D01*
X131576161Y-119715619D01*
X131576167Y-119715619D01*
X131576175Y-119715621D01*
X131780819Y-119738678D01*
X131883142Y-119750207D01*
X131883145Y-119750208D01*
X131883148Y-119750208D01*
X132192081Y-119750208D01*
X132192082Y-119750207D01*
X132348969Y-119732530D01*
X132499050Y-119715621D01*
X132499055Y-119715620D01*
X132499065Y-119715619D01*
X132800249Y-119646876D01*
X133091842Y-119544843D01*
X133370178Y-119410803D01*
X133631756Y-119246443D01*
X133873287Y-119053828D01*
X134091733Y-118835382D01*
X134284348Y-118593851D01*
X134448708Y-118332273D01*
X134582748Y-118053937D01*
X134684781Y-117762344D01*
X134753524Y-117461160D01*
X134753815Y-117458584D01*
X134774438Y-117275546D01*
X134788113Y-117154173D01*
X134788113Y-116845243D01*
X134762341Y-116616510D01*
X134753526Y-116538270D01*
X134753523Y-116538252D01*
X134745590Y-116503497D01*
X134684781Y-116237072D01*
X134681680Y-116228211D01*
X134596290Y-115984179D01*
X134582748Y-115945479D01*
X134448708Y-115667143D01*
X134284348Y-115405565D01*
X134091733Y-115164034D01*
X133873287Y-114945588D01*
X133631756Y-114752973D01*
X133370178Y-114588613D01*
X133370175Y-114588611D01*
X133091849Y-114454576D01*
X133091835Y-114454570D01*
X132800260Y-114352543D01*
X132800248Y-114352539D01*
X132499068Y-114283797D01*
X132499050Y-114283794D01*
X132192084Y-114249208D01*
X132192078Y-114249208D01*
X131883148Y-114249208D01*
X131883141Y-114249208D01*
X131576175Y-114283794D01*
X131576157Y-114283797D01*
X131274977Y-114352539D01*
X131274965Y-114352543D01*
X130983390Y-114454570D01*
X130983376Y-114454576D01*
X130705050Y-114588611D01*
X130443471Y-114752972D01*
X130201939Y-114945587D01*
X129983492Y-115164034D01*
X129790877Y-115405566D01*
X129626516Y-115667145D01*
X129492481Y-115945471D01*
X129492475Y-115945485D01*
X129390448Y-116237060D01*
X129390444Y-116237072D01*
X129321702Y-116538252D01*
X129321699Y-116538270D01*
X129287113Y-116845236D01*
X127962781Y-116845236D01*
X128380537Y-116163519D01*
X128383154Y-116159432D01*
X128940434Y-115325402D01*
X128943188Y-115321451D01*
X129532777Y-114509952D01*
X129535708Y-114506081D01*
X129556916Y-114479179D01*
X130156705Y-113718349D01*
X130159777Y-113714608D01*
X130403413Y-113429347D01*
X130811217Y-112951869D01*
X130814402Y-112948283D01*
X131495326Y-112211664D01*
X131498652Y-112208206D01*
X132088233Y-111618625D01*
X136918678Y-111618625D01*
X136918678Y-111839068D01*
X136953163Y-112056799D01*
X137021281Y-112266450D01*
X137021282Y-112266453D01*
X137121365Y-112462872D01*
X137250930Y-112641205D01*
X137250934Y-112641210D01*
X137406814Y-112797090D01*
X137406819Y-112797094D01*
X137548592Y-112900097D01*
X137585156Y-112926662D01*
X137694280Y-112982264D01*
X137781571Y-113026742D01*
X137781574Y-113026743D01*
X137886399Y-113060802D01*
X137991227Y-113094862D01*
X138208956Y-113129347D01*
X138208957Y-113129347D01*
X138429397Y-113129347D01*
X138429400Y-113129347D01*
X138503567Y-113117599D01*
X138572857Y-113126553D01*
X138610641Y-113152388D01*
X138708886Y-113250633D01*
X138708890Y-113250637D01*
X138839992Y-113338237D01*
X138840005Y-113338244D01*
X138985676Y-113398582D01*
X138985681Y-113398584D01*
X138985685Y-113398584D01*
X138985686Y-113398585D01*
X139140332Y-113429347D01*
X139140335Y-113429347D01*
X143049997Y-113429347D01*
X143049998Y-113429346D01*
X143204650Y-113398584D01*
X143350332Y-113338241D01*
X143481442Y-113250636D01*
X144897259Y-111834819D01*
X144958582Y-111801334D01*
X144984940Y-111798500D01*
X149675060Y-111798500D01*
X149742099Y-111818185D01*
X149762741Y-111834819D01*
X150448795Y-112520873D01*
X150482280Y-112582196D01*
X150479498Y-112638333D01*
X150481279Y-112638761D01*
X150480140Y-112643506D01*
X150439500Y-112900097D01*
X150439500Y-113159902D01*
X150480140Y-113416493D01*
X150560422Y-113663576D01*
X150641534Y-113822764D01*
X150678366Y-113895051D01*
X150831069Y-114105229D01*
X151014771Y-114288931D01*
X151224949Y-114441634D01*
X151359054Y-114509964D01*
X151456423Y-114559577D01*
X151456425Y-114559577D01*
X151456428Y-114559579D01*
X151703507Y-114639860D01*
X151835706Y-114660797D01*
X151960098Y-114680500D01*
X151960103Y-114680500D01*
X152219902Y-114680500D01*
X152333298Y-114662539D01*
X152476493Y-114639860D01*
X152723572Y-114559579D01*
X152955051Y-114441634D01*
X153165229Y-114288931D01*
X153348931Y-114105229D01*
X153501634Y-113895051D01*
X153619579Y-113663572D01*
X153699860Y-113416493D01*
X153722539Y-113273298D01*
X153740500Y-113159902D01*
X153740500Y-112900097D01*
X153718947Y-112764021D01*
X153699860Y-112643507D01*
X153619579Y-112396428D01*
X153619577Y-112396425D01*
X153619577Y-112396423D01*
X153553353Y-112266453D01*
X153501634Y-112164949D01*
X153348931Y-111954771D01*
X153165229Y-111771069D01*
X153057749Y-111692980D01*
X152955054Y-111618368D01*
X152955053Y-111618367D01*
X152955051Y-111618366D01*
X152868510Y-111574271D01*
X152723576Y-111500422D01*
X152476493Y-111420140D01*
X152219902Y-111379500D01*
X152219897Y-111379500D01*
X151960103Y-111379500D01*
X151960098Y-111379500D01*
X151703506Y-111420140D01*
X151698761Y-111421279D01*
X151698289Y-111419314D01*
X151636918Y-111421010D01*
X151580873Y-111388795D01*
X151331157Y-111139079D01*
X151297672Y-111077756D01*
X151302656Y-111008064D01*
X151333263Y-110965778D01*
X151331182Y-110963697D01*
X151446986Y-110847892D01*
X151446989Y-110847889D01*
X151534594Y-110716779D01*
X151594937Y-110571097D01*
X151625700Y-110416442D01*
X151625700Y-110258758D01*
X151625700Y-110258755D01*
X151625699Y-110258753D01*
X151612951Y-110194666D01*
X151594937Y-110104103D01*
X151548662Y-109992384D01*
X151534597Y-109958427D01*
X151534590Y-109958414D01*
X151446989Y-109827311D01*
X151446986Y-109827307D01*
X151335492Y-109715813D01*
X151335488Y-109715810D01*
X151204385Y-109628209D01*
X151204372Y-109628202D01*
X151058701Y-109567864D01*
X151058689Y-109567861D01*
X150904045Y-109537100D01*
X150904042Y-109537100D01*
X150746358Y-109537100D01*
X150746355Y-109537100D01*
X150591710Y-109567861D01*
X150591698Y-109567864D01*
X150446027Y-109628202D01*
X150446014Y-109628209D01*
X150314911Y-109715810D01*
X150314907Y-109715813D01*
X150203413Y-109827307D01*
X150203407Y-109827315D01*
X150115807Y-109958418D01*
X150115806Y-109958419D01*
X150106005Y-109982080D01*
X150101375Y-109989008D01*
X150100279Y-109994048D01*
X150079127Y-110022303D01*
X149940249Y-110161182D01*
X149878929Y-110194666D01*
X149852570Y-110197500D01*
X144523155Y-110197500D01*
X144368510Y-110228261D01*
X144368498Y-110228264D01*
X144223188Y-110288453D01*
X144153719Y-110295922D01*
X144091240Y-110264646D01*
X144055588Y-110204557D01*
X144058082Y-110134732D01*
X144064016Y-110120090D01*
X144068361Y-110111068D01*
X144081700Y-110083369D01*
X144183733Y-109791776D01*
X144252476Y-109490592D01*
X144287065Y-109183605D01*
X144287065Y-108874675D01*
X144258607Y-108622100D01*
X144252478Y-108567702D01*
X144252475Y-108567684D01*
X144245399Y-108536684D01*
X144183733Y-108266504D01*
X144081700Y-107974911D01*
X144067546Y-107945520D01*
X147220299Y-107945520D01*
X147249140Y-108090507D01*
X147249143Y-108090517D01*
X147305712Y-108227088D01*
X147305719Y-108227101D01*
X147387848Y-108350015D01*
X147387851Y-108350019D01*
X147492380Y-108454548D01*
X147492384Y-108454551D01*
X147615298Y-108536680D01*
X147615311Y-108536687D01*
X147690155Y-108567688D01*
X147751887Y-108593258D01*
X147751891Y-108593258D01*
X147751892Y-108593259D01*
X147896879Y-108622100D01*
X147896882Y-108622100D01*
X148044720Y-108622100D01*
X148142262Y-108602696D01*
X148189713Y-108593258D01*
X148326295Y-108536684D01*
X148449216Y-108454551D01*
X148553751Y-108350016D01*
X148635884Y-108227095D01*
X148692458Y-108090513D01*
X148715452Y-107974917D01*
X148721300Y-107945520D01*
X151220299Y-107945520D01*
X151249140Y-108090507D01*
X151249143Y-108090517D01*
X151305712Y-108227088D01*
X151305719Y-108227101D01*
X151387848Y-108350015D01*
X151387851Y-108350019D01*
X151492380Y-108454548D01*
X151492384Y-108454551D01*
X151615298Y-108536680D01*
X151615311Y-108536687D01*
X151690155Y-108567688D01*
X151751887Y-108593258D01*
X151751891Y-108593258D01*
X151751892Y-108593259D01*
X151896879Y-108622100D01*
X151896882Y-108622100D01*
X152044720Y-108622100D01*
X152142262Y-108602696D01*
X152189713Y-108593258D01*
X152326295Y-108536684D01*
X152449216Y-108454551D01*
X152553751Y-108350016D01*
X152635884Y-108227095D01*
X152692458Y-108090513D01*
X152715452Y-107974917D01*
X152721300Y-107945520D01*
X152721300Y-107797679D01*
X152692459Y-107652692D01*
X152692458Y-107652691D01*
X152692458Y-107652687D01*
X152692456Y-107652682D01*
X152635887Y-107516111D01*
X152635880Y-107516098D01*
X152553751Y-107393184D01*
X152553748Y-107393180D01*
X152449219Y-107288651D01*
X152449215Y-107288648D01*
X152326301Y-107206519D01*
X152326288Y-107206512D01*
X152189717Y-107149943D01*
X152189707Y-107149940D01*
X152044720Y-107121100D01*
X152044718Y-107121100D01*
X151896882Y-107121100D01*
X151896880Y-107121100D01*
X151751892Y-107149940D01*
X151751882Y-107149943D01*
X151615311Y-107206512D01*
X151615298Y-107206519D01*
X151492384Y-107288648D01*
X151492380Y-107288651D01*
X151387851Y-107393180D01*
X151387848Y-107393184D01*
X151305719Y-107516098D01*
X151305712Y-107516111D01*
X151249143Y-107652682D01*
X151249140Y-107652692D01*
X151220300Y-107797679D01*
X151220300Y-107797682D01*
X151220300Y-107945518D01*
X151220300Y-107945520D01*
X151220299Y-107945520D01*
X148721300Y-107945520D01*
X148721300Y-107797679D01*
X148692459Y-107652692D01*
X148692458Y-107652691D01*
X148692458Y-107652687D01*
X148692456Y-107652682D01*
X148635887Y-107516111D01*
X148635880Y-107516098D01*
X148553751Y-107393184D01*
X148553748Y-107393180D01*
X148449219Y-107288651D01*
X148449215Y-107288648D01*
X148326301Y-107206519D01*
X148326288Y-107206512D01*
X148189717Y-107149943D01*
X148189707Y-107149940D01*
X148044720Y-107121100D01*
X148044718Y-107121100D01*
X147896882Y-107121100D01*
X147896880Y-107121100D01*
X147751892Y-107149940D01*
X147751882Y-107149943D01*
X147615311Y-107206512D01*
X147615298Y-107206519D01*
X147492384Y-107288648D01*
X147492380Y-107288651D01*
X147387851Y-107393180D01*
X147387848Y-107393184D01*
X147305719Y-107516098D01*
X147305712Y-107516111D01*
X147249143Y-107652682D01*
X147249140Y-107652692D01*
X147220300Y-107797679D01*
X147220300Y-107797682D01*
X147220300Y-107945518D01*
X147220300Y-107945520D01*
X147220299Y-107945520D01*
X144067546Y-107945520D01*
X144024769Y-107856692D01*
X144019327Y-107845392D01*
X143947661Y-107696577D01*
X143939858Y-107684158D01*
X143783300Y-107434997D01*
X143590685Y-107193466D01*
X143372239Y-106975020D01*
X143130708Y-106782405D01*
X142869130Y-106618045D01*
X142869127Y-106618043D01*
X142590801Y-106484008D01*
X142590787Y-106484002D01*
X142299212Y-106381975D01*
X142299200Y-106381971D01*
X141998020Y-106313229D01*
X141998002Y-106313226D01*
X141691036Y-106278640D01*
X141691030Y-106278640D01*
X141382100Y-106278640D01*
X141382093Y-106278640D01*
X141075127Y-106313226D01*
X141075109Y-106313229D01*
X140773929Y-106381971D01*
X140773917Y-106381975D01*
X140482342Y-106484002D01*
X140482328Y-106484008D01*
X140204002Y-106618043D01*
X139942423Y-106782404D01*
X139700891Y-106975019D01*
X139482444Y-107193466D01*
X139289829Y-107434998D01*
X139125468Y-107696577D01*
X138991433Y-107974903D01*
X138991427Y-107974917D01*
X138889400Y-108266492D01*
X138889396Y-108266504D01*
X138820654Y-108567684D01*
X138820651Y-108567702D01*
X138786065Y-108874668D01*
X138786065Y-109183611D01*
X138820651Y-109490577D01*
X138820654Y-109490595D01*
X138889396Y-109791775D01*
X138889400Y-109791787D01*
X138991427Y-110083362D01*
X138991436Y-110083384D01*
X139097552Y-110303736D01*
X139108904Y-110372677D01*
X139081182Y-110436811D01*
X139023186Y-110475777D01*
X138953331Y-110477202D01*
X138929536Y-110468021D01*
X138856789Y-110430953D01*
X138856781Y-110430950D01*
X138647130Y-110362832D01*
X138538264Y-110345589D01*
X138429400Y-110328347D01*
X138208956Y-110328347D01*
X138169022Y-110334672D01*
X137991225Y-110362832D01*
X137781574Y-110430950D01*
X137781571Y-110430951D01*
X137585152Y-110531034D01*
X137406819Y-110660599D01*
X137406814Y-110660603D01*
X137250934Y-110816483D01*
X137250930Y-110816488D01*
X137121365Y-110994821D01*
X137021282Y-111191240D01*
X137021281Y-111191243D01*
X136953163Y-111400894D01*
X136918678Y-111618625D01*
X132088233Y-111618625D01*
X132207955Y-111498903D01*
X132211413Y-111495577D01*
X132948032Y-110814653D01*
X132951618Y-110811468D01*
X133714357Y-110160028D01*
X133718098Y-110156956D01*
X134505841Y-109535950D01*
X134509713Y-109533020D01*
X134520211Y-109525393D01*
X135321200Y-108943439D01*
X135325151Y-108940685D01*
X136159194Y-108383396D01*
X136163268Y-108380788D01*
X137018542Y-107856676D01*
X137022690Y-107854245D01*
X137897885Y-107364112D01*
X137902099Y-107361859D01*
X138795878Y-106906456D01*
X138800252Y-106904335D01*
X139711204Y-106484379D01*
X139715582Y-106482464D01*
X140642347Y-106098586D01*
X140646801Y-106096843D01*
X141587922Y-105749645D01*
X141592456Y-105748073D01*
X142546454Y-105438100D01*
X142551091Y-105436694D01*
X143516509Y-105164417D01*
X143521136Y-105163210D01*
X144496558Y-104929032D01*
X144501254Y-104928002D01*
X145485066Y-104732309D01*
X145489802Y-104731463D01*
X146480556Y-104574543D01*
X146485321Y-104573884D01*
X147481440Y-104455986D01*
X147486243Y-104455513D01*
X148486285Y-104376807D01*
X148491071Y-104376526D01*
X149493350Y-104337147D01*
X149498218Y-104337051D01*
X150501280Y-104337051D01*
X150506148Y-104337147D01*
G37*
G04 #@! TD.AperFunction*
G04 #@! TD*
M02*
