G04 #@! TF.GenerationSoftware,KiCad,Pcbnew,10.0.1*
G04 #@! TF.CreationDate,2026-06-17T07:57:53-04:00*
G04 #@! TF.ProjectId,LightFusion,4c696768-7446-4757-9369-6f6e2e6b6963,rev?*
G04 #@! TF.SameCoordinates,Original*
G04 #@! TF.FileFunction,Copper,L4,Bot*
G04 #@! TF.FilePolarity,Positive*
%FSLAX46Y46*%
G04 Gerber Fmt 4.6, Leading zero omitted, Abs format (unit mm)*
G04 Created by KiCad (PCBNEW 10.0.1) date 2026-06-17 07:57:53*
%MOMM*%
%LPD*%
G01*
G04 APERTURE LIST*
G04 Aperture macros list*
%AMRoundRect*
0 Rectangle with rounded corners*
0 $1 Rounding radius*
0 $2 $3 $4 $5 $6 $7 $8 $9 X,Y pos of 4 corners*
0 Add a 4 corners polygon primitive as box body*
4,1,4,$2,$3,$4,$5,$6,$7,$8,$9,$2,$3,0*
0 Add four circle primitives for the rounded corners*
1,1,$1+$1,$2,$3*
1,1,$1+$1,$4,$5*
1,1,$1+$1,$6,$7*
1,1,$1+$1,$8,$9*
0 Add four rect primitives between the rounded corners*
20,1,$1+$1,$2,$3,$4,$5,0*
20,1,$1+$1,$4,$5,$6,$7,0*
20,1,$1+$1,$6,$7,$8,$9,0*
20,1,$1+$1,$8,$9,$2,$3,0*%
%AMRotRect*
0 Rectangle, with rotation*
0 The origin of the aperture is its center*
0 $1 length*
0 $2 width*
0 $3 Rotation angle, in degrees counterclockwise*
0 Add horizontal line*
21,1,$1,$2,0,0,$3*%
G04 Aperture macros list end*
G04 #@! TA.AperFunction,ComponentPad*
%ADD10RotRect,1.800000X1.800000X40.000000*%
G04 #@! TD*
G04 #@! TA.AperFunction,ComponentPad*
%ADD11C,1.800000*%
G04 #@! TD*
G04 #@! TA.AperFunction,ComponentPad*
%ADD12RoundRect,0.250001X-0.899999X-0.899999X0.899999X-0.899999X0.899999X0.899999X-0.899999X0.899999X0*%
G04 #@! TD*
G04 #@! TA.AperFunction,ComponentPad*
%ADD13C,2.300000*%
G04 #@! TD*
G04 #@! TA.AperFunction,SMDPad,CuDef*
%ADD14C,0.863000*%
G04 #@! TD*
G04 #@! TA.AperFunction,ComponentPad*
%ADD15C,1.550000*%
G04 #@! TD*
G04 #@! TA.AperFunction,ComponentPad*
%ADD16C,1.016000*%
G04 #@! TD*
G04 #@! TA.AperFunction,SMDPad,CuDef*
%ADD17R,2.700000X0.500000*%
G04 #@! TD*
G04 #@! TA.AperFunction,SMDPad,CuDef*
%ADD18R,2.700000X1.000000*%
G04 #@! TD*
G04 #@! TA.AperFunction,SMDPad,CuDef*
%ADD19R,0.540000X0.550000*%
G04 #@! TD*
G04 #@! TA.AperFunction,ViaPad*
%ADD20C,0.600000*%
G04 #@! TD*
G04 #@! TA.AperFunction,Conductor*
%ADD21C,0.200000*%
G04 #@! TD*
G04 #@! TA.AperFunction,Conductor*
%ADD22C,0.500000*%
G04 #@! TD*
G04 APERTURE END LIST*
D10*
G04 #@! TO.P,J1,1,1_1*
G04 #@! TO.N,GND*
X135255000Y-114300001D03*
D11*
G04 #@! TO.P,J1,2,2_2*
G04 #@! TO.N,/Power/BAT+*
X138319178Y-111728847D03*
G04 #@! TD*
D12*
G04 #@! TO.P,P1,1,1_1*
G04 #@! TO.N,GND*
X147290000Y-113030000D03*
D13*
G04 #@! TO.P,P1,2,2_2*
G04 #@! TO.N,/Power/BAT+*
X152090000Y-113030000D03*
G04 #@! TD*
D14*
G04 #@! TO.P,J_PROG1,1,1_1*
G04 #@! TO.N,3V3_DIG*
X158890000Y-110540000D03*
G04 #@! TO.P,J_PROG1,2,2_2*
G04 #@! TO.N,/SWDIO*
X158198309Y-111605111D03*
G04 #@! TO.P,J_PROG1,3,3_3*
G04 #@! TO.N,/RESET*
X159955112Y-111231691D03*
G04 #@! TO.P,J_PROG1,4,4_4*
G04 #@! TO.N,/SWDCLK*
X159263420Y-112296803D03*
G04 #@! TO.P,J_PROG1,5,5_5*
G04 #@! TO.N,GND*
X161020223Y-111923383D03*
G04 #@! TO.P,J_PROG1,6,6_6*
G04 #@! TO.N,unconnected-(J_PROG1-Pad6)*
X160328532Y-112988494D03*
D15*
G04 #@! TO.P,J_PROG1,7,7_7*
G04 #@! TO.N,GND*
X157479043Y-110380864D03*
G04 #@! TO.P,J_PROG1,8,8_8*
X162292843Y-112295541D03*
G04 #@! TO.P,J_PROG1,9,9_9*
X161186136Y-113999719D03*
G04 #@! TD*
D16*
G04 #@! TO.P,E_EEG1,1,1_1*
G04 #@! TO.N,Net-(E_EEG1-Pad1)*
X164430000Y-148205000D03*
G04 #@! TD*
G04 #@! TO.P,STIM_E_P1,1,1_1*
G04 #@! TO.N,Net-(R_STIM_P1-Pad2)*
X152501600Y-154076400D03*
G04 #@! TD*
G04 #@! TO.P,STIM_E_N1,1,1_1*
G04 #@! TO.N,Net-(R_STIM_N1-Pad2)*
X145643600Y-153568400D03*
G04 #@! TD*
D17*
G04 #@! TO.P,D_850,1,K_1*
G04 #@! TO.N,/LED/LED850_K*
X153765000Y-131180000D03*
G04 #@! TO.P,D_850,2,A_2*
G04 #@! TO.N,VBAT_SYSTEM*
X153765000Y-128980000D03*
D18*
G04 #@! TO.P,D_850,3,EP_3*
G04 #@! TO.N,GND*
X153765000Y-130080000D03*
G04 #@! TD*
D16*
G04 #@! TO.P,E_EEG2,1,1_1*
G04 #@! TO.N,Net-(E_EEG2-Pad1)*
X127508000Y-134670800D03*
G04 #@! TD*
D17*
G04 #@! TO.P,D_730,1,K_1*
G04 #@! TO.N,/LED/LED730_K*
X145335000Y-131181200D03*
G04 #@! TO.P,D_730,2,A_2*
G04 #@! TO.N,VBAT_SYSTEM*
X145335000Y-128981200D03*
D18*
G04 #@! TO.P,D_730,3,EP_3*
G04 #@! TO.N,GND*
X145335000Y-130081200D03*
G04 #@! TD*
D19*
G04 #@! TO.P,D_PD1,1,CATHODE_1_1*
G04 #@! TO.N,/PD_ADC/PHOTO_TIA_IN*
X149756000Y-140200400D03*
G04 #@! TO.P,D_PD1,2,CATHODE_2_2*
X148446000Y-140200400D03*
G04 #@! TO.P,D_PD1,3,CATHODE_3_3*
X147066000Y-140200400D03*
G04 #@! TO.P,D_PD1,4,CATHODE_4_4*
X145756000Y-140200400D03*
G04 #@! TO.P,D_PD1,5,ANODE_5*
G04 #@! TO.N,GND*
X145756000Y-137820400D03*
G04 #@! TO.P,D_PD1,6,CATHODE_5_6*
G04 #@! TO.N,/PD_ADC/PHOTO_TIA_IN*
X147066000Y-137820400D03*
G04 #@! TO.P,D_PD1,7,CATHODE_6_7*
X148446000Y-137820400D03*
G04 #@! TO.P,D_PD1,8,CATHODE_7_8*
X149756000Y-137820400D03*
G04 #@! TD*
D16*
G04 #@! TO.P,E_EEG3,1,1_1*
G04 #@! TO.N,Net-(E_EEG3-Pad1)*
X154279600Y-137769600D03*
G04 #@! TD*
D20*
G04 #@! TO.N,/EEG_RESET_N*
X168830000Y-117680000D03*
X167350000Y-118030000D03*
G04 #@! TO.N,GND*
X142290800Y-151942800D03*
X165912800Y-131216400D03*
X156311600Y-124460000D03*
X145389600Y-123901200D03*
X168620000Y-143290000D03*
X148285200Y-146202400D03*
X140030000Y-130910000D03*
X138226800Y-137871200D03*
X168300400Y-119583200D03*
X152196800Y-130403600D03*
X167643646Y-121560754D03*
X141000000Y-120000000D03*
X126644400Y-127101600D03*
X165404800Y-124155200D03*
X150926800Y-146558000D03*
X145034000Y-134467600D03*
X156210000Y-116078000D03*
X159715200Y-118465600D03*
X141935200Y-145288000D03*
X170027600Y-120396000D03*
X152196800Y-129794000D03*
X143754631Y-130454400D03*
X153005662Y-114952400D03*
X166471600Y-117805200D03*
X169164000Y-135788400D03*
X129133600Y-132588000D03*
X143916400Y-148082000D03*
X142700000Y-121250000D03*
X146890000Y-130470000D03*
X166660000Y-136180000D03*
X147624800Y-116885000D03*
X143780000Y-129810000D03*
X133654800Y-132740400D03*
X154584400Y-118821200D03*
X143052800Y-137972800D03*
X165862000Y-137515600D03*
X154076400Y-107137200D03*
X138328400Y-141173200D03*
X129946400Y-121259600D03*
X167284400Y-118872000D03*
X132892800Y-140919200D03*
X155295600Y-129794000D03*
X170660000Y-140450000D03*
X164290088Y-119850459D03*
X161391600Y-128066800D03*
X155295600Y-130403600D03*
X168554400Y-127812800D03*
X147980400Y-121208800D03*
X146405600Y-138226800D03*
X166928800Y-114960400D03*
X152349200Y-123190000D03*
X144400000Y-119100000D03*
X154432000Y-152654000D03*
X148608206Y-151711099D03*
X135585200Y-119938800D03*
X172413363Y-134264400D03*
X153974800Y-148793200D03*
X134315200Y-135686800D03*
X150012400Y-125222000D03*
X145999200Y-107086400D03*
X132537200Y-127050800D03*
X146900000Y-129830000D03*
G04 #@! TO.N,/PD_ADC/3V3_A*
X140487400Y-137490200D03*
X132842000Y-137820400D03*
G04 #@! TO.N,TEMP_ALERT*
X160588007Y-120608007D03*
X162330000Y-119330000D03*
G04 #@! TO.N,3V3_DIG*
X171100000Y-132850000D03*
X158250000Y-124490000D03*
X150825200Y-147929600D03*
X136499600Y-126511400D03*
X157850000Y-131950000D03*
X148437600Y-125710000D03*
X131500000Y-128400000D03*
X157270000Y-120850000D03*
X137500000Y-124250000D03*
X158719117Y-109758883D03*
X150240000Y-121430000D03*
X161950400Y-123750000D03*
X141071600Y-134162800D03*
X149352000Y-115671600D03*
X167538400Y-134975600D03*
X165800000Y-130200000D03*
G04 #@! TO.N,/Power/BAT+*
X150825200Y-110337600D03*
G04 #@! TO.N,VBAT_SYSTEM*
X125690000Y-130950000D03*
X135864176Y-123664176D03*
X145338800Y-149555200D03*
X137864176Y-121664176D03*
X142320000Y-128980000D03*
G04 #@! TO.N,Net-(IC2-IN2N)*
X164200000Y-136590000D03*
X159258000Y-144881600D03*
G04 #@! TO.N,ADC_MOSI*
X136621400Y-127736400D03*
X170170000Y-126210000D03*
X172310000Y-127400000D03*
X164670000Y-117880000D03*
G04 #@! TO.N,ADC_SCK*
X160905000Y-116850000D03*
X137271400Y-127011400D03*
X162112130Y-116195000D03*
X171640000Y-127810000D03*
G04 #@! TO.N,ADC_MISO*
X135971400Y-128281400D03*
X171000000Y-128220000D03*
X163175000Y-117985000D03*
G04 #@! TO.N,/EEG_DRDY*
X170400000Y-128675000D03*
X164770000Y-117165000D03*
G04 #@! TO.N,Net-(E_EEG2-Pad1)*
X158750000Y-146216435D03*
G04 #@! TO.N,/SWDCLK*
X165550000Y-116270000D03*
G04 #@! TO.N,/SWDIO*
X164350000Y-114100000D03*
X161565000Y-115605000D03*
X164000000Y-115190000D03*
G04 #@! TO.N,/RESET*
X163495000Y-115685000D03*
G04 #@! TO.N,PWM_730*
X129110000Y-131180000D03*
X163150000Y-118710000D03*
G04 #@! TO.N,ADC_CS_N*
X157420000Y-125450000D03*
X159240000Y-117550000D03*
X139800000Y-129100000D03*
X149940000Y-127590000D03*
G04 #@! TO.N,I2C_TEMP_SDA*
X155316054Y-120433947D03*
X154965000Y-123780000D03*
G04 #@! TO.N,/MCU_STIM_IN2*
X162915600Y-120396000D03*
X172059600Y-121056400D03*
G04 #@! TO.N,/MCU_STIM_IN1*
X164236400Y-122936000D03*
X152095200Y-149656800D03*
G04 #@! TO.N,ADC_DRDY_N*
X163590000Y-119510000D03*
X160960000Y-123170000D03*
X135321400Y-132098600D03*
X141660000Y-132290000D03*
G04 #@! TO.N,/MCU_STIM_EN*
X162153600Y-125425200D03*
X164236400Y-120548400D03*
G04 #@! TO.N,/LED/LED730_K*
X132280000Y-130470000D03*
G04 #@! TO.N,Net-(U4-OUT1)*
X150368000Y-153162000D03*
X147116800Y-150215600D03*
G04 #@! TO.N,Net-(C_EEG_AC_N1-Pad1)*
X157937200Y-140258800D03*
X129946400Y-140208000D03*
G04 #@! TO.N,/PD_ADC/PHOTO_TIA_IN*
X145135600Y-140004800D03*
G04 #@! TO.N,/LED/LED850_K*
X153840000Y-132470000D03*
G04 #@! TD*
G04 #@! TO.N,/EEG_RESET_N*
D21*
X167350000Y-118030000D02*
X168480000Y-118030000D01*
X168480000Y-118030000D02*
X168830000Y-117680000D01*
G04 #@! TO.N,GND*
X152196800Y-129794000D02*
X153479000Y-129794000D01*
X145586200Y-129830000D02*
X145335000Y-130081200D01*
X144051200Y-130081200D02*
X143780000Y-129810000D01*
X153479000Y-129794000D02*
X153765000Y-130080000D01*
X152196800Y-130403600D02*
X153441400Y-130403600D01*
X154088600Y-130403600D02*
X153765000Y-130080000D01*
X155295600Y-129794000D02*
X154051000Y-129794000D01*
X161020223Y-111923384D02*
X161920686Y-111923384D01*
X145723800Y-130470000D02*
X145335000Y-130081200D01*
X145335000Y-130081200D02*
X144051200Y-130081200D01*
X146890000Y-130470000D02*
X145723800Y-130470000D01*
X148092800Y-135596000D02*
X148082000Y-135585200D01*
X145756000Y-137820400D02*
X145999200Y-137820400D01*
X155295600Y-130403600D02*
X154088600Y-130403600D01*
X154051000Y-129794000D02*
X153765000Y-130080000D01*
X144961800Y-130454400D02*
X143754631Y-130454400D01*
X146900000Y-129830000D02*
X145586200Y-129830000D01*
X153441400Y-130403600D02*
X153765000Y-130080000D01*
X145335000Y-130081200D02*
X144961800Y-130454400D01*
X143754631Y-130454400D02*
X143754631Y-130509542D01*
X145999200Y-137820400D02*
X146405600Y-138226800D01*
G04 #@! TO.N,TEMP_ALERT*
X160588007Y-120608007D02*
X160656014Y-120540000D01*
X161350000Y-119930000D02*
X161500000Y-119930000D01*
X160740000Y-120540000D02*
X161350000Y-119930000D01*
X162100000Y-119330000D02*
X162330000Y-119330000D01*
X160656014Y-120540000D02*
X160740000Y-120540000D01*
X161500000Y-119930000D02*
X162100000Y-119330000D01*
G04 #@! TO.N,3V3_DIG*
X158890000Y-109929766D02*
X158719117Y-109758883D01*
X158890000Y-110540000D02*
X158890000Y-109929766D01*
G04 #@! TO.N,VBAT_SYSTEM*
D22*
X126136400Y-137871200D02*
X126136400Y-138531600D01*
X127863600Y-141884400D02*
X127863600Y-142494000D01*
X129489200Y-144830800D02*
X129489200Y-144983200D01*
X127203200Y-141224000D02*
X127863600Y-141884400D01*
X126136400Y-138531600D02*
X126644400Y-139039600D01*
X127863600Y-142494000D02*
X129082800Y-143713200D01*
X125690000Y-137424800D02*
X126136400Y-137871200D01*
X129489200Y-144983200D02*
X134061200Y-149555200D01*
X126644400Y-139954000D02*
X127203200Y-140512800D01*
X126644400Y-139039600D02*
X126644400Y-139954000D01*
D21*
X142321200Y-128981200D02*
X142320000Y-128980000D01*
D22*
X125690000Y-130950000D02*
X125690000Y-137424800D01*
X153765000Y-128980000D02*
X145336200Y-128980000D01*
X145335000Y-128981200D02*
X142321200Y-128981200D01*
D21*
X145336200Y-128980000D02*
X145335000Y-128981200D01*
D22*
X129082800Y-143713200D02*
X129082800Y-144424400D01*
X127203200Y-140512800D02*
X127203200Y-141224000D01*
X129082800Y-144424400D02*
X129489200Y-144830800D01*
X134061200Y-149555200D02*
X145338800Y-149555200D01*
G04 #@! TO.N,Net-(IC2-IN2N)*
D21*
X162950000Y-141310000D02*
X161330000Y-142930000D01*
X161209600Y-142930000D02*
X159258000Y-144881600D01*
X161330000Y-142930000D02*
X161209600Y-142930000D01*
X162950000Y-140480000D02*
X162950000Y-141310000D01*
X164200000Y-136590000D02*
X162410000Y-138380000D01*
X162410000Y-139940000D02*
X162950000Y-140480000D01*
X162410000Y-138380000D02*
X162410000Y-139940000D01*
G04 #@! TO.N,ADC_MOSI*
X143990000Y-126520000D02*
X144300000Y-126210000D01*
X136621400Y-127736400D02*
X140153600Y-127736400D01*
X140153600Y-127736400D02*
X141370000Y-126520000D01*
X172310000Y-127400000D02*
X172310000Y-125520000D01*
X172310000Y-125520000D02*
X164670000Y-117880000D01*
X144300000Y-126210000D02*
X170170000Y-126210000D01*
X141370000Y-126520000D02*
X143990000Y-126520000D01*
G04 #@! TO.N,ADC_SCK*
X154720000Y-120322894D02*
X154720000Y-121860000D01*
X154720000Y-121860000D02*
X152050000Y-124530000D01*
X165608000Y-119710893D02*
X162957107Y-117060000D01*
X160905000Y-116850000D02*
X159910000Y-116850000D01*
X162490000Y-117060000D02*
X162430000Y-117000000D01*
X162210000Y-116520000D02*
X162210000Y-116292870D01*
X162210000Y-116292870D02*
X162112130Y-116195000D01*
X170447130Y-124530000D02*
X168320000Y-124530000D01*
X162430000Y-117000000D02*
X162430000Y-116740000D01*
X165760400Y-121107200D02*
X165608000Y-120954800D01*
X139752800Y-124530000D02*
X137271400Y-127011400D01*
X159910000Y-116850000D02*
X159740000Y-117020000D01*
X152050000Y-124530000D02*
X139752800Y-124530000D01*
X171640000Y-127810000D02*
X171640000Y-125722870D01*
X165760400Y-121970400D02*
X165760400Y-121107200D01*
X159740000Y-117020000D02*
X158022894Y-117020000D01*
X162957107Y-117060000D02*
X162490000Y-117060000D01*
X158022894Y-117020000D02*
X154720000Y-120322894D01*
X171640000Y-125722870D02*
X170447130Y-124530000D01*
X165608000Y-120954800D02*
X165608000Y-119710893D01*
X162430000Y-116740000D02*
X162210000Y-116520000D01*
X168320000Y-124530000D02*
X165760400Y-121970400D01*
G04 #@! TO.N,ADC_MISO*
X165100000Y-121818400D02*
X165201600Y-121920000D01*
X140338600Y-128281400D02*
X141670000Y-126950000D01*
X135971400Y-128281400D02*
X140338600Y-128281400D01*
X163672000Y-118460000D02*
X165049200Y-119837200D01*
X165201600Y-122141600D02*
X168120000Y-125060000D01*
X141670000Y-126950000D02*
X171000000Y-126950000D01*
X165100000Y-120751600D02*
X165100000Y-121818400D01*
X168120000Y-125060000D02*
X170250000Y-125060000D01*
X165201600Y-121920000D02*
X165201600Y-122141600D01*
X163175000Y-117985000D02*
X163650000Y-118460000D01*
X170250000Y-125060000D02*
X171000000Y-125810000D01*
X171000000Y-128220000D02*
X171000000Y-126950000D01*
X163650000Y-118460000D02*
X163672000Y-118460000D01*
X165049200Y-119837200D02*
X165049200Y-120700800D01*
X165049200Y-120700800D02*
X165100000Y-120751600D01*
X171000000Y-125810000D02*
X171000000Y-126950000D01*
G04 #@! TO.N,/EEG_DRDY*
X172810000Y-127607107D02*
X172810000Y-125205000D01*
X171697107Y-128720000D02*
X172810000Y-127607107D01*
X170445000Y-128720000D02*
X171697107Y-128720000D01*
X172810000Y-125205000D02*
X164770000Y-117165000D01*
X170400000Y-128675000D02*
X170445000Y-128720000D01*
G04 #@! TO.N,Net-(E_EEG2-Pad1)*
X131510600Y-140055600D02*
X127508000Y-136053000D01*
X147675600Y-144170400D02*
X135128000Y-144170400D01*
X156006800Y-144627600D02*
X148132800Y-144627600D01*
X157595635Y-146216435D02*
X156006800Y-144627600D01*
X127508000Y-136053000D02*
X127508000Y-134670800D01*
X131510600Y-140553000D02*
X131510600Y-140055600D01*
X148132800Y-144627600D02*
X147675600Y-144170400D01*
X135128000Y-144170400D02*
X131510600Y-140553000D01*
X158750000Y-146216435D02*
X157595635Y-146216435D01*
G04 #@! TO.N,/SWDCLK*
X159263421Y-112296802D02*
X159263421Y-113455863D01*
X163372893Y-116270000D02*
X165550000Y-116270000D01*
X162077613Y-114974720D02*
X163372893Y-116270000D01*
X160782278Y-114974720D02*
X162077613Y-114974720D01*
X159263421Y-113455863D02*
X160782278Y-114974720D01*
G04 #@! TO.N,/SWDIO*
X161565000Y-115605000D02*
X161570000Y-115600000D01*
X164350000Y-114840000D02*
X164000000Y-115190000D01*
X158198309Y-111605110D02*
X158198309Y-112968309D01*
X161560000Y-115610000D02*
X161565000Y-115605000D01*
X160840000Y-115610000D02*
X161560000Y-115610000D01*
X164350000Y-114100000D02*
X164350000Y-114840000D01*
X158198309Y-112968309D02*
X160840000Y-115610000D01*
G04 #@! TO.N,/RESET*
X163440000Y-111300000D02*
X163440000Y-111750000D01*
X160496803Y-110690000D02*
X162830000Y-110690000D01*
X159955111Y-111231692D02*
X160496803Y-110690000D01*
X162830000Y-110690000D02*
X163440000Y-111300000D01*
X163440000Y-111750000D02*
X163495000Y-111805000D01*
X163495000Y-111805000D02*
X163495000Y-115685000D01*
G04 #@! TO.N,PWM_730*
X161330000Y-116350000D02*
X161860000Y-116880000D01*
X153440000Y-122260000D02*
X154250000Y-121450000D01*
X154250000Y-121450000D02*
X154250000Y-119910000D01*
X160450000Y-116350000D02*
X161330000Y-116350000D01*
X129110000Y-131180000D02*
X129620000Y-131180000D01*
X138540000Y-122260000D02*
X153440000Y-122260000D01*
X129620000Y-131180000D02*
X138540000Y-122260000D01*
X161860000Y-116880000D02*
X161860000Y-117420000D01*
X157810000Y-116350000D02*
X160450000Y-116350000D01*
X161860000Y-117420000D02*
X163150000Y-118710000D01*
X154250000Y-119910000D02*
X157810000Y-116350000D01*
G04 #@! TO.N,ADC_CS_N*
X140350000Y-129100000D02*
X141860000Y-127590000D01*
X149950000Y-127590000D02*
X149970000Y-127610000D01*
X141860000Y-127590000D02*
X149940000Y-127590000D01*
X158900000Y-125450000D02*
X159120000Y-125230000D01*
X139800000Y-129100000D02*
X140350000Y-129100000D01*
X157420000Y-125450000D02*
X158900000Y-125450000D01*
X159120000Y-125230000D02*
X159120000Y-117670000D01*
X149940000Y-127590000D02*
X149950000Y-127590000D01*
X159120000Y-117670000D02*
X159240000Y-117550000D01*
G04 #@! TO.N,I2C_TEMP_SDA*
X155316054Y-122158946D02*
X154965000Y-122510000D01*
X155316054Y-120433947D02*
X155316054Y-122158946D01*
X154965000Y-122510000D02*
X154965000Y-123780000D01*
G04 #@! TO.N,ADC_DRDY_N*
X141650000Y-132280000D02*
X135502800Y-132280000D01*
X161260400Y-123109600D02*
X163590000Y-120780000D01*
X161260400Y-123109600D02*
X161020400Y-123109600D01*
X163590000Y-120780000D02*
X163590000Y-119510000D01*
X161020400Y-123109600D02*
X160960000Y-123170000D01*
X141660000Y-132290000D02*
X141650000Y-132280000D01*
X135502800Y-132280000D02*
X135321400Y-132098600D01*
G04 #@! TO.N,/MCU_STIM_EN*
X164236400Y-120548400D02*
X164236400Y-121361200D01*
X162153600Y-124460000D02*
X162153600Y-125425200D01*
X163220400Y-123190000D02*
X163017200Y-123393200D01*
X163220400Y-122377200D02*
X163220400Y-123190000D01*
X164236400Y-121361200D02*
X163220400Y-122377200D01*
X163017200Y-123393200D02*
X163017200Y-123596400D01*
X163017200Y-123596400D02*
X162153600Y-124460000D01*
G04 #@! TO.N,/LED/LED730_K*
D22*
X140594000Y-129794000D02*
X142000000Y-131200000D01*
X142000000Y-131200000D02*
X145316200Y-131200000D01*
X145316200Y-131200000D02*
X145335000Y-131181200D01*
X132956000Y-129794000D02*
X140594000Y-129794000D01*
X132280000Y-130470000D02*
X132956000Y-129794000D01*
G04 #@! TO.N,Net-(U4-OUT1)*
D21*
X149301200Y-153111200D02*
X150317200Y-153111200D01*
X150317200Y-153111200D02*
X150368000Y-153162000D01*
X147116800Y-150215600D02*
X147116800Y-150926800D01*
X147116800Y-150926800D02*
X149301200Y-153111200D01*
G04 #@! TO.N,/PD_ADC/PHOTO_TIA_IN*
X149756000Y-140200400D02*
X149756000Y-137820400D01*
X145756000Y-140200400D02*
X145331200Y-140200400D01*
X148446000Y-140200400D02*
X149756000Y-140200400D01*
X148446000Y-137820400D02*
X147066000Y-137820400D01*
X145331200Y-140200400D02*
X145135600Y-140004800D01*
X147066000Y-140200400D02*
X148446000Y-140200400D01*
X145756000Y-140200400D02*
X147066000Y-140200400D01*
X149756000Y-137820400D02*
X148446000Y-137820400D01*
G04 #@! TO.N,/LED/LED850_K*
D22*
X153850000Y-131265000D02*
X153850000Y-132310000D01*
D21*
X153765000Y-132395000D02*
X153840000Y-132470000D01*
D22*
X153765000Y-131180000D02*
X153850000Y-131265000D01*
X153840000Y-132320000D02*
X153840000Y-132470000D01*
X153850000Y-132310000D02*
X153840000Y-132320000D01*
G04 #@! TD*
G04 #@! TA.AperFunction,Conductor*
G04 #@! TO.N,GND*
G36*
X152637942Y-122880185D02*
G01*
X152683697Y-122932989D01*
X152693641Y-123002147D01*
X152664616Y-123065703D01*
X152658584Y-123072181D01*
X151837584Y-123893181D01*
X151776261Y-123926666D01*
X151749903Y-123929500D01*
X139839470Y-123929500D01*
X139839454Y-123929499D01*
X139831858Y-123929499D01*
X139673743Y-123929499D01*
X139620156Y-123943858D01*
X139521014Y-123970423D01*
X139521009Y-123970426D01*
X139384090Y-124049475D01*
X139384082Y-124049481D01*
X137352823Y-126080740D01*
X137291500Y-126114225D01*
X137221808Y-126109241D01*
X137165875Y-126067369D01*
X137162051Y-126061966D01*
X137121389Y-126001111D01*
X137121387Y-126001108D01*
X137009892Y-125889613D01*
X137009888Y-125889610D01*
X136878785Y-125802009D01*
X136878772Y-125802002D01*
X136733101Y-125741664D01*
X136733089Y-125741661D01*
X136578445Y-125710900D01*
X136578442Y-125710900D01*
X136420758Y-125710900D01*
X136420755Y-125710900D01*
X136266110Y-125741661D01*
X136266102Y-125741663D01*
X136229985Y-125756623D01*
X136160515Y-125764090D01*
X136098036Y-125732814D01*
X136062385Y-125672725D01*
X136064880Y-125602900D01*
X136094851Y-125554382D01*
X136795898Y-124853335D01*
X136857219Y-124819852D01*
X136926911Y-124824836D01*
X136971258Y-124853337D01*
X136989707Y-124871786D01*
X136989711Y-124871789D01*
X137120814Y-124959390D01*
X137120827Y-124959397D01*
X137244246Y-125010518D01*
X137266503Y-125019737D01*
X137398606Y-125046014D01*
X137421153Y-125050499D01*
X137421156Y-125050500D01*
X137421158Y-125050500D01*
X137578844Y-125050500D01*
X137578845Y-125050499D01*
X137733497Y-125019737D01*
X137879179Y-124959394D01*
X138010289Y-124871789D01*
X138121789Y-124760289D01*
X138209394Y-124629179D01*
X138269737Y-124483497D01*
X138300500Y-124328842D01*
X138300500Y-124171158D01*
X138300500Y-124171155D01*
X138300499Y-124171153D01*
X138281755Y-124076920D01*
X138269737Y-124016503D01*
X138256066Y-123983497D01*
X138209397Y-123870827D01*
X138209390Y-123870814D01*
X138121789Y-123739711D01*
X138121786Y-123739707D01*
X138103337Y-123721258D01*
X138069852Y-123659935D01*
X138074836Y-123590243D01*
X138103334Y-123545899D01*
X138752416Y-122896819D01*
X138813739Y-122863334D01*
X138840097Y-122860500D01*
X152570903Y-122860500D01*
X152637942Y-122880185D01*
G37*
G04 #@! TD.AperFunction*
G04 #@! TA.AperFunction,Conductor*
G36*
X158366531Y-117629442D02*
G01*
X158397435Y-117636745D01*
X158399821Y-117639217D01*
X158403115Y-117640185D01*
X158423896Y-117664167D01*
X158445951Y-117687024D01*
X158447495Y-117691403D01*
X158448870Y-117692989D01*
X158457693Y-117720308D01*
X158470261Y-117783491D01*
X158470263Y-117783497D01*
X158510061Y-117879578D01*
X158519500Y-117927031D01*
X158519500Y-123576329D01*
X158499815Y-123643368D01*
X158447011Y-123689123D01*
X158377853Y-123699067D01*
X158371310Y-123697947D01*
X158328842Y-123689500D01*
X158171158Y-123689500D01*
X158171155Y-123689500D01*
X158016510Y-123720261D01*
X158016498Y-123720264D01*
X157870827Y-123780602D01*
X157870814Y-123780609D01*
X157739711Y-123868210D01*
X157739707Y-123868213D01*
X157628213Y-123979707D01*
X157628210Y-123979711D01*
X157540609Y-124110814D01*
X157540602Y-124110827D01*
X157480264Y-124256498D01*
X157480261Y-124256510D01*
X157449500Y-124411153D01*
X157449500Y-124526442D01*
X157429815Y-124593481D01*
X157377011Y-124639236D01*
X157346939Y-124647341D01*
X157347132Y-124648311D01*
X157186510Y-124680261D01*
X157186498Y-124680264D01*
X157040827Y-124740602D01*
X157040814Y-124740609D01*
X156909711Y-124828210D01*
X156909707Y-124828213D01*
X156798213Y-124939707D01*
X156798210Y-124939711D01*
X156710609Y-125070814D01*
X156710602Y-125070827D01*
X156650264Y-125216498D01*
X156650261Y-125216510D01*
X156619500Y-125371153D01*
X156619500Y-125485500D01*
X156599815Y-125552539D01*
X156547011Y-125598294D01*
X156495500Y-125609500D01*
X149335556Y-125609500D01*
X149268517Y-125589815D01*
X149222762Y-125537011D01*
X149220087Y-125530700D01*
X149216082Y-125520470D01*
X149207337Y-125476503D01*
X149146994Y-125330821D01*
X149134562Y-125312215D01*
X149129663Y-125299700D01*
X149127736Y-125277743D01*
X149121152Y-125256714D01*
X149124743Y-125243621D01*
X149123557Y-125230097D01*
X149133805Y-125210587D01*
X149139636Y-125189334D01*
X149149736Y-125180260D01*
X149156050Y-125168243D01*
X149175218Y-125157371D01*
X149191615Y-125142643D01*
X149207570Y-125139022D01*
X149216825Y-125133774D01*
X149227981Y-125134391D01*
X149245132Y-125130500D01*
X151963331Y-125130500D01*
X151963347Y-125130501D01*
X151970943Y-125130501D01*
X152129054Y-125130501D01*
X152129057Y-125130501D01*
X152281785Y-125089577D01*
X152349468Y-125050500D01*
X152418716Y-125010520D01*
X152530520Y-124898716D01*
X152530520Y-124898714D01*
X152540724Y-124888511D01*
X152540727Y-124888506D01*
X153983820Y-123445414D01*
X154045142Y-123411930D01*
X154114834Y-123416914D01*
X154170767Y-123458786D01*
X154195184Y-123524250D01*
X154193117Y-123557287D01*
X154164500Y-123701153D01*
X154164500Y-123858843D01*
X154195261Y-124013489D01*
X154195264Y-124013501D01*
X154255602Y-124159172D01*
X154255609Y-124159185D01*
X154343210Y-124290288D01*
X154343213Y-124290292D01*
X154454707Y-124401786D01*
X154454711Y-124401789D01*
X154585814Y-124489390D01*
X154585827Y-124489397D01*
X154731498Y-124549735D01*
X154731503Y-124549737D01*
X154827550Y-124568842D01*
X154886153Y-124580499D01*
X154886156Y-124580500D01*
X154886158Y-124580500D01*
X155043844Y-124580500D01*
X155043845Y-124580499D01*
X155198497Y-124549737D01*
X155344179Y-124489394D01*
X155475289Y-124401789D01*
X155586789Y-124290289D01*
X155674394Y-124159179D01*
X155734737Y-124013497D01*
X155763636Y-123868213D01*
X155765500Y-123858843D01*
X155765500Y-123701155D01*
X155765499Y-123701153D01*
X155754408Y-123645394D01*
X155734737Y-123546503D01*
X155693229Y-123446292D01*
X155674397Y-123400827D01*
X155674390Y-123400814D01*
X155586398Y-123269125D01*
X155565520Y-123202447D01*
X155565500Y-123200234D01*
X155565500Y-122810097D01*
X155574143Y-122780660D01*
X155580667Y-122750671D01*
X155584422Y-122745653D01*
X155585185Y-122743058D01*
X155601815Y-122722419D01*
X155674559Y-122649674D01*
X155674564Y-122649671D01*
X155684768Y-122639466D01*
X155684770Y-122639466D01*
X155796574Y-122527662D01*
X155875631Y-122390730D01*
X155916554Y-122238003D01*
X155916554Y-121013712D01*
X155936239Y-120946673D01*
X155937452Y-120944821D01*
X155941193Y-120939223D01*
X156025448Y-120813126D01*
X156025449Y-120813123D01*
X156025451Y-120813120D01*
X156042834Y-120771153D01*
X156469500Y-120771153D01*
X156469500Y-120928846D01*
X156500261Y-121083489D01*
X156500264Y-121083501D01*
X156560602Y-121229172D01*
X156560609Y-121229185D01*
X156648210Y-121360288D01*
X156648213Y-121360292D01*
X156759707Y-121471786D01*
X156759711Y-121471789D01*
X156890814Y-121559390D01*
X156890827Y-121559397D01*
X157036498Y-121619735D01*
X157036503Y-121619737D01*
X157191153Y-121650499D01*
X157191156Y-121650500D01*
X157191158Y-121650500D01*
X157348844Y-121650500D01*
X157348845Y-121650499D01*
X157503497Y-121619737D01*
X157649179Y-121559394D01*
X157780289Y-121471789D01*
X157891789Y-121360289D01*
X157979394Y-121229179D01*
X158039737Y-121083497D01*
X158070500Y-120928842D01*
X158070500Y-120771158D01*
X158070500Y-120771155D01*
X158070499Y-120771153D01*
X158064001Y-120738484D01*
X158039737Y-120616503D01*
X158010580Y-120546111D01*
X157979397Y-120470827D01*
X157979390Y-120470814D01*
X157891789Y-120339711D01*
X157891786Y-120339707D01*
X157780292Y-120228213D01*
X157780288Y-120228210D01*
X157649185Y-120140609D01*
X157649172Y-120140602D01*
X157503501Y-120080264D01*
X157503489Y-120080261D01*
X157348845Y-120049500D01*
X157348842Y-120049500D01*
X157191158Y-120049500D01*
X157191155Y-120049500D01*
X157036510Y-120080261D01*
X157036498Y-120080264D01*
X156890827Y-120140602D01*
X156890814Y-120140609D01*
X156759711Y-120228210D01*
X156759707Y-120228213D01*
X156648213Y-120339707D01*
X156648210Y-120339711D01*
X156560609Y-120470814D01*
X156560602Y-120470827D01*
X156500264Y-120616498D01*
X156500261Y-120616510D01*
X156469500Y-120771153D01*
X156042834Y-120771153D01*
X156063589Y-120721045D01*
X156085791Y-120667444D01*
X156116554Y-120512789D01*
X156116554Y-120355105D01*
X156116554Y-120355102D01*
X156116553Y-120355100D01*
X156102940Y-120286663D01*
X156085791Y-120200450D01*
X156085789Y-120200445D01*
X156025450Y-120054772D01*
X156025449Y-120054771D01*
X156025448Y-120054768D01*
X156006646Y-120026630D01*
X155985769Y-119959954D01*
X156004253Y-119892573D01*
X156022064Y-119870063D01*
X158235310Y-117656819D01*
X158296633Y-117623334D01*
X158322991Y-117620500D01*
X158336076Y-117620500D01*
X158366531Y-117629442D01*
G37*
G04 #@! TD.AperFunction*
G04 #@! TA.AperFunction,Conductor*
G36*
X165185819Y-122992227D02*
G01*
X165232248Y-123021483D01*
X167608584Y-125397819D01*
X167642069Y-125459142D01*
X167637085Y-125528834D01*
X167595213Y-125584767D01*
X167529749Y-125609184D01*
X167520903Y-125609500D01*
X163078100Y-125609500D01*
X163011061Y-125589815D01*
X162965306Y-125537011D01*
X162954100Y-125485500D01*
X162954100Y-125346355D01*
X162954099Y-125346353D01*
X162951008Y-125330815D01*
X162923337Y-125191703D01*
X162909321Y-125157865D01*
X162862997Y-125046027D01*
X162862990Y-125046014D01*
X162774998Y-124914325D01*
X162769347Y-124896278D01*
X162759123Y-124880369D01*
X162754671Y-124849407D01*
X162754120Y-124847647D01*
X162754100Y-124845434D01*
X162754100Y-124760096D01*
X162773785Y-124693057D01*
X162790415Y-124672419D01*
X163375706Y-124087127D01*
X163375711Y-124087124D01*
X163385914Y-124076920D01*
X163385916Y-124076920D01*
X163497720Y-123965116D01*
X163559077Y-123858842D01*
X163576777Y-123828185D01*
X163617106Y-123677676D01*
X163618306Y-123674093D01*
X163636196Y-123648422D01*
X163652482Y-123621704D01*
X163656011Y-123619989D01*
X163658255Y-123616770D01*
X163687189Y-123604844D01*
X163715329Y-123591175D01*
X163719224Y-123591640D01*
X163722853Y-123590145D01*
X163753639Y-123595755D01*
X163784705Y-123599470D01*
X163790114Y-123602402D01*
X163791591Y-123602672D01*
X163792945Y-123603937D01*
X163804778Y-123610353D01*
X163857221Y-123645394D01*
X163857223Y-123645395D01*
X163857227Y-123645397D01*
X163963703Y-123689500D01*
X164002903Y-123705737D01*
X164150897Y-123735175D01*
X164157553Y-123736499D01*
X164157556Y-123736500D01*
X164157558Y-123736500D01*
X164315244Y-123736500D01*
X164315245Y-123736499D01*
X164469897Y-123705737D01*
X164615579Y-123645394D01*
X164746689Y-123557789D01*
X164858189Y-123446289D01*
X164945794Y-123315179D01*
X165006137Y-123169497D01*
X165022950Y-123084973D01*
X165055334Y-123023062D01*
X165116050Y-122988488D01*
X165185819Y-122992227D01*
G37*
G04 #@! TD.AperFunction*
G04 #@! TA.AperFunction,Conductor*
G36*
X166413703Y-120473384D02*
G01*
X166420181Y-120479416D01*
X169658583Y-123717819D01*
X169692068Y-123779142D01*
X169687084Y-123848834D01*
X169645212Y-123904767D01*
X169579748Y-123929184D01*
X169570902Y-123929500D01*
X168620097Y-123929500D01*
X168553058Y-123909815D01*
X168532416Y-123893181D01*
X166397219Y-121757984D01*
X166363734Y-121696661D01*
X166360900Y-121670303D01*
X166360900Y-121028145D01*
X166360900Y-121028143D01*
X166337074Y-120939223D01*
X166319977Y-120875415D01*
X166284014Y-120813126D01*
X166240920Y-120738484D01*
X166234377Y-120731941D01*
X166226681Y-120719342D01*
X166221286Y-120699285D01*
X166211334Y-120681060D01*
X166208500Y-120654702D01*
X166208500Y-120567097D01*
X166228185Y-120500058D01*
X166280989Y-120454303D01*
X166350147Y-120444359D01*
X166413703Y-120473384D01*
G37*
G04 #@! TD.AperFunction*
G04 #@! TA.AperFunction,Conductor*
G36*
X160392273Y-117470185D02*
G01*
X160394125Y-117471398D01*
X160525814Y-117559390D01*
X160525827Y-117559397D01*
X160671498Y-117619735D01*
X160671503Y-117619737D01*
X160826153Y-117650499D01*
X160826156Y-117650500D01*
X160826158Y-117650500D01*
X160983844Y-117650500D01*
X160983845Y-117650499D01*
X161138497Y-117619737D01*
X161153774Y-117613408D01*
X161154535Y-117613326D01*
X161155138Y-117612853D01*
X161189171Y-117609602D01*
X161223241Y-117605940D01*
X161223928Y-117606283D01*
X161224692Y-117606211D01*
X161255104Y-117621889D01*
X161285721Y-117637214D01*
X161286339Y-117637991D01*
X161286795Y-117638226D01*
X161308612Y-117665969D01*
X161329358Y-117701901D01*
X161329358Y-117701904D01*
X161329360Y-117701904D01*
X161376463Y-117783491D01*
X161379479Y-117788714D01*
X161379481Y-117788717D01*
X161498349Y-117907585D01*
X161498355Y-117907590D01*
X162003833Y-118413068D01*
X162037318Y-118474391D01*
X162032334Y-118544083D01*
X161990462Y-118600016D01*
X161963607Y-118615309D01*
X161950826Y-118620603D01*
X161950814Y-118620609D01*
X161819711Y-118708210D01*
X161819707Y-118708213D01*
X161708213Y-118819707D01*
X161708207Y-118819715D01*
X161620603Y-118950824D01*
X161618545Y-118954674D01*
X161596876Y-118983887D01*
X161267556Y-119313207D01*
X161258980Y-119318768D01*
X161254998Y-119324180D01*
X161237050Y-119332989D01*
X161224161Y-119341348D01*
X161218160Y-119343642D01*
X161118215Y-119370423D01*
X161068095Y-119399360D01*
X161059576Y-119404277D01*
X161059574Y-119404279D01*
X160981285Y-119449479D01*
X160981282Y-119449481D01*
X160889482Y-119541282D01*
X160869480Y-119561284D01*
X160869478Y-119561286D01*
X160752550Y-119678215D01*
X160659577Y-119771188D01*
X160598254Y-119804673D01*
X160571896Y-119807507D01*
X160509162Y-119807507D01*
X160354517Y-119838268D01*
X160354505Y-119838271D01*
X160208834Y-119898609D01*
X160208821Y-119898616D01*
X160077718Y-119986217D01*
X160077714Y-119986220D01*
X159966220Y-120097714D01*
X159966217Y-120097718D01*
X159947602Y-120125578D01*
X159893989Y-120170383D01*
X159824664Y-120179090D01*
X159761637Y-120148935D01*
X159724918Y-120089492D01*
X159720500Y-120056687D01*
X159720500Y-118252941D01*
X159740185Y-118185902D01*
X159756819Y-118165260D01*
X159861786Y-118060292D01*
X159861789Y-118060289D01*
X159949394Y-117929179D01*
X160009737Y-117783497D01*
X160040500Y-117628842D01*
X160040500Y-117611496D01*
X160060185Y-117544457D01*
X160086373Y-117515204D01*
X160093998Y-117509017D01*
X160108716Y-117500520D01*
X160126972Y-117482263D01*
X160131971Y-117478208D01*
X160158503Y-117467114D01*
X160183740Y-117453334D01*
X160194133Y-117452216D01*
X160196433Y-117451255D01*
X160198943Y-117451699D01*
X160210098Y-117450500D01*
X160325234Y-117450500D01*
X160392273Y-117470185D01*
G37*
G04 #@! TD.AperFunction*
G04 #@! TA.AperFunction,Conductor*
G36*
X162596942Y-111310185D02*
G01*
X162617584Y-111326819D01*
X162803181Y-111512416D01*
X162836666Y-111573739D01*
X162839500Y-111600097D01*
X162839500Y-111663330D01*
X162839499Y-111663348D01*
X162839499Y-111829054D01*
X162839498Y-111829054D01*
X162839499Y-111829057D01*
X162873185Y-111954774D01*
X162880424Y-111981787D01*
X162883533Y-111989293D01*
X162881318Y-111990210D01*
X162894500Y-112039392D01*
X162894500Y-114643009D01*
X162888261Y-114664254D01*
X162886682Y-114686342D01*
X162878609Y-114697125D01*
X162874815Y-114710048D01*
X162858083Y-114724546D01*
X162844811Y-114742276D01*
X162832188Y-114746983D01*
X162822011Y-114755803D01*
X162800095Y-114758954D01*
X162779347Y-114766693D01*
X162766185Y-114763829D01*
X162752853Y-114765747D01*
X162732708Y-114756547D01*
X162711074Y-114751841D01*
X162693346Y-114738571D01*
X162689297Y-114736722D01*
X162682819Y-114730691D01*
X162631893Y-114679765D01*
X162565197Y-114613069D01*
X162565193Y-114613064D01*
X162446330Y-114494201D01*
X162446329Y-114494200D01*
X162355281Y-114441634D01*
X162309398Y-114415143D01*
X162156670Y-114374219D01*
X161998556Y-114374219D01*
X161990960Y-114374219D01*
X161990944Y-114374220D01*
X161082375Y-114374220D01*
X161015336Y-114354535D01*
X160994694Y-114337901D01*
X160689951Y-114033158D01*
X160656466Y-113971835D01*
X160661450Y-113902143D01*
X160703322Y-113846210D01*
X160730177Y-113830917D01*
X160770000Y-113814422D01*
X160922648Y-113712426D01*
X161052464Y-113582610D01*
X161154460Y-113429962D01*
X161224716Y-113260349D01*
X161260532Y-113080288D01*
X161260532Y-112896700D01*
X161224716Y-112716639D01*
X161154460Y-112547026D01*
X161154459Y-112547025D01*
X161154456Y-112547019D01*
X161052464Y-112394378D01*
X161052461Y-112394374D01*
X160922651Y-112264564D01*
X160922647Y-112264561D01*
X160770006Y-112162569D01*
X160769997Y-112162564D01*
X160639012Y-112108309D01*
X160584609Y-112064468D01*
X160562544Y-111998174D01*
X160579823Y-111930475D01*
X160598780Y-111906070D01*
X160679044Y-111825807D01*
X160781040Y-111673159D01*
X160851296Y-111503546D01*
X160863889Y-111440236D01*
X160873821Y-111390309D01*
X160906206Y-111328398D01*
X160966922Y-111293823D01*
X160995438Y-111290500D01*
X162529903Y-111290500D01*
X162596942Y-111310185D01*
G37*
G04 #@! TD.AperFunction*
G04 #@! TA.AperFunction,Conductor*
G36*
X150506148Y-104337147D02*
G01*
X151508423Y-104376526D01*
X151513215Y-104376808D01*
X152513249Y-104455512D01*
X152518062Y-104455987D01*
X153514169Y-104573884D01*
X153518948Y-104574544D01*
X154509686Y-104731462D01*
X154514440Y-104732311D01*
X155498233Y-104928000D01*
X155502950Y-104929034D01*
X156478349Y-105163207D01*
X156483000Y-105164421D01*
X157165276Y-105356843D01*
X157448395Y-105436691D01*
X157453054Y-105438104D01*
X158407025Y-105748068D01*
X158411590Y-105749651D01*
X159352679Y-106096836D01*
X159357167Y-106098593D01*
X160283896Y-106482457D01*
X160288312Y-106484388D01*
X160657692Y-106654675D01*
X161199245Y-106904335D01*
X161203626Y-106906460D01*
X161338181Y-106975019D01*
X162097377Y-107361848D01*
X162101633Y-107364124D01*
X162976780Y-107854230D01*
X162980981Y-107856692D01*
X163836215Y-108380780D01*
X163840316Y-108383405D01*
X164674324Y-108940671D01*
X164678318Y-108943455D01*
X165489784Y-109533020D01*
X165493667Y-109535959D01*
X166281377Y-110156939D01*
X166285140Y-110160028D01*
X167047864Y-110811455D01*
X167051489Y-110814676D01*
X167685659Y-111400896D01*
X167788058Y-111495553D01*
X167791568Y-111498928D01*
X168500820Y-112208180D01*
X168504195Y-112211690D01*
X169165108Y-112926662D01*
X169185059Y-112948244D01*
X169188293Y-112951884D01*
X169839720Y-113714608D01*
X169842809Y-113718371D01*
X170463789Y-114506081D01*
X170466728Y-114509964D01*
X171056293Y-115321430D01*
X171059077Y-115325424D01*
X171616343Y-116159432D01*
X171618968Y-116163533D01*
X172143056Y-117018767D01*
X172145518Y-117022968D01*
X172635614Y-117898096D01*
X172637910Y-117902390D01*
X173093288Y-118796122D01*
X173095413Y-118800503D01*
X173515350Y-119711414D01*
X173517301Y-119715875D01*
X173831071Y-120473384D01*
X173901142Y-120642549D01*
X173902917Y-120647084D01*
X174250094Y-121588149D01*
X174251689Y-121592749D01*
X174561644Y-122546694D01*
X174563057Y-122551353D01*
X174835319Y-123516718D01*
X174836549Y-123521430D01*
X175070709Y-124496779D01*
X175071752Y-124501535D01*
X175267433Y-125485288D01*
X175268289Y-125490081D01*
X175425200Y-126480778D01*
X175425867Y-126485601D01*
X175543759Y-127481669D01*
X175544237Y-127486515D01*
X175622938Y-128486499D01*
X175623224Y-128491360D01*
X175662602Y-129493600D01*
X175662698Y-129498468D01*
X175662698Y-130501531D01*
X175662602Y-130506399D01*
X175623224Y-131508639D01*
X175622938Y-131513500D01*
X175544237Y-132513484D01*
X175543759Y-132518330D01*
X175425867Y-133514398D01*
X175425200Y-133519221D01*
X175268289Y-134509918D01*
X175267433Y-134514711D01*
X175071752Y-135498464D01*
X175070709Y-135503220D01*
X174836549Y-136478569D01*
X174835319Y-136483281D01*
X174563057Y-137448646D01*
X174561644Y-137453305D01*
X174251689Y-138407250D01*
X174250094Y-138411850D01*
X173902917Y-139352915D01*
X173901142Y-139357450D01*
X173517301Y-140284124D01*
X173515350Y-140288585D01*
X173095413Y-141199496D01*
X173093288Y-141203877D01*
X172637910Y-142097609D01*
X172635614Y-142101903D01*
X172145518Y-142977031D01*
X172143056Y-142981232D01*
X171618968Y-143836466D01*
X171616343Y-143840567D01*
X171059077Y-144674575D01*
X171056293Y-144678569D01*
X170466728Y-145490035D01*
X170463789Y-145493918D01*
X169842809Y-146281628D01*
X169839720Y-146285391D01*
X169188293Y-147048115D01*
X169185059Y-147051755D01*
X168504195Y-147788309D01*
X168500820Y-147791819D01*
X167791568Y-148501071D01*
X167788058Y-148504446D01*
X167051504Y-149185310D01*
X167047864Y-149188544D01*
X166285140Y-149839971D01*
X166281377Y-149843060D01*
X165493667Y-150464040D01*
X165489784Y-150466979D01*
X164678318Y-151056544D01*
X164674324Y-151059328D01*
X163840316Y-151616594D01*
X163836215Y-151619219D01*
X162980981Y-152143307D01*
X162976780Y-152145769D01*
X162101652Y-152635865D01*
X162097358Y-152638161D01*
X161203626Y-153093539D01*
X161199245Y-153095664D01*
X160288334Y-153515601D01*
X160283873Y-153517552D01*
X159357199Y-153901393D01*
X159352664Y-153903168D01*
X158411599Y-154250345D01*
X158406999Y-154251940D01*
X157453054Y-154561895D01*
X157448395Y-154563308D01*
X156483030Y-154835570D01*
X156478318Y-154836800D01*
X155502969Y-155070960D01*
X155498213Y-155072003D01*
X154514460Y-155267684D01*
X154509667Y-155268540D01*
X153518970Y-155425451D01*
X153514147Y-155426118D01*
X152518079Y-155544010D01*
X152513233Y-155544488D01*
X151513249Y-155623189D01*
X151508388Y-155623475D01*
X150506148Y-155662853D01*
X150501280Y-155662949D01*
X149498218Y-155662949D01*
X149493350Y-155662853D01*
X148491109Y-155623475D01*
X148486248Y-155623189D01*
X147486264Y-155544488D01*
X147481418Y-155544010D01*
X146485350Y-155426118D01*
X146480527Y-155425451D01*
X145489830Y-155268540D01*
X145485037Y-155267684D01*
X144501284Y-155072003D01*
X144496528Y-155070960D01*
X143521179Y-154836800D01*
X143516467Y-154835570D01*
X142551102Y-154563308D01*
X142546443Y-154561895D01*
X141592498Y-154251940D01*
X141587898Y-154250345D01*
X140646833Y-153903168D01*
X140642298Y-153901393D01*
X140569881Y-153871397D01*
X139911506Y-153598689D01*
X139860448Y-153577540D01*
X139715624Y-153517552D01*
X139711163Y-153515601D01*
X139610221Y-153469066D01*
X144635100Y-153469066D01*
X144635100Y-153667733D01*
X144673854Y-153862561D01*
X144673856Y-153862569D01*
X144749877Y-154046101D01*
X144749882Y-154046110D01*
X144860246Y-154211280D01*
X144860249Y-154211284D01*
X145000715Y-154351750D01*
X145000719Y-154351753D01*
X145165889Y-154462117D01*
X145165895Y-154462120D01*
X145165896Y-154462121D01*
X145349431Y-154538144D01*
X145544266Y-154576899D01*
X145544270Y-154576900D01*
X145544271Y-154576900D01*
X145742930Y-154576900D01*
X145742931Y-154576899D01*
X145937769Y-154538144D01*
X146121304Y-154462121D01*
X146286481Y-154351753D01*
X146426953Y-154211281D01*
X146537321Y-154046104D01*
X146565918Y-153977066D01*
X151493100Y-153977066D01*
X151493100Y-154175733D01*
X151531854Y-154370561D01*
X151531856Y-154370569D01*
X151607877Y-154554101D01*
X151607882Y-154554110D01*
X151718246Y-154719280D01*
X151718249Y-154719284D01*
X151858715Y-154859750D01*
X151858719Y-154859753D01*
X152023889Y-154970117D01*
X152023895Y-154970120D01*
X152023896Y-154970121D01*
X152207431Y-155046144D01*
X152402266Y-155084899D01*
X152402270Y-155084900D01*
X152402271Y-155084900D01*
X152600930Y-155084900D01*
X152600931Y-155084899D01*
X152795769Y-155046144D01*
X152979304Y-154970121D01*
X153144481Y-154859753D01*
X153284953Y-154719281D01*
X153395321Y-154554104D01*
X153471344Y-154370569D01*
X153510100Y-154175729D01*
X153510100Y-153977071D01*
X153471344Y-153782231D01*
X153395321Y-153598696D01*
X153395320Y-153598695D01*
X153395317Y-153598689D01*
X153284953Y-153433519D01*
X153284950Y-153433515D01*
X153144484Y-153293049D01*
X153144480Y-153293046D01*
X152979310Y-153182682D01*
X152979301Y-153182677D01*
X152795769Y-153106656D01*
X152795761Y-153106654D01*
X152600933Y-153067900D01*
X152600929Y-153067900D01*
X152402271Y-153067900D01*
X152402266Y-153067900D01*
X152207438Y-153106654D01*
X152207430Y-153106656D01*
X152023898Y-153182677D01*
X152023889Y-153182682D01*
X151858719Y-153293046D01*
X151858715Y-153293049D01*
X151718249Y-153433515D01*
X151718246Y-153433519D01*
X151607882Y-153598689D01*
X151607877Y-153598698D01*
X151531856Y-153782230D01*
X151531854Y-153782238D01*
X151493100Y-153977066D01*
X146565918Y-153977066D01*
X146613344Y-153862569D01*
X146652100Y-153667729D01*
X146652100Y-153469071D01*
X146613344Y-153274231D01*
X146537321Y-153090696D01*
X146537320Y-153090695D01*
X146537317Y-153090689D01*
X146426953Y-152925519D01*
X146426950Y-152925515D01*
X146286484Y-152785049D01*
X146286480Y-152785046D01*
X146121310Y-152674682D01*
X146121301Y-152674677D01*
X145937769Y-152598656D01*
X145937761Y-152598654D01*
X145742933Y-152559900D01*
X145742929Y-152559900D01*
X145544271Y-152559900D01*
X145544266Y-152559900D01*
X145349438Y-152598654D01*
X145349430Y-152598656D01*
X145165898Y-152674677D01*
X145165889Y-152674682D01*
X145000719Y-152785046D01*
X145000715Y-152785049D01*
X144860249Y-152925515D01*
X144860246Y-152925519D01*
X144749882Y-153090689D01*
X144749877Y-153090698D01*
X144673856Y-153274230D01*
X144673854Y-153274238D01*
X144635100Y-153469066D01*
X139610221Y-153469066D01*
X138800252Y-153095664D01*
X138795871Y-153093539D01*
X137902139Y-152638161D01*
X137897845Y-152635865D01*
X137022717Y-152145769D01*
X137018516Y-152143307D01*
X136163282Y-151619219D01*
X136159181Y-151616594D01*
X135325173Y-151059328D01*
X135321179Y-151056544D01*
X134596478Y-150530018D01*
X134553812Y-150474688D01*
X134547833Y-150405075D01*
X134580439Y-150343280D01*
X134641277Y-150308923D01*
X134669363Y-150305700D01*
X145034196Y-150305700D01*
X145081644Y-150315137D01*
X145105303Y-150324937D01*
X145105308Y-150324938D01*
X145105311Y-150324939D01*
X145259953Y-150355699D01*
X145259956Y-150355700D01*
X145259958Y-150355700D01*
X145417644Y-150355700D01*
X145417645Y-150355699D01*
X145572297Y-150324937D01*
X145717979Y-150264594D01*
X145849089Y-150176989D01*
X145889325Y-150136753D01*
X146316300Y-150136753D01*
X146316300Y-150294446D01*
X146347061Y-150449089D01*
X146347064Y-150449101D01*
X146407402Y-150594772D01*
X146407409Y-150594785D01*
X146495402Y-150726474D01*
X146501052Y-150744520D01*
X146511277Y-150760430D01*
X146515728Y-150791389D01*
X146516280Y-150793151D01*
X146516300Y-150795365D01*
X146516300Y-150840130D01*
X146516299Y-150840148D01*
X146516299Y-151005854D01*
X146516298Y-151005854D01*
X146557223Y-151158585D01*
X146586158Y-151208700D01*
X146586159Y-151208704D01*
X146586160Y-151208704D01*
X146636279Y-151295514D01*
X146636281Y-151295517D01*
X146755149Y-151414385D01*
X146755155Y-151414390D01*
X148816339Y-153475574D01*
X148816349Y-153475585D01*
X148820679Y-153479915D01*
X148820680Y-153479916D01*
X148932484Y-153591720D01*
X148944571Y-153598698D01*
X149019295Y-153641839D01*
X149019297Y-153641841D01*
X149057351Y-153663811D01*
X149069415Y-153670777D01*
X149222143Y-153711700D01*
X149380257Y-153711700D01*
X149734260Y-153711700D01*
X149801299Y-153731385D01*
X149821942Y-153748020D01*
X149857707Y-153783786D01*
X149857711Y-153783789D01*
X149988814Y-153871390D01*
X149988827Y-153871397D01*
X150134498Y-153931735D01*
X150134503Y-153931737D01*
X150289153Y-153962499D01*
X150289156Y-153962500D01*
X150289158Y-153962500D01*
X150446844Y-153962500D01*
X150446845Y-153962499D01*
X150601497Y-153931737D01*
X150747179Y-153871394D01*
X150878289Y-153783789D01*
X150989789Y-153672289D01*
X151077394Y-153541179D01*
X151137737Y-153395497D01*
X151168500Y-153240842D01*
X151168500Y-153083158D01*
X151168500Y-153083155D01*
X151168499Y-153083153D01*
X151137738Y-152928510D01*
X151137737Y-152928503D01*
X151136499Y-152925515D01*
X151077397Y-152782827D01*
X151077390Y-152782814D01*
X150989789Y-152651711D01*
X150989786Y-152651707D01*
X150878292Y-152540213D01*
X150878288Y-152540210D01*
X150747185Y-152452609D01*
X150747172Y-152452602D01*
X150601501Y-152392264D01*
X150601489Y-152392261D01*
X150446845Y-152361500D01*
X150446842Y-152361500D01*
X150289158Y-152361500D01*
X150289155Y-152361500D01*
X150134510Y-152392261D01*
X150134498Y-152392264D01*
X149988823Y-152452604D01*
X149933153Y-152489802D01*
X149866475Y-152510680D01*
X149864262Y-152510700D01*
X149601297Y-152510700D01*
X149534258Y-152491015D01*
X149513616Y-152474381D01*
X147821175Y-150781940D01*
X147787690Y-150720617D01*
X147792674Y-150650925D01*
X147805753Y-150625370D01*
X147826194Y-150594779D01*
X147886537Y-150449097D01*
X147917300Y-150294442D01*
X147917300Y-150136758D01*
X147917300Y-150136755D01*
X147917299Y-150136753D01*
X147903124Y-150065492D01*
X147886537Y-149982103D01*
X147866769Y-149934379D01*
X147826197Y-149836427D01*
X147826190Y-149836414D01*
X147738589Y-149705311D01*
X147738586Y-149705307D01*
X147627092Y-149593813D01*
X147627088Y-149593810D01*
X147603357Y-149577953D01*
X151294700Y-149577953D01*
X151294700Y-149735646D01*
X151325461Y-149890289D01*
X151325464Y-149890301D01*
X151385802Y-150035972D01*
X151385809Y-150035985D01*
X151473410Y-150167088D01*
X151473413Y-150167092D01*
X151584907Y-150278586D01*
X151584911Y-150278589D01*
X151716014Y-150366190D01*
X151716027Y-150366197D01*
X151861698Y-150426535D01*
X151861703Y-150426537D01*
X152016353Y-150457299D01*
X152016356Y-150457300D01*
X152016358Y-150457300D01*
X152174044Y-150457300D01*
X152174045Y-150457299D01*
X152328697Y-150426537D01*
X152474379Y-150366194D01*
X152605489Y-150278589D01*
X152716989Y-150167089D01*
X152804594Y-150035979D01*
X152864937Y-149890297D01*
X152895700Y-149735642D01*
X152895700Y-149577958D01*
X152895700Y-149577955D01*
X152895699Y-149577953D01*
X152881428Y-149506209D01*
X152864937Y-149423303D01*
X152861539Y-149415100D01*
X152804597Y-149277627D01*
X152804590Y-149277614D01*
X152716989Y-149146511D01*
X152716986Y-149146507D01*
X152605492Y-149035013D01*
X152605488Y-149035010D01*
X152474385Y-148947409D01*
X152474372Y-148947402D01*
X152328701Y-148887064D01*
X152328689Y-148887061D01*
X152174045Y-148856300D01*
X152174042Y-148856300D01*
X152016358Y-148856300D01*
X152016355Y-148856300D01*
X151861710Y-148887061D01*
X151861698Y-148887064D01*
X151716027Y-148947402D01*
X151716014Y-148947409D01*
X151584911Y-149035010D01*
X151584907Y-149035013D01*
X151473413Y-149146507D01*
X151473410Y-149146511D01*
X151385809Y-149277614D01*
X151385802Y-149277627D01*
X151325464Y-149423298D01*
X151325461Y-149423310D01*
X151294700Y-149577953D01*
X147603357Y-149577953D01*
X147495985Y-149506209D01*
X147495972Y-149506202D01*
X147350301Y-149445864D01*
X147350289Y-149445861D01*
X147195645Y-149415100D01*
X147195642Y-149415100D01*
X147037958Y-149415100D01*
X147037955Y-149415100D01*
X146883310Y-149445861D01*
X146883298Y-149445864D01*
X146737627Y-149506202D01*
X146737614Y-149506209D01*
X146606511Y-149593810D01*
X146606507Y-149593813D01*
X146495013Y-149705307D01*
X146495010Y-149705311D01*
X146407409Y-149836414D01*
X146407402Y-149836427D01*
X146347064Y-149982098D01*
X146347061Y-149982110D01*
X146316300Y-150136753D01*
X145889325Y-150136753D01*
X145960589Y-150065489D01*
X146048194Y-149934379D01*
X146108537Y-149788697D01*
X146139300Y-149634042D01*
X146139300Y-149476358D01*
X146139300Y-149476355D01*
X146139299Y-149476353D01*
X146128748Y-149423310D01*
X146108537Y-149321703D01*
X146090275Y-149277614D01*
X146048197Y-149176027D01*
X146048190Y-149176014D01*
X145960589Y-149044911D01*
X145960586Y-149044907D01*
X145849092Y-148933413D01*
X145849088Y-148933410D01*
X145717985Y-148845809D01*
X145717972Y-148845802D01*
X145572301Y-148785464D01*
X145572289Y-148785461D01*
X145417645Y-148754700D01*
X145417642Y-148754700D01*
X145259958Y-148754700D01*
X145259955Y-148754700D01*
X145105311Y-148785460D01*
X145105306Y-148785462D01*
X145105304Y-148785462D01*
X145105303Y-148785463D01*
X145081644Y-148795262D01*
X145034196Y-148804700D01*
X134423429Y-148804700D01*
X134356390Y-148785015D01*
X134335748Y-148768381D01*
X133499714Y-147932347D01*
X133418120Y-147850753D01*
X150024700Y-147850753D01*
X150024700Y-148008446D01*
X150055461Y-148163089D01*
X150055464Y-148163101D01*
X150115802Y-148308772D01*
X150115809Y-148308785D01*
X150203410Y-148439888D01*
X150203413Y-148439892D01*
X150314907Y-148551386D01*
X150314911Y-148551389D01*
X150446014Y-148638990D01*
X150446027Y-148638997D01*
X150591698Y-148699335D01*
X150591703Y-148699337D01*
X150746353Y-148730099D01*
X150746356Y-148730100D01*
X150746358Y-148730100D01*
X150904044Y-148730100D01*
X150904045Y-148730099D01*
X151058697Y-148699337D01*
X151204379Y-148638994D01*
X151335489Y-148551389D01*
X151446989Y-148439889D01*
X151534594Y-148308779D01*
X151594937Y-148163097D01*
X151606361Y-148105666D01*
X163421500Y-148105666D01*
X163421500Y-148304333D01*
X163460254Y-148499161D01*
X163460256Y-148499169D01*
X163536277Y-148682701D01*
X163536282Y-148682710D01*
X163646646Y-148847880D01*
X163646649Y-148847884D01*
X163787115Y-148988350D01*
X163787119Y-148988353D01*
X163952289Y-149098717D01*
X163952295Y-149098720D01*
X163952296Y-149098721D01*
X164135831Y-149174744D01*
X164315282Y-149210439D01*
X164330666Y-149213499D01*
X164330670Y-149213500D01*
X164330671Y-149213500D01*
X164529330Y-149213500D01*
X164529331Y-149213499D01*
X164724169Y-149174744D01*
X164907704Y-149098721D01*
X165072881Y-148988353D01*
X165213353Y-148847881D01*
X165323721Y-148682704D01*
X165399744Y-148499169D01*
X165438500Y-148304329D01*
X165438500Y-148105671D01*
X165399744Y-147910831D01*
X165323721Y-147727296D01*
X165323720Y-147727295D01*
X165323717Y-147727289D01*
X165213353Y-147562119D01*
X165213350Y-147562115D01*
X165072884Y-147421649D01*
X165072880Y-147421646D01*
X164907710Y-147311282D01*
X164907701Y-147311277D01*
X164724169Y-147235256D01*
X164724161Y-147235254D01*
X164529333Y-147196500D01*
X164529329Y-147196500D01*
X164330671Y-147196500D01*
X164330666Y-147196500D01*
X164135838Y-147235254D01*
X164135830Y-147235256D01*
X163952298Y-147311277D01*
X163952289Y-147311282D01*
X163787119Y-147421646D01*
X163787115Y-147421649D01*
X163646649Y-147562115D01*
X163646646Y-147562119D01*
X163536282Y-147727289D01*
X163536277Y-147727298D01*
X163460256Y-147910830D01*
X163460254Y-147910838D01*
X163421500Y-148105666D01*
X151606361Y-148105666D01*
X151612384Y-148075387D01*
X151625700Y-148008444D01*
X151625700Y-147850755D01*
X151625699Y-147850753D01*
X151601142Y-147727298D01*
X151594937Y-147696103D01*
X151594935Y-147696098D01*
X151534597Y-147550427D01*
X151534590Y-147550414D01*
X151446989Y-147419311D01*
X151446986Y-147419307D01*
X151335492Y-147307813D01*
X151335488Y-147307810D01*
X151204385Y-147220209D01*
X151204372Y-147220202D01*
X151058701Y-147159864D01*
X151058689Y-147159861D01*
X150904045Y-147129100D01*
X150904042Y-147129100D01*
X150746358Y-147129100D01*
X150746355Y-147129100D01*
X150591710Y-147159861D01*
X150591698Y-147159864D01*
X150446027Y-147220202D01*
X150446014Y-147220209D01*
X150314911Y-147307810D01*
X150314907Y-147307813D01*
X150203413Y-147419307D01*
X150203410Y-147419311D01*
X150115809Y-147550414D01*
X150115802Y-147550427D01*
X150055464Y-147696098D01*
X150055461Y-147696110D01*
X150024700Y-147850753D01*
X133418120Y-147850753D01*
X132294094Y-146726727D01*
X130245303Y-144677935D01*
X130211818Y-144616612D01*
X130211366Y-144614441D01*
X130210858Y-144611887D01*
X130210501Y-144611026D01*
X130154287Y-144475311D01*
X130154280Y-144475298D01*
X130072152Y-144352385D01*
X130072151Y-144352384D01*
X129967616Y-144247849D01*
X129869618Y-144149850D01*
X129836134Y-144088526D01*
X129833300Y-144062169D01*
X129833300Y-143639279D01*
X129804459Y-143494292D01*
X129804458Y-143494291D01*
X129804458Y-143494287D01*
X129769761Y-143410520D01*
X129747887Y-143357711D01*
X129747880Y-143357698D01*
X129665752Y-143234785D01*
X129665751Y-143234784D01*
X129561216Y-143130249D01*
X128650419Y-142219451D01*
X128616934Y-142158128D01*
X128614100Y-142131770D01*
X128614100Y-141810479D01*
X128592604Y-141702418D01*
X128592604Y-141702413D01*
X128585260Y-141665495D01*
X128585259Y-141665488D01*
X128534019Y-141541785D01*
X128528684Y-141528905D01*
X128446551Y-141405984D01*
X128342016Y-141301449D01*
X128240063Y-141199496D01*
X127990019Y-140949451D01*
X127956534Y-140888128D01*
X127953700Y-140861770D01*
X127953700Y-140438879D01*
X127942779Y-140383979D01*
X127933562Y-140337642D01*
X127924859Y-140293888D01*
X127874749Y-140172913D01*
X127868284Y-140157305D01*
X127849473Y-140129153D01*
X127786154Y-140034388D01*
X127786153Y-140034387D01*
X127786151Y-140034384D01*
X127681616Y-139929849D01*
X127431219Y-139679451D01*
X127397734Y-139618128D01*
X127394900Y-139591770D01*
X127394900Y-138965679D01*
X127366059Y-138820692D01*
X127366058Y-138820691D01*
X127366058Y-138820687D01*
X127332365Y-138739344D01*
X127309487Y-138684111D01*
X127309480Y-138684098D01*
X127227352Y-138561185D01*
X127181801Y-138515634D01*
X127122816Y-138456649D01*
X126923219Y-138257051D01*
X126889734Y-138195728D01*
X126886900Y-138169370D01*
X126886900Y-137797279D01*
X126858059Y-137652292D01*
X126858058Y-137652291D01*
X126858058Y-137652287D01*
X126801484Y-137515705D01*
X126758248Y-137450997D01*
X126758248Y-137450996D01*
X126719350Y-137392781D01*
X126476819Y-137150250D01*
X126443334Y-137088927D01*
X126440500Y-137062569D01*
X126440500Y-135297199D01*
X126460185Y-135230160D01*
X126512989Y-135184405D01*
X126582147Y-135174461D01*
X126645703Y-135203486D01*
X126667602Y-135228308D01*
X126724646Y-135313680D01*
X126724649Y-135313684D01*
X126869426Y-135458461D01*
X126867832Y-135460054D01*
X126901495Y-135509463D01*
X126907500Y-135547582D01*
X126907500Y-135966330D01*
X126907499Y-135966348D01*
X126907499Y-136132054D01*
X126907498Y-136132054D01*
X126948423Y-136284785D01*
X126977358Y-136334900D01*
X126977359Y-136334904D01*
X126977360Y-136334904D01*
X127026863Y-136420648D01*
X127027479Y-136421714D01*
X127027481Y-136421717D01*
X127146349Y-136540585D01*
X127146355Y-136540590D01*
X129825050Y-139219285D01*
X129858535Y-139280608D01*
X129853551Y-139350300D01*
X129811679Y-139406233D01*
X129761562Y-139428583D01*
X129712907Y-139438261D01*
X129712898Y-139438264D01*
X129567227Y-139498602D01*
X129567214Y-139498609D01*
X129436111Y-139586210D01*
X129436107Y-139586213D01*
X129324613Y-139697707D01*
X129324610Y-139697711D01*
X129237009Y-139828814D01*
X129237002Y-139828827D01*
X129176664Y-139974498D01*
X129176661Y-139974510D01*
X129145900Y-140129153D01*
X129145900Y-140286846D01*
X129176661Y-140441489D01*
X129176664Y-140441501D01*
X129237002Y-140587172D01*
X129237009Y-140587185D01*
X129324610Y-140718288D01*
X129324613Y-140718292D01*
X129436107Y-140829786D01*
X129436111Y-140829789D01*
X129567214Y-140917390D01*
X129567227Y-140917397D01*
X129708468Y-140975900D01*
X129712903Y-140977737D01*
X129867553Y-141008499D01*
X129867556Y-141008500D01*
X129867558Y-141008500D01*
X130025244Y-141008500D01*
X130025245Y-141008499D01*
X130179897Y-140977737D01*
X130325579Y-140917394D01*
X130456689Y-140829789D01*
X130568189Y-140718289D01*
X130655794Y-140587179D01*
X130655795Y-140587176D01*
X130655797Y-140587173D01*
X130671538Y-140549170D01*
X130715378Y-140494766D01*
X130781672Y-140472701D01*
X130849372Y-140489980D01*
X130896982Y-140541116D01*
X130910099Y-140596622D01*
X130910099Y-140632054D01*
X130910098Y-140632054D01*
X130910099Y-140632057D01*
X130951023Y-140784785D01*
X130978828Y-140832944D01*
X130979958Y-140834900D01*
X130979959Y-140834904D01*
X130979960Y-140834904D01*
X131028623Y-140919193D01*
X131030079Y-140921714D01*
X131030081Y-140921717D01*
X131148949Y-141040585D01*
X131148955Y-141040590D01*
X134643139Y-144534774D01*
X134643149Y-144534785D01*
X134647479Y-144539115D01*
X134647480Y-144539116D01*
X134759284Y-144650920D01*
X134830188Y-144691856D01*
X134896215Y-144729977D01*
X135048943Y-144770900D01*
X135207057Y-144770900D01*
X147375503Y-144770900D01*
X147442542Y-144790585D01*
X147463184Y-144807219D01*
X147647939Y-144991974D01*
X147647949Y-144991985D01*
X147652279Y-144996315D01*
X147652280Y-144996316D01*
X147764084Y-145108120D01*
X147764086Y-145108121D01*
X147764090Y-145108124D01*
X147901009Y-145187173D01*
X147901016Y-145187177D01*
X148012819Y-145217134D01*
X148053742Y-145228100D01*
X148053743Y-145228100D01*
X155706703Y-145228100D01*
X155773742Y-145247785D01*
X155794384Y-145264419D01*
X157110774Y-146580809D01*
X157110784Y-146580820D01*
X157115114Y-146585150D01*
X157115115Y-146585151D01*
X157226919Y-146696955D01*
X157278480Y-146726723D01*
X157313730Y-146747074D01*
X157313732Y-146747076D01*
X157351786Y-146769046D01*
X157363850Y-146776012D01*
X157516578Y-146816936D01*
X157516581Y-146816936D01*
X157682288Y-146816936D01*
X157682304Y-146816935D01*
X158170234Y-146816935D01*
X158237273Y-146836620D01*
X158239125Y-146837833D01*
X158370814Y-146925825D01*
X158370827Y-146925832D01*
X158516498Y-146986170D01*
X158516503Y-146986172D01*
X158671153Y-147016934D01*
X158671156Y-147016935D01*
X158671158Y-147016935D01*
X158828844Y-147016935D01*
X158828845Y-147016934D01*
X158983497Y-146986172D01*
X159129179Y-146925829D01*
X159260289Y-146838224D01*
X159371789Y-146726724D01*
X159459394Y-146595614D01*
X159519737Y-146449932D01*
X159550500Y-146295277D01*
X159550500Y-146137593D01*
X159550500Y-146137590D01*
X159550499Y-146137588D01*
X159519738Y-145982945D01*
X159519737Y-145982938D01*
X159519735Y-145982933D01*
X159459397Y-145837262D01*
X159459391Y-145837251D01*
X159452998Y-145827683D01*
X159432121Y-145761006D01*
X159450606Y-145693625D01*
X159502585Y-145646936D01*
X159508603Y-145644251D01*
X159637179Y-145590994D01*
X159768289Y-145503389D01*
X159879789Y-145391889D01*
X159967394Y-145260779D01*
X160027737Y-145115097D01*
X160052228Y-144991974D01*
X160058638Y-144959750D01*
X160091023Y-144897839D01*
X160092519Y-144896315D01*
X161452879Y-143535954D01*
X161459660Y-143531411D01*
X161462518Y-143527275D01*
X161476375Y-143520213D01*
X161492828Y-143509192D01*
X161500463Y-143506007D01*
X161561785Y-143489577D01*
X161611904Y-143460639D01*
X161698716Y-143410520D01*
X161810520Y-143298716D01*
X161810520Y-143298714D01*
X161820728Y-143288507D01*
X161820730Y-143288504D01*
X163308506Y-141800728D01*
X163308511Y-141800724D01*
X163318714Y-141790520D01*
X163318716Y-141790520D01*
X163430520Y-141678716D01*
X163487805Y-141579494D01*
X163509577Y-141541785D01*
X163550501Y-141389057D01*
X163550501Y-141230943D01*
X163550501Y-141223348D01*
X163550500Y-141223330D01*
X163550500Y-140400946D01*
X163550500Y-140400943D01*
X163525997Y-140309494D01*
X163509577Y-140248215D01*
X163472666Y-140184284D01*
X163472666Y-140184283D01*
X163430522Y-140111287D01*
X163430521Y-140111286D01*
X163430520Y-140111284D01*
X163318716Y-139999480D01*
X163318715Y-139999479D01*
X163314385Y-139995149D01*
X163314374Y-139995139D01*
X163046819Y-139727584D01*
X163013334Y-139666261D01*
X163010500Y-139639903D01*
X163010500Y-138680097D01*
X163030185Y-138613058D01*
X163046819Y-138592416D01*
X163627953Y-138011282D01*
X164214662Y-137424572D01*
X164275983Y-137391089D01*
X164278150Y-137390638D01*
X164336085Y-137379113D01*
X164433497Y-137359737D01*
X164579179Y-137299394D01*
X164710289Y-137211789D01*
X164821789Y-137100289D01*
X164909394Y-136969179D01*
X164969737Y-136823497D01*
X165000500Y-136668842D01*
X165000500Y-136511158D01*
X165000500Y-136511155D01*
X165000499Y-136511153D01*
X164969738Y-136356510D01*
X164969738Y-136356508D01*
X164969737Y-136356503D01*
X164969735Y-136356498D01*
X164909397Y-136210827D01*
X164909390Y-136210814D01*
X164821789Y-136079711D01*
X164821786Y-136079707D01*
X164710292Y-135968213D01*
X164710288Y-135968210D01*
X164579185Y-135880609D01*
X164579172Y-135880602D01*
X164433501Y-135820264D01*
X164433489Y-135820261D01*
X164278845Y-135789500D01*
X164278842Y-135789500D01*
X164121158Y-135789500D01*
X164121155Y-135789500D01*
X163966510Y-135820261D01*
X163966498Y-135820264D01*
X163820827Y-135880602D01*
X163820814Y-135880609D01*
X163689711Y-135968210D01*
X163689707Y-135968213D01*
X163578213Y-136079707D01*
X163578210Y-136079711D01*
X163490609Y-136210814D01*
X163490602Y-136210827D01*
X163430264Y-136356498D01*
X163430261Y-136356508D01*
X163399361Y-136511850D01*
X163366976Y-136573761D01*
X163365425Y-136575339D01*
X161929481Y-138011282D01*
X161929479Y-138011285D01*
X161879361Y-138098094D01*
X161879359Y-138098096D01*
X161850425Y-138148209D01*
X161850424Y-138148210D01*
X161835774Y-138202886D01*
X161809499Y-138300943D01*
X161809499Y-138300945D01*
X161809499Y-138469046D01*
X161809500Y-138469059D01*
X161809500Y-139853330D01*
X161809499Y-139853348D01*
X161809499Y-140019054D01*
X161809498Y-140019054D01*
X161813606Y-140034384D01*
X161842210Y-140141135D01*
X161850424Y-140171787D01*
X161863562Y-140194542D01*
X161863563Y-140194544D01*
X161929477Y-140308712D01*
X161929481Y-140308717D01*
X162048349Y-140427585D01*
X162048355Y-140427590D01*
X162313181Y-140692416D01*
X162327884Y-140719343D01*
X162344477Y-140745162D01*
X162345368Y-140751362D01*
X162346666Y-140753739D01*
X162349500Y-140780097D01*
X162349500Y-141009902D01*
X162329815Y-141076941D01*
X162313181Y-141097583D01*
X161086722Y-142324041D01*
X161031137Y-142356134D01*
X160977816Y-142370422D01*
X160977809Y-142370425D01*
X160927696Y-142399359D01*
X160927695Y-142399360D01*
X160884289Y-142424420D01*
X160840885Y-142449479D01*
X160840882Y-142449481D01*
X159243339Y-144047025D01*
X159182016Y-144080510D01*
X159179850Y-144080961D01*
X159024508Y-144111861D01*
X159024498Y-144111864D01*
X158878827Y-144172202D01*
X158878814Y-144172209D01*
X158747711Y-144259810D01*
X158747707Y-144259813D01*
X158636213Y-144371307D01*
X158636210Y-144371311D01*
X158548609Y-144502414D01*
X158548602Y-144502427D01*
X158488264Y-144648098D01*
X158488261Y-144648110D01*
X158457500Y-144802753D01*
X158457500Y-144960446D01*
X158488261Y-145115089D01*
X158488264Y-145115101D01*
X158548602Y-145260772D01*
X158548610Y-145260786D01*
X158555002Y-145270353D01*
X158575878Y-145337030D01*
X158557392Y-145404410D01*
X158505412Y-145451099D01*
X158499351Y-145453802D01*
X158370823Y-145507039D01*
X158370814Y-145507044D01*
X158239125Y-145595037D01*
X158172447Y-145615915D01*
X158170234Y-145615935D01*
X157895732Y-145615935D01*
X157828693Y-145596250D01*
X157808051Y-145579616D01*
X156494390Y-144265955D01*
X156494388Y-144265952D01*
X156375517Y-144147081D01*
X156375516Y-144147080D01*
X156278976Y-144091343D01*
X156278975Y-144091342D01*
X156238590Y-144068025D01*
X156238587Y-144068023D01*
X156177493Y-144051653D01*
X156085857Y-144027099D01*
X155927743Y-144027099D01*
X155920147Y-144027099D01*
X155920131Y-144027100D01*
X148432897Y-144027100D01*
X148365858Y-144007415D01*
X148345216Y-143990781D01*
X148163190Y-143808755D01*
X148163188Y-143808752D01*
X148044317Y-143689881D01*
X148044316Y-143689880D01*
X147956677Y-143639282D01*
X147956676Y-143639281D01*
X147907390Y-143610825D01*
X147907389Y-143610824D01*
X147894863Y-143607467D01*
X147754657Y-143569899D01*
X147596543Y-143569899D01*
X147588947Y-143569899D01*
X147588931Y-143569900D01*
X135428097Y-143569900D01*
X135361058Y-143550215D01*
X135340416Y-143533581D01*
X132147419Y-140340584D01*
X132113934Y-140279261D01*
X132111100Y-140252903D01*
X132111100Y-139976543D01*
X132110554Y-139974503D01*
X132097545Y-139925953D01*
X144335100Y-139925953D01*
X144335100Y-140083646D01*
X144365861Y-140238289D01*
X144365864Y-140238301D01*
X144426202Y-140383972D01*
X144426209Y-140383985D01*
X144513810Y-140515088D01*
X144513813Y-140515092D01*
X144625307Y-140626586D01*
X144625311Y-140626589D01*
X144756414Y-140714190D01*
X144756427Y-140714197D01*
X144902098Y-140774535D01*
X144902103Y-140774537D01*
X145056758Y-140805300D01*
X145056763Y-140805300D01*
X145062341Y-140805850D01*
X145124501Y-140829987D01*
X145243664Y-140919193D01*
X145243671Y-140919197D01*
X145250420Y-140921714D01*
X145378517Y-140969491D01*
X145438127Y-140975900D01*
X146073872Y-140975899D01*
X146133483Y-140969491D01*
X146268331Y-140919196D01*
X146336690Y-140868022D01*
X146402152Y-140843605D01*
X146470425Y-140858456D01*
X146485303Y-140868017D01*
X146551262Y-140917394D01*
X146553668Y-140919195D01*
X146553671Y-140919197D01*
X146560420Y-140921714D01*
X146688517Y-140969491D01*
X146748127Y-140975900D01*
X147383872Y-140975899D01*
X147443483Y-140969491D01*
X147578331Y-140919196D01*
X147681690Y-140841821D01*
X147747152Y-140817404D01*
X147815425Y-140832255D01*
X147830303Y-140841816D01*
X147931262Y-140917394D01*
X147933668Y-140919195D01*
X147933671Y-140919197D01*
X147940420Y-140921714D01*
X148068517Y-140969491D01*
X148128127Y-140975900D01*
X148763872Y-140975899D01*
X148823483Y-140969491D01*
X148958331Y-140919196D01*
X149026690Y-140868022D01*
X149092152Y-140843605D01*
X149160425Y-140858456D01*
X149175303Y-140868017D01*
X149241262Y-140917394D01*
X149243668Y-140919195D01*
X149243671Y-140919197D01*
X149250420Y-140921714D01*
X149378517Y-140969491D01*
X149438127Y-140975900D01*
X150073872Y-140975899D01*
X150133483Y-140969491D01*
X150268331Y-140919196D01*
X150383546Y-140832946D01*
X150469796Y-140717731D01*
X150520091Y-140582883D01*
X150526500Y-140523273D01*
X150526499Y-140179953D01*
X157136700Y-140179953D01*
X157136700Y-140337643D01*
X157167461Y-140492289D01*
X157167464Y-140492301D01*
X157227802Y-140637972D01*
X157227809Y-140637985D01*
X157315410Y-140769088D01*
X157315413Y-140769092D01*
X157426907Y-140880586D01*
X157426911Y-140880589D01*
X157558014Y-140968190D01*
X157558027Y-140968197D01*
X157703698Y-141028535D01*
X157703703Y-141028537D01*
X157858353Y-141059299D01*
X157858356Y-141059300D01*
X157858358Y-141059300D01*
X158016044Y-141059300D01*
X158016045Y-141059299D01*
X158170697Y-141028537D01*
X158316379Y-140968194D01*
X158447489Y-140880589D01*
X158558989Y-140769089D01*
X158646594Y-140637979D01*
X158706937Y-140492297D01*
X158737700Y-140337642D01*
X158737700Y-140179958D01*
X158737700Y-140179955D01*
X158737699Y-140179953D01*
X158733193Y-140157300D01*
X158706937Y-140025303D01*
X158676558Y-139951960D01*
X158646597Y-139879627D01*
X158646590Y-139879614D01*
X158558989Y-139748511D01*
X158558986Y-139748507D01*
X158447492Y-139637013D01*
X158447488Y-139637010D01*
X158316385Y-139549409D01*
X158316372Y-139549402D01*
X158170701Y-139489064D01*
X158170689Y-139489061D01*
X158016045Y-139458300D01*
X158016042Y-139458300D01*
X157858358Y-139458300D01*
X157858355Y-139458300D01*
X157703710Y-139489061D01*
X157703698Y-139489064D01*
X157558027Y-139549402D01*
X157558014Y-139549409D01*
X157426911Y-139637010D01*
X157426907Y-139637013D01*
X157315413Y-139748507D01*
X157315410Y-139748511D01*
X157227809Y-139879614D01*
X157227802Y-139879627D01*
X157167464Y-140025298D01*
X157167461Y-140025310D01*
X157136700Y-140179953D01*
X150526499Y-140179953D01*
X150526499Y-139877528D01*
X150520091Y-139817917D01*
X150502703Y-139771298D01*
X150469797Y-139683071D01*
X150469793Y-139683064D01*
X150381234Y-139564765D01*
X150356816Y-139499301D01*
X150356500Y-139490454D01*
X150356500Y-138530346D01*
X150376185Y-138463307D01*
X150381234Y-138456035D01*
X150469793Y-138337735D01*
X150469792Y-138337735D01*
X150469796Y-138337731D01*
X150520091Y-138202883D01*
X150526500Y-138143273D01*
X150526499Y-137670266D01*
X153271100Y-137670266D01*
X153271100Y-137868933D01*
X153309854Y-138063761D01*
X153309856Y-138063769D01*
X153385877Y-138247301D01*
X153385882Y-138247310D01*
X153496246Y-138412480D01*
X153496249Y-138412484D01*
X153636715Y-138552950D01*
X153636719Y-138552953D01*
X153801889Y-138663317D01*
X153801895Y-138663320D01*
X153801896Y-138663321D01*
X153985431Y-138739344D01*
X154180266Y-138778099D01*
X154180270Y-138778100D01*
X154180271Y-138778100D01*
X154378930Y-138778100D01*
X154378931Y-138778099D01*
X154573769Y-138739344D01*
X154757304Y-138663321D01*
X154922481Y-138552953D01*
X155062953Y-138412481D01*
X155173321Y-138247304D01*
X155249344Y-138063769D01*
X155288100Y-137868929D01*
X155288100Y-137670271D01*
X155249344Y-137475431D01*
X155173321Y-137291896D01*
X155173320Y-137291895D01*
X155173317Y-137291889D01*
X155062953Y-137126719D01*
X155062950Y-137126715D01*
X154922484Y-136986249D01*
X154922480Y-136986246D01*
X154757310Y-136875882D01*
X154757301Y-136875877D01*
X154573769Y-136799856D01*
X154573761Y-136799854D01*
X154378933Y-136761100D01*
X154378929Y-136761100D01*
X154180271Y-136761100D01*
X154180266Y-136761100D01*
X153985438Y-136799854D01*
X153985430Y-136799856D01*
X153801898Y-136875877D01*
X153801889Y-136875882D01*
X153636719Y-136986246D01*
X153636715Y-136986249D01*
X153496249Y-137126715D01*
X153496246Y-137126719D01*
X153385882Y-137291889D01*
X153385877Y-137291898D01*
X153309856Y-137475430D01*
X153309854Y-137475438D01*
X153271100Y-137670266D01*
X150526499Y-137670266D01*
X150526499Y-137497528D01*
X150520091Y-137437917D01*
X150515114Y-137424574D01*
X150469797Y-137303071D01*
X150469793Y-137303064D01*
X150383547Y-137187855D01*
X150383544Y-137187852D01*
X150268335Y-137101606D01*
X150268328Y-137101602D01*
X150133486Y-137051310D01*
X150133485Y-137051309D01*
X150133483Y-137051309D01*
X150073873Y-137044900D01*
X150073863Y-137044900D01*
X149438129Y-137044900D01*
X149438123Y-137044901D01*
X149378516Y-137051308D01*
X149243671Y-137101602D01*
X149243669Y-137101603D01*
X149185290Y-137145306D01*
X149178687Y-137150250D01*
X149175311Y-137152777D01*
X149109847Y-137177194D01*
X149041574Y-137162343D01*
X149026689Y-137152777D01*
X149023313Y-137150250D01*
X148974799Y-137113932D01*
X148958330Y-137101603D01*
X148958328Y-137101602D01*
X148823486Y-137051310D01*
X148823485Y-137051309D01*
X148823483Y-137051309D01*
X148763873Y-137044900D01*
X148763863Y-137044900D01*
X148128129Y-137044900D01*
X148128123Y-137044901D01*
X148068516Y-137051308D01*
X147933671Y-137101602D01*
X147933669Y-137101603D01*
X147830311Y-137178978D01*
X147764847Y-137203395D01*
X147696574Y-137188544D01*
X147681689Y-137178978D01*
X147578330Y-137101603D01*
X147578328Y-137101602D01*
X147443486Y-137051310D01*
X147443485Y-137051309D01*
X147443483Y-137051309D01*
X147383873Y-137044900D01*
X147383863Y-137044900D01*
X146748129Y-137044900D01*
X146748123Y-137044901D01*
X146688516Y-137051308D01*
X146553671Y-137101602D01*
X146553664Y-137101606D01*
X146438455Y-137187852D01*
X146438452Y-137187855D01*
X146352206Y-137303064D01*
X146352202Y-137303071D01*
X146301910Y-137437913D01*
X146301909Y-137437917D01*
X146295500Y-137497527D01*
X146295500Y-137497534D01*
X146295500Y-137497535D01*
X146295500Y-138143270D01*
X146295501Y-138143276D01*
X146301908Y-138202883D01*
X146352202Y-138337728D01*
X146352206Y-138337735D01*
X146438452Y-138452944D01*
X146438455Y-138452947D01*
X146553664Y-138539193D01*
X146553671Y-138539197D01*
X146590545Y-138552950D01*
X146688517Y-138589491D01*
X146748127Y-138595900D01*
X147383872Y-138595899D01*
X147443483Y-138589491D01*
X147578331Y-138539196D01*
X147681690Y-138461821D01*
X147747152Y-138437404D01*
X147815425Y-138452255D01*
X147830303Y-138461816D01*
X147933665Y-138539193D01*
X147933668Y-138539195D01*
X147933671Y-138539197D01*
X147970545Y-138552950D01*
X148068517Y-138589491D01*
X148128127Y-138595900D01*
X148763872Y-138595899D01*
X148823483Y-138589491D01*
X148958331Y-138539196D01*
X148958334Y-138539193D01*
X148966114Y-138534946D01*
X148966920Y-138536422D01*
X149022642Y-138515634D01*
X149090916Y-138530479D01*
X149140326Y-138579880D01*
X149155500Y-138639317D01*
X149155500Y-139381482D01*
X149135815Y-139448521D01*
X149083011Y-139494276D01*
X149013853Y-139504220D01*
X148966741Y-139484705D01*
X148966114Y-139485854D01*
X148958328Y-139481602D01*
X148823486Y-139431310D01*
X148823485Y-139431309D01*
X148823483Y-139431309D01*
X148763873Y-139424900D01*
X148763863Y-139424900D01*
X148128129Y-139424900D01*
X148128123Y-139424901D01*
X148068516Y-139431308D01*
X147933671Y-139481602D01*
X147933669Y-139481603D01*
X147830311Y-139558978D01*
X147764847Y-139583395D01*
X147696574Y-139568544D01*
X147681689Y-139558978D01*
X147666499Y-139547607D01*
X147601043Y-139498606D01*
X147578330Y-139481603D01*
X147578328Y-139481602D01*
X147443486Y-139431310D01*
X147443485Y-139431309D01*
X147443483Y-139431309D01*
X147383873Y-139424900D01*
X147383863Y-139424900D01*
X146748129Y-139424900D01*
X146748123Y-139424901D01*
X146688516Y-139431308D01*
X146553671Y-139481602D01*
X146553669Y-139481603D01*
X146485311Y-139532777D01*
X146419847Y-139557194D01*
X146351574Y-139542343D01*
X146336689Y-139532777D01*
X146268330Y-139481603D01*
X146268328Y-139481602D01*
X146133482Y-139431308D01*
X146133483Y-139431308D01*
X146073883Y-139424901D01*
X146073881Y-139424900D01*
X146073873Y-139424900D01*
X146073865Y-139424900D01*
X145739141Y-139424900D01*
X145672102Y-139405215D01*
X145651460Y-139388581D01*
X145645892Y-139383013D01*
X145645888Y-139383010D01*
X145514785Y-139295409D01*
X145514772Y-139295402D01*
X145369101Y-139235064D01*
X145369089Y-139235061D01*
X145214445Y-139204300D01*
X145214442Y-139204300D01*
X145056758Y-139204300D01*
X145056755Y-139204300D01*
X144902110Y-139235061D01*
X144902098Y-139235064D01*
X144756427Y-139295402D01*
X144756414Y-139295409D01*
X144625311Y-139383010D01*
X144625307Y-139383013D01*
X144513813Y-139494507D01*
X144513810Y-139494511D01*
X144426209Y-139625614D01*
X144426202Y-139625627D01*
X144365864Y-139771298D01*
X144365861Y-139771310D01*
X144335100Y-139925953D01*
X132097545Y-139925953D01*
X132070177Y-139823815D01*
X132018950Y-139735088D01*
X131991120Y-139686884D01*
X131879316Y-139575080D01*
X131879315Y-139575079D01*
X131874985Y-139570749D01*
X131874974Y-139570739D01*
X130045788Y-137741553D01*
X132041500Y-137741553D01*
X132041500Y-137899246D01*
X132072261Y-138053889D01*
X132072264Y-138053901D01*
X132132602Y-138199572D01*
X132132609Y-138199585D01*
X132220210Y-138330688D01*
X132220213Y-138330692D01*
X132331707Y-138442186D01*
X132331711Y-138442189D01*
X132462814Y-138529790D01*
X132462827Y-138529797D01*
X132606943Y-138589491D01*
X132608503Y-138590137D01*
X132723734Y-138613058D01*
X132763153Y-138620899D01*
X132763156Y-138620900D01*
X132763158Y-138620900D01*
X132920844Y-138620900D01*
X132920845Y-138620899D01*
X133075497Y-138590137D01*
X133198488Y-138539193D01*
X133221172Y-138529797D01*
X133221172Y-138529796D01*
X133221179Y-138529794D01*
X133352289Y-138442189D01*
X133463789Y-138330689D01*
X133551394Y-138199579D01*
X133611737Y-138053897D01*
X133642500Y-137899242D01*
X133642500Y-137741558D01*
X133642500Y-137741555D01*
X133642499Y-137741553D01*
X133611738Y-137586910D01*
X133611737Y-137586903D01*
X133611735Y-137586898D01*
X133556173Y-137452758D01*
X133556157Y-137452720D01*
X133555443Y-137450996D01*
X133551394Y-137441221D01*
X133551391Y-137441216D01*
X133551390Y-137441214D01*
X133531437Y-137411353D01*
X139686900Y-137411353D01*
X139686900Y-137569046D01*
X139717661Y-137723689D01*
X139717664Y-137723701D01*
X139778002Y-137869372D01*
X139778009Y-137869385D01*
X139865610Y-138000488D01*
X139865613Y-138000492D01*
X139977107Y-138111986D01*
X139977111Y-138111989D01*
X140108214Y-138199590D01*
X140108227Y-138199597D01*
X140253898Y-138259935D01*
X140253903Y-138259937D01*
X140408553Y-138290699D01*
X140408556Y-138290700D01*
X140408558Y-138290700D01*
X140566244Y-138290700D01*
X140566245Y-138290699D01*
X140720897Y-138259937D01*
X140833566Y-138213267D01*
X140866572Y-138199597D01*
X140866572Y-138199596D01*
X140866579Y-138199594D01*
X140997689Y-138111989D01*
X141109189Y-138000489D01*
X141196794Y-137869379D01*
X141257137Y-137723697D01*
X141287900Y-137569042D01*
X141287900Y-137411358D01*
X141287900Y-137411355D01*
X141287899Y-137411353D01*
X141283868Y-137391089D01*
X141257137Y-137256703D01*
X141238532Y-137211786D01*
X141196797Y-137111027D01*
X141196790Y-137111014D01*
X141109189Y-136979911D01*
X141109186Y-136979907D01*
X140997692Y-136868413D01*
X140997688Y-136868410D01*
X140866585Y-136780809D01*
X140866572Y-136780802D01*
X140720901Y-136720464D01*
X140720889Y-136720461D01*
X140566245Y-136689700D01*
X140566242Y-136689700D01*
X140408558Y-136689700D01*
X140408555Y-136689700D01*
X140253910Y-136720461D01*
X140253898Y-136720464D01*
X140108227Y-136780802D01*
X140108214Y-136780809D01*
X139977111Y-136868410D01*
X139977107Y-136868413D01*
X139865613Y-136979907D01*
X139865610Y-136979911D01*
X139778009Y-137111014D01*
X139778002Y-137111027D01*
X139717664Y-137256698D01*
X139717661Y-137256710D01*
X139686900Y-137411353D01*
X133531437Y-137411353D01*
X133463789Y-137310111D01*
X133463786Y-137310107D01*
X133352292Y-137198613D01*
X133352288Y-137198610D01*
X133221185Y-137111009D01*
X133221172Y-137111002D01*
X133075501Y-137050664D01*
X133075489Y-137050661D01*
X132920845Y-137019900D01*
X132920842Y-137019900D01*
X132763158Y-137019900D01*
X132763155Y-137019900D01*
X132608510Y-137050661D01*
X132608498Y-137050664D01*
X132462827Y-137111002D01*
X132462814Y-137111009D01*
X132331711Y-137198610D01*
X132331707Y-137198613D01*
X132220213Y-137310107D01*
X132220210Y-137310111D01*
X132132609Y-137441214D01*
X132132602Y-137441227D01*
X132072264Y-137586898D01*
X132072261Y-137586910D01*
X132041500Y-137741553D01*
X130045788Y-137741553D01*
X128144819Y-135840584D01*
X128130115Y-135813656D01*
X128113523Y-135787838D01*
X128112631Y-135781637D01*
X128111334Y-135779261D01*
X128108500Y-135752903D01*
X128108500Y-135547582D01*
X128128185Y-135480543D01*
X128147246Y-135459133D01*
X128146574Y-135458461D01*
X128291350Y-135313684D01*
X128291353Y-135313681D01*
X128401721Y-135148504D01*
X128477744Y-134964969D01*
X128516500Y-134770129D01*
X128516500Y-134571471D01*
X128477744Y-134376631D01*
X128407009Y-134205863D01*
X128401722Y-134193098D01*
X128401717Y-134193089D01*
X128370759Y-134146757D01*
X128328794Y-134083953D01*
X140271100Y-134083953D01*
X140271100Y-134241646D01*
X140301861Y-134396289D01*
X140301864Y-134396301D01*
X140362202Y-134541972D01*
X140362209Y-134541985D01*
X140449810Y-134673088D01*
X140449813Y-134673092D01*
X140561307Y-134784586D01*
X140561311Y-134784589D01*
X140692414Y-134872190D01*
X140692427Y-134872197D01*
X140838098Y-134932535D01*
X140838103Y-134932537D01*
X140992753Y-134963299D01*
X140992756Y-134963300D01*
X140992758Y-134963300D01*
X141150444Y-134963300D01*
X141150445Y-134963299D01*
X141305097Y-134932537D01*
X141391488Y-134896753D01*
X166737900Y-134896753D01*
X166737900Y-135054446D01*
X166768661Y-135209089D01*
X166768664Y-135209101D01*
X166829002Y-135354772D01*
X166829009Y-135354785D01*
X166916610Y-135485888D01*
X166916613Y-135485892D01*
X167028107Y-135597386D01*
X167028111Y-135597389D01*
X167159214Y-135684990D01*
X167159227Y-135684997D01*
X167304898Y-135745335D01*
X167304903Y-135745337D01*
X167459553Y-135776099D01*
X167459556Y-135776100D01*
X167459558Y-135776100D01*
X167617244Y-135776100D01*
X167617245Y-135776099D01*
X167771897Y-135745337D01*
X167917579Y-135684994D01*
X168048689Y-135597389D01*
X168160189Y-135485889D01*
X168247794Y-135354779D01*
X168308137Y-135209097D01*
X168338900Y-135054442D01*
X168338900Y-134896758D01*
X168338900Y-134896755D01*
X168338899Y-134896753D01*
X168317180Y-134787564D01*
X168308137Y-134742103D01*
X168279551Y-134673089D01*
X168247797Y-134596427D01*
X168247790Y-134596414D01*
X168160189Y-134465311D01*
X168160186Y-134465307D01*
X168048692Y-134353813D01*
X168048688Y-134353810D01*
X167917585Y-134266209D01*
X167917572Y-134266202D01*
X167771901Y-134205864D01*
X167771889Y-134205861D01*
X167617245Y-134175100D01*
X167617242Y-134175100D01*
X167459558Y-134175100D01*
X167459555Y-134175100D01*
X167304910Y-134205861D01*
X167304898Y-134205864D01*
X167159227Y-134266202D01*
X167159214Y-134266209D01*
X167028111Y-134353810D01*
X167028107Y-134353813D01*
X166916613Y-134465307D01*
X166916610Y-134465311D01*
X166829009Y-134596414D01*
X166829002Y-134596427D01*
X166768664Y-134742098D01*
X166768661Y-134742110D01*
X166737900Y-134896753D01*
X141391488Y-134896753D01*
X141450779Y-134872194D01*
X141581889Y-134784589D01*
X141693389Y-134673089D01*
X141780994Y-134541979D01*
X141841337Y-134396297D01*
X141872100Y-134241642D01*
X141872100Y-134083958D01*
X141872100Y-134083955D01*
X141872099Y-134083953D01*
X141841338Y-133929310D01*
X141841337Y-133929303D01*
X141824000Y-133887447D01*
X141780997Y-133783627D01*
X141780990Y-133783614D01*
X141693389Y-133652511D01*
X141693386Y-133652507D01*
X141581892Y-133541013D01*
X141581888Y-133541010D01*
X141450785Y-133453409D01*
X141450772Y-133453402D01*
X141305101Y-133393064D01*
X141305089Y-133393061D01*
X141150445Y-133362300D01*
X141150442Y-133362300D01*
X140992758Y-133362300D01*
X140992755Y-133362300D01*
X140838110Y-133393061D01*
X140838098Y-133393064D01*
X140692427Y-133453402D01*
X140692414Y-133453409D01*
X140561311Y-133541010D01*
X140561307Y-133541013D01*
X140449813Y-133652507D01*
X140449810Y-133652511D01*
X140362209Y-133783614D01*
X140362202Y-133783627D01*
X140301864Y-133929298D01*
X140301861Y-133929310D01*
X140271100Y-134083953D01*
X128328794Y-134083953D01*
X128291353Y-134027919D01*
X128291350Y-134027915D01*
X128150884Y-133887449D01*
X128150880Y-133887446D01*
X127985710Y-133777082D01*
X127985701Y-133777077D01*
X127802169Y-133701056D01*
X127802161Y-133701054D01*
X127607333Y-133662300D01*
X127607329Y-133662300D01*
X127408671Y-133662300D01*
X127408666Y-133662300D01*
X127213838Y-133701054D01*
X127213830Y-133701056D01*
X127030298Y-133777077D01*
X127030289Y-133777082D01*
X126865119Y-133887446D01*
X126865115Y-133887449D01*
X126724649Y-134027915D01*
X126724646Y-134027919D01*
X126667602Y-134113291D01*
X126613989Y-134158096D01*
X126544664Y-134166803D01*
X126481637Y-134136648D01*
X126444918Y-134077205D01*
X126440500Y-134044400D01*
X126440500Y-131254604D01*
X126444092Y-131224976D01*
X126446340Y-131215839D01*
X126459737Y-131183497D01*
X126476116Y-131101153D01*
X128309500Y-131101153D01*
X128309500Y-131258846D01*
X128340261Y-131413489D01*
X128340264Y-131413501D01*
X128400602Y-131559172D01*
X128400609Y-131559185D01*
X128488210Y-131690288D01*
X128488213Y-131690292D01*
X128599707Y-131801786D01*
X128599711Y-131801789D01*
X128730814Y-131889390D01*
X128730827Y-131889397D01*
X128876498Y-131949735D01*
X128876503Y-131949737D01*
X129031153Y-131980499D01*
X129031156Y-131980500D01*
X129031158Y-131980500D01*
X129188844Y-131980500D01*
X129188845Y-131980499D01*
X129343497Y-131949737D01*
X129489179Y-131889394D01*
X129525533Y-131865103D01*
X129620873Y-131801399D01*
X129687550Y-131780521D01*
X129689764Y-131780501D01*
X129699054Y-131780501D01*
X129699057Y-131780501D01*
X129851785Y-131739577D01*
X129919878Y-131700263D01*
X129988716Y-131660520D01*
X130100520Y-131548716D01*
X130100520Y-131548714D01*
X130110724Y-131538511D01*
X130110728Y-131538506D01*
X131267819Y-130381415D01*
X131329142Y-130347930D01*
X131398834Y-130352914D01*
X131454767Y-130394786D01*
X131479184Y-130460250D01*
X131479500Y-130469096D01*
X131479500Y-130548846D01*
X131510261Y-130703489D01*
X131510264Y-130703501D01*
X131570602Y-130849172D01*
X131570609Y-130849185D01*
X131658210Y-130980288D01*
X131658213Y-130980292D01*
X131769707Y-131091786D01*
X131769711Y-131091789D01*
X131900814Y-131179390D01*
X131900827Y-131179397D01*
X132022848Y-131229939D01*
X132046503Y-131239737D01*
X132201153Y-131270499D01*
X132201156Y-131270500D01*
X132201158Y-131270500D01*
X132358844Y-131270500D01*
X132358845Y-131270499D01*
X132513497Y-131239737D01*
X132626166Y-131193067D01*
X132659172Y-131179397D01*
X132659172Y-131179396D01*
X132659179Y-131179394D01*
X132790289Y-131091789D01*
X132901789Y-130980289D01*
X132989394Y-130849179D01*
X132999192Y-130825521D01*
X133026067Y-130785298D01*
X133230549Y-130580816D01*
X133291871Y-130547334D01*
X133318229Y-130544500D01*
X140231770Y-130544500D01*
X140298809Y-130564185D01*
X140319451Y-130580819D01*
X141197010Y-131458378D01*
X141207104Y-131476865D01*
X141221183Y-131492537D01*
X141223513Y-131506915D01*
X141230495Y-131519701D01*
X141228992Y-131540713D01*
X141232363Y-131561507D01*
X141226550Y-131574862D01*
X141225511Y-131589393D01*
X141212886Y-131606256D01*
X141204480Y-131625572D01*
X141185997Y-131642175D01*
X141183639Y-131645326D01*
X141178225Y-131649158D01*
X141170396Y-131654389D01*
X141164095Y-131658599D01*
X141097420Y-131679480D01*
X141095201Y-131679500D01*
X136070399Y-131679500D01*
X136003360Y-131659815D01*
X135967297Y-131624390D01*
X135943192Y-131588315D01*
X135943186Y-131588307D01*
X135831692Y-131476813D01*
X135831688Y-131476810D01*
X135700585Y-131389209D01*
X135700572Y-131389202D01*
X135554901Y-131328864D01*
X135554889Y-131328861D01*
X135400245Y-131298100D01*
X135400242Y-131298100D01*
X135242558Y-131298100D01*
X135242555Y-131298100D01*
X135087910Y-131328861D01*
X135087898Y-131328864D01*
X134942227Y-131389202D01*
X134942214Y-131389209D01*
X134811111Y-131476810D01*
X134811107Y-131476813D01*
X134699613Y-131588307D01*
X134699610Y-131588311D01*
X134612009Y-131719414D01*
X134612002Y-131719427D01*
X134551664Y-131865098D01*
X134551661Y-131865110D01*
X134520900Y-132019753D01*
X134520900Y-132177446D01*
X134551661Y-132332089D01*
X134551664Y-132332101D01*
X134612002Y-132477772D01*
X134612009Y-132477785D01*
X134699610Y-132608888D01*
X134699613Y-132608892D01*
X134811107Y-132720386D01*
X134811111Y-132720389D01*
X134942214Y-132807990D01*
X134942227Y-132807997D01*
X135087898Y-132868335D01*
X135087903Y-132868337D01*
X135242553Y-132899099D01*
X135242556Y-132899100D01*
X135242558Y-132899100D01*
X135400243Y-132899100D01*
X135442795Y-132890635D01*
X135481770Y-132882882D01*
X135505961Y-132880500D01*
X141067217Y-132880500D01*
X141134256Y-132900185D01*
X141145882Y-132908647D01*
X141149710Y-132911789D01*
X141280814Y-132999390D01*
X141280827Y-132999397D01*
X141426498Y-133059735D01*
X141426503Y-133059737D01*
X141545912Y-133083489D01*
X141581153Y-133090499D01*
X141581156Y-133090500D01*
X141581158Y-133090500D01*
X141738844Y-133090500D01*
X141738845Y-133090499D01*
X141893497Y-133059737D01*
X142039179Y-132999394D01*
X142170289Y-132911789D01*
X142281789Y-132800289D01*
X142369394Y-132669179D01*
X142429737Y-132523497D01*
X142460500Y-132368842D01*
X142460500Y-132211158D01*
X142460500Y-132211155D01*
X142438129Y-132098692D01*
X142444356Y-132029100D01*
X142487219Y-131973923D01*
X142553108Y-131950678D01*
X142559746Y-131950500D01*
X145390119Y-131950500D01*
X145472652Y-131934082D01*
X145496845Y-131931699D01*
X146732871Y-131931699D01*
X146732872Y-131931699D01*
X146792483Y-131925291D01*
X146927331Y-131874996D01*
X147042546Y-131788746D01*
X147128796Y-131673531D01*
X147179091Y-131538683D01*
X147185500Y-131479073D01*
X147185499Y-130883328D01*
X147185369Y-130882127D01*
X151914500Y-130882127D01*
X151914500Y-130882134D01*
X151914500Y-130882135D01*
X151914500Y-131477870D01*
X151914501Y-131477876D01*
X151920908Y-131537483D01*
X151971202Y-131672328D01*
X151971206Y-131672335D01*
X152057452Y-131787544D01*
X152057455Y-131787547D01*
X152172664Y-131873793D01*
X152172671Y-131873797D01*
X152214479Y-131889390D01*
X152307517Y-131924091D01*
X152367127Y-131930500D01*
X152975500Y-131930499D01*
X152984186Y-131933049D01*
X152993147Y-131931761D01*
X153017183Y-131942738D01*
X153042539Y-131950183D01*
X153048467Y-131957025D01*
X153056703Y-131960786D01*
X153070989Y-131983017D01*
X153088294Y-132002987D01*
X153090581Y-132013502D01*
X153094477Y-132019564D01*
X153099500Y-132054499D01*
X153099500Y-132141254D01*
X153090061Y-132188706D01*
X153070263Y-132236501D01*
X153070260Y-132236511D01*
X153039500Y-132391153D01*
X153039500Y-132548846D01*
X153070261Y-132703489D01*
X153070264Y-132703501D01*
X153130602Y-132849172D01*
X153130609Y-132849185D01*
X153218210Y-132980288D01*
X153218213Y-132980292D01*
X153329707Y-133091786D01*
X153329711Y-133091789D01*
X153460814Y-133179390D01*
X153460827Y-133179397D01*
X153581028Y-133229185D01*
X153606503Y-133239737D01*
X153761153Y-133270499D01*
X153761156Y-133270500D01*
X153761158Y-133270500D01*
X153918844Y-133270500D01*
X153918845Y-133270499D01*
X154073497Y-133239737D01*
X154219179Y-133179394D01*
X154350289Y-133091789D01*
X154461789Y-132980289D01*
X154549394Y-132849179D01*
X154581713Y-132771153D01*
X170299500Y-132771153D01*
X170299500Y-132928846D01*
X170330261Y-133083489D01*
X170330264Y-133083501D01*
X170390602Y-133229172D01*
X170390609Y-133229185D01*
X170478210Y-133360288D01*
X170478213Y-133360292D01*
X170589707Y-133471786D01*
X170589711Y-133471789D01*
X170720814Y-133559390D01*
X170720827Y-133559397D01*
X170866498Y-133619735D01*
X170866503Y-133619737D01*
X171021153Y-133650499D01*
X171021156Y-133650500D01*
X171021158Y-133650500D01*
X171178844Y-133650500D01*
X171178845Y-133650499D01*
X171333497Y-133619737D01*
X171479179Y-133559394D01*
X171610289Y-133471789D01*
X171721789Y-133360289D01*
X171809394Y-133229179D01*
X171869737Y-133083497D01*
X171900500Y-132928842D01*
X171900500Y-132771158D01*
X171900500Y-132771155D01*
X171900499Y-132771153D01*
X171880215Y-132669179D01*
X171869737Y-132616503D01*
X171869735Y-132616498D01*
X171809397Y-132470827D01*
X171809390Y-132470814D01*
X171721789Y-132339711D01*
X171721786Y-132339707D01*
X171610292Y-132228213D01*
X171610288Y-132228210D01*
X171479185Y-132140609D01*
X171479172Y-132140602D01*
X171333501Y-132080264D01*
X171333489Y-132080261D01*
X171178845Y-132049500D01*
X171178842Y-132049500D01*
X171021158Y-132049500D01*
X171021155Y-132049500D01*
X170866510Y-132080261D01*
X170866498Y-132080264D01*
X170720827Y-132140602D01*
X170720814Y-132140609D01*
X170589711Y-132228210D01*
X170589707Y-132228213D01*
X170478213Y-132339707D01*
X170478210Y-132339711D01*
X170390609Y-132470814D01*
X170390602Y-132470827D01*
X170330264Y-132616498D01*
X170330261Y-132616510D01*
X170299500Y-132771153D01*
X154581713Y-132771153D01*
X154609737Y-132703497D01*
X154640500Y-132548842D01*
X154640500Y-132391158D01*
X154640500Y-132391155D01*
X154640499Y-132391153D01*
X154609738Y-132236506D01*
X154607969Y-132230674D01*
X154608641Y-132230470D01*
X154608311Y-132228810D01*
X154605523Y-132224472D01*
X154600500Y-132189537D01*
X154600500Y-132054499D01*
X154620185Y-131987460D01*
X154672989Y-131941705D01*
X154724500Y-131930499D01*
X155162871Y-131930499D01*
X155162872Y-131930499D01*
X155222483Y-131924091D01*
X155357331Y-131873796D01*
X155360862Y-131871153D01*
X157049500Y-131871153D01*
X157049500Y-132028846D01*
X157080261Y-132183489D01*
X157080264Y-132183501D01*
X157140602Y-132329172D01*
X157140609Y-132329185D01*
X157228210Y-132460288D01*
X157228213Y-132460292D01*
X157339707Y-132571786D01*
X157339711Y-132571789D01*
X157470814Y-132659390D01*
X157470827Y-132659397D01*
X157616498Y-132719735D01*
X157616503Y-132719737D01*
X157771153Y-132750499D01*
X157771156Y-132750500D01*
X157771158Y-132750500D01*
X157928844Y-132750500D01*
X157928845Y-132750499D01*
X158083497Y-132719737D01*
X158229179Y-132659394D01*
X158360289Y-132571789D01*
X158471789Y-132460289D01*
X158559394Y-132329179D01*
X158619737Y-132183497D01*
X158650500Y-132028842D01*
X158650500Y-131871158D01*
X158650500Y-131871155D01*
X158650499Y-131871153D01*
X158649295Y-131865098D01*
X158619737Y-131716503D01*
X158613010Y-131700263D01*
X158559397Y-131570827D01*
X158559390Y-131570814D01*
X158471789Y-131439711D01*
X158471786Y-131439707D01*
X158360292Y-131328213D01*
X158360288Y-131328210D01*
X158229185Y-131240609D01*
X158229172Y-131240602D01*
X158083501Y-131180264D01*
X158083489Y-131180261D01*
X157928845Y-131149500D01*
X157928842Y-131149500D01*
X157771158Y-131149500D01*
X157771155Y-131149500D01*
X157616510Y-131180261D01*
X157616498Y-131180264D01*
X157470827Y-131240602D01*
X157470814Y-131240609D01*
X157339711Y-131328210D01*
X157339707Y-131328213D01*
X157228213Y-131439707D01*
X157228210Y-131439711D01*
X157140609Y-131570814D01*
X157140602Y-131570827D01*
X157080264Y-131716498D01*
X157080261Y-131716510D01*
X157049500Y-131871153D01*
X155360862Y-131871153D01*
X155472546Y-131787546D01*
X155558796Y-131672331D01*
X155609091Y-131537483D01*
X155615500Y-131477873D01*
X155615499Y-130882128D01*
X155609091Y-130822517D01*
X155608819Y-130821789D01*
X155558797Y-130687671D01*
X155558793Y-130687664D01*
X155472547Y-130572455D01*
X155472544Y-130572452D01*
X155357335Y-130486206D01*
X155357328Y-130486202D01*
X155222482Y-130435908D01*
X155222483Y-130435908D01*
X155162883Y-130429501D01*
X155162881Y-130429500D01*
X155162873Y-130429500D01*
X153838919Y-130429500D01*
X153838917Y-130429500D01*
X153691083Y-130429500D01*
X153691080Y-130429500D01*
X152367129Y-130429500D01*
X152367123Y-130429501D01*
X152307516Y-130435908D01*
X152172671Y-130486202D01*
X152172664Y-130486206D01*
X152057455Y-130572452D01*
X152057452Y-130572455D01*
X151971206Y-130687664D01*
X151971202Y-130687671D01*
X151920910Y-130822513D01*
X151920909Y-130822517D01*
X151914500Y-130882127D01*
X147185369Y-130882127D01*
X147185369Y-130882123D01*
X147179091Y-130823716D01*
X147128797Y-130688871D01*
X147128793Y-130688864D01*
X147042547Y-130573655D01*
X147042544Y-130573652D01*
X146927335Y-130487406D01*
X146927328Y-130487402D01*
X146792482Y-130437108D01*
X146792483Y-130437108D01*
X146732883Y-130430701D01*
X146732881Y-130430700D01*
X146732873Y-130430700D01*
X145408919Y-130430700D01*
X145408917Y-130430700D01*
X145261082Y-130430700D01*
X145261079Y-130430700D01*
X143937129Y-130430700D01*
X143937123Y-130430701D01*
X143877518Y-130437108D01*
X143869377Y-130440144D01*
X143865255Y-130441682D01*
X143821923Y-130449500D01*
X142362229Y-130449500D01*
X142295190Y-130429815D01*
X142274548Y-130413181D01*
X141982520Y-130121153D01*
X164999500Y-130121153D01*
X164999500Y-130278846D01*
X165030261Y-130433489D01*
X165030264Y-130433501D01*
X165090602Y-130579172D01*
X165090609Y-130579185D01*
X165178210Y-130710288D01*
X165178213Y-130710292D01*
X165289707Y-130821786D01*
X165289711Y-130821789D01*
X165420814Y-130909390D01*
X165420827Y-130909397D01*
X165566498Y-130969735D01*
X165566503Y-130969737D01*
X165721153Y-131000499D01*
X165721156Y-131000500D01*
X165721158Y-131000500D01*
X165878844Y-131000500D01*
X165878845Y-131000499D01*
X166033497Y-130969737D01*
X166179179Y-130909394D01*
X166310289Y-130821789D01*
X166421789Y-130710289D01*
X166509394Y-130579179D01*
X166512854Y-130570827D01*
X166540552Y-130503956D01*
X166569737Y-130433497D01*
X166600500Y-130278842D01*
X166600500Y-130121158D01*
X166600500Y-130121155D01*
X166600499Y-130121153D01*
X166569737Y-129966503D01*
X166569735Y-129966498D01*
X166509397Y-129820827D01*
X166509390Y-129820814D01*
X166421789Y-129689711D01*
X166421786Y-129689707D01*
X166310292Y-129578213D01*
X166310288Y-129578210D01*
X166179185Y-129490609D01*
X166179172Y-129490602D01*
X166033501Y-129430264D01*
X166033489Y-129430261D01*
X165878845Y-129399500D01*
X165878842Y-129399500D01*
X165721158Y-129399500D01*
X165721155Y-129399500D01*
X165566510Y-129430261D01*
X165566498Y-129430264D01*
X165420827Y-129490602D01*
X165420814Y-129490609D01*
X165289711Y-129578210D01*
X165289707Y-129578213D01*
X165178213Y-129689707D01*
X165178210Y-129689711D01*
X165090609Y-129820814D01*
X165090602Y-129820827D01*
X165030264Y-129966498D01*
X165030261Y-129966510D01*
X164999500Y-130121153D01*
X141982520Y-130121153D01*
X141827865Y-129966498D01*
X141167979Y-129306611D01*
X141134496Y-129245291D01*
X141139480Y-129175599D01*
X141167979Y-129131254D01*
X141309154Y-128990079D01*
X141370475Y-128956596D01*
X141440167Y-128961580D01*
X141496100Y-129003452D01*
X141518450Y-129053570D01*
X141550261Y-129213491D01*
X141550264Y-129213501D01*
X141610602Y-129359172D01*
X141610609Y-129359185D01*
X141689813Y-129477722D01*
X141689815Y-129477724D01*
X141698211Y-129490289D01*
X141809711Y-129601789D01*
X141822275Y-129610184D01*
X141822277Y-129610186D01*
X141940814Y-129689390D01*
X141940827Y-129689397D01*
X142086498Y-129749735D01*
X142086503Y-129749737D01*
X142241153Y-129780499D01*
X142241156Y-129780500D01*
X142241158Y-129780500D01*
X142398844Y-129780500D01*
X142398845Y-129780499D01*
X142475152Y-129765320D01*
X142553488Y-129749739D01*
X142553489Y-129749738D01*
X142553497Y-129749737D01*
X142574258Y-129741137D01*
X142621707Y-129731700D01*
X145423352Y-129731700D01*
X145423360Y-129731699D01*
X146732871Y-129731699D01*
X146732872Y-129731699D01*
X146737421Y-129731209D01*
X146750675Y-129730500D01*
X153853352Y-129730500D01*
X153853360Y-129730499D01*
X155162871Y-129730499D01*
X155162872Y-129730499D01*
X155222483Y-129724091D01*
X155357331Y-129673796D01*
X155472546Y-129587546D01*
X155558796Y-129472331D01*
X155609091Y-129337483D01*
X155615500Y-129277873D01*
X155615499Y-128682128D01*
X155609091Y-128622517D01*
X155568951Y-128514897D01*
X155558797Y-128487671D01*
X155558793Y-128487664D01*
X155472547Y-128372455D01*
X155472544Y-128372452D01*
X155357335Y-128286206D01*
X155357328Y-128286202D01*
X155222482Y-128235908D01*
X155222483Y-128235908D01*
X155162883Y-128229501D01*
X155162881Y-128229500D01*
X155162873Y-128229500D01*
X155162865Y-128229500D01*
X150707441Y-128229500D01*
X150640402Y-128209815D01*
X150594647Y-128157011D01*
X150584703Y-128087853D01*
X150604339Y-128036609D01*
X150649390Y-127969185D01*
X150649390Y-127969184D01*
X150649394Y-127969179D01*
X150709737Y-127823497D01*
X150740500Y-127668842D01*
X150740500Y-127668835D01*
X150741097Y-127662782D01*
X150743860Y-127663054D01*
X150760185Y-127607461D01*
X150812989Y-127561706D01*
X150864500Y-127550500D01*
X170252605Y-127550500D01*
X170262356Y-127553363D01*
X170272441Y-127552097D01*
X170295316Y-127563041D01*
X170319644Y-127570185D01*
X170326298Y-127577865D01*
X170335468Y-127582252D01*
X170348795Y-127603828D01*
X170365399Y-127622989D01*
X170366845Y-127633047D01*
X170372187Y-127641695D01*
X170371734Y-127667047D01*
X170375343Y-127692147D01*
X170371087Y-127703253D01*
X170370939Y-127711554D01*
X170355709Y-127743386D01*
X170331210Y-127780053D01*
X170288505Y-127843965D01*
X170234892Y-127888769D01*
X170209597Y-127896690D01*
X170166505Y-127905262D01*
X170166500Y-127905263D01*
X170020827Y-127965602D01*
X170020814Y-127965609D01*
X169889711Y-128053210D01*
X169889707Y-128053213D01*
X169778213Y-128164707D01*
X169778210Y-128164711D01*
X169690609Y-128295814D01*
X169690602Y-128295827D01*
X169630264Y-128441498D01*
X169630261Y-128441510D01*
X169599500Y-128596153D01*
X169599500Y-128753846D01*
X169630261Y-128908489D01*
X169630264Y-128908501D01*
X169690602Y-129054172D01*
X169690609Y-129054185D01*
X169778210Y-129185288D01*
X169778213Y-129185292D01*
X169889707Y-129296786D01*
X169889711Y-129296789D01*
X170020814Y-129384390D01*
X170020827Y-129384397D01*
X170166498Y-129444735D01*
X170166503Y-129444737D01*
X170305247Y-129472335D01*
X170321153Y-129475499D01*
X170321156Y-129475500D01*
X170321158Y-129475500D01*
X170478844Y-129475500D01*
X170478845Y-129475499D01*
X170633497Y-129444737D01*
X170779179Y-129384394D01*
X170843527Y-129341398D01*
X170910204Y-129320520D01*
X170912418Y-129320500D01*
X171610438Y-129320500D01*
X171610454Y-129320501D01*
X171618050Y-129320501D01*
X171776161Y-129320501D01*
X171776164Y-129320501D01*
X171928892Y-129279577D01*
X171979011Y-129250639D01*
X172065823Y-129200520D01*
X172177627Y-129088716D01*
X172177627Y-129088714D01*
X172187835Y-129078507D01*
X172187837Y-129078504D01*
X173168506Y-128097835D01*
X173168511Y-128097831D01*
X173178714Y-128087627D01*
X173178716Y-128087627D01*
X173290520Y-127975823D01*
X173369577Y-127838891D01*
X173410500Y-127686164D01*
X173410500Y-125294059D01*
X173410501Y-125294046D01*
X173410501Y-125125945D01*
X173410501Y-125125943D01*
X173369577Y-124973215D01*
X173321777Y-124890423D01*
X173290520Y-124836284D01*
X173178716Y-124724480D01*
X173178715Y-124724479D01*
X173174385Y-124720149D01*
X173174374Y-124720139D01*
X169431788Y-120977553D01*
X171259100Y-120977553D01*
X171259100Y-121135246D01*
X171289861Y-121289889D01*
X171289864Y-121289901D01*
X171350202Y-121435572D01*
X171350209Y-121435585D01*
X171437810Y-121566688D01*
X171437813Y-121566692D01*
X171549307Y-121678186D01*
X171549311Y-121678189D01*
X171680414Y-121765790D01*
X171680427Y-121765797D01*
X171826098Y-121826135D01*
X171826103Y-121826137D01*
X171980753Y-121856899D01*
X171980756Y-121856900D01*
X171980758Y-121856900D01*
X172138444Y-121856900D01*
X172138445Y-121856899D01*
X172293097Y-121826137D01*
X172438779Y-121765794D01*
X172569889Y-121678189D01*
X172681389Y-121566689D01*
X172768994Y-121435579D01*
X172829337Y-121289897D01*
X172860100Y-121135242D01*
X172860100Y-120977558D01*
X172860100Y-120977555D01*
X172860099Y-120977553D01*
X172855570Y-120954785D01*
X172829337Y-120822903D01*
X172823252Y-120808213D01*
X172768997Y-120677227D01*
X172768990Y-120677214D01*
X172681389Y-120546111D01*
X172681386Y-120546107D01*
X172569892Y-120434613D01*
X172569888Y-120434610D01*
X172438785Y-120347009D01*
X172438772Y-120347002D01*
X172293101Y-120286664D01*
X172293089Y-120286661D01*
X172138445Y-120255900D01*
X172138442Y-120255900D01*
X171980758Y-120255900D01*
X171980755Y-120255900D01*
X171826110Y-120286661D01*
X171826098Y-120286664D01*
X171680427Y-120347002D01*
X171680414Y-120347009D01*
X171549311Y-120434610D01*
X171549307Y-120434613D01*
X171437813Y-120546107D01*
X171437810Y-120546111D01*
X171350209Y-120677214D01*
X171350202Y-120677227D01*
X171289864Y-120822898D01*
X171289861Y-120822910D01*
X171259100Y-120977553D01*
X169431788Y-120977553D01*
X167472683Y-119018448D01*
X167439198Y-118957125D01*
X167444182Y-118887433D01*
X167486054Y-118831500D01*
X167536170Y-118809150D01*
X167583497Y-118799737D01*
X167729179Y-118739394D01*
X167775849Y-118708210D01*
X167860875Y-118651398D01*
X167927553Y-118630520D01*
X167929766Y-118630500D01*
X168393331Y-118630500D01*
X168393347Y-118630501D01*
X168400943Y-118630501D01*
X168559054Y-118630501D01*
X168559057Y-118630501D01*
X168711785Y-118589577D01*
X168762558Y-118560263D01*
X168848716Y-118510520D01*
X168855239Y-118503996D01*
X168868022Y-118496241D01*
X168887901Y-118490957D01*
X168905949Y-118481096D01*
X168908152Y-118480637D01*
X168908841Y-118480500D01*
X168908842Y-118480500D01*
X169063497Y-118449737D01*
X169209179Y-118389394D01*
X169340289Y-118301789D01*
X169451789Y-118190289D01*
X169539394Y-118059179D01*
X169599737Y-117913497D01*
X169630500Y-117758842D01*
X169630500Y-117601158D01*
X169630500Y-117601155D01*
X169630499Y-117601153D01*
X169622193Y-117559397D01*
X169599737Y-117446503D01*
X169592694Y-117429500D01*
X169539397Y-117300827D01*
X169539390Y-117300814D01*
X169451789Y-117169711D01*
X169451786Y-117169707D01*
X169340292Y-117058213D01*
X169340288Y-117058210D01*
X169209185Y-116970609D01*
X169209172Y-116970602D01*
X169063501Y-116910264D01*
X169063489Y-116910261D01*
X168908845Y-116879500D01*
X168908842Y-116879500D01*
X168751158Y-116879500D01*
X168751155Y-116879500D01*
X168596510Y-116910261D01*
X168596498Y-116910264D01*
X168450827Y-116970602D01*
X168450814Y-116970609D01*
X168319711Y-117058210D01*
X168319707Y-117058213D01*
X168208213Y-117169707D01*
X168208210Y-117169711D01*
X168120607Y-117300817D01*
X168120606Y-117300820D01*
X168099013Y-117352952D01*
X168086470Y-117368517D01*
X168078165Y-117386703D01*
X168064995Y-117395166D01*
X168055173Y-117407356D01*
X168036203Y-117413669D01*
X168019387Y-117424477D01*
X167991827Y-117428439D01*
X167988879Y-117429421D01*
X167984452Y-117429500D01*
X167929766Y-117429500D01*
X167862727Y-117409815D01*
X167860875Y-117408602D01*
X167729185Y-117320609D01*
X167729172Y-117320602D01*
X167583501Y-117260264D01*
X167583489Y-117260261D01*
X167428845Y-117229500D01*
X167428842Y-117229500D01*
X167271158Y-117229500D01*
X167271155Y-117229500D01*
X167116510Y-117260261D01*
X167116498Y-117260264D01*
X166970827Y-117320602D01*
X166970814Y-117320609D01*
X166839711Y-117408210D01*
X166839707Y-117408213D01*
X166728213Y-117519707D01*
X166728210Y-117519711D01*
X166640609Y-117650814D01*
X166640602Y-117650827D01*
X166580264Y-117796498D01*
X166580261Y-117796508D01*
X166570849Y-117843827D01*
X166538464Y-117905738D01*
X166477748Y-117940312D01*
X166407978Y-117936571D01*
X166361551Y-117907316D01*
X165706047Y-117251812D01*
X165672562Y-117190489D01*
X165677546Y-117120797D01*
X165719418Y-117064864D01*
X165769537Y-117042513D01*
X165783497Y-117039737D01*
X165929179Y-116979394D01*
X166060289Y-116891789D01*
X166171789Y-116780289D01*
X166259394Y-116649179D01*
X166319737Y-116503497D01*
X166350500Y-116348842D01*
X166350500Y-116191158D01*
X166350500Y-116191155D01*
X166350499Y-116191153D01*
X166322578Y-116050785D01*
X166319737Y-116036503D01*
X166296865Y-115981284D01*
X166259397Y-115890827D01*
X166259390Y-115890814D01*
X166171789Y-115759711D01*
X166171786Y-115759707D01*
X166060292Y-115648213D01*
X166060288Y-115648210D01*
X165929185Y-115560609D01*
X165929172Y-115560602D01*
X165783501Y-115500264D01*
X165783489Y-115500261D01*
X165628845Y-115469500D01*
X165628842Y-115469500D01*
X165471158Y-115469500D01*
X165471155Y-115469500D01*
X165316510Y-115500261D01*
X165316498Y-115500264D01*
X165170827Y-115560602D01*
X165170814Y-115560609D01*
X165039125Y-115648602D01*
X165021078Y-115654252D01*
X165005169Y-115664477D01*
X164974207Y-115668928D01*
X164972447Y-115669480D01*
X164970234Y-115669500D01*
X164853418Y-115669500D01*
X164786379Y-115649815D01*
X164740624Y-115597011D01*
X164730680Y-115527853D01*
X164738855Y-115498051D01*
X164769737Y-115423497D01*
X164800500Y-115268842D01*
X164800500Y-115268840D01*
X164800637Y-115268152D01*
X164827557Y-115216685D01*
X164825573Y-115215162D01*
X164830514Y-115208721D01*
X164830520Y-115208716D01*
X164909577Y-115071784D01*
X164950501Y-114919057D01*
X164950501Y-114760942D01*
X164950501Y-114753347D01*
X164950500Y-114753329D01*
X164950500Y-114679765D01*
X164970185Y-114612726D01*
X164971398Y-114610874D01*
X165059390Y-114479185D01*
X165059390Y-114479184D01*
X165059394Y-114479179D01*
X165119737Y-114333497D01*
X165150500Y-114178842D01*
X165150500Y-114021158D01*
X165150500Y-114021155D01*
X165150499Y-114021153D01*
X165125416Y-113895054D01*
X165119737Y-113866503D01*
X165119735Y-113866498D01*
X165059397Y-113720827D01*
X165059390Y-113720814D01*
X164971789Y-113589711D01*
X164971786Y-113589707D01*
X164860292Y-113478213D01*
X164860288Y-113478210D01*
X164729185Y-113390609D01*
X164729172Y-113390602D01*
X164583501Y-113330264D01*
X164583489Y-113330261D01*
X164428845Y-113299500D01*
X164428842Y-113299500D01*
X164271158Y-113299500D01*
X164271156Y-113299500D01*
X164243688Y-113304963D01*
X164174097Y-113298734D01*
X164118921Y-113255869D01*
X164095678Y-113189979D01*
X164095500Y-113183345D01*
X164095500Y-111894060D01*
X164095501Y-111894047D01*
X164095501Y-111725944D01*
X164087720Y-111696905D01*
X164054577Y-111573216D01*
X164054571Y-111573207D01*
X164051467Y-111565710D01*
X164053677Y-111564794D01*
X164040500Y-111515609D01*
X164040500Y-111220944D01*
X164040499Y-111220937D01*
X164032542Y-111191241D01*
X163999577Y-111068215D01*
X163936746Y-110959389D01*
X163920520Y-110931284D01*
X163808716Y-110819480D01*
X163808713Y-110819478D01*
X163317590Y-110328355D01*
X163317588Y-110328352D01*
X163198717Y-110209481D01*
X163198709Y-110209475D01*
X163110323Y-110158446D01*
X163110322Y-110158446D01*
X163089808Y-110146602D01*
X163061785Y-110130423D01*
X162909057Y-110089499D01*
X162750943Y-110089499D01*
X162743347Y-110089499D01*
X162743331Y-110089500D01*
X160417746Y-110089500D01*
X160265017Y-110130423D01*
X160222646Y-110154886D01*
X160222640Y-110154890D01*
X160216480Y-110158447D01*
X160128087Y-110209480D01*
X160067736Y-110269830D01*
X160060403Y-110275272D01*
X160035842Y-110284314D01*
X160012872Y-110296857D01*
X159997194Y-110298542D01*
X159994836Y-110299411D01*
X159992970Y-110298996D01*
X159986514Y-110299691D01*
X159882105Y-110299691D01*
X159815066Y-110280006D01*
X159769311Y-110227202D01*
X159767544Y-110223144D01*
X159715929Y-110098534D01*
X159715924Y-110098525D01*
X159613932Y-109945884D01*
X159613929Y-109945880D01*
X159555936Y-109887887D01*
X159522451Y-109826564D01*
X159519617Y-109800206D01*
X159519617Y-109680038D01*
X159519616Y-109680036D01*
X159509306Y-109628206D01*
X159488854Y-109525386D01*
X159461933Y-109460392D01*
X159428514Y-109379710D01*
X159428507Y-109379697D01*
X159340906Y-109248594D01*
X159340903Y-109248590D01*
X159229409Y-109137096D01*
X159229405Y-109137093D01*
X159098302Y-109049492D01*
X159098289Y-109049485D01*
X158952618Y-108989147D01*
X158952606Y-108989144D01*
X158797962Y-108958383D01*
X158797959Y-108958383D01*
X158640275Y-108958383D01*
X158640272Y-108958383D01*
X158485627Y-108989144D01*
X158485615Y-108989147D01*
X158339944Y-109049485D01*
X158339931Y-109049492D01*
X158208828Y-109137093D01*
X158208824Y-109137096D01*
X158097330Y-109248590D01*
X158097327Y-109248594D01*
X158009726Y-109379697D01*
X158009719Y-109379710D01*
X157949381Y-109525381D01*
X157949378Y-109525393D01*
X157918617Y-109680036D01*
X157918617Y-109837729D01*
X157949378Y-109992372D01*
X157949381Y-109992384D01*
X158009054Y-110136449D01*
X158016523Y-110205918D01*
X158009055Y-110231352D01*
X157993818Y-110268138D01*
X157993814Y-110268151D01*
X157958000Y-110448201D01*
X157958000Y-110613006D01*
X157938315Y-110680045D01*
X157885511Y-110725800D01*
X157881453Y-110727567D01*
X157756843Y-110779181D01*
X157756834Y-110779186D01*
X157604193Y-110881178D01*
X157604189Y-110881181D01*
X157474379Y-111010991D01*
X157474376Y-111010995D01*
X157372384Y-111163636D01*
X157372379Y-111163645D01*
X157302125Y-111333255D01*
X157302123Y-111333263D01*
X157266309Y-111513312D01*
X157266309Y-111696909D01*
X157302123Y-111876958D01*
X157302125Y-111876966D01*
X157372379Y-112046576D01*
X157372384Y-112046585D01*
X157474375Y-112199225D01*
X157474376Y-112199226D01*
X157474377Y-112199227D01*
X157561491Y-112286341D01*
X157594975Y-112347662D01*
X157597809Y-112374021D01*
X157597809Y-112881639D01*
X157597808Y-112881657D01*
X157597808Y-113047363D01*
X157597807Y-113047363D01*
X157638732Y-113200094D01*
X157667667Y-113250209D01*
X157667668Y-113250213D01*
X157667669Y-113250213D01*
X157717788Y-113337023D01*
X157717790Y-113337026D01*
X157836658Y-113455894D01*
X157836664Y-113455899D01*
X159918584Y-115537819D01*
X159952069Y-115599142D01*
X159947085Y-115668834D01*
X159905213Y-115724767D01*
X159839749Y-115749184D01*
X159830903Y-115749500D01*
X157730942Y-115749500D01*
X157578214Y-115790423D01*
X157540237Y-115812350D01*
X157540236Y-115812350D01*
X157441287Y-115869477D01*
X157441282Y-115869481D01*
X153769481Y-119541282D01*
X153769477Y-119541287D01*
X153732454Y-119605415D01*
X153732454Y-119605416D01*
X153690423Y-119678214D01*
X153690423Y-119678215D01*
X153649499Y-119830943D01*
X153649499Y-119830945D01*
X153649499Y-119999046D01*
X153649500Y-119999059D01*
X153649500Y-121149903D01*
X153629815Y-121216942D01*
X153613181Y-121237584D01*
X153227584Y-121623181D01*
X153166261Y-121656666D01*
X153139903Y-121659500D01*
X151161627Y-121659500D01*
X151094588Y-121639815D01*
X151048833Y-121587011D01*
X151038889Y-121517853D01*
X151040010Y-121511309D01*
X151040499Y-121508846D01*
X151040500Y-121508844D01*
X151040500Y-121351155D01*
X151040499Y-121351153D01*
X151027341Y-121285003D01*
X151009737Y-121196503D01*
X150992085Y-121153887D01*
X150949397Y-121050827D01*
X150949390Y-121050814D01*
X150861789Y-120919711D01*
X150861786Y-120919707D01*
X150750292Y-120808213D01*
X150750288Y-120808210D01*
X150619185Y-120720609D01*
X150619172Y-120720602D01*
X150473501Y-120660264D01*
X150473489Y-120660261D01*
X150318845Y-120629500D01*
X150318842Y-120629500D01*
X150161158Y-120629500D01*
X150161155Y-120629500D01*
X150006510Y-120660261D01*
X150006498Y-120660264D01*
X149860827Y-120720602D01*
X149860814Y-120720609D01*
X149729711Y-120808210D01*
X149729707Y-120808213D01*
X149618213Y-120919707D01*
X149618210Y-120919711D01*
X149530609Y-121050814D01*
X149530602Y-121050827D01*
X149470264Y-121196498D01*
X149470261Y-121196510D01*
X149439500Y-121351153D01*
X149439500Y-121508846D01*
X149439990Y-121511309D01*
X149439872Y-121512624D01*
X149440097Y-121514907D01*
X149439664Y-121514949D01*
X149433763Y-121580901D01*
X149390900Y-121636078D01*
X149325010Y-121659322D01*
X149318373Y-121659500D01*
X138781193Y-121659500D01*
X138714154Y-121639815D01*
X138668399Y-121587011D01*
X138659576Y-121559692D01*
X138633914Y-121430684D01*
X138633913Y-121430683D01*
X138633913Y-121430679D01*
X138604757Y-121360289D01*
X138573573Y-121285003D01*
X138573566Y-121284990D01*
X138485965Y-121153887D01*
X138485962Y-121153883D01*
X138374468Y-121042389D01*
X138374464Y-121042386D01*
X138243361Y-120954785D01*
X138243348Y-120954778D01*
X138097677Y-120894440D01*
X138097665Y-120894437D01*
X137943021Y-120863676D01*
X137943018Y-120863676D01*
X137785334Y-120863676D01*
X137785331Y-120863676D01*
X137630686Y-120894437D01*
X137630674Y-120894440D01*
X137485003Y-120954778D01*
X137484990Y-120954785D01*
X137353887Y-121042386D01*
X137353883Y-121042389D01*
X137242389Y-121153883D01*
X137242386Y-121153887D01*
X137154785Y-121284990D01*
X137154778Y-121285003D01*
X137094440Y-121430674D01*
X137094437Y-121430686D01*
X137063676Y-121585329D01*
X137063676Y-121743022D01*
X137094437Y-121897665D01*
X137094440Y-121897677D01*
X137154778Y-122043348D01*
X137154785Y-122043361D01*
X137242386Y-122174464D01*
X137242389Y-122174468D01*
X137353883Y-122285962D01*
X137414635Y-122326556D01*
X137459439Y-122380169D01*
X137468146Y-122449494D01*
X137437991Y-122512521D01*
X137433424Y-122517339D01*
X136717339Y-123233424D01*
X136656016Y-123266909D01*
X136586324Y-123261925D01*
X136530391Y-123220053D01*
X136526556Y-123214635D01*
X136485962Y-123153883D01*
X136374468Y-123042389D01*
X136374464Y-123042386D01*
X136243361Y-122954785D01*
X136243348Y-122954778D01*
X136097677Y-122894440D01*
X136097665Y-122894437D01*
X135943021Y-122863676D01*
X135943018Y-122863676D01*
X135785334Y-122863676D01*
X135785331Y-122863676D01*
X135630686Y-122894437D01*
X135630674Y-122894440D01*
X135485003Y-122954778D01*
X135484990Y-122954785D01*
X135353887Y-123042386D01*
X135353883Y-123042389D01*
X135242389Y-123153883D01*
X135242386Y-123153887D01*
X135154785Y-123284990D01*
X135154778Y-123285003D01*
X135094440Y-123430674D01*
X135094437Y-123430686D01*
X135063676Y-123585329D01*
X135063676Y-123743022D01*
X135094437Y-123897665D01*
X135094440Y-123897677D01*
X135154778Y-124043348D01*
X135154785Y-124043361D01*
X135242386Y-124174464D01*
X135242389Y-124174468D01*
X135353883Y-124285962D01*
X135353886Y-124285964D01*
X135353887Y-124285965D01*
X135360363Y-124290292D01*
X135414635Y-124326556D01*
X135459439Y-124380169D01*
X135468146Y-124449494D01*
X135437991Y-124512521D01*
X135433424Y-124517339D01*
X132178881Y-127771882D01*
X132117558Y-127805367D01*
X132047866Y-127800383D01*
X132012534Y-127780053D01*
X132010289Y-127778211D01*
X131879185Y-127690609D01*
X131879172Y-127690602D01*
X131733501Y-127630264D01*
X131733489Y-127630261D01*
X131578845Y-127599500D01*
X131578842Y-127599500D01*
X131421158Y-127599500D01*
X131421155Y-127599500D01*
X131266510Y-127630261D01*
X131266498Y-127630264D01*
X131120827Y-127690602D01*
X131120814Y-127690609D01*
X130989711Y-127778210D01*
X130989707Y-127778213D01*
X130878213Y-127889707D01*
X130878210Y-127889711D01*
X130790609Y-128020814D01*
X130790602Y-128020827D01*
X130730264Y-128166498D01*
X130730261Y-128166510D01*
X130699500Y-128321153D01*
X130699500Y-128478846D01*
X130730261Y-128633489D01*
X130730264Y-128633501D01*
X130790602Y-128779172D01*
X130790609Y-128779185D01*
X130878211Y-128910289D01*
X130880053Y-128912534D01*
X130880650Y-128913939D01*
X130881595Y-128915354D01*
X130881326Y-128915533D01*
X130907367Y-128976843D01*
X130895577Y-129045711D01*
X130871882Y-129078881D01*
X129541386Y-130409377D01*
X129480063Y-130442862D01*
X129410371Y-130437878D01*
X129406252Y-130436257D01*
X129405409Y-130435908D01*
X129343497Y-130410263D01*
X129343489Y-130410261D01*
X129188845Y-130379500D01*
X129188842Y-130379500D01*
X129031158Y-130379500D01*
X129031155Y-130379500D01*
X128876510Y-130410261D01*
X128876498Y-130410264D01*
X128730827Y-130470602D01*
X128730814Y-130470609D01*
X128599711Y-130558210D01*
X128599707Y-130558213D01*
X128488213Y-130669707D01*
X128488210Y-130669711D01*
X128400609Y-130800814D01*
X128400602Y-130800827D01*
X128340264Y-130946498D01*
X128340261Y-130946510D01*
X128309500Y-131101153D01*
X126476116Y-131101153D01*
X126490500Y-131028842D01*
X126490500Y-130871158D01*
X126490500Y-130871155D01*
X126490499Y-130871153D01*
X126476509Y-130800821D01*
X126459737Y-130716503D01*
X126457163Y-130710288D01*
X126399397Y-130570827D01*
X126399390Y-130570814D01*
X126311789Y-130439711D01*
X126311786Y-130439707D01*
X126200292Y-130328213D01*
X126200288Y-130328210D01*
X126069185Y-130240609D01*
X126069172Y-130240602D01*
X125923501Y-130180264D01*
X125923489Y-130180261D01*
X125768845Y-130149500D01*
X125768842Y-130149500D01*
X125611158Y-130149500D01*
X125611155Y-130149500D01*
X125456510Y-130180261D01*
X125456498Y-130180264D01*
X125310827Y-130240602D01*
X125310814Y-130240609D01*
X125179711Y-130328210D01*
X125179707Y-130328213D01*
X125068213Y-130439707D01*
X125068210Y-130439711D01*
X124980609Y-130570814D01*
X124980602Y-130570827D01*
X124920264Y-130716498D01*
X124920261Y-130716510D01*
X124889500Y-130871153D01*
X124889500Y-131028846D01*
X124920261Y-131183489D01*
X124920263Y-131183497D01*
X124930061Y-131207151D01*
X124939500Y-131254604D01*
X124939500Y-134249452D01*
X124919815Y-134316491D01*
X124867011Y-134362246D01*
X124797853Y-134372190D01*
X124734297Y-134343165D01*
X124696523Y-134284387D01*
X124693027Y-134268850D01*
X124683051Y-134205863D01*
X124574293Y-133519199D01*
X124573630Y-133514398D01*
X124566411Y-133453406D01*
X124455736Y-132518313D01*
X124455260Y-132513484D01*
X124453439Y-132490340D01*
X124376557Y-131513466D01*
X124376275Y-131508674D01*
X124336896Y-130506399D01*
X124336800Y-130501531D01*
X124336800Y-129498468D01*
X124336896Y-129493600D01*
X124337607Y-129475499D01*
X124376275Y-128491322D01*
X124376556Y-128486536D01*
X124455262Y-127486494D01*
X124455738Y-127481669D01*
X124455822Y-127480959D01*
X124573633Y-126485572D01*
X124574292Y-126480807D01*
X124731212Y-125490053D01*
X124732058Y-125485317D01*
X124927751Y-124501505D01*
X124928781Y-124496809D01*
X125162959Y-123521387D01*
X125164166Y-123516760D01*
X125436443Y-122551342D01*
X125437853Y-122546694D01*
X125447391Y-122517339D01*
X125747822Y-121592707D01*
X125749394Y-121588173D01*
X126096592Y-120647052D01*
X126098335Y-120642598D01*
X126482213Y-119715833D01*
X126484128Y-119711455D01*
X126904087Y-118800495D01*
X126906209Y-118796122D01*
X126935112Y-118739397D01*
X127361608Y-117902350D01*
X127363861Y-117898136D01*
X127853994Y-117022941D01*
X127856425Y-117018793D01*
X127962781Y-116845236D01*
X129287113Y-116845236D01*
X129287113Y-117154179D01*
X129321699Y-117461145D01*
X129321702Y-117461163D01*
X129390444Y-117762343D01*
X129390448Y-117762355D01*
X129492475Y-118053930D01*
X129492481Y-118053944D01*
X129626516Y-118332270D01*
X129626518Y-118332273D01*
X129790878Y-118593851D01*
X129882077Y-118708211D01*
X129970992Y-118819707D01*
X129983493Y-118835382D01*
X130201939Y-119053828D01*
X130443470Y-119246443D01*
X130705048Y-119410803D01*
X130983384Y-119544843D01*
X130983390Y-119544845D01*
X131274965Y-119646872D01*
X131274977Y-119646876D01*
X131576161Y-119715619D01*
X131576167Y-119715619D01*
X131576175Y-119715621D01*
X131780819Y-119738678D01*
X131883142Y-119750207D01*
X131883145Y-119750208D01*
X131883148Y-119750208D01*
X132192081Y-119750208D01*
X132192082Y-119750207D01*
X132348969Y-119732530D01*
X132499050Y-119715621D01*
X132499055Y-119715620D01*
X132499065Y-119715619D01*
X132800249Y-119646876D01*
X133091842Y-119544843D01*
X133370178Y-119410803D01*
X133631756Y-119246443D01*
X133873287Y-119053828D01*
X134091733Y-118835382D01*
X134284348Y-118593851D01*
X134448708Y-118332273D01*
X134582748Y-118053937D01*
X134684781Y-117762344D01*
X134753524Y-117461160D01*
X134755176Y-117446503D01*
X134776159Y-117260264D01*
X134788113Y-117154173D01*
X134788113Y-116845243D01*
X134753524Y-116538256D01*
X134684781Y-116237072D01*
X134582748Y-115945479D01*
X134448708Y-115667143D01*
X134401966Y-115592753D01*
X148551500Y-115592753D01*
X148551500Y-115750446D01*
X148582261Y-115905089D01*
X148582264Y-115905101D01*
X148642602Y-116050772D01*
X148642609Y-116050785D01*
X148730210Y-116181888D01*
X148730213Y-116181892D01*
X148841707Y-116293386D01*
X148841711Y-116293389D01*
X148972814Y-116380990D01*
X148972827Y-116380997D01*
X149118498Y-116441335D01*
X149118503Y-116441337D01*
X149273153Y-116472099D01*
X149273156Y-116472100D01*
X149273158Y-116472100D01*
X149430844Y-116472100D01*
X149430845Y-116472099D01*
X149585497Y-116441337D01*
X149731179Y-116380994D01*
X149862289Y-116293389D01*
X149973789Y-116181889D01*
X150061394Y-116050779D01*
X150121737Y-115905097D01*
X150152500Y-115750442D01*
X150152500Y-115592758D01*
X150152500Y-115592755D01*
X150152499Y-115592753D01*
X150146105Y-115560609D01*
X150121737Y-115438103D01*
X150108260Y-115405566D01*
X150061397Y-115292427D01*
X150061390Y-115292414D01*
X149973789Y-115161311D01*
X149973786Y-115161307D01*
X149862292Y-115049813D01*
X149862288Y-115049810D01*
X149731185Y-114962209D01*
X149731172Y-114962202D01*
X149585501Y-114901864D01*
X149585489Y-114901861D01*
X149430845Y-114871100D01*
X149430842Y-114871100D01*
X149273158Y-114871100D01*
X149273155Y-114871100D01*
X149118510Y-114901861D01*
X149118498Y-114901864D01*
X148972827Y-114962202D01*
X148972814Y-114962209D01*
X148841711Y-115049810D01*
X148841707Y-115049813D01*
X148730213Y-115161307D01*
X148730210Y-115161311D01*
X148642609Y-115292414D01*
X148642602Y-115292427D01*
X148582264Y-115438098D01*
X148582261Y-115438110D01*
X148551500Y-115592753D01*
X134401966Y-115592753D01*
X134284348Y-115405565D01*
X134091733Y-115164034D01*
X133873287Y-114945588D01*
X133631756Y-114752973D01*
X133370178Y-114588613D01*
X133370175Y-114588611D01*
X133091849Y-114454576D01*
X133091835Y-114454570D01*
X132800260Y-114352543D01*
X132800248Y-114352539D01*
X132499068Y-114283797D01*
X132499050Y-114283794D01*
X132192084Y-114249208D01*
X132192078Y-114249208D01*
X131883148Y-114249208D01*
X131883141Y-114249208D01*
X131576175Y-114283794D01*
X131576157Y-114283797D01*
X131274977Y-114352539D01*
X131274965Y-114352543D01*
X130983390Y-114454570D01*
X130983376Y-114454576D01*
X130705050Y-114588611D01*
X130443471Y-114752972D01*
X130201939Y-114945587D01*
X129983492Y-115164034D01*
X129790877Y-115405566D01*
X129626516Y-115667145D01*
X129492481Y-115945471D01*
X129492475Y-115945485D01*
X129390448Y-116237060D01*
X129390444Y-116237072D01*
X129321702Y-116538252D01*
X129321699Y-116538270D01*
X129287113Y-116845236D01*
X127962781Y-116845236D01*
X128380537Y-116163519D01*
X128383154Y-116159432D01*
X128455754Y-116050779D01*
X128940434Y-115325402D01*
X128943188Y-115321451D01*
X129532777Y-114509952D01*
X129535708Y-114506081D01*
X130156705Y-113718349D01*
X130159777Y-113714608D01*
X130386773Y-113448830D01*
X130811217Y-112951869D01*
X130814402Y-112948283D01*
X131495326Y-112211664D01*
X131498652Y-112208206D01*
X132088233Y-111618625D01*
X136918678Y-111618625D01*
X136918678Y-111839068D01*
X136953163Y-112056799D01*
X137021281Y-112266450D01*
X137021282Y-112266453D01*
X137121365Y-112462872D01*
X137250930Y-112641205D01*
X137250934Y-112641210D01*
X137406814Y-112797090D01*
X137406819Y-112797094D01*
X137548592Y-112900097D01*
X137585156Y-112926662D01*
X137694280Y-112982264D01*
X137781571Y-113026742D01*
X137781574Y-113026743D01*
X137845047Y-113047366D01*
X137991227Y-113094862D01*
X138208956Y-113129347D01*
X138208957Y-113129347D01*
X138429399Y-113129347D01*
X138429400Y-113129347D01*
X138647129Y-113094862D01*
X138856784Y-113026742D01*
X139053200Y-112926662D01*
X139089764Y-112900097D01*
X150439500Y-112900097D01*
X150439500Y-113159902D01*
X150480140Y-113416493D01*
X150560422Y-113663576D01*
X150637281Y-113814418D01*
X150663817Y-113866498D01*
X150678368Y-113895054D01*
X150734153Y-113971835D01*
X150831069Y-114105229D01*
X151014771Y-114288931D01*
X151224949Y-114441634D01*
X151359054Y-114509964D01*
X151456423Y-114559577D01*
X151456425Y-114559577D01*
X151456428Y-114559579D01*
X151703507Y-114639860D01*
X151835706Y-114660797D01*
X151960098Y-114680500D01*
X151960103Y-114680500D01*
X152219902Y-114680500D01*
X152333298Y-114662539D01*
X152476493Y-114639860D01*
X152723572Y-114559579D01*
X152955051Y-114441634D01*
X153165229Y-114288931D01*
X153348931Y-114105229D01*
X153501634Y-113895051D01*
X153619579Y-113663572D01*
X153699860Y-113416493D01*
X153735736Y-113189979D01*
X153740500Y-113159902D01*
X153740500Y-112900097D01*
X153711444Y-112716646D01*
X153699860Y-112643507D01*
X153619579Y-112396428D01*
X153619577Y-112396425D01*
X153619577Y-112396423D01*
X153576787Y-112312445D01*
X153501634Y-112164949D01*
X153348931Y-111954771D01*
X153165229Y-111771069D01*
X153103118Y-111725943D01*
X152955054Y-111618368D01*
X152955053Y-111618367D01*
X152955051Y-111618366D01*
X152866440Y-111573216D01*
X152723576Y-111500422D01*
X152476493Y-111420140D01*
X152219902Y-111379500D01*
X152219897Y-111379500D01*
X151960103Y-111379500D01*
X151960098Y-111379500D01*
X151703506Y-111420140D01*
X151456423Y-111500422D01*
X151224945Y-111618368D01*
X151014774Y-111771066D01*
X151014768Y-111771071D01*
X150831071Y-111954768D01*
X150831066Y-111954774D01*
X150678368Y-112164945D01*
X150560422Y-112396423D01*
X150480140Y-112643506D01*
X150439500Y-112900097D01*
X139089764Y-112900097D01*
X139231543Y-112797089D01*
X139387420Y-112641212D01*
X139516993Y-112462869D01*
X139617073Y-112266453D01*
X139685193Y-112056798D01*
X139719678Y-111839069D01*
X139719678Y-111618625D01*
X139685193Y-111400896D01*
X139668006Y-111348001D01*
X139666012Y-111278163D01*
X139702092Y-111218330D01*
X139764793Y-111187501D01*
X139834207Y-111195465D01*
X139863250Y-111212737D01*
X139942422Y-111275875D01*
X140204000Y-111440235D01*
X140482336Y-111574275D01*
X140482342Y-111574277D01*
X140773917Y-111676304D01*
X140773929Y-111676308D01*
X141075113Y-111745051D01*
X141075119Y-111745051D01*
X141075127Y-111745053D01*
X141279771Y-111768110D01*
X141382094Y-111779639D01*
X141382097Y-111779640D01*
X141382100Y-111779640D01*
X141691033Y-111779640D01*
X141691034Y-111779639D01*
X141847921Y-111761962D01*
X141998002Y-111745053D01*
X141998007Y-111745052D01*
X141998017Y-111745051D01*
X142299201Y-111676308D01*
X142590794Y-111574275D01*
X142869130Y-111440235D01*
X143130708Y-111275875D01*
X143372239Y-111083260D01*
X143590685Y-110864814D01*
X143783300Y-110623283D01*
X143947660Y-110361705D01*
X143947663Y-110361699D01*
X143947665Y-110361696D01*
X143997240Y-110258753D01*
X150024700Y-110258753D01*
X150024700Y-110416446D01*
X150055461Y-110571089D01*
X150055464Y-110571101D01*
X150115802Y-110716772D01*
X150115809Y-110716785D01*
X150203410Y-110847888D01*
X150203413Y-110847892D01*
X150314907Y-110959386D01*
X150314911Y-110959389D01*
X150446014Y-111046990D01*
X150446027Y-111046997D01*
X150591698Y-111107335D01*
X150591703Y-111107337D01*
X150746353Y-111138099D01*
X150746356Y-111138100D01*
X150746358Y-111138100D01*
X150904044Y-111138100D01*
X150904045Y-111138099D01*
X151058697Y-111107337D01*
X151204379Y-111046994D01*
X151335489Y-110959389D01*
X151446989Y-110847889D01*
X151534594Y-110716779D01*
X151594937Y-110571097D01*
X151625700Y-110416442D01*
X151625700Y-110258758D01*
X151625700Y-110258755D01*
X151625699Y-110258753D01*
X151594937Y-110104103D01*
X151592630Y-110098534D01*
X151534597Y-109958427D01*
X151534590Y-109958414D01*
X151446989Y-109827311D01*
X151446986Y-109827307D01*
X151335492Y-109715813D01*
X151335488Y-109715810D01*
X151204385Y-109628209D01*
X151204372Y-109628202D01*
X151058701Y-109567864D01*
X151058689Y-109567861D01*
X150904045Y-109537100D01*
X150904042Y-109537100D01*
X150746358Y-109537100D01*
X150746355Y-109537100D01*
X150591710Y-109567861D01*
X150591698Y-109567864D01*
X150446027Y-109628202D01*
X150446014Y-109628209D01*
X150314911Y-109715810D01*
X150314907Y-109715813D01*
X150203413Y-109827307D01*
X150203410Y-109827311D01*
X150115809Y-109958414D01*
X150115802Y-109958427D01*
X150055464Y-110104098D01*
X150055461Y-110104110D01*
X150024700Y-110258753D01*
X143997240Y-110258753D01*
X144026081Y-110198864D01*
X144026082Y-110198862D01*
X144081693Y-110083384D01*
X144081694Y-110083380D01*
X144081700Y-110083369D01*
X144183733Y-109791776D01*
X144252476Y-109490592D01*
X144287065Y-109183605D01*
X144287065Y-108874675D01*
X144258607Y-108622100D01*
X144252478Y-108567702D01*
X144252475Y-108567684D01*
X144245399Y-108536684D01*
X144183733Y-108266504D01*
X144081700Y-107974911D01*
X144067546Y-107945520D01*
X147220299Y-107945520D01*
X147249140Y-108090507D01*
X147249143Y-108090517D01*
X147305712Y-108227088D01*
X147305719Y-108227101D01*
X147387848Y-108350015D01*
X147387851Y-108350019D01*
X147492380Y-108454548D01*
X147492384Y-108454551D01*
X147615298Y-108536680D01*
X147615311Y-108536687D01*
X147690155Y-108567688D01*
X147751887Y-108593258D01*
X147751891Y-108593258D01*
X147751892Y-108593259D01*
X147896879Y-108622100D01*
X147896882Y-108622100D01*
X148044720Y-108622100D01*
X148142262Y-108602696D01*
X148189713Y-108593258D01*
X148326295Y-108536684D01*
X148449216Y-108454551D01*
X148553751Y-108350016D01*
X148635884Y-108227095D01*
X148692458Y-108090513D01*
X148715452Y-107974917D01*
X148721300Y-107945520D01*
X151220299Y-107945520D01*
X151249140Y-108090507D01*
X151249143Y-108090517D01*
X151305712Y-108227088D01*
X151305719Y-108227101D01*
X151387848Y-108350015D01*
X151387851Y-108350019D01*
X151492380Y-108454548D01*
X151492384Y-108454551D01*
X151615298Y-108536680D01*
X151615311Y-108536687D01*
X151690155Y-108567688D01*
X151751887Y-108593258D01*
X151751891Y-108593258D01*
X151751892Y-108593259D01*
X151896879Y-108622100D01*
X151896882Y-108622100D01*
X152044720Y-108622100D01*
X152142262Y-108602696D01*
X152189713Y-108593258D01*
X152326295Y-108536684D01*
X152449216Y-108454551D01*
X152553751Y-108350016D01*
X152635884Y-108227095D01*
X152692458Y-108090513D01*
X152715452Y-107974917D01*
X152721300Y-107945520D01*
X152721300Y-107797679D01*
X152692459Y-107652692D01*
X152692458Y-107652691D01*
X152692458Y-107652687D01*
X152692456Y-107652682D01*
X152635887Y-107516111D01*
X152635880Y-107516098D01*
X152553751Y-107393184D01*
X152553748Y-107393180D01*
X152449219Y-107288651D01*
X152449215Y-107288648D01*
X152326301Y-107206519D01*
X152326288Y-107206512D01*
X152189717Y-107149943D01*
X152189707Y-107149940D01*
X152044720Y-107121100D01*
X152044718Y-107121100D01*
X151896882Y-107121100D01*
X151896880Y-107121100D01*
X151751892Y-107149940D01*
X151751882Y-107149943D01*
X151615311Y-107206512D01*
X151615298Y-107206519D01*
X151492384Y-107288648D01*
X151492380Y-107288651D01*
X151387851Y-107393180D01*
X151387848Y-107393184D01*
X151305719Y-107516098D01*
X151305712Y-107516111D01*
X151249143Y-107652682D01*
X151249140Y-107652692D01*
X151220300Y-107797679D01*
X151220300Y-107797682D01*
X151220300Y-107945518D01*
X151220300Y-107945520D01*
X151220299Y-107945520D01*
X148721300Y-107945520D01*
X148721300Y-107797679D01*
X148692459Y-107652692D01*
X148692458Y-107652691D01*
X148692458Y-107652687D01*
X148692456Y-107652682D01*
X148635887Y-107516111D01*
X148635880Y-107516098D01*
X148553751Y-107393184D01*
X148553748Y-107393180D01*
X148449219Y-107288651D01*
X148449215Y-107288648D01*
X148326301Y-107206519D01*
X148326288Y-107206512D01*
X148189717Y-107149943D01*
X148189707Y-107149940D01*
X148044720Y-107121100D01*
X148044718Y-107121100D01*
X147896882Y-107121100D01*
X147896880Y-107121100D01*
X147751892Y-107149940D01*
X147751882Y-107149943D01*
X147615311Y-107206512D01*
X147615298Y-107206519D01*
X147492384Y-107288648D01*
X147492380Y-107288651D01*
X147387851Y-107393180D01*
X147387848Y-107393184D01*
X147305719Y-107516098D01*
X147305712Y-107516111D01*
X147249143Y-107652682D01*
X147249140Y-107652692D01*
X147220300Y-107797679D01*
X147220300Y-107797682D01*
X147220300Y-107945518D01*
X147220300Y-107945520D01*
X147220299Y-107945520D01*
X144067546Y-107945520D01*
X144024769Y-107856692D01*
X144019327Y-107845392D01*
X143947661Y-107696577D01*
X143939858Y-107684158D01*
X143783300Y-107434997D01*
X143590685Y-107193466D01*
X143372239Y-106975020D01*
X143130708Y-106782405D01*
X142869130Y-106618045D01*
X142869127Y-106618043D01*
X142590801Y-106484008D01*
X142590787Y-106484002D01*
X142299212Y-106381975D01*
X142299200Y-106381971D01*
X141998020Y-106313229D01*
X141998002Y-106313226D01*
X141691036Y-106278640D01*
X141691030Y-106278640D01*
X141382100Y-106278640D01*
X141382093Y-106278640D01*
X141075127Y-106313226D01*
X141075109Y-106313229D01*
X140773929Y-106381971D01*
X140773917Y-106381975D01*
X140482342Y-106484002D01*
X140482328Y-106484008D01*
X140204002Y-106618043D01*
X139942423Y-106782404D01*
X139700891Y-106975019D01*
X139482444Y-107193466D01*
X139289829Y-107434998D01*
X139125468Y-107696577D01*
X138991433Y-107974903D01*
X138991427Y-107974917D01*
X138889400Y-108266492D01*
X138889396Y-108266504D01*
X138820654Y-108567684D01*
X138820651Y-108567702D01*
X138786065Y-108874668D01*
X138786065Y-109183611D01*
X138820651Y-109490577D01*
X138820654Y-109490595D01*
X138889396Y-109791775D01*
X138889400Y-109791787D01*
X138991427Y-110083362D01*
X138991436Y-110083384D01*
X139097552Y-110303736D01*
X139108904Y-110372677D01*
X139081182Y-110436811D01*
X139023186Y-110475777D01*
X138953331Y-110477202D01*
X138929536Y-110468021D01*
X138856789Y-110430953D01*
X138856781Y-110430950D01*
X138647130Y-110362832D01*
X138538264Y-110345589D01*
X138429400Y-110328347D01*
X138208956Y-110328347D01*
X138136379Y-110339842D01*
X137991225Y-110362832D01*
X137781574Y-110430950D01*
X137781571Y-110430951D01*
X137585152Y-110531034D01*
X137406819Y-110660599D01*
X137406814Y-110660603D01*
X137250934Y-110816483D01*
X137250930Y-110816488D01*
X137121365Y-110994821D01*
X137021283Y-111191240D01*
X136953163Y-111400894D01*
X136918678Y-111618625D01*
X132088233Y-111618625D01*
X132207955Y-111498903D01*
X132211413Y-111495577D01*
X132948032Y-110814653D01*
X132951618Y-110811468D01*
X133714357Y-110160028D01*
X133718098Y-110156956D01*
X134505841Y-109535950D01*
X134509713Y-109533020D01*
X134520211Y-109525393D01*
X135321200Y-108943439D01*
X135325151Y-108940685D01*
X136159194Y-108383396D01*
X136163268Y-108380788D01*
X137018542Y-107856676D01*
X137022690Y-107854245D01*
X137897885Y-107364112D01*
X137902099Y-107361859D01*
X138795878Y-106906456D01*
X138800252Y-106904335D01*
X139711204Y-106484379D01*
X139715582Y-106482464D01*
X140642347Y-106098586D01*
X140646801Y-106096843D01*
X141587922Y-105749645D01*
X141592456Y-105748073D01*
X142546454Y-105438100D01*
X142551091Y-105436694D01*
X143516509Y-105164417D01*
X143521136Y-105163210D01*
X144496558Y-104929032D01*
X144501254Y-104928002D01*
X145485066Y-104732309D01*
X145489802Y-104731463D01*
X146480556Y-104574543D01*
X146485321Y-104573884D01*
X147481440Y-104455986D01*
X147486243Y-104455513D01*
X148486285Y-104376807D01*
X148491071Y-104376526D01*
X149493350Y-104337147D01*
X149498218Y-104337051D01*
X150501280Y-104337051D01*
X150506148Y-104337147D01*
G37*
G04 #@! TD.AperFunction*
G04 #@! TD*
M02*
