G04 #@! TF.GenerationSoftware,KiCad,Pcbnew,10.0.1*
G04 #@! TF.CreationDate,2026-06-17T07:57:53-04:00*
G04 #@! TF.ProjectId,LightFusion,4c696768-7446-4757-9369-6f6e2e6b6963,rev?*
G04 #@! TF.SameCoordinates,Original*
G04 #@! TF.FileFunction,Legend,Bot*
G04 #@! TF.FilePolarity,Positive*
%FSLAX46Y46*%
G04 Gerber Fmt 4.6, Leading zero omitted, Abs format (unit mm)*
G04 Created by KiCad (PCBNEW 10.0.1) date 2026-06-17 07:57:53*
%MOMM*%
%LPD*%
G01*
G04 APERTURE LIST*
G04 Aperture macros list*
%AMRoundRect*
0 Rectangle with rounded corners*
0 $1 Rounding radius*
0 $2 $3 $4 $5 $6 $7 $8 $9 X,Y pos of 4 corners*
0 Add a 4 corners polygon primitive as box body*
4,1,4,$2,$3,$4,$5,$6,$7,$8,$9,$2,$3,0*
0 Add four circle primitives for the rounded corners*
1,1,$1+$1,$2,$3*
1,1,$1+$1,$4,$5*
1,1,$1+$1,$6,$7*
1,1,$1+$1,$8,$9*
0 Add four rect primitives between the rounded corners*
20,1,$1+$1,$2,$3,$4,$5,0*
20,1,$1+$1,$4,$5,$6,$7,0*
20,1,$1+$1,$6,$7,$8,$9,0*
20,1,$1+$1,$8,$9,$2,$3,0*%
G04 Aperture macros list end*
%ADD10C,0.100000*%
%ADD11C,0.127000*%
%ADD12C,0.200000*%
%ADD13C,0.000000*%
%ADD14C,1.000000*%
%ADD15C,5.000000*%
%ADD16RoundRect,0.102000X-0.110931X-1.267949X1.267949X-0.110931X0.110931X1.267949X-1.267949X0.110931X0*%
%ADD17C,2.004000*%
%ADD18RoundRect,0.250001X-0.899999X-0.899999X0.899999X-0.899999X0.899999X0.899999X-0.899999X0.899999X0*%
%ADD19C,2.300000*%
%ADD20C,0.863000*%
%ADD21C,1.550000*%
%ADD22C,1.220000*%
%ADD23R,2.700000X0.500000*%
%ADD24R,2.700000X1.000000*%
%ADD25R,0.540000X0.550000*%
G04 APERTURE END LIST*
G04 #@! TO.C,J_PROG1*
D10*
X153795271Y-111622918D02*
X157115390Y-106510382D01*
X154839079Y-112300775D02*
X153795271Y-111622918D01*
X157115390Y-106510382D02*
X153795271Y-111622918D01*
X157115390Y-106510382D02*
X158159200Y-107188240D01*
X162103142Y-117018112D02*
X159461665Y-115302717D01*
X162103142Y-117018112D02*
X165423261Y-111905576D01*
X162803087Y-110204015D02*
X165423261Y-111905576D01*
X165423261Y-111905576D02*
X162103142Y-117018112D01*
G04 #@! TO.C,E_EEG1*
D11*
X165344400Y-148205000D02*
G75*
G02*
X163515600Y-148205000I-914400J0D01*
G01*
X163515600Y-148205000D02*
G75*
G02*
X165344400Y-148205000I914400J0D01*
G01*
G04 #@! TO.C,STIM_E_P1*
X153416000Y-154076400D02*
G75*
G02*
X151587200Y-154076400I-914400J0D01*
G01*
X151587200Y-154076400D02*
G75*
G02*
X153416000Y-154076400I914400J0D01*
G01*
G04 #@! TO.C,STIM_E_N1*
X146558000Y-153568400D02*
G75*
G02*
X144729200Y-153568400I-914400J0D01*
G01*
X144729200Y-153568400D02*
G75*
G02*
X146558000Y-153568400I914400J0D01*
G01*
G04 #@! TO.C,D_850*
D12*
X152040000Y-128355000D02*
X152040000Y-131805000D01*
X152040000Y-131805000D02*
X155490000Y-131805000D01*
D10*
D13*
X153765000Y-132280000D02*
X153764999Y-132280000D01*
X153764999Y-132280000D01*
X153764999Y-132280000D01*
X153764999Y-132280000D01*
X153764999Y-132280000D01*
X153764999Y-132280000D01*
X153764999Y-132280000D01*
X153764999Y-132279999D01*
X153764999Y-132279999D01*
X153764999Y-132279999D01*
X153764999Y-132279999D01*
X153764999Y-132279999D01*
X153765000Y-132279999D01*
X153765000Y-132279999D01*
X153765000Y-132279999D01*
X153765000Y-132279999D01*
X153765000Y-132279999D01*
X153765000Y-132279999D01*
X153765000Y-132279999D01*
X153765000Y-132279999D01*
X153765000Y-132279999D01*
X153765000Y-132279999D01*
X153765000Y-132279999D01*
X153765000Y-132279999D01*
X153765001Y-132279999D01*
X153765001Y-132279999D01*
X153765001Y-132279999D01*
X153765001Y-132279999D01*
X153765001Y-132279999D01*
X153765001Y-132279999D01*
X153765001Y-132280000D01*
X153765001Y-132280000D01*
X153765001Y-132280000D01*
X153765001Y-132280000D01*
X153765001Y-132280000D01*
X153765001Y-132280000D01*
X153765001Y-132280000D01*
X153765000Y-132280000D01*
X153765000Y-132280000D02*
X153765001Y-132280000D01*
X153765001Y-132280000D01*
X153765001Y-132280000D01*
X153765001Y-132280000D01*
X153765001Y-132280000D01*
X153765001Y-132280000D01*
X153765001Y-132280001D01*
X153765001Y-132280001D01*
X153765001Y-132280001D01*
X153765001Y-132280001D01*
X153765001Y-132280001D01*
X153765001Y-132280001D01*
X153765001Y-132280001D01*
X153765000Y-132280001D01*
X153765000Y-132280001D01*
X153765000Y-132280001D01*
X153765000Y-132280001D01*
X153765000Y-132280001D01*
X153765000Y-132280001D01*
X153765000Y-132280001D01*
X153765000Y-132280001D01*
X153765000Y-132280001D01*
X153765000Y-132280001D01*
X153765000Y-132280001D01*
X153765000Y-132280001D01*
X153764999Y-132280001D01*
X153764999Y-132280001D01*
X153764999Y-132280001D01*
X153764999Y-132280001D01*
X153764999Y-132280001D01*
X153764999Y-132280001D01*
X153764999Y-132280000D01*
X153764999Y-132280000D01*
X153764999Y-132280000D01*
X153764999Y-132280000D01*
X153764999Y-132280000D01*
X153764999Y-132280000D01*
X153765000Y-132280000D01*
D10*
D13*
X153765000Y-132380000D02*
X153764999Y-132380000D01*
X153764999Y-132380000D01*
X153764999Y-132380000D01*
X153764999Y-132380000D01*
X153764999Y-132380000D01*
X153764999Y-132380000D01*
X153764999Y-132380000D01*
X153764999Y-132379999D01*
X153764999Y-132379999D01*
X153764999Y-132379999D01*
X153764999Y-132379999D01*
X153764999Y-132379999D01*
X153765000Y-132379999D01*
X153765000Y-132379999D01*
X153765000Y-132379999D01*
X153765000Y-132379999D01*
X153765000Y-132379999D01*
X153765000Y-132379999D01*
X153765000Y-132379999D01*
X153765000Y-132379999D01*
X153765000Y-132379999D01*
X153765000Y-132379999D01*
X153765000Y-132379999D01*
X153765000Y-132379999D01*
X153765001Y-132379999D01*
X153765001Y-132379999D01*
X153765001Y-132379999D01*
X153765001Y-132379999D01*
X153765001Y-132379999D01*
X153765001Y-132379999D01*
X153765001Y-132380000D01*
X153765001Y-132380000D01*
X153765001Y-132380000D01*
X153765001Y-132380000D01*
X153765001Y-132380000D01*
X153765001Y-132380000D01*
X153765001Y-132380000D01*
X153765000Y-132380000D01*
X153765000Y-132380000D02*
X153765001Y-132380000D01*
X153765001Y-132380000D01*
X153765001Y-132380000D01*
X153765001Y-132380000D01*
X153765001Y-132380000D01*
X153765001Y-132380000D01*
X153765001Y-132380001D01*
X153765001Y-132380001D01*
X153765001Y-132380001D01*
X153765001Y-132380001D01*
X153765001Y-132380001D01*
X153765001Y-132380001D01*
X153765001Y-132380001D01*
X153765000Y-132380001D01*
X153765000Y-132380001D01*
X153765000Y-132380001D01*
X153765000Y-132380001D01*
X153765000Y-132380001D01*
X153765000Y-132380001D01*
X153765000Y-132380001D01*
X153765000Y-132380001D01*
X153765000Y-132380001D01*
X153765000Y-132380001D01*
X153765000Y-132380001D01*
X153765000Y-132380001D01*
X153764999Y-132380001D01*
X153764999Y-132380001D01*
X153764999Y-132380001D01*
X153764999Y-132380001D01*
X153764999Y-132380001D01*
X153764999Y-132380001D01*
X153764999Y-132380000D01*
X153764999Y-132380000D01*
X153764999Y-132380000D01*
X153764999Y-132380000D01*
X153764999Y-132380000D01*
X153764999Y-132380000D01*
X153765000Y-132380000D01*
D12*
X155490000Y-128355000D02*
X152040000Y-128355000D01*
X155490000Y-131805000D02*
X155490000Y-128355000D01*
D10*
X153765000Y-132280000D02*
G75*
G02*
X153765000Y-132380000I0J-50000D01*
G01*
X153765000Y-132380000D02*
G75*
G02*
X153765000Y-132280000I0J50000D01*
G01*
G04 #@! TO.C,E_EEG2*
D11*
X128422400Y-134670800D02*
G75*
G02*
X126593600Y-134670800I-914400J0D01*
G01*
X126593600Y-134670800D02*
G75*
G02*
X128422400Y-134670800I914400J0D01*
G01*
G04 #@! TO.C,D_730*
D12*
X143610000Y-128356200D02*
X143610000Y-131806200D01*
X143610000Y-131806200D02*
X147060000Y-131806200D01*
D10*
D13*
X145335000Y-132281200D02*
X145334999Y-132281200D01*
X145334999Y-132281200D01*
X145334999Y-132281200D01*
X145334999Y-132281200D01*
X145334999Y-132281200D01*
X145334999Y-132281200D01*
X145334999Y-132281200D01*
X145334999Y-132281199D01*
X145334999Y-132281199D01*
X145334999Y-132281199D01*
X145334999Y-132281199D01*
X145334999Y-132281199D01*
X145335000Y-132281199D01*
X145335000Y-132281199D01*
X145335000Y-132281199D01*
X145335000Y-132281199D01*
X145335000Y-132281199D01*
X145335000Y-132281199D01*
X145335000Y-132281199D01*
X145335000Y-132281199D01*
X145335000Y-132281199D01*
X145335000Y-132281199D01*
X145335000Y-132281199D01*
X145335000Y-132281199D01*
X145335001Y-132281199D01*
X145335001Y-132281199D01*
X145335001Y-132281199D01*
X145335001Y-132281199D01*
X145335001Y-132281199D01*
X145335001Y-132281199D01*
X145335001Y-132281200D01*
X145335001Y-132281200D01*
X145335001Y-132281200D01*
X145335001Y-132281200D01*
X145335001Y-132281200D01*
X145335001Y-132281200D01*
X145335001Y-132281200D01*
X145335000Y-132281200D01*
X145335000Y-132281200D02*
X145335001Y-132281200D01*
X145335001Y-132281200D01*
X145335001Y-132281200D01*
X145335001Y-132281200D01*
X145335001Y-132281200D01*
X145335001Y-132281200D01*
X145335001Y-132281201D01*
X145335001Y-132281201D01*
X145335001Y-132281201D01*
X145335001Y-132281201D01*
X145335001Y-132281201D01*
X145335001Y-132281201D01*
X145335001Y-132281201D01*
X145335000Y-132281201D01*
X145335000Y-132281201D01*
X145335000Y-132281201D01*
X145335000Y-132281201D01*
X145335000Y-132281201D01*
X145335000Y-132281201D01*
X145335000Y-132281201D01*
X145335000Y-132281201D01*
X145335000Y-132281201D01*
X145335000Y-132281201D01*
X145335000Y-132281201D01*
X145335000Y-132281201D01*
X145334999Y-132281201D01*
X145334999Y-132281201D01*
X145334999Y-132281201D01*
X145334999Y-132281201D01*
X145334999Y-132281201D01*
X145334999Y-132281201D01*
X145334999Y-132281200D01*
X145334999Y-132281200D01*
X145334999Y-132281200D01*
X145334999Y-132281200D01*
X145334999Y-132281200D01*
X145334999Y-132281200D01*
X145335000Y-132281200D01*
D10*
D13*
X145335000Y-132381200D02*
X145334999Y-132381200D01*
X145334999Y-132381200D01*
X145334999Y-132381200D01*
X145334999Y-132381200D01*
X145334999Y-132381200D01*
X145334999Y-132381200D01*
X145334999Y-132381200D01*
X145334999Y-132381199D01*
X145334999Y-132381199D01*
X145334999Y-132381199D01*
X145334999Y-132381199D01*
X145334999Y-132381199D01*
X145335000Y-132381199D01*
X145335000Y-132381199D01*
X145335000Y-132381199D01*
X145335000Y-132381199D01*
X145335000Y-132381199D01*
X145335000Y-132381199D01*
X145335000Y-132381199D01*
X145335000Y-132381199D01*
X145335000Y-132381199D01*
X145335000Y-132381199D01*
X145335000Y-132381199D01*
X145335000Y-132381199D01*
X145335001Y-132381199D01*
X145335001Y-132381199D01*
X145335001Y-132381199D01*
X145335001Y-132381199D01*
X145335001Y-132381199D01*
X145335001Y-132381199D01*
X145335001Y-132381200D01*
X145335001Y-132381200D01*
X145335001Y-132381200D01*
X145335001Y-132381200D01*
X145335001Y-132381200D01*
X145335001Y-132381200D01*
X145335001Y-132381200D01*
X145335000Y-132381200D01*
X145335000Y-132381200D02*
X145335001Y-132381200D01*
X145335001Y-132381200D01*
X145335001Y-132381200D01*
X145335001Y-132381200D01*
X145335001Y-132381200D01*
X145335001Y-132381200D01*
X145335001Y-132381201D01*
X145335001Y-132381201D01*
X145335001Y-132381201D01*
X145335001Y-132381201D01*
X145335001Y-132381201D01*
X145335001Y-132381201D01*
X145335001Y-132381201D01*
X145335000Y-132381201D01*
X145335000Y-132381201D01*
X145335000Y-132381201D01*
X145335000Y-132381201D01*
X145335000Y-132381201D01*
X145335000Y-132381201D01*
X145335000Y-132381201D01*
X145335000Y-132381201D01*
X145335000Y-132381201D01*
X145335000Y-132381201D01*
X145335000Y-132381201D01*
X145335000Y-132381201D01*
X145334999Y-132381201D01*
X145334999Y-132381201D01*
X145334999Y-132381201D01*
X145334999Y-132381201D01*
X145334999Y-132381201D01*
X145334999Y-132381201D01*
X145334999Y-132381200D01*
X145334999Y-132381200D01*
X145334999Y-132381200D01*
X145334999Y-132381200D01*
X145334999Y-132381200D01*
X145334999Y-132381200D01*
X145335000Y-132381200D01*
D12*
X147060000Y-128356200D02*
X143610000Y-128356200D01*
X147060000Y-131806200D02*
X147060000Y-128356200D01*
D10*
X145335000Y-132281200D02*
G75*
G02*
X145335000Y-132381200I0J-50000D01*
G01*
X145335000Y-132381200D02*
G75*
G02*
X145335000Y-132281200I0J50000D01*
G01*
G04 #@! TO.C,D_PD1*
D12*
X145356000Y-138410400D02*
X145356000Y-139610400D01*
D10*
D13*
X149756000Y-140910400D02*
X149755999Y-140910400D01*
X149755999Y-140910400D01*
X149755999Y-140910400D01*
X149755999Y-140910400D01*
X149755999Y-140910400D01*
X149755999Y-140910400D01*
X149755999Y-140910400D01*
X149755999Y-140910399D01*
X149755999Y-140910399D01*
X149755999Y-140910399D01*
X149755999Y-140910399D01*
X149755999Y-140910399D01*
X149756000Y-140910399D01*
X149756000Y-140910399D01*
X149756000Y-140910399D01*
X149756000Y-140910399D01*
X149756000Y-140910399D01*
X149756000Y-140910399D01*
X149756000Y-140910399D01*
X149756000Y-140910399D01*
X149756000Y-140910399D01*
X149756000Y-140910399D01*
X149756000Y-140910399D01*
X149756000Y-140910399D01*
X149756001Y-140910399D01*
X149756001Y-140910399D01*
X149756001Y-140910399D01*
X149756001Y-140910399D01*
X149756001Y-140910399D01*
X149756001Y-140910399D01*
X149756001Y-140910400D01*
X149756001Y-140910400D01*
X149756001Y-140910400D01*
X149756001Y-140910400D01*
X149756001Y-140910400D01*
X149756001Y-140910400D01*
X149756001Y-140910400D01*
X149756000Y-140910400D01*
X149756000Y-140910400D02*
X149756001Y-140910400D01*
X149756001Y-140910400D01*
X149756001Y-140910400D01*
X149756001Y-140910400D01*
X149756001Y-140910400D01*
X149756001Y-140910400D01*
X149756001Y-140910401D01*
X149756001Y-140910401D01*
X149756001Y-140910401D01*
X149756001Y-140910401D01*
X149756001Y-140910401D01*
X149756001Y-140910401D01*
X149756001Y-140910401D01*
X149756000Y-140910401D01*
X149756000Y-140910401D01*
X149756000Y-140910401D01*
X149756000Y-140910401D01*
X149756000Y-140910401D01*
X149756000Y-140910401D01*
X149756000Y-140910401D01*
X149756000Y-140910401D01*
X149756000Y-140910401D01*
X149756000Y-140910401D01*
X149756000Y-140910401D01*
X149756000Y-140910401D01*
X149755999Y-140910401D01*
X149755999Y-140910401D01*
X149755999Y-140910401D01*
X149755999Y-140910401D01*
X149755999Y-140910401D01*
X149755999Y-140910401D01*
X149755999Y-140910400D01*
X149755999Y-140910400D01*
X149755999Y-140910400D01*
X149755999Y-140910400D01*
X149755999Y-140910400D01*
X149755999Y-140910400D01*
X149756000Y-140910400D01*
D10*
D13*
X149756000Y-141010400D02*
X149755999Y-141010400D01*
X149755999Y-141010400D01*
X149755999Y-141010400D01*
X149755999Y-141010400D01*
X149755999Y-141010400D01*
X149755999Y-141010400D01*
X149755999Y-141010400D01*
X149755999Y-141010399D01*
X149755999Y-141010399D01*
X149755999Y-141010399D01*
X149755999Y-141010399D01*
X149755999Y-141010399D01*
X149756000Y-141010399D01*
X149756000Y-141010399D01*
X149756000Y-141010399D01*
X149756000Y-141010399D01*
X149756000Y-141010399D01*
X149756000Y-141010399D01*
X149756000Y-141010399D01*
X149756000Y-141010399D01*
X149756000Y-141010399D01*
X149756000Y-141010399D01*
X149756000Y-141010399D01*
X149756000Y-141010399D01*
X149756001Y-141010399D01*
X149756001Y-141010399D01*
X149756001Y-141010399D01*
X149756001Y-141010399D01*
X149756001Y-141010399D01*
X149756001Y-141010399D01*
X149756001Y-141010400D01*
X149756001Y-141010400D01*
X149756001Y-141010400D01*
X149756001Y-141010400D01*
X149756001Y-141010400D01*
X149756001Y-141010400D01*
X149756001Y-141010400D01*
X149756000Y-141010400D01*
X149756000Y-141010400D02*
X149756001Y-141010400D01*
X149756001Y-141010400D01*
X149756001Y-141010400D01*
X149756001Y-141010400D01*
X149756001Y-141010400D01*
X149756001Y-141010400D01*
X149756001Y-141010401D01*
X149756001Y-141010401D01*
X149756001Y-141010401D01*
X149756001Y-141010401D01*
X149756001Y-141010401D01*
X149756001Y-141010401D01*
X149756001Y-141010401D01*
X149756000Y-141010401D01*
X149756000Y-141010401D01*
X149756000Y-141010401D01*
X149756000Y-141010401D01*
X149756000Y-141010401D01*
X149756000Y-141010401D01*
X149756000Y-141010401D01*
X149756000Y-141010401D01*
X149756000Y-141010401D01*
X149756000Y-141010401D01*
X149756000Y-141010401D01*
X149756000Y-141010401D01*
X149755999Y-141010401D01*
X149755999Y-141010401D01*
X149755999Y-141010401D01*
X149755999Y-141010401D01*
X149755999Y-141010401D01*
X149755999Y-141010401D01*
X149755999Y-141010400D01*
X149755999Y-141010400D01*
X149755999Y-141010400D01*
X149755999Y-141010400D01*
X149755999Y-141010400D01*
X149755999Y-141010400D01*
X149756000Y-141010400D01*
D12*
X150156000Y-138410400D02*
X150156000Y-139610400D01*
D10*
X149756000Y-140910400D02*
G75*
G02*
X149756000Y-141010400I0J-50000D01*
G01*
X149756000Y-141010400D02*
G75*
G02*
X149756000Y-140910400I0J50000D01*
G01*
G04 #@! TO.C,E_EEG3*
D11*
X155194000Y-137769600D02*
G75*
G02*
X153365200Y-137769600I-914400J0D01*
G01*
X153365200Y-137769600D02*
G75*
G02*
X155194000Y-137769600I914400J0D01*
G01*
G04 #@! TD*
%LPC*%
D14*
G04 #@! TO.C,S1*
X151970800Y-107871600D03*
X147970800Y-107871600D03*
G04 #@! TD*
D15*
G04 #@! TO.C,J1*
X132037613Y-116999708D03*
X141536565Y-109029140D03*
D16*
X135255000Y-114300001D03*
D17*
X138319178Y-111728847D03*
G04 #@! TD*
D18*
G04 #@! TO.C,P1*
X147290000Y-113030000D03*
D19*
X152090000Y-113030000D03*
G04 #@! TD*
D20*
G04 #@! TO.C,J_PROG1*
X158890000Y-110540000D03*
X158198309Y-111605111D03*
X159955112Y-111231691D03*
X159263420Y-112296803D03*
X161020223Y-111923383D03*
X160328532Y-112988494D03*
D21*
X157479043Y-110380864D03*
X162292843Y-112295541D03*
X161186136Y-113999719D03*
G04 #@! TD*
D22*
G04 #@! TO.C,E_EEG1*
X164430000Y-148205000D03*
G04 #@! TD*
G04 #@! TO.C,STIM_E_P1*
X152501600Y-154076400D03*
G04 #@! TD*
G04 #@! TO.C,STIM_E_N1*
X145643600Y-153568400D03*
G04 #@! TD*
D23*
G04 #@! TO.C,D_850*
X153765000Y-131180000D03*
X153765000Y-128980000D03*
D24*
X153765000Y-130080000D03*
G04 #@! TD*
D22*
G04 #@! TO.C,E_EEG2*
X127508000Y-134670800D03*
G04 #@! TD*
D23*
G04 #@! TO.C,D_730*
X145335000Y-131181200D03*
X145335000Y-128981200D03*
D24*
X145335000Y-130081200D03*
G04 #@! TD*
D25*
G04 #@! TO.C,D_PD1*
X149756000Y-140200400D03*
X148446000Y-140200400D03*
X147066000Y-140200400D03*
X145756000Y-140200400D03*
X145756000Y-137820400D03*
X147066000Y-137820400D03*
X148446000Y-137820400D03*
X149756000Y-137820400D03*
G04 #@! TD*
D22*
G04 #@! TO.C,E_EEG3*
X154279600Y-137769600D03*
G04 #@! TD*
%LPD*%
M02*
