M48
; DRILL file KiCad 10.0.1 date 2026-06-17T07:57:53
; FORMAT={-:-/ absolute / metric / decimal}
; #@! TF.CreationDate,2026-06-17T07:57:53-04:00
; #@! TF.GenerationSoftware,Kicad,Pcbnew,10.0.1
; #@! TF.FileFunction,Plated,1,4,PTH
FMAT,2
METRIC
; #@! TA.AperFunction,Plated,PTH,ViaDrill
T1C0.300
; #@! TA.AperFunction,Plated,PTH,ComponentDrill
T2C0.508
; #@! TA.AperFunction,Plated,PTH,ComponentDrill
T3C1.067
; #@! TA.AperFunction,Plated,PTH,ComponentDrill
T4C1.150
; #@! TA.AperFunction,Plated,PTH,ComponentDrill
T5C1.200
%
G90
G05
T1
X125.69Y-130.95
X126.644Y-127.102
X129.11Y-131.18
X129.134Y-132.588
X129.946Y-121.26
X129.946Y-140.208
X131.5Y-128.4
X132.28Y-130.47
X132.537Y-127.051
X132.842Y-137.82
X132.893Y-140.919
X133.655Y-132.74
X134.315Y-135.687
X135.321Y-132.099
X135.585Y-119.939
X135.864Y-123.664
X135.971Y-128.281
X136.5Y-126.511
X136.621Y-127.736
X137.271Y-127.011
X137.5Y-124.25
X137.864Y-121.664
X138.227Y-137.871
X138.328Y-141.173
X139.8Y-129.1
X140.03Y-130.91
X140.487Y-137.49
X141.0Y-120.0
X141.072Y-134.163
X141.66Y-132.29
X141.935Y-145.288
X142.291Y-151.943
X142.32Y-128.98
X142.7Y-121.25
X143.053Y-137.973
X143.755Y-130.454
X143.78Y-129.81
X143.916Y-148.082
X144.4Y-119.1
X145.034Y-134.468
X145.136Y-140.005
X145.339Y-149.555
X145.39Y-123.901
X145.999Y-107.086
X146.406Y-138.227
X146.89Y-130.47
X146.9Y-129.83
X147.117Y-150.216
X147.625Y-116.885
X147.98Y-121.209
X148.285Y-146.202
X148.438Y-125.71
X148.608Y-151.711
X149.352Y-115.672
X149.94Y-127.59
X150.012Y-125.222
X150.24Y-121.43
X150.368Y-153.162
X150.825Y-110.338
X150.825Y-147.93
X150.927Y-146.558
X152.095Y-149.657
X152.197Y-129.794
X152.197Y-130.404
X152.349Y-123.19
X153.006Y-114.952
X153.84Y-132.47
X153.975Y-148.793
X154.076Y-107.137
X154.432Y-152.654
X154.584Y-118.821
X154.965Y-123.78
X155.296Y-129.794
X155.296Y-130.404
X155.316Y-120.434
X156.21Y-116.078
X156.312Y-124.46
X157.27Y-120.85
X157.42Y-125.45
X157.85Y-131.95
X157.937Y-140.259
X158.25Y-124.49
X158.719Y-109.759
X158.75Y-146.216
X159.24Y-117.55
X159.258Y-144.882
X159.715Y-118.466
X160.588Y-120.608
X160.905Y-116.85
X160.96Y-123.17
X161.392Y-128.067
X161.565Y-115.605
X161.95Y-123.75
X162.112Y-116.195
X162.154Y-125.425
X162.33Y-119.33
X162.916Y-120.396
X163.15Y-118.71
X163.175Y-117.985
X163.495Y-115.685
X163.59Y-119.51
X164.0Y-115.19
X164.2Y-136.59
X164.236Y-120.548
X164.236Y-122.936
X164.29Y-119.85
X164.35Y-114.1
X164.67Y-117.88
X164.77Y-117.165
X165.405Y-124.155
X165.55Y-116.27
X165.8Y-130.2
X165.862Y-137.516
X165.913Y-131.216
X166.472Y-117.805
X166.66Y-136.18
X166.929Y-114.96
X167.284Y-118.872
X167.35Y-118.03
X167.538Y-134.976
X167.644Y-121.561
X168.3Y-119.583
X168.554Y-127.813
X168.62Y-143.29
X168.83Y-117.68
X169.164Y-135.788
X170.028Y-120.396
X170.17Y-126.21
X170.4Y-128.675
X170.66Y-140.45
X171.0Y-128.22
X171.1Y-132.85
X171.64Y-127.81
X172.06Y-121.056
X172.31Y-127.4
X172.413Y-134.264
T2
X127.508Y-134.671
X145.644Y-153.568
X152.502Y-154.076
X154.28Y-137.77
X164.43Y-148.205
T3
X157.479Y-110.381
X161.186Y-114.0
X162.293Y-112.296
T4
X147.29Y-113.03
X152.09Y-113.03
T5
X135.255Y-114.3
X138.319Y-111.729
M30
