G04 #@! TF.GenerationSoftware,KiCad,Pcbnew,10.0.0*
G04 #@! TF.CreationDate,2026-06-15T20:13:41-04:00*
G04 #@! TF.ProjectId,LightFusion,4c696768-7446-4757-9369-6f6e2e6b6963,rev?*
G04 #@! TF.SameCoordinates,Original*
G04 #@! TF.FileFunction,Legend,Top*
G04 #@! TF.FilePolarity,Positive*
%FSLAX46Y46*%
G04 Gerber Fmt 4.6, Leading zero omitted, Abs format (unit mm)*
G04 Created by KiCad (PCBNEW 10.0.0) date 2026-06-15 20:13:41*
%MOMM*%
%LPD*%
G01*
G04 APERTURE LIST*
G04 Aperture macros list*
%AMRoundRect*
0 Rectangle with rounded corners*
0 $1 Rounding radius*
0 $2 $3 $4 $5 $6 $7 $8 $9 X,Y pos of 4 corners*
0 Add a 4 corners polygon primitive as box body*
4,1,4,$2,$3,$4,$5,$6,$7,$8,$9,$2,$3,0*
0 Add four circle primitives for the rounded corners*
1,1,$1+$1,$2,$3*
1,1,$1+$1,$4,$5*
1,1,$1+$1,$6,$7*
1,1,$1+$1,$8,$9*
0 Add four rect primitives between the rounded corners*
20,1,$1+$1,$2,$3,$4,$5,0*
20,1,$1+$1,$4,$5,$6,$7,0*
20,1,$1+$1,$6,$7,$8,$9,0*
20,1,$1+$1,$8,$9,$2,$3,0*%
%AMRotRect*
0 Rectangle, with rotation*
0 The origin of the aperture is its center*
0 $1 length*
0 $2 width*
0 $3 Rotation angle, in degrees counterclockwise*
0 Add horizontal line*
21,1,$1,$2,0,0,$3*%
G04 Aperture macros list end*
%ADD10C,0.120000*%
%ADD11C,0.200000*%
%ADD12C,0.100000*%
%ADD13C,0.127000*%
%ADD14C,0.250000*%
%ADD15C,0.254000*%
%ADD16C,0.152400*%
%ADD17RoundRect,0.200000X0.053033X-0.335876X0.335876X-0.053033X-0.053033X0.335876X-0.335876X0.053033X0*%
%ADD18RoundRect,0.200000X0.275000X-0.200000X0.275000X0.200000X-0.275000X0.200000X-0.275000X-0.200000X0*%
%ADD19RoundRect,0.225000X0.225000X0.250000X-0.225000X0.250000X-0.225000X-0.250000X0.225000X-0.250000X0*%
%ADD20RoundRect,0.140000X-0.219203X-0.021213X-0.021213X-0.219203X0.219203X0.021213X0.021213X0.219203X0*%
%ADD21RoundRect,0.200000X-0.053033X0.335876X-0.335876X0.053033X0.053033X-0.335876X0.335876X-0.053033X0*%
%ADD22RotRect,1.100000X1.450000X315.000000*%
%ADD23C,1.000000*%
%ADD24R,0.800000X0.800000*%
%ADD25R,1.000000X1.000000*%
%ADD26RoundRect,0.225000X0.017678X-0.335876X0.335876X-0.017678X-0.017678X0.335876X-0.335876X0.017678X0*%
%ADD27RoundRect,0.225000X-0.250000X0.225000X-0.250000X-0.225000X0.250000X-0.225000X0.250000X0.225000X0*%
%ADD28RoundRect,0.200000X-0.275000X0.200000X-0.275000X-0.200000X0.275000X-0.200000X0.275000X0.200000X0*%
%ADD29RoundRect,0.225000X-0.225000X-0.250000X0.225000X-0.250000X0.225000X0.250000X-0.225000X0.250000X0*%
%ADD30RoundRect,0.059550X-0.647450X-0.337450X0.647450X-0.337450X0.647450X0.337450X-0.647450X0.337450X0*%
%ADD31C,5.000000*%
%ADD32RoundRect,0.102000X-0.110931X-1.267949X1.267949X-0.110931X0.110931X1.267949X-1.267949X0.110931X0*%
%ADD33C,2.004000*%
%ADD34RotRect,0.300000X1.450000X135.000000*%
%ADD35RotRect,0.300000X1.450000X45.000000*%
%ADD36RoundRect,0.200000X0.335876X0.053033X0.053033X0.335876X-0.335876X-0.053033X-0.053033X-0.335876X0*%
%ADD37RoundRect,0.225000X0.250000X-0.225000X0.250000X0.225000X-0.250000X0.225000X-0.250000X-0.225000X0*%
%ADD38RoundRect,0.200000X-0.200000X-0.275000X0.200000X-0.275000X0.200000X0.275000X-0.200000X0.275000X0*%
%ADD39RotRect,0.400000X0.400000X295.000000*%
%ADD40RoundRect,0.250000X0.159099X-0.512652X0.512652X-0.159099X-0.159099X0.512652X-0.512652X0.159099X0*%
%ADD41RoundRect,0.140000X0.219203X0.021213X0.021213X0.219203X-0.219203X-0.021213X-0.021213X-0.219203X0*%
%ADD42RoundRect,0.250000X0.220971X-0.662913X0.662913X-0.220971X-0.220971X0.662913X-0.662913X0.220971X0*%
%ADD43RoundRect,0.250001X-0.899999X-0.899999X0.899999X-0.899999X0.899999X0.899999X-0.899999X0.899999X0*%
%ADD44C,2.300000*%
%ADD45RoundRect,0.200000X0.281994X0.190011X-0.093883X0.326819X-0.281994X-0.190011X0.093883X-0.326819X0*%
%ADD46RoundRect,0.200000X-0.149208X-0.305552X0.244715X-0.236092X0.149208X0.305552X-0.244715X0.236092X0*%
%ADD47RoundRect,0.225000X-0.335876X-0.017678X-0.017678X-0.335876X0.335876X0.017678X0.017678X0.335876X0*%
%ADD48RoundRect,0.200000X0.200000X0.275000X-0.200000X0.275000X-0.200000X-0.275000X0.200000X-0.275000X0*%
%ADD49R,0.558800X1.460500*%
%ADD50R,3.200400X2.514600*%
%ADD51RoundRect,0.060500X-0.411500X-0.181500X0.411500X-0.181500X0.411500X0.181500X-0.411500X0.181500X0*%
%ADD52RoundRect,0.102000X-0.450000X-0.800000X0.450000X-0.800000X0.450000X0.800000X-0.450000X0.800000X0*%
%ADD53RoundRect,0.250000X0.625000X-0.312500X0.625000X0.312500X-0.625000X0.312500X-0.625000X-0.312500X0*%
%ADD54RoundRect,0.200000X-0.339220X-0.023558X-0.082105X-0.329975X0.339220X0.023558X0.082105X0.329975X0*%
%ADD55RoundRect,0.200000X-0.335876X-0.053033X-0.053033X-0.335876X0.335876X0.053033X0.053033X0.335876X0*%
%ADD56R,0.450000X1.475000*%
%ADD57RoundRect,0.098000X-0.294000X0.609000X-0.294000X-0.609000X0.294000X-0.609000X0.294000X0.609000X0*%
%ADD58RoundRect,0.200000X0.321564X0.110552X-0.006097X0.339982X-0.321564X-0.110552X0.006097X-0.339982X0*%
%ADD59RoundRect,0.102000X0.330000X0.155000X-0.330000X0.155000X-0.330000X-0.155000X0.330000X-0.155000X0*%
%ADD60RoundRect,0.250000X-0.512652X-0.159099X-0.159099X-0.512652X0.512652X0.159099X0.159099X0.512652X0*%
%ADD61RoundRect,0.225000X-0.098265X-0.321666X0.309574X-0.131488X0.098265X0.321666X-0.309574X0.131488X0*%
%ADD62R,1.460500X0.558800*%
%ADD63R,2.514600X3.200400*%
%ADD64RoundRect,0.085500X-0.256500X0.751500X-0.256500X-0.751500X0.256500X-0.751500X0.256500X0.751500X0*%
%ADD65C,1.550000*%
%ADD66C,1.220000*%
G04 APERTURE END LIST*
G04 #@! TO.C,R_EEG_RESET_PD1*
D10*
X171292770Y-133308303D02*
X171628303Y-132972770D01*
X172031697Y-134047230D02*
X172367230Y-133711697D01*
G04 #@! TO.C,R_ADC_PHOTO_P1*
X134707100Y-139721858D02*
X134707100Y-139247342D01*
X135752100Y-139721858D02*
X135752100Y-139247342D01*
G04 #@! TO.C,C_PD_TIA_SUPPLY1*
X143701381Y-144778000D02*
X143420219Y-144778000D01*
X143701381Y-145798000D02*
X143420219Y-145798000D01*
G04 #@! TO.C,C_EEG_PGA2*
X163873601Y-141002717D02*
X164026106Y-141155222D01*
X164382716Y-140493598D02*
X164535221Y-140646103D01*
G04 #@! TO.C,R_TEMP_ALERT1*
X148778700Y-123122458D02*
X148778700Y-122647942D01*
X149823700Y-123122458D02*
X149823700Y-122647942D01*
G04 #@! TO.C,R_EEG_BIAS_P1*
X159333301Y-138682772D02*
X158997768Y-139018303D01*
X160072232Y-139421697D02*
X159736699Y-139757228D01*
G04 #@! TO.C,C_EEG_VCAP2*
D11*
X159257068Y-129713148D02*
X161166256Y-131622336D01*
X160777348Y-128192868D02*
X159257068Y-129713148D01*
X162686536Y-130102056D02*
X160777348Y-128192868D01*
G04 #@! TO.C,S1*
D12*
X146620800Y-106671600D02*
X153320800Y-106671600D01*
X146620800Y-107271600D02*
X146620800Y-106671600D01*
X146620800Y-109871600D02*
X146620800Y-108871600D01*
X146970800Y-109871600D02*
X146620800Y-109871600D01*
X149170800Y-109871600D02*
X148370800Y-109871600D01*
X151570800Y-109871600D02*
X150770800Y-109871600D01*
X153320800Y-106671600D02*
X153320800Y-107271600D01*
X153320800Y-108871600D02*
X153320800Y-109871600D01*
X153320800Y-109871600D02*
X152970800Y-109871600D01*
G04 #@! TO.C,C_EEG_AC_P2*
D10*
X162429970Y-142281788D02*
X162628780Y-142082978D01*
X163151220Y-143003038D02*
X163350030Y-142804228D01*
G04 #@! TO.C,C_ADC_REF_BULK1*
X131570000Y-139343219D02*
X131570000Y-139624381D01*
X132590000Y-139343219D02*
X132590000Y-139624381D01*
G04 #@! TO.C,R_EEG_PROT_N2*
X153757100Y-140275542D02*
X153757100Y-140750058D01*
X154802100Y-140275542D02*
X154802100Y-140750058D01*
G04 #@! TO.C,C_EEG_VCAP1*
D11*
X166788464Y-139938744D02*
X168697652Y-141847932D01*
X168308744Y-138418464D02*
X166788464Y-139938744D01*
X170217932Y-140327652D02*
X168308744Y-138418464D01*
G04 #@! TO.C,C850_BULK1*
D10*
X142620420Y-118920800D02*
X142901580Y-118920800D01*
X142620420Y-119940800D02*
X142901580Y-119940800D01*
G04 #@! TO.C,C_PWR4*
X149640000Y-116724420D02*
X149640000Y-117005580D01*
X150660000Y-116724420D02*
X150660000Y-117005580D01*
G04 #@! TO.C,U2*
D13*
X146865000Y-115435000D02*
X147525000Y-115435000D01*
X146865000Y-118335000D02*
X147525000Y-118335000D01*
X147995000Y-116550000D02*
X147995000Y-117220000D01*
D11*
X144717000Y-115582000D02*
G75*
G02*
X144517000Y-115582000I-100000J0D01*
G01*
X144517000Y-115582000D02*
G75*
G02*
X144717000Y-115582000I100000J0D01*
G01*
G04 #@! TO.C,C_ADC_PHOTO_P1*
D10*
X136294400Y-139343219D02*
X136294400Y-139624381D01*
X137314400Y-139343219D02*
X137314400Y-139624381D01*
G04 #@! TO.C,J1*
D13*
X131446316Y-114428158D02*
X139068459Y-108032420D01*
X142127862Y-111600690D02*
X134505719Y-117996428D01*
D11*
X135842855Y-118459566D02*
G75*
G02*
X135642855Y-118459566I-100000J0D01*
G01*
X135642855Y-118459566D02*
G75*
G02*
X135842855Y-118459566I100000J0D01*
G01*
G04 #@! TO.C,IC2*
X162234441Y-135145000D02*
X165275000Y-132104441D01*
X165275000Y-132104441D02*
X168315559Y-135145000D01*
X165275000Y-138185559D02*
X162234441Y-135145000D01*
X168315559Y-135145000D02*
X165275000Y-138185559D01*
D14*
X161015938Y-135993528D02*
G75*
G02*
X160765938Y-135993528I-125000J0D01*
G01*
X160765938Y-135993528D02*
G75*
G02*
X161015938Y-135993528I125000J0D01*
G01*
G04 #@! TO.C,C_EEG_PGA1*
D10*
X159834190Y-136948307D02*
X159986693Y-137100810D01*
X160343307Y-136439190D02*
X160495810Y-136591693D01*
G04 #@! TO.C,R_EEG_GPIO1*
X162840903Y-129594630D02*
X162505370Y-129259097D01*
X163579830Y-128855703D02*
X163244297Y-128520170D01*
G04 #@! TO.C,C_PWR3*
X143889000Y-113640580D02*
X143889000Y-113359420D01*
X144909000Y-113640580D02*
X144909000Y-113359420D01*
G04 #@! TO.C,R_EEG_BIAS_N2*
X156977500Y-142617258D02*
X156977500Y-142142742D01*
X158022500Y-142617258D02*
X158022500Y-142142742D01*
G04 #@! TO.C,R_EEG_PROT_P2*
X159122342Y-145476700D02*
X159596858Y-145476700D01*
X159122342Y-146521700D02*
X159596858Y-146521700D01*
G04 #@! TO.C,R_EEG_SUPPLY_A1*
X158103303Y-134407230D02*
X157767770Y-134071697D01*
X158842230Y-133668303D02*
X158506697Y-133332770D01*
G04 #@! TO.C,CSLOPE_850*
X147109569Y-119784400D02*
X147390731Y-119784400D01*
X147109569Y-120804400D02*
X147390731Y-120804400D01*
G04 #@! TO.C,C_EEG_AC_P1*
X161224970Y-141223781D02*
X161423781Y-141024970D01*
X161946219Y-141945030D02*
X162145030Y-141746219D01*
G04 #@! TO.C,U1*
D11*
X159802694Y-117644715D02*
X167642257Y-113989067D01*
X162507451Y-123445085D02*
X159802694Y-117644715D01*
X167642257Y-113989067D02*
X170347014Y-119789437D01*
X170347014Y-119789437D02*
X162507451Y-123445085D01*
D15*
X168202715Y-114227003D02*
G75*
G02*
X168124615Y-114227003I-39050J0D01*
G01*
X168124615Y-114227003D02*
G75*
G02*
X168202715Y-114227003I39050J0D01*
G01*
G04 #@! TO.C,C730_BULK1*
D10*
X127113420Y-131289450D02*
X127394580Y-131289450D01*
X127113420Y-132309450D02*
X127394580Y-132309450D01*
G04 #@! TO.C,C_STIM_VM1*
X145631780Y-147572000D02*
X145350620Y-147572000D01*
X145631780Y-148592000D02*
X145350620Y-148592000D01*
G04 #@! TO.C,C_TEMP1*
X150620000Y-122744620D02*
X150620000Y-123025780D01*
X151640000Y-122744620D02*
X151640000Y-123025780D01*
G04 #@! TO.C,C_EEG_DVDD_10U1*
X167685543Y-129430010D02*
X168055010Y-129060543D01*
X168724990Y-130469457D02*
X169094457Y-130099990D01*
G04 #@! TO.C,C_EEG_DIFF2*
X162596106Y-139895214D02*
X162443604Y-139742712D01*
X163105214Y-139386110D02*
X162952712Y-139233608D01*
G04 #@! TO.C,C_EEG_AC_N2*
X154884420Y-142441200D02*
X155165580Y-142441200D01*
X154884420Y-143461200D02*
X155165580Y-143461200D01*
G04 #@! TO.C,C_PD_BIAS1*
X145235200Y-136182981D02*
X145235200Y-135901819D01*
X146255200Y-136182981D02*
X146255200Y-135901819D01*
G04 #@! TO.C,C_ADC_DVDD_BYP1*
X132846800Y-128283580D02*
X132846800Y-128002418D01*
X133866800Y-128283580D02*
X133866800Y-128002418D01*
G04 #@! TO.C,R_EEG_BIAS_P2*
X163123299Y-143832774D02*
X162787764Y-144168303D01*
X163862236Y-144571697D02*
X163526701Y-144907226D01*
G04 #@! TO.C,C_ADC_AVDD_BYP1*
X131153781Y-134719600D02*
X130872619Y-134719600D01*
X131153781Y-135739600D02*
X130872619Y-135739600D01*
G04 #@! TO.C,RFB_730*
X132598821Y-121638245D02*
X133627045Y-120610021D01*
X133885755Y-122925179D02*
X134913979Y-121896955D01*
G04 #@! TO.C,C_ADC_AVDD_BULK1*
X131153781Y-136396000D02*
X130872619Y-136396000D01*
X131153781Y-137416000D02*
X130872619Y-137416000D01*
G04 #@! TO.C,R_STIM_PD2*
X142741447Y-153581742D02*
X142295550Y-153419444D01*
X143098850Y-152599756D02*
X142652953Y-152437458D01*
G04 #@! TO.C,R_ADC_CS_PU1*
X134452500Y-127918741D02*
X134452500Y-128393257D01*
X135497500Y-127918741D02*
X135497500Y-128393257D01*
G04 #@! TO.C,C_STIM_VM2*
X147775198Y-147853980D02*
X147775198Y-147572820D01*
X148795198Y-147853980D02*
X148795198Y-147572820D01*
G04 #@! TO.C,C_M2*
X157625580Y-122995000D02*
X157344420Y-122995000D01*
X157625580Y-124015000D02*
X157344420Y-124015000D01*
G04 #@! TO.C,C730_BYP1*
X125016800Y-129172580D02*
X125016800Y-128891420D01*
X126036800Y-129172580D02*
X126036800Y-128891420D01*
G04 #@! TO.C,R_PD_BIAS_BOT1*
X143647900Y-136279658D02*
X143647900Y-135805142D01*
X144692900Y-136279658D02*
X144692900Y-135805142D01*
G04 #@! TO.C,C_EEG_DIFF1*
X161193601Y-138307718D02*
X161346104Y-138460221D01*
X161702718Y-137798601D02*
X161855221Y-137951104D01*
G04 #@! TO.C,R_STIM_PD1*
X155326815Y-153298238D02*
X155794122Y-153215839D01*
X155508278Y-154327361D02*
X155975585Y-154244962D01*
G04 #@! TO.C,R_STIM_IN1*
X152162742Y-149896300D02*
X152637258Y-149896300D01*
X152162742Y-150941300D02*
X152637258Y-150941300D01*
G04 #@! TO.C,C850_BYP1*
X139369219Y-118920800D02*
X139650381Y-118920800D01*
X139369219Y-119940800D02*
X139650381Y-119940800D01*
G04 #@! TO.C,R_PD_BIAS_TOP1*
X142022300Y-135805142D02*
X142022300Y-136279658D01*
X143067300Y-135805142D02*
X143067300Y-136279658D01*
G04 #@! TO.C,C_EEG_AVDD_100N1*
X169489970Y-138996219D02*
X169688781Y-139195030D01*
X170211219Y-138274970D02*
X170410030Y-138473781D01*
G04 #@! TO.C,C_EEG_RLD_FB1*
X159384190Y-133408307D02*
X159536693Y-133560810D01*
X159893307Y-132899190D02*
X160045810Y-133051693D01*
G04 #@! TO.C,R2*
X157252742Y-119457500D02*
X157727258Y-119457500D01*
X157252742Y-120502500D02*
X157727258Y-120502500D01*
G04 #@! TO.C,R_STIM_N1*
X145982458Y-150912300D02*
X145507942Y-150912300D01*
X145982458Y-151957300D02*
X145507942Y-151957300D01*
G04 #@! TO.C,R_EEG_PROT_P1*
X165223301Y-146382228D02*
X164887768Y-146046697D01*
X165962232Y-145643303D02*
X165626699Y-145307772D01*
G04 #@! TO.C,U_LED730*
D16*
X126516101Y-125004950D02*
X126516101Y-129246750D01*
X131773901Y-129246750D02*
X131773901Y-125004950D01*
G04 #@! TO.C,C_ADC_PHOTO_N1*
D10*
X137869200Y-139356219D02*
X137869200Y-139637381D01*
X138889200Y-139356219D02*
X138889200Y-139637381D01*
G04 #@! TO.C,U4*
D13*
X148078200Y-149301600D02*
X150078200Y-149301600D01*
X148078200Y-151721600D02*
X150078200Y-151721600D01*
D11*
X147253200Y-149761600D02*
G75*
G02*
X147053200Y-149761600I-100000J0D01*
G01*
X147053200Y-149761600D02*
G75*
G02*
X147253200Y-149761600I100000J0D01*
G01*
G04 #@! TO.C,RFB_850*
D10*
X145952800Y-124211164D02*
X145952800Y-122757036D01*
X147772800Y-124211164D02*
X147772800Y-122757036D01*
G04 #@! TO.C,R_EEG_PROT_N1*
X127768036Y-138228507D02*
X128073049Y-138592009D01*
X128568551Y-137556791D02*
X128873564Y-137920293D01*
G04 #@! TO.C,C_EEG_DVDD_100N1*
X166514970Y-128393781D02*
X166713781Y-128194970D01*
X167236219Y-129115030D02*
X167435030Y-128916219D01*
G04 #@! TO.C,R_PD_FB1*
X141565100Y-139784858D02*
X141565100Y-139310342D01*
X142610100Y-139784858D02*
X142610100Y-139310342D01*
G04 #@! TO.C,R_STIM_IN2*
X152162742Y-151521900D02*
X152637258Y-151521900D01*
X152162742Y-152566900D02*
X152637258Y-152566900D01*
G04 #@! TO.C,C_EEG_AVDD_10U1*
X170737294Y-136218259D02*
X171106761Y-135848792D01*
X171776741Y-137257706D02*
X172146208Y-136888239D01*
G04 #@! TO.C,R_EEG_RLD_FB1*
X159660570Y-132129297D02*
X159996103Y-132464830D01*
X160399497Y-131390370D02*
X160735030Y-131725903D01*
G04 #@! TO.C,IC1*
D11*
X132796400Y-137533000D02*
X132796400Y-136058000D01*
X133046400Y-132008000D02*
X139546400Y-132008000D01*
X133046400Y-135708000D02*
X133046400Y-132008000D01*
X139546400Y-132008000D02*
X139546400Y-135708000D01*
X139546400Y-135708000D02*
X133046400Y-135708000D01*
G04 #@! TO.C,R_EEG_BIAS_N1*
D10*
X157830933Y-137848140D02*
X158166466Y-137512607D01*
X158569860Y-138587067D02*
X158905393Y-138251534D01*
G04 #@! TO.C,R1*
X157252742Y-121232500D02*
X157727258Y-121232500D01*
X157252742Y-122277500D02*
X157727258Y-122277500D01*
G04 #@! TO.C,R_ADC_PHOTO_N1*
X139431500Y-139721858D02*
X139431500Y-139247342D01*
X140476500Y-139721858D02*
X140476500Y-139247342D01*
G04 #@! TO.C,R_EEG_CS_PU1*
X170122770Y-132078303D02*
X170458303Y-131742770D01*
X170861697Y-132817230D02*
X171197230Y-132481697D01*
G04 #@! TO.C,CSLOPE_730*
X128953621Y-121739050D02*
X129234781Y-121739050D01*
X128953621Y-122759050D02*
X129234781Y-122759050D01*
G04 #@! TO.C,R_STIM_P1*
X149843258Y-153604700D02*
X149368742Y-153604700D01*
X149843258Y-154649700D02*
X149368742Y-154649700D01*
G04 #@! TO.C,U3*
D13*
X151332799Y-116380600D02*
X151332799Y-117980600D01*
X154452799Y-117980600D02*
X154452799Y-116380600D01*
D11*
X153942798Y-114680600D02*
G75*
G02*
X153742798Y-114680600I-100000J0D01*
G01*
X153742798Y-114680600D02*
G75*
G02*
X153942798Y-114680600I100000J0D01*
G01*
G04 #@! TO.C,R_ADC_IRQ_PU1*
D10*
X138287500Y-127918741D02*
X138287500Y-128393257D01*
X139332500Y-127918741D02*
X139332500Y-128393257D01*
G04 #@! TO.C,R_ON_PD1*
X155901457Y-115321295D02*
X155512757Y-115049122D01*
X156500843Y-114465278D02*
X156112143Y-114193105D01*
G04 #@! TO.C,U_TEMP1*
D13*
X150600000Y-125051800D02*
X149400000Y-125051800D01*
X150600000Y-127001800D02*
X149400000Y-127001800D01*
D11*
X151735000Y-126581800D02*
G75*
G02*
X151535000Y-126581800I-100000J0D01*
G01*
X151535000Y-126581800D02*
G75*
G02*
X151735000Y-126581800I100000J0D01*
G01*
G04 #@! TO.C,C_EEG_AC_N1*
D10*
X160139970Y-140148781D02*
X160338782Y-139949970D01*
X160861218Y-140870030D02*
X161060030Y-140671219D01*
G04 #@! TO.C,C_EEG_REF_10U1*
X165465543Y-143679992D02*
X165835011Y-144049458D01*
X166504989Y-142640542D02*
X166874457Y-143010008D01*
G04 #@! TO.C,C_ADC_DVDD_BULK1*
X131153781Y-131468400D02*
X130872619Y-131468400D01*
X131153781Y-132488400D02*
X130872619Y-132488400D01*
G04 #@! TO.C,C_PD_FB1*
X141577600Y-142836981D02*
X141577600Y-142555819D01*
X142597600Y-142836981D02*
X142597600Y-142555819D01*
G04 #@! TO.C,C_M1*
X163457055Y-124127194D02*
X163711874Y-124008370D01*
X163888126Y-125051630D02*
X164142945Y-124932806D01*
G04 #@! TO.C,C_ADC_REF_BYP1*
X133144800Y-139343219D02*
X133144800Y-139624381D01*
X134164800Y-139343219D02*
X134164800Y-139624381D01*
G04 #@! TO.C,C_STIM_VCC1*
X149451600Y-147816180D02*
X149451600Y-147535020D01*
X150471600Y-147816180D02*
X150471600Y-147535020D01*
G04 #@! TO.C,C_EEG_REF_100N1*
X166709969Y-141911219D02*
X166908781Y-142110031D01*
X167431219Y-141189969D02*
X167630031Y-141388781D01*
G04 #@! TO.C,R_EEG_GPIO2*
X164011667Y-128445597D02*
X163676136Y-128110061D01*
X164750590Y-127706663D02*
X164415059Y-127371127D01*
G04 #@! TO.C,U_LED850*
D16*
X139439650Y-125895099D02*
X143681450Y-125895099D01*
X143681450Y-120637299D02*
X139439650Y-120637299D01*
G04 #@! TO.C,R_SLEEP_PD1*
D10*
X152637258Y-148270700D02*
X152162742Y-148270700D01*
X152637258Y-149315700D02*
X152162742Y-149315700D01*
G04 #@! TO.C,U_PD_TIA1*
D13*
X143143400Y-139496000D02*
X143143400Y-142496000D01*
X146213400Y-139496000D02*
X146213400Y-142496000D01*
D11*
X146033400Y-137476000D02*
G75*
G02*
X145833400Y-137476000I-100000J0D01*
G01*
X145833400Y-137476000D02*
G75*
G02*
X146033400Y-137476000I100000J0D01*
G01*
G04 #@! TO.C,R_PD_SUPPLY1*
D10*
X140396700Y-135817342D02*
X140396700Y-136291858D01*
X141441700Y-135817342D02*
X141441700Y-136291858D01*
G04 #@! TO.C,C_PWR_SW_CT1*
X152818380Y-119575600D02*
X152537218Y-119575600D01*
X152818380Y-120595600D02*
X152537218Y-120595600D01*
G04 #@! TD*
%LPC*%
D17*
G04 #@! TO.C,R_EEG_RESET_PD1*
X171246637Y-134093363D03*
X172413363Y-132926637D03*
G04 #@! TD*
D18*
G04 #@! TO.C,R_ADC_PHOTO_P1*
X135229600Y-140309600D03*
X135229600Y-138659600D03*
G04 #@! TD*
D19*
G04 #@! TO.C,C_PD_TIA_SUPPLY1*
X144335800Y-145288000D03*
X142785800Y-145288000D03*
G04 #@! TD*
D20*
G04 #@! TO.C,C_EEG_PGA2*
X163865000Y-140485000D03*
X164543822Y-141163820D03*
G04 #@! TD*
D18*
G04 #@! TO.C,R_TEMP_ALERT1*
X149301200Y-123710200D03*
X149301200Y-122060200D03*
G04 #@! TD*
D21*
G04 #@! TO.C,R_EEG_BIAS_P1*
X160118362Y-138636637D03*
X158951638Y-139803363D03*
G04 #@! TD*
D22*
G04 #@! TO.C,C_EEG_VCAP2*
X160653604Y-129589404D03*
X161926396Y-130862196D03*
G04 #@! TD*
D23*
G04 #@! TO.C,S1*
X151970800Y-107871600D03*
X147970800Y-107871600D03*
D24*
X152220800Y-109951600D03*
X149970800Y-109951600D03*
X147720800Y-109951600D03*
D25*
X153720800Y-108051600D03*
X146220800Y-108051600D03*
G04 #@! TD*
D26*
G04 #@! TO.C,C_EEG_AC_P2*
X162341993Y-143091016D03*
X163438007Y-141995000D03*
G04 #@! TD*
D27*
G04 #@! TO.C,C_ADC_REF_BULK1*
X132080000Y-138708800D03*
X132080000Y-140258800D03*
G04 #@! TD*
D28*
G04 #@! TO.C,R_EEG_PROT_N2*
X154279600Y-139687800D03*
X154279600Y-141337800D03*
G04 #@! TD*
D22*
G04 #@! TO.C,C_EEG_VCAP1*
X168185000Y-139815000D03*
X169457792Y-141087792D03*
G04 #@! TD*
D29*
G04 #@! TO.C,C850_BULK1*
X141986000Y-119430800D03*
X143536000Y-119430800D03*
G04 #@! TD*
D27*
G04 #@! TO.C,C_PWR4*
X150150000Y-116090000D03*
X150150000Y-117640000D03*
G04 #@! TD*
D30*
G04 #@! TO.C,U2*
X145940000Y-115935000D03*
X145940000Y-116885000D03*
X145940000Y-117835000D03*
X148450000Y-117835000D03*
X148450000Y-115935000D03*
G04 #@! TD*
D27*
G04 #@! TO.C,C_ADC_PHOTO_P1*
X136804400Y-138708800D03*
X136804400Y-140258800D03*
G04 #@! TD*
D31*
G04 #@! TO.C,J1*
X132037613Y-116999708D03*
X141536565Y-109029140D03*
D32*
X135255000Y-114300001D03*
D33*
X138319178Y-111728847D03*
G04 #@! TD*
D34*
G04 #@! TO.C,IC2*
X161757144Y-136187983D03*
X162110697Y-136541536D03*
X162464251Y-136895089D03*
X162817804Y-137248643D03*
X163171357Y-137602196D03*
X163524911Y-137955749D03*
X163878464Y-138309303D03*
X164232017Y-138662856D03*
D35*
X166317983Y-138662856D03*
X166671536Y-138309303D03*
X167025089Y-137955749D03*
X167378643Y-137602196D03*
X167732196Y-137248643D03*
X168085749Y-136895089D03*
X168439303Y-136541536D03*
X168792856Y-136187983D03*
D34*
X168792856Y-134102017D03*
X168439303Y-133748464D03*
X168085749Y-133394911D03*
X167732196Y-133041357D03*
X167378643Y-132687804D03*
X167025089Y-132334251D03*
X166671536Y-131980697D03*
X166317983Y-131627144D03*
D35*
X164232017Y-131627144D03*
X163878464Y-131980697D03*
X163524911Y-132334251D03*
X163171357Y-132687804D03*
X162817804Y-133041357D03*
X162464251Y-133394911D03*
X162110697Y-133748464D03*
X161757144Y-134102017D03*
G04 #@! TD*
D20*
G04 #@! TO.C,C_EEG_PGA1*
X159825589Y-136430589D03*
X160504411Y-137109411D03*
G04 #@! TD*
D36*
G04 #@! TO.C,R_EEG_GPIO1*
X163625963Y-129640763D03*
X162459237Y-128474037D03*
G04 #@! TD*
D37*
G04 #@! TO.C,C_PWR3*
X144399000Y-114275000D03*
X144399000Y-112725000D03*
G04 #@! TD*
D18*
G04 #@! TO.C,R_EEG_BIAS_N2*
X157500000Y-143205000D03*
X157500000Y-141555000D03*
G04 #@! TD*
D38*
G04 #@! TO.C,R_EEG_PROT_P2*
X158534600Y-145999200D03*
X160184600Y-145999200D03*
G04 #@! TD*
D36*
G04 #@! TO.C,R_EEG_SUPPLY_A1*
X158888363Y-134453363D03*
X157721637Y-133286637D03*
G04 #@! TD*
D29*
G04 #@! TO.C,CSLOPE_850*
X146475150Y-120294400D03*
X148025150Y-120294400D03*
G04 #@! TD*
D26*
G04 #@! TO.C,C_EEG_AC_P1*
X161136992Y-142033008D03*
X162233008Y-140936992D03*
G04 #@! TD*
D39*
G04 #@! TO.C,U1*
X167404968Y-114568652D03*
X166299272Y-115084247D03*
X165193577Y-115599841D03*
X165083098Y-116368554D03*
X164423215Y-115959066D03*
X164312736Y-116727779D03*
X163652854Y-116318292D03*
X163542375Y-117087005D03*
X162882492Y-116677517D03*
X162772013Y-117446230D03*
X162112130Y-117036743D03*
X162001652Y-117805456D03*
X161341769Y-117395968D03*
X161231290Y-118164681D03*
X160362956Y-117852396D03*
X160817271Y-118826677D03*
X161590515Y-118935043D03*
X161176497Y-119597039D03*
X161949741Y-119705405D03*
X161535722Y-120367400D03*
X162308966Y-120475766D03*
X161894948Y-121137762D03*
X162668192Y-121246128D03*
X162254173Y-121908124D03*
X163027417Y-122016488D03*
X162708488Y-122882404D03*
X163687300Y-122425977D03*
X163797779Y-121657264D03*
X164457662Y-122066751D03*
X164568141Y-121298038D03*
X165228023Y-121707526D03*
X165338502Y-120938813D03*
X165998385Y-121348300D03*
X166108864Y-120579587D03*
X166768747Y-120989076D03*
X166879226Y-120220362D03*
X167539108Y-120629849D03*
X168644804Y-120114255D03*
X169750499Y-119598661D03*
X165442324Y-117138915D03*
X163901600Y-117857366D03*
X162360877Y-118575817D03*
X162899715Y-119731360D03*
X163438554Y-120886902D03*
X164979277Y-120168451D03*
X166520000Y-119450000D03*
X165981162Y-118294458D03*
G04 #@! TD*
D29*
G04 #@! TO.C,C730_BULK1*
X126479000Y-131799450D03*
X128029000Y-131799450D03*
G04 #@! TD*
D19*
G04 #@! TO.C,C_STIM_VM1*
X146266200Y-148082000D03*
X144716200Y-148082000D03*
G04 #@! TD*
D27*
G04 #@! TO.C,C_TEMP1*
X151130000Y-122110200D03*
X151130000Y-123660200D03*
G04 #@! TD*
D40*
G04 #@! TO.C,C_EEG_DVDD_10U1*
X167718249Y-130436751D03*
X169061751Y-129093249D03*
G04 #@! TD*
D41*
G04 #@! TO.C,C_EEG_DIFF2*
X163113818Y-139903822D03*
X162435000Y-139225000D03*
G04 #@! TD*
D29*
G04 #@! TO.C,C_EEG_AC_N2*
X154250000Y-142951200D03*
X155800000Y-142951200D03*
G04 #@! TD*
D37*
G04 #@! TO.C,C_PD_BIAS1*
X145745200Y-136817400D03*
X145745200Y-135267400D03*
G04 #@! TD*
G04 #@! TO.C,C_ADC_DVDD_BYP1*
X133356800Y-128917999D03*
X133356800Y-127367999D03*
G04 #@! TD*
D21*
G04 #@! TO.C,R_EEG_BIAS_P2*
X163908362Y-143786639D03*
X162741638Y-144953361D03*
G04 #@! TD*
D19*
G04 #@! TO.C,C_ADC_AVDD_BYP1*
X131788200Y-135229600D03*
X130238200Y-135229600D03*
G04 #@! TD*
D42*
G04 #@! TO.C,RFB_730*
X132722256Y-122801744D03*
X134790544Y-120733456D03*
G04 #@! TD*
D19*
G04 #@! TO.C,C_ADC_AVDD_BULK1*
X131788200Y-136906000D03*
X130238200Y-136906000D03*
G04 #@! TD*
D43*
G04 #@! TO.C,P1*
X147290000Y-113030000D03*
D44*
X152090000Y-113030000D03*
G04 #@! TD*
D45*
G04 #@! TO.C,R_STIM_PD2*
X143472449Y-153291768D03*
X141921951Y-152727432D03*
G04 #@! TD*
D28*
G04 #@! TO.C,R_ADC_CS_PU1*
X134975000Y-127330999D03*
X134975000Y-128980999D03*
G04 #@! TD*
D37*
G04 #@! TO.C,C_STIM_VM2*
X148285198Y-148488400D03*
X148285198Y-146938400D03*
G04 #@! TD*
D19*
G04 #@! TO.C,C_M2*
X158260000Y-123505000D03*
X156710000Y-123505000D03*
G04 #@! TD*
D37*
G04 #@! TO.C,C730_BYP1*
X125526800Y-129807000D03*
X125526800Y-128257000D03*
G04 #@! TD*
D18*
G04 #@! TO.C,R_PD_BIAS_BOT1*
X144170400Y-136867400D03*
X144170400Y-135217400D03*
G04 #@! TD*
D20*
G04 #@! TO.C,C_EEG_DIFF1*
X161185000Y-137790000D03*
X161863822Y-138468822D03*
G04 #@! TD*
D46*
G04 #@! TO.C,R_STIM_PD1*
X154838731Y-153914859D03*
X156463669Y-153628341D03*
G04 #@! TD*
D38*
G04 #@! TO.C,R_STIM_IN1*
X151575000Y-150418799D03*
X153225000Y-150418801D03*
G04 #@! TD*
D29*
G04 #@! TO.C,C850_BYP1*
X138734800Y-119430800D03*
X140284800Y-119430800D03*
G04 #@! TD*
D28*
G04 #@! TO.C,R_PD_BIAS_TOP1*
X142544800Y-135217400D03*
X142544800Y-136867400D03*
G04 #@! TD*
D47*
G04 #@! TO.C,C_EEG_AVDD_100N1*
X169401992Y-138186992D03*
X170498008Y-139283008D03*
G04 #@! TD*
D20*
G04 #@! TO.C,C_EEG_RLD_FB1*
X159375589Y-132890589D03*
X160054411Y-133569411D03*
G04 #@! TD*
D38*
G04 #@! TO.C,R2*
X156665000Y-119980000D03*
X158315000Y-119980000D03*
G04 #@! TD*
D48*
G04 #@! TO.C,R_STIM_N1*
X146570200Y-151434800D03*
X144920200Y-151434800D03*
G04 #@! TD*
D36*
G04 #@! TO.C,R_EEG_PROT_P1*
X166008361Y-146428362D03*
X164841639Y-145261638D03*
G04 #@! TD*
D49*
G04 #@! TO.C,U_LED730*
X127240001Y-129850000D03*
X128510001Y-129850000D03*
X129780001Y-129850000D03*
X131050001Y-129850000D03*
X131050001Y-124401700D03*
X129780001Y-124401700D03*
X128510001Y-124401700D03*
X127240001Y-124401700D03*
D50*
X129145001Y-127125850D03*
G04 #@! TD*
D27*
G04 #@! TO.C,C_ADC_PHOTO_N1*
X138379200Y-138721800D03*
X138379200Y-140271800D03*
G04 #@! TD*
D51*
G04 #@! TO.C,U4*
X148093200Y-149761600D03*
X148093200Y-150261600D03*
X148093200Y-150761600D03*
X148093200Y-151261600D03*
X150063200Y-151261600D03*
X150063200Y-150761600D03*
X150063200Y-150261600D03*
X150063200Y-149761600D03*
D52*
X149078200Y-150511600D03*
G04 #@! TD*
D53*
G04 #@! TO.C,RFB_850*
X146862800Y-124946600D03*
X146862800Y-122021600D03*
G04 #@! TD*
D54*
G04 #@! TO.C,R_EEG_PROT_N1*
X127790500Y-137442415D03*
X128851100Y-138706385D03*
G04 #@! TD*
D26*
G04 #@! TO.C,C_EEG_DVDD_100N1*
X166426992Y-129203008D03*
X167523008Y-128106992D03*
G04 #@! TD*
D18*
G04 #@! TO.C,R_PD_FB1*
X142087600Y-140372600D03*
X142087600Y-138722600D03*
G04 #@! TD*
D38*
G04 #@! TO.C,R_STIM_IN2*
X151575000Y-152044399D03*
X153225000Y-152044401D03*
G04 #@! TD*
D40*
G04 #@! TO.C,C_EEG_AVDD_10U1*
X170770000Y-137225000D03*
X172113502Y-135881498D03*
G04 #@! TD*
D55*
G04 #@! TO.C,R_EEG_RLD_FB1*
X159614437Y-131344237D03*
X160781163Y-132510963D03*
G04 #@! TD*
D56*
G04 #@! TO.C,IC1*
X133371400Y-136796000D03*
X134021400Y-136796000D03*
X134671400Y-136796000D03*
X135321400Y-136796000D03*
X135971400Y-136796000D03*
X136621400Y-136796000D03*
X137271400Y-136796000D03*
X137921400Y-136796000D03*
X138571400Y-136796000D03*
X139221400Y-136796000D03*
X139221400Y-130920000D03*
X138571400Y-130920000D03*
X137921400Y-130920000D03*
X137271400Y-130920000D03*
X136621400Y-130920000D03*
X135971400Y-130920000D03*
X135321400Y-130920000D03*
X134671400Y-130920000D03*
X134021400Y-130920000D03*
X133371400Y-130920000D03*
G04 #@! TD*
D17*
G04 #@! TO.C,R_EEG_BIAS_N1*
X157784800Y-138633200D03*
X158951526Y-137466474D03*
G04 #@! TD*
D38*
G04 #@! TO.C,R1*
X156665000Y-121755000D03*
X158315000Y-121755000D03*
G04 #@! TD*
D18*
G04 #@! TO.C,R_ADC_PHOTO_N1*
X139954000Y-140309600D03*
X139954000Y-138659600D03*
G04 #@! TD*
D17*
G04 #@! TO.C,R_EEG_CS_PU1*
X170076637Y-132863363D03*
X171243363Y-131696637D03*
G04 #@! TD*
D29*
G04 #@! TO.C,CSLOPE_730*
X128319201Y-122249050D03*
X129869201Y-122249050D03*
G04 #@! TD*
D48*
G04 #@! TO.C,R_STIM_P1*
X150431000Y-154127200D03*
X148781000Y-154127200D03*
G04 #@! TD*
D57*
G04 #@! TO.C,U3*
X153842798Y-115925600D03*
X152892799Y-115925600D03*
X151942800Y-115925600D03*
X151942800Y-118435600D03*
X152892799Y-118435600D03*
X153842798Y-118435600D03*
G04 #@! TD*
D28*
G04 #@! TO.C,R_ADC_IRQ_PU1*
X138810000Y-127330999D03*
X138810000Y-128980999D03*
G04 #@! TD*
D58*
G04 #@! TO.C,R_ON_PD1*
X156682601Y-115230401D03*
X155330999Y-114283999D03*
G04 #@! TD*
D59*
G04 #@! TO.C,U_TEMP1*
X150735000Y-126526800D03*
X150734999Y-126026800D03*
X150735000Y-125526800D03*
X149265000Y-125526800D03*
X149265001Y-126026800D03*
X149265000Y-126526800D03*
G04 #@! TD*
D26*
G04 #@! TO.C,C_EEG_AC_N1*
X160051993Y-140958008D03*
X161148007Y-139861992D03*
G04 #@! TD*
D60*
G04 #@! TO.C,C_EEG_REF_10U1*
X165498251Y-142673251D03*
X166841749Y-144016749D03*
G04 #@! TD*
D19*
G04 #@! TO.C,C_ADC_DVDD_BULK1*
X131788200Y-131978400D03*
X130238200Y-131978400D03*
G04 #@! TD*
D37*
G04 #@! TO.C,C_PD_FB1*
X142087600Y-143471400D03*
X142087600Y-141921400D03*
G04 #@! TD*
D61*
G04 #@! TO.C,C_M1*
X163097612Y-124857529D03*
X164502388Y-124202471D03*
G04 #@! TD*
D27*
G04 #@! TO.C,C_ADC_REF_BYP1*
X133654800Y-138708800D03*
X133654800Y-140258800D03*
G04 #@! TD*
D37*
G04 #@! TO.C,C_STIM_VCC1*
X149961600Y-148450600D03*
X149961600Y-146900600D03*
G04 #@! TD*
D47*
G04 #@! TO.C,C_EEG_REF_100N1*
X166621992Y-141101993D03*
X167718008Y-142198007D03*
G04 #@! TD*
D36*
G04 #@! TO.C,R_EEG_GPIO2*
X164796726Y-128491724D03*
X163630000Y-127325000D03*
G04 #@! TD*
D62*
G04 #@! TO.C,U_LED850*
X138836400Y-121361200D03*
X138836400Y-122631199D03*
X138836400Y-123901199D03*
X138836400Y-125171198D03*
X144284700Y-125171198D03*
X144284700Y-123901199D03*
X144284700Y-122631199D03*
X144284700Y-121361200D03*
D63*
X141560550Y-123266199D03*
G04 #@! TD*
D48*
G04 #@! TO.C,R_SLEEP_PD1*
X153225000Y-148793200D03*
X151575000Y-148793200D03*
G04 #@! TD*
D64*
G04 #@! TO.C,U_PD_TIA1*
X145653401Y-138846000D03*
X145003400Y-138846000D03*
X144353400Y-138846000D03*
X143703399Y-138846000D03*
X143703399Y-143146000D03*
X144353400Y-143146000D03*
X145003400Y-143146000D03*
X145653401Y-143146000D03*
G04 #@! TD*
D28*
G04 #@! TO.C,R_PD_SUPPLY1*
X140919200Y-135229600D03*
X140919200Y-136879600D03*
G04 #@! TD*
D19*
G04 #@! TO.C,C_PWR_SW_CT1*
X153452799Y-120085600D03*
X151902799Y-120085600D03*
G04 #@! TD*
D65*
G04 #@! TO.C,J_PROG1*
X157479043Y-110380864D03*
X162292843Y-112295541D03*
X161186136Y-113999719D03*
G04 #@! TD*
D66*
G04 #@! TO.C,E_EEG1*
X164430000Y-148205000D03*
G04 #@! TD*
G04 #@! TO.C,STIM_E_P1*
X152501600Y-154076400D03*
G04 #@! TD*
G04 #@! TO.C,STIM_E_N1*
X145643600Y-153568400D03*
G04 #@! TD*
G04 #@! TO.C,E_EEG2*
X127508000Y-134670800D03*
G04 #@! TD*
G04 #@! TO.C,E_EEG3*
X154279600Y-137769600D03*
G04 #@! TD*
%LPD*%
M02*
