G04 #@! TF.GenerationSoftware,KiCad,Pcbnew,10.0.0*
G04 #@! TF.CreationDate,2026-06-15T20:13:41-04:00*
G04 #@! TF.ProjectId,LightFusion,4c696768-7446-4757-9369-6f6e2e6b6963,rev?*
G04 #@! TF.SameCoordinates,Original*
G04 #@! TF.FileFunction,Paste,Top*
G04 #@! TF.FilePolarity,Positive*
%FSLAX46Y46*%
G04 Gerber Fmt 4.6, Leading zero omitted, Abs format (unit mm)*
G04 Created by KiCad (PCBNEW 10.0.0) date 2026-06-15 20:13:41*
%MOMM*%
%LPD*%
G01*
G04 APERTURE LIST*
G04 Aperture macros list*
%AMRoundRect*
0 Rectangle with rounded corners*
0 $1 Rounding radius*
0 $2 $3 $4 $5 $6 $7 $8 $9 X,Y pos of 4 corners*
0 Add a 4 corners polygon primitive as box body*
4,1,4,$2,$3,$4,$5,$6,$7,$8,$9,$2,$3,0*
0 Add four circle primitives for the rounded corners*
1,1,$1+$1,$2,$3*
1,1,$1+$1,$4,$5*
1,1,$1+$1,$6,$7*
1,1,$1+$1,$8,$9*
0 Add four rect primitives between the rounded corners*
20,1,$1+$1,$2,$3,$4,$5,0*
20,1,$1+$1,$4,$5,$6,$7,0*
20,1,$1+$1,$6,$7,$8,$9,0*
20,1,$1+$1,$8,$9,$2,$3,0*%
%AMRotRect*
0 Rectangle, with rotation*
0 The origin of the aperture is its center*
0 $1 length*
0 $2 width*
0 $3 Rotation angle, in degrees counterclockwise*
0 Add horizontal line*
21,1,$1,$2,0,0,$3*%
G04 Aperture macros list end*
%ADD10C,0.000000*%
%ADD11C,0.010000*%
%ADD12RoundRect,0.200000X0.053033X-0.335876X0.335876X-0.053033X-0.053033X0.335876X-0.335876X0.053033X0*%
%ADD13RoundRect,0.200000X0.275000X-0.200000X0.275000X0.200000X-0.275000X0.200000X-0.275000X-0.200000X0*%
%ADD14RoundRect,0.225000X0.225000X0.250000X-0.225000X0.250000X-0.225000X-0.250000X0.225000X-0.250000X0*%
%ADD15RoundRect,0.140000X-0.219203X-0.021213X-0.021213X-0.219203X0.219203X0.021213X0.021213X0.219203X0*%
%ADD16RoundRect,0.200000X-0.053033X0.335876X-0.335876X0.053033X0.053033X-0.335876X0.335876X-0.053033X0*%
%ADD17RotRect,1.100000X1.450000X315.000000*%
%ADD18R,0.800000X0.800000*%
%ADD19R,1.000000X1.000000*%
%ADD20RoundRect,0.225000X0.017678X-0.335876X0.335876X-0.017678X-0.017678X0.335876X-0.335876X0.017678X0*%
%ADD21RoundRect,0.225000X-0.250000X0.225000X-0.250000X-0.225000X0.250000X-0.225000X0.250000X0.225000X0*%
%ADD22RoundRect,0.200000X-0.275000X0.200000X-0.275000X-0.200000X0.275000X-0.200000X0.275000X0.200000X0*%
%ADD23RoundRect,0.225000X-0.225000X-0.250000X0.225000X-0.250000X0.225000X0.250000X-0.225000X0.250000X0*%
%ADD24RoundRect,0.044250X-0.560750X-0.250750X0.560750X-0.250750X0.560750X0.250750X-0.560750X0.250750X0*%
%ADD25RotRect,0.300000X1.450000X135.000000*%
%ADD26RotRect,0.300000X1.450000X45.000000*%
%ADD27RoundRect,0.200000X0.335876X0.053033X0.053033X0.335876X-0.335876X-0.053033X-0.053033X-0.335876X0*%
%ADD28RoundRect,0.225000X0.250000X-0.225000X0.250000X0.225000X-0.250000X0.225000X-0.250000X-0.225000X0*%
%ADD29RoundRect,0.200000X-0.200000X-0.275000X0.200000X-0.275000X0.200000X0.275000X-0.200000X0.275000X0*%
%ADD30RotRect,0.400000X0.400000X295.000000*%
%ADD31RoundRect,0.250000X0.159099X-0.512652X0.512652X-0.159099X-0.159099X0.512652X-0.512652X0.159099X0*%
%ADD32RoundRect,0.140000X0.219203X0.021213X0.021213X0.219203X-0.219203X-0.021213X-0.021213X-0.219203X0*%
%ADD33RoundRect,0.250000X0.220971X-0.662913X0.662913X-0.220971X-0.220971X0.662913X-0.662913X0.220971X0*%
%ADD34RoundRect,0.200000X0.281994X0.190011X-0.093883X0.326819X-0.281994X-0.190011X0.093883X-0.326819X0*%
%ADD35RoundRect,0.200000X-0.149208X-0.305552X0.244715X-0.236092X0.149208X0.305552X-0.244715X0.236092X0*%
%ADD36RoundRect,0.225000X-0.335876X-0.017678X-0.017678X-0.335876X0.335876X0.017678X0.017678X0.335876X0*%
%ADD37RoundRect,0.200000X0.200000X0.275000X-0.200000X0.275000X-0.200000X-0.275000X0.200000X-0.275000X0*%
%ADD38R,0.558800X1.460500*%
%ADD39RoundRect,0.035000X-0.335000X-0.105000X0.335000X-0.105000X0.335000X0.105000X-0.335000X0.105000X0*%
%ADD40RoundRect,0.250000X0.625000X-0.312500X0.625000X0.312500X-0.625000X0.312500X-0.625000X-0.312500X0*%
%ADD41RoundRect,0.200000X-0.339220X-0.023558X-0.082105X-0.329975X0.339220X0.023558X0.082105X0.329975X0*%
%ADD42RoundRect,0.200000X-0.335876X-0.053033X-0.053033X-0.335876X0.335876X0.053033X0.053033X0.335876X0*%
%ADD43R,0.450000X1.475000*%
%ADD44RoundRect,0.072500X-0.217500X0.532500X-0.217500X-0.532500X0.217500X-0.532500X0.217500X0.532500X0*%
%ADD45RoundRect,0.200000X0.321564X0.110552X-0.006097X0.339982X-0.321564X-0.110552X0.006097X-0.339982X0*%
%ADD46R,0.660000X0.310000*%
%ADD47RoundRect,0.250000X-0.512652X-0.159099X-0.159099X-0.512652X0.512652X0.159099X0.159099X0.512652X0*%
%ADD48RoundRect,0.225000X-0.098265X-0.321666X0.309574X-0.131488X0.098265X0.321666X-0.309574X0.131488X0*%
%ADD49R,1.460500X0.558800*%
%ADD50RoundRect,0.060000X-0.180000X0.675000X-0.180000X-0.675000X0.180000X-0.675000X0.180000X0.675000X0*%
G04 APERTURE END LIST*
D10*
G04 #@! TO.C,U_LED730*
G36*
X129045001Y-128283150D02*
G01*
X127644801Y-128283150D01*
X127644801Y-125968550D01*
X129045001Y-125968550D01*
X129045001Y-128283150D01*
G37*
G36*
X130645201Y-128283150D02*
G01*
X129245001Y-128283150D01*
X129245001Y-125968550D01*
X130645201Y-125968550D01*
X130645201Y-128283150D01*
G37*
D11*
G04 #@! TO.C,U4*
X149358200Y-151021600D02*
X148798200Y-151021600D01*
X148798200Y-150001600D01*
X149358200Y-150001600D01*
X149358200Y-151021600D01*
G36*
X149358200Y-151021600D02*
G01*
X148798200Y-151021600D01*
X148798200Y-150001600D01*
X149358200Y-150001600D01*
X149358200Y-151021600D01*
G37*
D10*
G04 #@! TO.C,U_LED850*
G36*
X142717850Y-123166199D02*
G01*
X140403250Y-123166199D01*
X140403250Y-121765999D01*
X142717850Y-121765999D01*
X142717850Y-123166199D01*
G37*
G36*
X142717850Y-124766399D02*
G01*
X140403250Y-124766399D01*
X140403250Y-123366199D01*
X142717850Y-123366199D01*
X142717850Y-124766399D01*
G37*
G04 #@! TD*
D12*
G04 #@! TO.C,R_EEG_RESET_PD1*
X171246637Y-134093363D03*
X172413363Y-132926637D03*
G04 #@! TD*
D13*
G04 #@! TO.C,R_ADC_PHOTO_P1*
X135229600Y-140309600D03*
X135229600Y-138659600D03*
G04 #@! TD*
D14*
G04 #@! TO.C,C_PD_TIA_SUPPLY1*
X144335800Y-145288000D03*
X142785800Y-145288000D03*
G04 #@! TD*
D15*
G04 #@! TO.C,C_EEG_PGA2*
X163865000Y-140485000D03*
X164543822Y-141163820D03*
G04 #@! TD*
D13*
G04 #@! TO.C,R_TEMP_ALERT1*
X149301200Y-123710200D03*
X149301200Y-122060200D03*
G04 #@! TD*
D16*
G04 #@! TO.C,R_EEG_BIAS_P1*
X160118362Y-138636637D03*
X158951638Y-139803363D03*
G04 #@! TD*
D17*
G04 #@! TO.C,C_EEG_VCAP2*
X160653604Y-129589404D03*
X161926396Y-130862196D03*
G04 #@! TD*
D18*
G04 #@! TO.C,S1*
X152220800Y-109951600D03*
X149970800Y-109951600D03*
X147720800Y-109951600D03*
D19*
X153720800Y-108051600D03*
X146220800Y-108051600D03*
G04 #@! TD*
D20*
G04 #@! TO.C,C_EEG_AC_P2*
X162341993Y-143091016D03*
X163438007Y-141995000D03*
G04 #@! TD*
D21*
G04 #@! TO.C,C_ADC_REF_BULK1*
X132080000Y-138708800D03*
X132080000Y-140258800D03*
G04 #@! TD*
D22*
G04 #@! TO.C,R_EEG_PROT_N2*
X154279600Y-139687800D03*
X154279600Y-141337800D03*
G04 #@! TD*
D17*
G04 #@! TO.C,C_EEG_VCAP1*
X168185000Y-139815000D03*
X169457792Y-141087792D03*
G04 #@! TD*
D23*
G04 #@! TO.C,C850_BULK1*
X141986000Y-119430800D03*
X143536000Y-119430800D03*
G04 #@! TD*
D21*
G04 #@! TO.C,C_PWR4*
X150150000Y-116090000D03*
X150150000Y-117640000D03*
G04 #@! TD*
D24*
G04 #@! TO.C,U2*
X145940000Y-115935000D03*
X145940000Y-116885000D03*
X145940000Y-117835000D03*
X148450000Y-117835000D03*
X148450000Y-115935000D03*
G04 #@! TD*
D21*
G04 #@! TO.C,C_ADC_PHOTO_P1*
X136804400Y-138708800D03*
X136804400Y-140258800D03*
G04 #@! TD*
D25*
G04 #@! TO.C,IC2*
X161757144Y-136187983D03*
X162110697Y-136541536D03*
X162464251Y-136895089D03*
X162817804Y-137248643D03*
X163171357Y-137602196D03*
X163524911Y-137955749D03*
X163878464Y-138309303D03*
X164232017Y-138662856D03*
D26*
X166317983Y-138662856D03*
X166671536Y-138309303D03*
X167025089Y-137955749D03*
X167378643Y-137602196D03*
X167732196Y-137248643D03*
X168085749Y-136895089D03*
X168439303Y-136541536D03*
X168792856Y-136187983D03*
D25*
X168792856Y-134102017D03*
X168439303Y-133748464D03*
X168085749Y-133394911D03*
X167732196Y-133041357D03*
X167378643Y-132687804D03*
X167025089Y-132334251D03*
X166671536Y-131980697D03*
X166317983Y-131627144D03*
D26*
X164232017Y-131627144D03*
X163878464Y-131980697D03*
X163524911Y-132334251D03*
X163171357Y-132687804D03*
X162817804Y-133041357D03*
X162464251Y-133394911D03*
X162110697Y-133748464D03*
X161757144Y-134102017D03*
G04 #@! TD*
D15*
G04 #@! TO.C,C_EEG_PGA1*
X159825589Y-136430589D03*
X160504411Y-137109411D03*
G04 #@! TD*
D27*
G04 #@! TO.C,R_EEG_GPIO1*
X163625963Y-129640763D03*
X162459237Y-128474037D03*
G04 #@! TD*
D28*
G04 #@! TO.C,C_PWR3*
X144399000Y-114275000D03*
X144399000Y-112725000D03*
G04 #@! TD*
D13*
G04 #@! TO.C,R_EEG_BIAS_N2*
X157500000Y-143205000D03*
X157500000Y-141555000D03*
G04 #@! TD*
D29*
G04 #@! TO.C,R_EEG_PROT_P2*
X158534600Y-145999200D03*
X160184600Y-145999200D03*
G04 #@! TD*
D27*
G04 #@! TO.C,R_EEG_SUPPLY_A1*
X158888363Y-134453363D03*
X157721637Y-133286637D03*
G04 #@! TD*
D23*
G04 #@! TO.C,CSLOPE_850*
X146475150Y-120294400D03*
X148025150Y-120294400D03*
G04 #@! TD*
D20*
G04 #@! TO.C,C_EEG_AC_P1*
X161136992Y-142033008D03*
X162233008Y-140936992D03*
G04 #@! TD*
D30*
G04 #@! TO.C,U1*
X167404968Y-114568652D03*
X166299272Y-115084247D03*
X165193577Y-115599841D03*
X165083098Y-116368554D03*
X164423215Y-115959066D03*
X164312736Y-116727779D03*
X163652854Y-116318292D03*
X163542375Y-117087005D03*
X162882492Y-116677517D03*
X162772013Y-117446230D03*
X162112130Y-117036743D03*
X162001652Y-117805456D03*
X161341769Y-117395968D03*
X161231290Y-118164681D03*
X160362956Y-117852396D03*
X160817271Y-118826677D03*
X161590515Y-118935043D03*
X161176497Y-119597039D03*
X161949741Y-119705405D03*
X161535722Y-120367400D03*
X162308966Y-120475766D03*
X161894948Y-121137762D03*
X162668192Y-121246128D03*
X162254173Y-121908124D03*
X163027417Y-122016488D03*
X162708488Y-122882404D03*
X163687300Y-122425977D03*
X163797779Y-121657264D03*
X164457662Y-122066751D03*
X164568141Y-121298038D03*
X165228023Y-121707526D03*
X165338502Y-120938813D03*
X165998385Y-121348300D03*
X166108864Y-120579587D03*
X166768747Y-120989076D03*
X166879226Y-120220362D03*
X167539108Y-120629849D03*
X168644804Y-120114255D03*
X169750499Y-119598661D03*
X165442324Y-117138915D03*
X163901600Y-117857366D03*
X162360877Y-118575817D03*
X162899715Y-119731360D03*
X163438554Y-120886902D03*
X164979277Y-120168451D03*
X166520000Y-119450000D03*
X165981162Y-118294458D03*
G04 #@! TD*
D23*
G04 #@! TO.C,C730_BULK1*
X126479000Y-131799450D03*
X128029000Y-131799450D03*
G04 #@! TD*
D14*
G04 #@! TO.C,C_STIM_VM1*
X146266200Y-148082000D03*
X144716200Y-148082000D03*
G04 #@! TD*
D21*
G04 #@! TO.C,C_TEMP1*
X151130000Y-122110200D03*
X151130000Y-123660200D03*
G04 #@! TD*
D31*
G04 #@! TO.C,C_EEG_DVDD_10U1*
X167718249Y-130436751D03*
X169061751Y-129093249D03*
G04 #@! TD*
D32*
G04 #@! TO.C,C_EEG_DIFF2*
X163113818Y-139903822D03*
X162435000Y-139225000D03*
G04 #@! TD*
D23*
G04 #@! TO.C,C_EEG_AC_N2*
X154250000Y-142951200D03*
X155800000Y-142951200D03*
G04 #@! TD*
D28*
G04 #@! TO.C,C_PD_BIAS1*
X145745200Y-136817400D03*
X145745200Y-135267400D03*
G04 #@! TD*
G04 #@! TO.C,C_ADC_DVDD_BYP1*
X133356800Y-128917999D03*
X133356800Y-127367999D03*
G04 #@! TD*
D16*
G04 #@! TO.C,R_EEG_BIAS_P2*
X163908362Y-143786639D03*
X162741638Y-144953361D03*
G04 #@! TD*
D14*
G04 #@! TO.C,C_ADC_AVDD_BYP1*
X131788200Y-135229600D03*
X130238200Y-135229600D03*
G04 #@! TD*
D33*
G04 #@! TO.C,RFB_730*
X132722256Y-122801744D03*
X134790544Y-120733456D03*
G04 #@! TD*
D14*
G04 #@! TO.C,C_ADC_AVDD_BULK1*
X131788200Y-136906000D03*
X130238200Y-136906000D03*
G04 #@! TD*
D34*
G04 #@! TO.C,R_STIM_PD2*
X143472449Y-153291768D03*
X141921951Y-152727432D03*
G04 #@! TD*
D22*
G04 #@! TO.C,R_ADC_CS_PU1*
X134975000Y-127330999D03*
X134975000Y-128980999D03*
G04 #@! TD*
D28*
G04 #@! TO.C,C_STIM_VM2*
X148285198Y-148488400D03*
X148285198Y-146938400D03*
G04 #@! TD*
D14*
G04 #@! TO.C,C_M2*
X158260000Y-123505000D03*
X156710000Y-123505000D03*
G04 #@! TD*
D28*
G04 #@! TO.C,C730_BYP1*
X125526800Y-129807000D03*
X125526800Y-128257000D03*
G04 #@! TD*
D13*
G04 #@! TO.C,R_PD_BIAS_BOT1*
X144170400Y-136867400D03*
X144170400Y-135217400D03*
G04 #@! TD*
D15*
G04 #@! TO.C,C_EEG_DIFF1*
X161185000Y-137790000D03*
X161863822Y-138468822D03*
G04 #@! TD*
D35*
G04 #@! TO.C,R_STIM_PD1*
X154838731Y-153914859D03*
X156463669Y-153628341D03*
G04 #@! TD*
D29*
G04 #@! TO.C,R_STIM_IN1*
X151575000Y-150418799D03*
X153225000Y-150418801D03*
G04 #@! TD*
D23*
G04 #@! TO.C,C850_BYP1*
X138734800Y-119430800D03*
X140284800Y-119430800D03*
G04 #@! TD*
D22*
G04 #@! TO.C,R_PD_BIAS_TOP1*
X142544800Y-135217400D03*
X142544800Y-136867400D03*
G04 #@! TD*
D36*
G04 #@! TO.C,C_EEG_AVDD_100N1*
X169401992Y-138186992D03*
X170498008Y-139283008D03*
G04 #@! TD*
D15*
G04 #@! TO.C,C_EEG_RLD_FB1*
X159375589Y-132890589D03*
X160054411Y-133569411D03*
G04 #@! TD*
D29*
G04 #@! TO.C,R2*
X156665000Y-119980000D03*
X158315000Y-119980000D03*
G04 #@! TD*
D37*
G04 #@! TO.C,R_STIM_N1*
X146570200Y-151434800D03*
X144920200Y-151434800D03*
G04 #@! TD*
D27*
G04 #@! TO.C,R_EEG_PROT_P1*
X166008361Y-146428362D03*
X164841639Y-145261638D03*
G04 #@! TD*
D38*
G04 #@! TO.C,U_LED730*
X127240001Y-129850000D03*
X128510001Y-129850000D03*
X129780001Y-129850000D03*
X131050001Y-129850000D03*
X131050001Y-124401700D03*
X129780001Y-124401700D03*
X128510001Y-124401700D03*
X127240001Y-124401700D03*
G04 #@! TD*
D21*
G04 #@! TO.C,C_ADC_PHOTO_N1*
X138379200Y-138721800D03*
X138379200Y-140271800D03*
G04 #@! TD*
D39*
G04 #@! TO.C,U4*
X148093200Y-149761600D03*
X148093200Y-150261600D03*
X148093200Y-150761600D03*
X148093200Y-151261600D03*
X150063200Y-151261600D03*
X150063200Y-150761600D03*
X150063200Y-150261600D03*
X150063200Y-149761600D03*
G04 #@! TD*
D40*
G04 #@! TO.C,RFB_850*
X146862800Y-124946600D03*
X146862800Y-122021600D03*
G04 #@! TD*
D41*
G04 #@! TO.C,R_EEG_PROT_N1*
X127790500Y-137442415D03*
X128851100Y-138706385D03*
G04 #@! TD*
D20*
G04 #@! TO.C,C_EEG_DVDD_100N1*
X166426992Y-129203008D03*
X167523008Y-128106992D03*
G04 #@! TD*
D13*
G04 #@! TO.C,R_PD_FB1*
X142087600Y-140372600D03*
X142087600Y-138722600D03*
G04 #@! TD*
D29*
G04 #@! TO.C,R_STIM_IN2*
X151575000Y-152044399D03*
X153225000Y-152044401D03*
G04 #@! TD*
D31*
G04 #@! TO.C,C_EEG_AVDD_10U1*
X170770000Y-137225000D03*
X172113502Y-135881498D03*
G04 #@! TD*
D42*
G04 #@! TO.C,R_EEG_RLD_FB1*
X159614437Y-131344237D03*
X160781163Y-132510963D03*
G04 #@! TD*
D43*
G04 #@! TO.C,IC1*
X133371400Y-136796000D03*
X134021400Y-136796000D03*
X134671400Y-136796000D03*
X135321400Y-136796000D03*
X135971400Y-136796000D03*
X136621400Y-136796000D03*
X137271400Y-136796000D03*
X137921400Y-136796000D03*
X138571400Y-136796000D03*
X139221400Y-136796000D03*
X139221400Y-130920000D03*
X138571400Y-130920000D03*
X137921400Y-130920000D03*
X137271400Y-130920000D03*
X136621400Y-130920000D03*
X135971400Y-130920000D03*
X135321400Y-130920000D03*
X134671400Y-130920000D03*
X134021400Y-130920000D03*
X133371400Y-130920000D03*
G04 #@! TD*
D12*
G04 #@! TO.C,R_EEG_BIAS_N1*
X157784800Y-138633200D03*
X158951526Y-137466474D03*
G04 #@! TD*
D29*
G04 #@! TO.C,R1*
X156665000Y-121755000D03*
X158315000Y-121755000D03*
G04 #@! TD*
D13*
G04 #@! TO.C,R_ADC_PHOTO_N1*
X139954000Y-140309600D03*
X139954000Y-138659600D03*
G04 #@! TD*
D12*
G04 #@! TO.C,R_EEG_CS_PU1*
X170076637Y-132863363D03*
X171243363Y-131696637D03*
G04 #@! TD*
D23*
G04 #@! TO.C,CSLOPE_730*
X128319201Y-122249050D03*
X129869201Y-122249050D03*
G04 #@! TD*
D37*
G04 #@! TO.C,R_STIM_P1*
X150431000Y-154127200D03*
X148781000Y-154127200D03*
G04 #@! TD*
D44*
G04 #@! TO.C,U3*
X153842798Y-115925600D03*
X152892799Y-115925600D03*
X151942800Y-115925600D03*
X151942800Y-118435600D03*
X152892799Y-118435600D03*
X153842798Y-118435600D03*
G04 #@! TD*
D22*
G04 #@! TO.C,R_ADC_IRQ_PU1*
X138810000Y-127330999D03*
X138810000Y-128980999D03*
G04 #@! TD*
D45*
G04 #@! TO.C,R_ON_PD1*
X156682601Y-115230401D03*
X155330999Y-114283999D03*
G04 #@! TD*
D46*
G04 #@! TO.C,U_TEMP1*
X150735000Y-126526800D03*
X150734999Y-126026800D03*
X150735000Y-125526800D03*
X149265000Y-125526800D03*
X149265001Y-126026800D03*
X149265000Y-126526800D03*
G04 #@! TD*
D20*
G04 #@! TO.C,C_EEG_AC_N1*
X160051993Y-140958008D03*
X161148007Y-139861992D03*
G04 #@! TD*
D47*
G04 #@! TO.C,C_EEG_REF_10U1*
X165498251Y-142673251D03*
X166841749Y-144016749D03*
G04 #@! TD*
D14*
G04 #@! TO.C,C_ADC_DVDD_BULK1*
X131788200Y-131978400D03*
X130238200Y-131978400D03*
G04 #@! TD*
D28*
G04 #@! TO.C,C_PD_FB1*
X142087600Y-143471400D03*
X142087600Y-141921400D03*
G04 #@! TD*
D48*
G04 #@! TO.C,C_M1*
X163097612Y-124857529D03*
X164502388Y-124202471D03*
G04 #@! TD*
D21*
G04 #@! TO.C,C_ADC_REF_BYP1*
X133654800Y-138708800D03*
X133654800Y-140258800D03*
G04 #@! TD*
D28*
G04 #@! TO.C,C_STIM_VCC1*
X149961600Y-148450600D03*
X149961600Y-146900600D03*
G04 #@! TD*
D36*
G04 #@! TO.C,C_EEG_REF_100N1*
X166621992Y-141101993D03*
X167718008Y-142198007D03*
G04 #@! TD*
D27*
G04 #@! TO.C,R_EEG_GPIO2*
X164796726Y-128491724D03*
X163630000Y-127325000D03*
G04 #@! TD*
D49*
G04 #@! TO.C,U_LED850*
X138836400Y-121361200D03*
X138836400Y-122631199D03*
X138836400Y-123901199D03*
X138836400Y-125171198D03*
X144284700Y-125171198D03*
X144284700Y-123901199D03*
X144284700Y-122631199D03*
X144284700Y-121361200D03*
G04 #@! TD*
D37*
G04 #@! TO.C,R_SLEEP_PD1*
X153225000Y-148793200D03*
X151575000Y-148793200D03*
G04 #@! TD*
D50*
G04 #@! TO.C,U_PD_TIA1*
X145653401Y-138846000D03*
X145003400Y-138846000D03*
X144353400Y-138846000D03*
X143703399Y-138846000D03*
X143703399Y-143146000D03*
X144353400Y-143146000D03*
X145003400Y-143146000D03*
X145653401Y-143146000D03*
G04 #@! TD*
D22*
G04 #@! TO.C,R_PD_SUPPLY1*
X140919200Y-135229600D03*
X140919200Y-136879600D03*
G04 #@! TD*
D14*
G04 #@! TO.C,C_PWR_SW_CT1*
X153452799Y-120085600D03*
X151902799Y-120085600D03*
G04 #@! TD*
M02*
