G04 #@! TF.GenerationSoftware,KiCad,Pcbnew,10.0.0*
G04 #@! TF.CreationDate,2026-06-21T21:15:56-04:00*
G04 #@! TF.ProjectId,LightFusion,4c696768-7446-4757-9369-6f6e2e6b6963,rev?*
G04 #@! TF.SameCoordinates,Original*
G04 #@! TF.FileFunction,Copper,L4,Bot*
G04 #@! TF.FilePolarity,Positive*
%FSLAX46Y46*%
G04 Gerber Fmt 4.6, Leading zero omitted, Abs format (unit mm)*
G04 Created by KiCad (PCBNEW 10.0.0) date 2026-06-21 21:15:56*
%MOMM*%
%LPD*%
G01*
G04 APERTURE LIST*
G04 Aperture macros list*
%AMRoundRect*
0 Rectangle with rounded corners*
0 $1 Rounding radius*
0 $2 $3 $4 $5 $6 $7 $8 $9 X,Y pos of 4 corners*
0 Add a 4 corners polygon primitive as box body*
4,1,4,$2,$3,$4,$5,$6,$7,$8,$9,$2,$3,0*
0 Add four circle primitives for the rounded corners*
1,1,$1+$1,$2,$3*
1,1,$1+$1,$4,$5*
1,1,$1+$1,$6,$7*
1,1,$1+$1,$8,$9*
0 Add four rect primitives between the rounded corners*
20,1,$1+$1,$2,$3,$4,$5,0*
20,1,$1+$1,$4,$5,$6,$7,0*
20,1,$1+$1,$6,$7,$8,$9,0*
20,1,$1+$1,$8,$9,$2,$3,0*%
%AMRotRect*
0 Rectangle, with rotation*
0 The origin of the aperture is its center*
0 $1 length*
0 $2 width*
0 $3 Rotation angle, in degrees counterclockwise*
0 Add horizontal line*
21,1,$1,$2,0,0,$3*%
G04 Aperture macros list end*
G04 #@! TA.AperFunction,SMDPad,CuDef*
%ADD10RoundRect,0.250000X-0.325000X-0.650000X0.325000X-0.650000X0.325000X0.650000X-0.325000X0.650000X0*%
G04 #@! TD*
G04 #@! TA.AperFunction,SMDPad,CuDef*
%ADD11RoundRect,0.250000X0.325000X0.650000X-0.325000X0.650000X-0.325000X-0.650000X0.325000X-0.650000X0*%
G04 #@! TD*
G04 #@! TA.AperFunction,ComponentPad*
%ADD12RotRect,1.800000X1.800000X40.000000*%
G04 #@! TD*
G04 #@! TA.AperFunction,ComponentPad*
%ADD13C,1.800000*%
G04 #@! TD*
G04 #@! TA.AperFunction,ComponentPad*
%ADD14RoundRect,0.250001X-0.899999X-0.899999X0.899999X-0.899999X0.899999X0.899999X-0.899999X0.899999X0*%
G04 #@! TD*
G04 #@! TA.AperFunction,ComponentPad*
%ADD15C,2.300000*%
G04 #@! TD*
G04 #@! TA.AperFunction,SMDPad,CuDef*
%ADD16C,0.863000*%
G04 #@! TD*
G04 #@! TA.AperFunction,ComponentPad*
%ADD17C,1.550000*%
G04 #@! TD*
G04 #@! TA.AperFunction,ComponentPad*
%ADD18C,1.016000*%
G04 #@! TD*
G04 #@! TA.AperFunction,SMDPad,CuDef*
%ADD19R,2.700000X0.500000*%
G04 #@! TD*
G04 #@! TA.AperFunction,SMDPad,CuDef*
%ADD20R,2.700000X1.000000*%
G04 #@! TD*
G04 #@! TA.AperFunction,SMDPad,CuDef*
%ADD21R,0.540000X0.550000*%
G04 #@! TD*
G04 #@! TA.AperFunction,ViaPad*
%ADD22C,0.600000*%
G04 #@! TD*
G04 #@! TA.AperFunction,Conductor*
%ADD23C,0.200000*%
G04 #@! TD*
G04 #@! TA.AperFunction,Conductor*
%ADD24C,0.500000*%
G04 #@! TD*
G04 APERTURE END LIST*
D10*
G04 #@! TO.P,C_ADC_PHOTO_N1,1*
G04 #@! TO.N,/PD_ADC/ADC_PHOTO_N*
X136648400Y-139039601D03*
G04 #@! TO.P,C_ADC_PHOTO_N1,2*
G04 #@! TO.N,GND*
X139598400Y-139039601D03*
G04 #@! TD*
D11*
G04 #@! TO.P,C_ADC_PHOTO_P1,1*
G04 #@! TO.N,/PD_ADC/ADC_PHOTO_P*
X134772400Y-139039599D03*
G04 #@! TO.P,C_ADC_PHOTO_P1,2*
G04 #@! TO.N,GND*
X131822400Y-139039599D03*
G04 #@! TD*
D12*
G04 #@! TO.P,J1,1,1_1*
G04 #@! TO.N,GND*
X135255000Y-114300001D03*
D13*
G04 #@! TO.P,J1,2,2_2*
G04 #@! TO.N,/Power/BAT+*
X138319178Y-111728847D03*
G04 #@! TD*
D14*
G04 #@! TO.P,P1,1,1_1*
G04 #@! TO.N,GND*
X147290000Y-113030000D03*
D15*
G04 #@! TO.P,P1,2,2_2*
G04 #@! TO.N,/Power/BAT+*
X152090000Y-113030000D03*
G04 #@! TD*
D16*
G04 #@! TO.P,J_PROG1,1,1_1*
G04 #@! TO.N,3V3_DIG*
X137159540Y-145923844D03*
G04 #@! TO.P,J_PROG1,2,2_2*
G04 #@! TO.N,/SWDIO*
X136377656Y-146924621D03*
G04 #@! TO.P,J_PROG1,3,3_3*
G04 #@! TO.N,/RESET*
X138160311Y-146705729D03*
G04 #@! TO.P,J_PROG1,4,4_4*
G04 #@! TO.N,/SWDCLK*
X137378429Y-147706515D03*
G04 #@! TO.P,J_PROG1,5,5_5*
G04 #@! TO.N,GND*
X139161084Y-147487623D03*
G04 #@! TO.P,J_PROG1,6,6_6*
G04 #@! TO.N,unconnected-(J_PROG1-Pad6)*
X138379200Y-148488400D03*
D17*
G04 #@! TO.P,J_PROG1,7,7_7*
G04 #@! TO.N,GND*
X135767821Y-145642344D03*
G04 #@! TO.P,J_PROG1,8,8_8*
X140396430Y-147969282D03*
G04 #@! TO.P,J_PROG1,9,9_9*
X139145409Y-149570516D03*
G04 #@! TD*
D18*
G04 #@! TO.P,E_EEG1,1,1_1*
G04 #@! TO.N,Net-(E_EEG1-Pad1)*
X164430000Y-148205000D03*
G04 #@! TD*
G04 #@! TO.P,STIM_E_P1,1,1_1*
G04 #@! TO.N,Net-(R_STIM_P1-Pad2)*
X152501600Y-153974800D03*
G04 #@! TD*
G04 #@! TO.P,STIM_E_N1,1,1_1*
G04 #@! TO.N,Net-(R_STIM_N1-Pad2)*
X145643600Y-153568400D03*
G04 #@! TD*
D19*
G04 #@! TO.P,D_850,1,K_1*
G04 #@! TO.N,/LED/LED850_K*
X153771600Y-131198800D03*
G04 #@! TO.P,D_850,2,A_2*
G04 #@! TO.N,VBAT_SYSTEM*
X153771600Y-128998800D03*
D20*
G04 #@! TO.P,D_850,3,EP_3*
G04 #@! TO.N,GND*
X153771600Y-130098800D03*
G04 #@! TD*
D18*
G04 #@! TO.P,E_EEG2,1,1_1*
G04 #@! TO.N,Net-(E_EEG2-Pad1)*
X127508000Y-134670800D03*
G04 #@! TD*
D19*
G04 #@! TO.P,D_730,1,K_1*
G04 #@! TO.N,/LED/LED730_K*
X145338800Y-131267200D03*
G04 #@! TO.P,D_730,2,A_2*
G04 #@! TO.N,VBAT_SYSTEM*
X145338800Y-129067200D03*
D20*
G04 #@! TO.P,D_730,3,EP_3*
G04 #@! TO.N,GND*
X145338800Y-130167200D03*
G04 #@! TD*
D21*
G04 #@! TO.P,D_PD1,1,CATHODE_1_1*
G04 #@! TO.N,/PD_ADC/PHOTO_TIA_IN*
X151271600Y-138023600D03*
G04 #@! TO.P,D_PD1,2,CATHODE_2_2*
X149961600Y-138023600D03*
G04 #@! TO.P,D_PD1,3,CATHODE_3_3*
X148581600Y-138023600D03*
G04 #@! TO.P,D_PD1,4,CATHODE_4_4*
X147271600Y-138023600D03*
G04 #@! TO.P,D_PD1,5,ANODE_5*
G04 #@! TO.N,GND*
X147271600Y-135643600D03*
G04 #@! TO.P,D_PD1,6,CATHODE_5_6*
G04 #@! TO.N,/PD_ADC/PHOTO_TIA_IN*
X148581600Y-135643600D03*
G04 #@! TO.P,D_PD1,7,CATHODE_6_7*
X149961600Y-135643600D03*
G04 #@! TO.P,D_PD1,8,CATHODE_7_8*
X151271600Y-135643600D03*
G04 #@! TD*
D18*
G04 #@! TO.P,E_EEG3,1,1_1*
G04 #@! TO.N,Net-(E_EEG3-Pad1)*
X150622000Y-142087600D03*
G04 #@! TD*
D22*
G04 #@! TO.N,GND*
X171602400Y-119837200D03*
G04 #@! TO.N,3V3_DIG*
X159613600Y-122097800D03*
G04 #@! TO.N,/SWDCLK*
X172161200Y-118618000D03*
X172567600Y-119989600D03*
G04 #@! TO.N,/MCU_STIM_IN2*
X172923200Y-123190000D03*
G04 #@! TO.N,3V3_DIG*
X137617200Y-145491200D03*
G04 #@! TO.N,/SWDIO*
X135940800Y-147472400D03*
G04 #@! TO.N,/RESET*
X138633200Y-146202400D03*
G04 #@! TO.N,/SWDCLK*
X136906000Y-148234400D03*
G04 #@! TO.N,Net-(E_EEG2-Pad1)*
X151892000Y-145643600D03*
X150266400Y-144170400D03*
X158546800Y-146202400D03*
G04 #@! TO.N,PWM_850*
X162814000Y-118770400D03*
G04 #@! TO.N,GND*
X164724200Y-127325000D03*
X165506400Y-125984000D03*
G04 #@! TO.N,ADC_SCK*
X163423600Y-121412000D03*
G04 #@! TO.N,ADC_MOSI*
X162932677Y-120685564D03*
G04 #@! TO.N,I2C_TEMP_SCL*
X162610800Y-125272800D03*
G04 #@! TO.N,3V3_DIG*
X160121600Y-127000000D03*
G04 #@! TO.N,I2C_TEMP_SCL*
X152196800Y-126187200D03*
G04 #@! TO.N,GND*
X146558000Y-135229600D03*
G04 #@! TO.N,ADC_SCK*
X158496000Y-123037600D03*
G04 #@! TO.N,ADC_CS_N*
X159613600Y-126085600D03*
G04 #@! TO.N,3V3_DIG*
X132791200Y-131978400D03*
G04 #@! TO.N,/EEG_RESET_N*
X159258000Y-119481600D03*
G04 #@! TO.N,ADC_DRDY_N*
X165404800Y-114300000D03*
X134264400Y-128270000D03*
G04 #@! TO.N,3V3_DIG*
X132435600Y-129235200D03*
G04 #@! TO.N,I2C_TEMP_SDA*
X165912800Y-116433600D03*
X159816800Y-121005600D03*
G04 #@! TO.N,TEMP_ALERT*
X151483200Y-125526800D03*
X166346646Y-122963446D03*
G04 #@! TO.N,/MCU_STIM_IN1*
X170934000Y-122321295D03*
G04 #@! TO.N,/MCU_STIM_EN*
X161010600Y-127381000D03*
X168219037Y-121497195D03*
G04 #@! TO.N,/MCU_STIM_IN2*
X174450000Y-123799600D03*
G04 #@! TO.N,/EEG_DRDY*
X168148000Y-124256800D03*
G04 #@! TO.N,ADC_MISO*
X161594800Y-122123200D03*
G04 #@! TO.N,ADC_MOSI*
X161036000Y-121666000D03*
G04 #@! TO.N,3V3_DIG*
X166319200Y-125628400D03*
X168808400Y-125222000D03*
G04 #@! TO.N,/RESET*
X162102800Y-119837200D03*
G04 #@! TO.N,/SWDIO*
X161645600Y-119278400D03*
G04 #@! TO.N,/SWDCLK*
X161137600Y-118770400D03*
G04 #@! TO.N,/EEG_RESET_N*
X172159153Y-120804447D03*
G04 #@! TO.N,GND*
X142290800Y-151942800D03*
X165912800Y-131216400D03*
X145389600Y-123901200D03*
X168620000Y-143290000D03*
X148285200Y-146202400D03*
X140030000Y-130910000D03*
X138633200Y-137871200D03*
X152196800Y-130403600D03*
X141000000Y-120000000D03*
X126644400Y-127101600D03*
X150926800Y-146558000D03*
X145034000Y-134467600D03*
X156616400Y-118160800D03*
X141935200Y-145288000D03*
X152196800Y-129794000D03*
X143754631Y-130454400D03*
X153005662Y-114952400D03*
X169164000Y-135788400D03*
X129133600Y-132588000D03*
X143916400Y-148082000D03*
X142700000Y-121250000D03*
X146890000Y-130470000D03*
X166660000Y-136180000D03*
X147624800Y-116885000D03*
X143780000Y-129810000D03*
X134021400Y-132029200D03*
X154586446Y-119077246D03*
X143052800Y-137972800D03*
X165862000Y-137515600D03*
X154076400Y-107137200D03*
X139649200Y-140208000D03*
X129946400Y-121259600D03*
X133604000Y-140919200D03*
X155295600Y-129794000D03*
X170660000Y-140450000D03*
X161391600Y-128066800D03*
X155295600Y-130403600D03*
X169011600Y-128066800D03*
X147980400Y-121208800D03*
X166014400Y-111912400D03*
X152349200Y-123190000D03*
X144400000Y-119100000D03*
X154432000Y-152654000D03*
X148608206Y-151711099D03*
X135585200Y-119938800D03*
X172413363Y-134264400D03*
X153974800Y-148793200D03*
X134315200Y-135686800D03*
X150012400Y-125222000D03*
X145999200Y-107086400D03*
X132537200Y-127050800D03*
X146900000Y-129830000D03*
G04 #@! TO.N,/PD_ADC/ADC_PHOTO_P*
X135280400Y-139598400D03*
G04 #@! TO.N,/PD_ADC/3V3_A*
X140487400Y-137490200D03*
X132842000Y-137820400D03*
G04 #@! TO.N,3V3_DIG*
X171100000Y-132850000D03*
X150825200Y-147929600D03*
X136499600Y-126511400D03*
X157850000Y-131950000D03*
X148437600Y-125710000D03*
X131500000Y-128400000D03*
X137500000Y-124250000D03*
X150240000Y-121430000D03*
X141071600Y-134162800D03*
X149352000Y-115671600D03*
X167538400Y-134975600D03*
X166420800Y-130200400D03*
G04 #@! TO.N,/Power/BAT+*
X150825200Y-110337600D03*
G04 #@! TO.N,VBAT_SYSTEM*
X125690000Y-130950000D03*
X135864176Y-123664176D03*
X145338800Y-149555200D03*
X137864176Y-121664176D03*
X142320000Y-128980000D03*
G04 #@! TO.N,Net-(IC2-IN2N)*
X164200000Y-136590000D03*
X159258000Y-144881600D03*
G04 #@! TO.N,ADC_MOSI*
X136621400Y-127736400D03*
X172310000Y-127400000D03*
G04 #@! TO.N,ADC_SCK*
X137271400Y-127011400D03*
X171640000Y-127810000D03*
G04 #@! TO.N,ADC_MISO*
X135971400Y-128281400D03*
X171000000Y-128220000D03*
G04 #@! TO.N,/EEG_DRDY*
X168120069Y-131239269D03*
G04 #@! TO.N,ADC_CS_N*
X139800000Y-129100000D03*
G04 #@! TO.N,/MCU_STIM_IN1*
X152095200Y-149656800D03*
G04 #@! TO.N,/LED/LED730_K*
X132280000Y-130470000D03*
G04 #@! TO.N,Net-(U4-OUT1)*
X150368000Y-153162000D03*
X147116800Y-150215600D03*
G04 #@! TO.N,Net-(C_EEG_AC_N1-Pad1)*
X157937200Y-140258800D03*
X129743200Y-139954000D03*
G04 #@! TO.N,/PD_ADC/PHOTO_TIA_IN*
X146507200Y-137718800D03*
G04 #@! TO.N,/PD_ADC/ADC_PHOTO_N*
X137566400Y-139598400D03*
G04 #@! TO.N,/LED/LED850_K*
X153840000Y-132470000D03*
G04 #@! TO.N,PWM_850*
X157734000Y-120853200D03*
G04 #@! TD*
G04 #@! TO.N,/PD_ADC/PHOTO_TIA_IN*
D23*
X148581600Y-135643600D02*
X149961600Y-135643600D01*
X148581600Y-138023600D02*
X147271600Y-138023600D01*
X149961600Y-138023600D02*
X148581600Y-138023600D01*
X151271600Y-138023600D02*
X149961600Y-138023600D01*
X149961600Y-135643600D02*
X149961600Y-138023600D01*
X151271600Y-135643600D02*
X149961600Y-135643600D01*
G04 #@! TO.N,/EEG_RESET_N*
X159258000Y-119024400D02*
X159258000Y-119481600D01*
X163017200Y-117754400D02*
X160528000Y-117754400D01*
X160528000Y-117754400D02*
X159258000Y-119024400D01*
X164998400Y-115773200D02*
X163017200Y-117754400D01*
X166827200Y-115773200D02*
X164998400Y-115773200D01*
X171858447Y-120804447D02*
X166827200Y-115773200D01*
X172159153Y-120804447D02*
X171858447Y-120804447D01*
G04 #@! TO.N,/SWDCLK*
X172161200Y-119837200D02*
X172161200Y-118618000D01*
X172313600Y-119989600D02*
X172161200Y-119837200D01*
X172567600Y-119989600D02*
X172313600Y-119989600D01*
G04 #@! TO.N,Net-(C_EEG_AC_N1-Pad1)*
X129946400Y-140157200D02*
X129743200Y-139954000D01*
X129946400Y-140258800D02*
X129946400Y-140157200D01*
G04 #@! TO.N,/RESET*
X138633200Y-146202400D02*
X138633200Y-146232840D01*
X138633200Y-146232840D02*
X138160311Y-146705729D01*
G04 #@! TO.N,3V3_DIG*
X137592184Y-145491200D02*
X137159540Y-145923844D01*
X137617200Y-145491200D02*
X137592184Y-145491200D01*
G04 #@! TO.N,GND*
X139914771Y-147487623D02*
X140396430Y-147969282D01*
X139161084Y-147487623D02*
X139914771Y-147487623D01*
G04 #@! TO.N,/MCU_STIM_IN2*
X172923200Y-123190000D02*
X173840400Y-123190000D01*
X173840400Y-123190000D02*
X174450000Y-123799600D01*
G04 #@! TO.N,/MCU_STIM_IN1*
X164947600Y-149656800D02*
X152095200Y-149656800D01*
X166065200Y-148539200D02*
X164947600Y-149656800D01*
X166217600Y-148539200D02*
X166065200Y-148539200D01*
X170383200Y-144373600D02*
X166217600Y-148539200D01*
X170383200Y-143865600D02*
X170383200Y-144373600D01*
X172923200Y-140665200D02*
X172923200Y-141325600D01*
X173329600Y-140258800D02*
X172923200Y-140665200D01*
X173329600Y-139496800D02*
X173329600Y-140258800D01*
X173990000Y-138836400D02*
X173329600Y-139496800D01*
X173990000Y-137160000D02*
X173990000Y-138836400D01*
X172923200Y-141325600D02*
X170383200Y-143865600D01*
X174701200Y-136448800D02*
X173990000Y-137160000D01*
X173278800Y-125526800D02*
X174701200Y-126949200D01*
X173278800Y-124714000D02*
X173278800Y-125526800D01*
X170934000Y-122321295D02*
X171145200Y-122532495D01*
X171145200Y-122532495D02*
X171145200Y-122580400D01*
X171145200Y-122580400D02*
X173278800Y-124714000D01*
X174701200Y-126949200D02*
X174701200Y-136448800D01*
G04 #@! TO.N,/SWDCLK*
X136906000Y-148178944D02*
X137378429Y-147706515D01*
X136906000Y-148234400D02*
X136906000Y-148178944D01*
G04 #@! TO.N,/SWDIO*
X135940800Y-147361477D02*
X136377656Y-146924621D01*
X135940800Y-147472400D02*
X135940800Y-147361477D01*
G04 #@! TO.N,/PD_ADC/ADC_PHOTO_N*
X137007602Y-139039602D02*
X137566400Y-139598400D01*
X136648400Y-139039602D02*
X137007602Y-139039602D01*
G04 #@! TO.N,Net-(E_EEG2-Pad1)*
X152450800Y-146202400D02*
X151892000Y-145643600D01*
X158546800Y-146202400D02*
X152450800Y-146202400D01*
G04 #@! TO.N,Net-(C_EEG_AC_N1-Pad1)*
X151841200Y-144881600D02*
X152857200Y-143865600D01*
X152857200Y-143865600D02*
X154584400Y-143865600D01*
X146456400Y-144475200D02*
X146862800Y-144881600D01*
X134162800Y-144475200D02*
X146456400Y-144475200D01*
X146862800Y-144881600D02*
X151841200Y-144881600D01*
X154584400Y-143865600D02*
X157937200Y-140512800D01*
X157937200Y-140512800D02*
X157937200Y-140258800D01*
X129946400Y-140258800D02*
X134162800Y-144475200D01*
G04 #@! TO.N,Net-(E_EEG2-Pad1)*
X150266400Y-144170400D02*
X135026400Y-144170400D01*
G04 #@! TO.N,VBAT_SYSTEM*
D24*
X140563600Y-151231600D02*
X138023600Y-151231600D01*
X138023600Y-151231600D02*
X137312400Y-150520400D01*
X142240000Y-149555200D02*
X145338800Y-149555200D01*
X140563600Y-151231600D02*
X142240000Y-149555200D01*
X135026400Y-150520400D02*
X137312400Y-150520400D01*
X129489200Y-144830800D02*
X129489200Y-144983200D01*
X129082800Y-144424400D02*
X129489200Y-144830800D01*
X127863600Y-142494000D02*
X129082800Y-143713200D01*
X127863600Y-141884400D02*
X127863600Y-142494000D01*
X129082800Y-143713200D02*
X129082800Y-144424400D01*
X126644400Y-139954000D02*
X127203200Y-140512800D01*
X127203200Y-141224000D02*
X127863600Y-141884400D01*
X126644400Y-139039600D02*
X126644400Y-139954000D01*
X126136400Y-137871200D02*
X126136400Y-138531600D01*
X126136400Y-138531600D02*
X126644400Y-139039600D01*
X125690000Y-137424800D02*
X126136400Y-137871200D01*
X125690000Y-130950000D02*
X125690000Y-137424800D01*
X129489200Y-144983200D02*
X135026400Y-150520400D01*
X127203200Y-140512800D02*
X127203200Y-141224000D01*
G04 #@! TO.N,PWM_850*
D23*
X158648400Y-120853200D02*
X157734000Y-120853200D01*
X160637600Y-118864000D02*
X158648400Y-120853200D01*
X160637600Y-118457600D02*
X160637600Y-118864000D01*
X160934400Y-118160800D02*
X160637600Y-118457600D01*
X162204400Y-118160800D02*
X160934400Y-118160800D01*
X162814000Y-118770400D02*
X162204400Y-118160800D01*
G04 #@! TO.N,ADC_MOSI*
X172310000Y-125520000D02*
X172310000Y-127400000D01*
X170434000Y-122194093D02*
X170434000Y-123644000D01*
X169109107Y-119176800D02*
X170383200Y-120450893D01*
X170383200Y-122143293D02*
X170434000Y-122194093D01*
X164439600Y-119176800D02*
X169109107Y-119176800D01*
X170383200Y-120450893D02*
X170383200Y-122143293D01*
X162932677Y-120685564D02*
X162932677Y-120683723D01*
X162932677Y-120683723D02*
X164439600Y-119176800D01*
X170434000Y-123644000D02*
X172310000Y-125520000D01*
G04 #@! TO.N,I2C_TEMP_SDA*
X165049200Y-117297200D02*
X165912800Y-116433600D01*
X165049200Y-117703600D02*
X165049200Y-117297200D01*
X160528000Y-121005600D02*
X160985200Y-120548400D01*
X159816800Y-121005600D02*
X160528000Y-121005600D01*
X160985200Y-120548400D02*
X162204400Y-120548400D01*
X162204400Y-120548400D02*
X165049200Y-117703600D01*
G04 #@! TO.N,ADC_MISO*
X163576000Y-122123200D02*
X161594800Y-122123200D01*
X166116000Y-120650000D02*
X165049200Y-120650000D01*
X166319200Y-120446800D02*
X166116000Y-120650000D01*
X168452800Y-120446800D02*
X166319200Y-120446800D01*
X169418000Y-121412000D02*
X168452800Y-120446800D01*
X165049200Y-120650000D02*
X163576000Y-122123200D01*
X171000000Y-125810000D02*
X169418000Y-124228000D01*
X171000000Y-128220000D02*
X171000000Y-125810000D01*
X169418000Y-124228000D02*
X169418000Y-121412000D01*
G04 #@! TO.N,ADC_SCK*
X163474400Y-121412000D02*
X163423600Y-121412000D01*
X164998400Y-119888000D02*
X163474400Y-121412000D01*
X168672000Y-119888000D02*
X164998400Y-119888000D01*
X168930800Y-120146800D02*
X168672000Y-119888000D01*
X168932664Y-120146800D02*
X168930800Y-120146800D01*
X169821200Y-121104000D02*
X169514117Y-120796917D01*
X169821200Y-122005557D02*
X169821200Y-121104000D01*
X169824400Y-123907270D02*
X169824400Y-122008757D01*
X169514117Y-120728253D02*
X168932664Y-120146800D01*
X171640000Y-125722870D02*
X169824400Y-123907270D01*
X171640000Y-127810000D02*
X171640000Y-125722870D01*
X169514117Y-120796917D02*
X169514117Y-120728253D01*
X169824400Y-122008757D02*
X169821200Y-122005557D01*
X139975200Y-124307600D02*
X137271400Y-127011400D01*
X145088893Y-124307600D02*
X139975200Y-124307600D01*
X145182493Y-124401200D02*
X145088893Y-124307600D01*
X145596707Y-124401200D02*
X145182493Y-124401200D01*
X145690307Y-124307600D02*
X145596707Y-124401200D01*
X158496000Y-123037600D02*
X153542400Y-123037600D01*
X153542400Y-123037600D02*
X152272400Y-124307600D01*
X152272400Y-124307600D02*
X145690307Y-124307600D01*
G04 #@! TO.N,/EEG_DRDY*
X168120069Y-128787731D02*
X168120069Y-131239269D01*
X168148000Y-124256800D02*
X168148000Y-127711200D01*
X168148000Y-127711200D02*
X168097200Y-127762000D01*
X168097200Y-127762000D02*
X168097200Y-128764862D01*
X168097200Y-128764862D02*
X168120069Y-128787731D01*
G04 #@! TO.N,/MCU_STIM_EN*
X162814000Y-127203200D02*
X161188400Y-127203200D01*
X161188400Y-127203200D02*
X161010600Y-127381000D01*
X168219037Y-121798163D02*
X162814000Y-127203200D01*
X168219037Y-121497195D02*
X168219037Y-121798163D01*
G04 #@! TO.N,TEMP_ALERT*
X153967264Y-124663200D02*
X164646892Y-124663200D01*
X153418064Y-125212400D02*
X153967264Y-124663200D01*
X151797600Y-125212400D02*
X153418064Y-125212400D01*
X151483200Y-125526800D02*
X151797600Y-125212400D01*
X164646892Y-124663200D02*
X166346646Y-122963446D01*
G04 #@! TO.N,ADC_MISO*
X159613600Y-124104400D02*
X161594800Y-122123200D01*
X154101800Y-124104400D02*
X159613600Y-124104400D01*
X153293800Y-124912400D02*
X154101800Y-124104400D01*
X150291800Y-125653800D02*
X151033200Y-124912400D01*
X150291800Y-126212600D02*
X150291800Y-125653800D01*
X141670000Y-126950000D02*
X149554400Y-126950000D01*
X140338600Y-128281400D02*
X141670000Y-126950000D01*
X135971400Y-128281400D02*
X140338600Y-128281400D01*
X151033200Y-124912400D02*
X153293800Y-124912400D01*
X149554400Y-126950000D02*
X150291800Y-126212600D01*
G04 #@! TO.N,I2C_TEMP_SCL*
X158292800Y-125272800D02*
X162610800Y-125272800D01*
X152196800Y-126187200D02*
X157378400Y-126187200D01*
X157378400Y-126187200D02*
X158292800Y-125272800D01*
G04 #@! TO.N,ADC_CS_N*
X158140000Y-127610000D02*
X149970000Y-127610000D01*
X159617507Y-126089507D02*
X159617507Y-126132493D01*
X159617507Y-126132493D02*
X158140000Y-127610000D01*
X159613600Y-126085600D02*
X159617507Y-126089507D01*
G04 #@! TO.N,GND*
X139649200Y-139090400D02*
X139598400Y-139039600D01*
X139649200Y-140208000D02*
X139649200Y-139090400D01*
X146972000Y-135643600D02*
X146558000Y-135229600D01*
X147271600Y-135643600D02*
X146972000Y-135643600D01*
G04 #@! TO.N,/PD_ADC/PHOTO_TIA_IN*
X146966800Y-137718800D02*
X147271600Y-138023600D01*
X146507200Y-137718800D02*
X146966800Y-137718800D01*
G04 #@! TO.N,ADC_MOSI*
X143990000Y-126520000D02*
X141370000Y-126520000D01*
X144526000Y-125984000D02*
X143990000Y-126520000D01*
X148336000Y-124764800D02*
X147116800Y-125984000D01*
X149919693Y-124607600D02*
X149762493Y-124764800D01*
X141370000Y-126520000D02*
X140153600Y-127736400D01*
X150324307Y-124607600D02*
X149919693Y-124607600D01*
X150329107Y-124612400D02*
X150324307Y-124607600D01*
X153111200Y-124612400D02*
X150329107Y-124612400D01*
X154076400Y-123647200D02*
X153111200Y-124612400D01*
X159918400Y-122986800D02*
X159258000Y-123647200D01*
X159258000Y-123647200D02*
X154076400Y-123647200D01*
X149762493Y-124764800D02*
X148336000Y-124764800D01*
X159918400Y-122834400D02*
X159918400Y-122986800D01*
X161036000Y-121666000D02*
X161036000Y-121716800D01*
X140153600Y-127736400D02*
X136621400Y-127736400D01*
X161036000Y-121716800D02*
X159918400Y-122834400D01*
X147116800Y-125984000D02*
X144526000Y-125984000D01*
G04 #@! TO.N,ADC_CS_N*
X140350000Y-129100000D02*
X139800000Y-129100000D01*
X149920400Y-127609600D02*
X141840400Y-127609600D01*
X141840400Y-127609600D02*
X140350000Y-129100000D01*
G04 #@! TO.N,ADC_DRDY_N*
X165404800Y-114394017D02*
X165404800Y-114300000D01*
X162501617Y-117297200D02*
X165404800Y-114394017D01*
X161696400Y-117297200D02*
X162501617Y-117297200D01*
X161645600Y-117348000D02*
X161696400Y-117297200D01*
X160121600Y-117348000D02*
X161645600Y-117348000D01*
X159138136Y-118331464D02*
X160121600Y-117348000D01*
X138394000Y-124750000D02*
X140454000Y-122690000D01*
X140454000Y-122690000D02*
X153434264Y-122690000D01*
X137292893Y-124750000D02*
X138394000Y-124750000D01*
X153434264Y-122690000D02*
X157792800Y-118331464D01*
X134264400Y-127778493D02*
X137292893Y-124750000D01*
X134264400Y-128270000D02*
X134264400Y-127778493D01*
X157792800Y-118331464D02*
X159138136Y-118331464D01*
G04 #@! TO.N,/EEG_DRDY*
X168120069Y-131239269D02*
X168120069Y-131044931D01*
G04 #@! TO.N,GND*
X152196800Y-129794000D02*
X153479000Y-129794000D01*
X145586200Y-129830000D02*
X145335000Y-130081200D01*
X144051200Y-130081200D02*
X143780000Y-129810000D01*
X153479000Y-129794000D02*
X153765000Y-130080000D01*
X152196800Y-130403600D02*
X153441400Y-130403600D01*
X154088600Y-130403600D02*
X153765000Y-130080000D01*
X155295600Y-129794000D02*
X154051000Y-129794000D01*
X145723800Y-130470000D02*
X145335000Y-130081200D01*
X145335000Y-130081200D02*
X144051200Y-130081200D01*
X146890000Y-130470000D02*
X145723800Y-130470000D01*
X155295600Y-130403600D02*
X154088600Y-130403600D01*
X154051000Y-129794000D02*
X153765000Y-130080000D01*
X144961800Y-130454400D02*
X143754631Y-130454400D01*
X146900000Y-129830000D02*
X145586200Y-129830000D01*
X153441400Y-130403600D02*
X153765000Y-130080000D01*
X145335000Y-130081200D02*
X144961800Y-130454400D01*
X143754631Y-130454400D02*
X143754631Y-130509542D01*
G04 #@! TO.N,/PD_ADC/ADC_PHOTO_P*
X135280400Y-139496800D02*
X135077200Y-139293600D01*
X135077200Y-139293600D02*
X135077200Y-138785600D01*
X135280400Y-139598400D02*
X135280400Y-139496800D01*
G04 #@! TO.N,VBAT_SYSTEM*
X142321200Y-128981200D02*
X142320000Y-128980000D01*
D24*
X153765000Y-128980000D02*
X145336200Y-128980000D01*
X145335000Y-128981200D02*
X142321200Y-128981200D01*
D23*
X145336200Y-128980000D02*
X145335000Y-128981200D01*
G04 #@! TO.N,Net-(IC2-IN2N)*
X162950000Y-141310000D02*
X161330000Y-142930000D01*
X161209600Y-142930000D02*
X159258000Y-144881600D01*
X161330000Y-142930000D02*
X161209600Y-142930000D01*
X162950000Y-140480000D02*
X162950000Y-141310000D01*
X164200000Y-136590000D02*
X162410000Y-138380000D01*
X162410000Y-139940000D02*
X162950000Y-140480000D01*
X162410000Y-138380000D02*
X162410000Y-139940000D01*
G04 #@! TO.N,/LED/LED730_K*
D24*
X140594000Y-129794000D02*
X142000000Y-131200000D01*
X142000000Y-131200000D02*
X145316200Y-131200000D01*
X145316200Y-131200000D02*
X145335000Y-131181200D01*
X132956000Y-129794000D02*
X140594000Y-129794000D01*
X132280000Y-130470000D02*
X132956000Y-129794000D01*
G04 #@! TO.N,Net-(U4-OUT1)*
D23*
X149301200Y-153111200D02*
X150317200Y-153111200D01*
X150317200Y-153111200D02*
X150368000Y-153162000D01*
X147116800Y-150215600D02*
X147116800Y-150926800D01*
X147116800Y-150926800D02*
X149301200Y-153111200D01*
G04 #@! TO.N,/LED/LED850_K*
D24*
X153850000Y-131265000D02*
X153850000Y-132310000D01*
D23*
X153765000Y-132395000D02*
X153840000Y-132470000D01*
D24*
X153765000Y-131180000D02*
X153850000Y-131265000D01*
X153840000Y-132320000D02*
X153840000Y-132470000D01*
X153850000Y-132310000D02*
X153840000Y-132320000D01*
G04 #@! TO.N,Net-(E_EEG2-Pad1)*
D23*
X127508000Y-136652000D02*
X127508000Y-134670800D01*
X135026400Y-144170400D02*
X127508000Y-136652000D01*
G04 #@! TD*
G04 #@! TA.AperFunction,Conductor*
G04 #@! TO.N,GND*
G36*
X150502466Y-104337075D02*
G01*
X150504931Y-104337123D01*
X150507324Y-104337193D01*
X151507212Y-104376478D01*
X151509572Y-104376594D01*
X151511302Y-104376695D01*
X151511975Y-104376735D01*
X151514356Y-104376897D01*
X152512041Y-104455416D01*
X152514443Y-104455630D01*
X152515838Y-104455767D01*
X152516910Y-104455873D01*
X152519247Y-104456127D01*
X153513014Y-104573747D01*
X153515259Y-104574034D01*
X153517823Y-104574388D01*
X153520170Y-104574737D01*
X154508474Y-104731270D01*
X154510831Y-104731666D01*
X154513298Y-104732107D01*
X154515622Y-104732546D01*
X155497083Y-104927771D01*
X155499400Y-104928255D01*
X155500316Y-104928456D01*
X155501767Y-104928775D01*
X155504133Y-104929318D01*
X156477236Y-105162939D01*
X156479455Y-105163495D01*
X156481918Y-105164138D01*
X156484137Y-105164741D01*
X157165276Y-105356843D01*
X157165275Y-105356843D01*
X157312948Y-105398491D01*
X157447225Y-105436361D01*
X157449520Y-105437032D01*
X157451897Y-105437753D01*
X157454180Y-105438470D01*
X158405865Y-105747691D01*
X158408155Y-105748460D01*
X158410439Y-105749251D01*
X158412686Y-105750055D01*
X159351584Y-106096432D01*
X159353793Y-106097272D01*
X159355948Y-106098116D01*
X159356066Y-106098162D01*
X159358290Y-106099058D01*
X160282776Y-106481993D01*
X160285000Y-106482940D01*
X160287175Y-106483891D01*
X160289403Y-106484891D01*
X160657692Y-106654675D01*
X161198225Y-106903865D01*
X161200307Y-106904850D01*
X161202565Y-106905945D01*
X161204639Y-106906976D01*
X161566809Y-107091510D01*
X162096294Y-107361296D01*
X162098436Y-107362414D01*
X162100589Y-107363566D01*
X162102663Y-107364701D01*
X162671743Y-107683401D01*
X162975797Y-107853679D01*
X162977804Y-107854830D01*
X162979957Y-107856092D01*
X162981999Y-107857316D01*
X163082774Y-107919071D01*
X163349192Y-108082332D01*
X163396067Y-108134144D01*
X163407490Y-108203073D01*
X163379833Y-108267236D01*
X163362232Y-108284592D01*
X159936883Y-111046280D01*
X155397200Y-114706400D01*
X155397198Y-114706401D01*
X155397197Y-114706403D01*
X155397196Y-114706404D01*
X154787599Y-115417599D01*
X155413886Y-116158437D01*
X156967501Y-117996217D01*
X157036486Y-118077819D01*
X157064734Y-118141724D01*
X157053948Y-118210756D01*
X157029471Y-118245554D01*
X153234455Y-122040573D01*
X153206204Y-122061722D01*
X153183116Y-122074330D01*
X153123686Y-122089500D01*
X151011908Y-122089500D01*
X150976968Y-122084476D01*
X150963899Y-122080638D01*
X150905123Y-122042861D01*
X150876100Y-121979304D01*
X150883047Y-121917300D01*
X150886008Y-121909571D01*
X150898687Y-121885067D01*
X150949390Y-121809185D01*
X150949390Y-121809184D01*
X150949394Y-121809179D01*
X150949396Y-121809172D01*
X150950075Y-121808157D01*
X150951714Y-121803577D01*
X150962906Y-121776557D01*
X151009737Y-121663497D01*
X151040500Y-121508842D01*
X151040500Y-121351158D01*
X151040500Y-121351155D01*
X151040500Y-121350971D01*
X151040064Y-121348966D01*
X151033255Y-121314735D01*
X151009738Y-121196506D01*
X151009735Y-121196498D01*
X151000069Y-121173160D01*
X151000069Y-121173159D01*
X150949400Y-121050833D01*
X150949395Y-121050824D01*
X150949390Y-121050814D01*
X150861789Y-120919711D01*
X150861786Y-120919707D01*
X150861781Y-120919701D01*
X150750297Y-120808217D01*
X150750291Y-120808212D01*
X150750290Y-120808211D01*
X150619191Y-120720613D01*
X150619190Y-120720612D01*
X150619185Y-120720609D01*
X150619172Y-120720602D01*
X150619165Y-120720598D01*
X150473502Y-120660264D01*
X150473471Y-120660257D01*
X150318847Y-120629500D01*
X150318845Y-120629500D01*
X150318842Y-120629500D01*
X150161158Y-120629500D01*
X150161155Y-120629500D01*
X150161153Y-120629500D01*
X150006527Y-120660257D01*
X150006496Y-120660264D01*
X149860833Y-120720598D01*
X149860824Y-120720603D01*
X149860807Y-120720613D01*
X149729708Y-120808211D01*
X149729707Y-120808212D01*
X149729701Y-120808217D01*
X149618217Y-120919701D01*
X149618212Y-120919707D01*
X149618211Y-120919708D01*
X149530613Y-121050807D01*
X149530603Y-121050824D01*
X149530598Y-121050833D01*
X149470264Y-121196496D01*
X149470257Y-121196527D01*
X149439500Y-121351150D01*
X149439500Y-121351153D01*
X149439500Y-121508846D01*
X149439500Y-121508848D01*
X149439499Y-121508848D01*
X149470257Y-121663471D01*
X149470264Y-121663502D01*
X149530598Y-121809165D01*
X149530602Y-121809172D01*
X149530609Y-121809185D01*
X149559458Y-121852361D01*
X149579118Y-121881784D01*
X149594349Y-121913621D01*
X149598419Y-121926619D01*
X149599667Y-121996477D01*
X149562948Y-122055920D01*
X149507531Y-122084596D01*
X149499477Y-122086424D01*
X149472031Y-122089500D01*
X140542620Y-122089500D01*
X140542557Y-122089499D01*
X140540653Y-122089499D01*
X140533057Y-122089499D01*
X140374943Y-122089499D01*
X140267586Y-122118265D01*
X140267585Y-122118264D01*
X140222209Y-122130423D01*
X140208077Y-122138582D01*
X140208071Y-122138587D01*
X140172099Y-122159357D01*
X140172095Y-122159360D01*
X140128689Y-122184420D01*
X140128688Y-122184419D01*
X140085290Y-122209475D01*
X140085281Y-122209481D01*
X139973477Y-122321286D01*
X138414777Y-123879985D01*
X138386524Y-123901136D01*
X138374342Y-123907788D01*
X138306069Y-123922640D01*
X138240606Y-123898224D01*
X138239834Y-123897647D01*
X138231783Y-123891619D01*
X138202998Y-123861248D01*
X138121787Y-123739708D01*
X138121786Y-123739707D01*
X138121781Y-123739701D01*
X138010297Y-123628217D01*
X138010291Y-123628212D01*
X138010290Y-123628211D01*
X137879191Y-123540613D01*
X137879190Y-123540612D01*
X137879185Y-123540609D01*
X137879172Y-123540602D01*
X137879165Y-123540598D01*
X137733502Y-123480264D01*
X137733471Y-123480257D01*
X137578847Y-123449500D01*
X137578845Y-123449500D01*
X137578842Y-123449500D01*
X137421158Y-123449500D01*
X137421155Y-123449500D01*
X137421153Y-123449500D01*
X137266527Y-123480257D01*
X137266496Y-123480264D01*
X137120833Y-123540598D01*
X137120827Y-123540602D01*
X137120807Y-123540613D01*
X136989708Y-123628211D01*
X136989707Y-123628212D01*
X136989701Y-123628217D01*
X136888961Y-123728958D01*
X136860708Y-123750109D01*
X136850784Y-123755528D01*
X136782511Y-123770380D01*
X136717046Y-123745964D01*
X136675175Y-123690030D01*
X136675173Y-123690026D01*
X136672489Y-123682828D01*
X136664676Y-123639508D01*
X136664676Y-123585147D01*
X136664240Y-123583142D01*
X136657131Y-123547402D01*
X136650797Y-123515561D01*
X136633913Y-123430679D01*
X136596115Y-123339426D01*
X136590893Y-123326818D01*
X136573573Y-123285003D01*
X136573566Y-123284990D01*
X136485965Y-123153887D01*
X136485962Y-123153883D01*
X136485957Y-123153877D01*
X136374473Y-123042393D01*
X136374467Y-123042388D01*
X136374466Y-123042387D01*
X136243367Y-122954789D01*
X136243366Y-122954788D01*
X136243361Y-122954785D01*
X136243348Y-122954778D01*
X136243341Y-122954774D01*
X136097678Y-122894440D01*
X136097647Y-122894433D01*
X135943023Y-122863676D01*
X135943021Y-122863676D01*
X135943018Y-122863676D01*
X135785334Y-122863676D01*
X135785331Y-122863676D01*
X135785329Y-122863676D01*
X135630703Y-122894433D01*
X135630672Y-122894440D01*
X135485009Y-122954774D01*
X135485000Y-122954779D01*
X135484983Y-122954789D01*
X135353884Y-123042387D01*
X135353883Y-123042388D01*
X135353877Y-123042393D01*
X135242393Y-123153877D01*
X135242388Y-123153883D01*
X135242387Y-123153884D01*
X135154789Y-123284983D01*
X135154779Y-123285000D01*
X135154774Y-123285009D01*
X135094440Y-123430672D01*
X135094433Y-123430703D01*
X135063676Y-123585326D01*
X135063676Y-123585329D01*
X135063676Y-123743022D01*
X135063676Y-123743024D01*
X135063675Y-123743024D01*
X135094433Y-123897647D01*
X135094440Y-123897678D01*
X135154774Y-124043341D01*
X135154779Y-124043350D01*
X135154789Y-124043367D01*
X135242387Y-124174466D01*
X135242388Y-124174467D01*
X135242393Y-124174473D01*
X135353877Y-124285957D01*
X135353883Y-124285962D01*
X135353887Y-124285965D01*
X135484990Y-124373566D01*
X135485003Y-124373573D01*
X135581018Y-124413343D01*
X135630679Y-124433913D01*
X135781149Y-124463843D01*
X135782748Y-124464257D01*
X135785331Y-124464676D01*
X135943020Y-124464676D01*
X135947140Y-124464676D01*
X135954990Y-124462294D01*
X136097673Y-124433913D01*
X136243355Y-124373570D01*
X136374465Y-124285965D01*
X136426952Y-124233478D01*
X136475217Y-124185214D01*
X136503455Y-124164073D01*
X136513923Y-124158357D01*
X136531345Y-124154567D01*
X136536538Y-124151732D01*
X136542437Y-124152154D01*
X136582191Y-124143505D01*
X136647656Y-124167919D01*
X136688862Y-124222100D01*
X136691012Y-124227608D01*
X136699500Y-124272697D01*
X136699500Y-124328841D01*
X136711357Y-124388456D01*
X136712135Y-124432525D01*
X136711900Y-124433967D01*
X136710379Y-124442142D01*
X136710140Y-124444802D01*
X136709426Y-124449204D01*
X136702328Y-124464024D01*
X136690749Y-124497283D01*
X136687064Y-124502907D01*
X136671026Y-124522629D01*
X133895686Y-127297970D01*
X133783881Y-127409774D01*
X133783879Y-127409776D01*
X133749404Y-127469492D01*
X133740968Y-127484104D01*
X133740967Y-127484105D01*
X133714345Y-127530215D01*
X133709584Y-127538461D01*
X133704823Y-127546707D01*
X133696271Y-127578625D01*
X133666265Y-127690609D01*
X133663898Y-127699441D01*
X133663751Y-127700551D01*
X133662606Y-127705064D01*
X133661882Y-127706286D01*
X133658471Y-127718227D01*
X133648200Y-127745514D01*
X133635252Y-127770722D01*
X133555002Y-127890825D01*
X133555000Y-127890829D01*
X133494664Y-128036496D01*
X133494657Y-128036527D01*
X133463900Y-128191150D01*
X133463900Y-128191153D01*
X133463900Y-128348846D01*
X133463900Y-128348848D01*
X133463899Y-128348848D01*
X133494657Y-128503471D01*
X133494664Y-128503502D01*
X133554998Y-128649165D01*
X133555003Y-128649174D01*
X133555013Y-128649191D01*
X133642606Y-128780282D01*
X133642612Y-128780291D01*
X133642616Y-128780296D01*
X133681532Y-128819211D01*
X133702684Y-128847466D01*
X133708104Y-128857392D01*
X133722956Y-128925665D01*
X133698539Y-128991129D01*
X133642606Y-129033001D01*
X133635418Y-129035682D01*
X133592084Y-129043500D01*
X133323334Y-129043500D01*
X133288393Y-129038475D01*
X133273394Y-129034070D01*
X133214626Y-128996303D01*
X133210142Y-128991129D01*
X133205705Y-128986008D01*
X133184856Y-128952258D01*
X133144997Y-128856027D01*
X133144990Y-128856014D01*
X133057389Y-128724911D01*
X133057386Y-128724907D01*
X133057381Y-128724901D01*
X132945897Y-128613417D01*
X132945891Y-128613412D01*
X132945890Y-128613411D01*
X132814791Y-128525813D01*
X132814790Y-128525812D01*
X132814785Y-128525809D01*
X132814772Y-128525802D01*
X132814765Y-128525798D01*
X132669102Y-128465464D01*
X132669071Y-128465457D01*
X132514447Y-128434700D01*
X132514445Y-128434700D01*
X132514442Y-128434700D01*
X132441900Y-128434700D01*
X132406959Y-128429675D01*
X132391960Y-128425270D01*
X132333198Y-128387509D01*
X132329901Y-128383705D01*
X132303877Y-128334761D01*
X132302397Y-128329270D01*
X132300507Y-128321191D01*
X132279728Y-128216731D01*
X132269737Y-128166503D01*
X132238264Y-128090520D01*
X132209397Y-128020827D01*
X132209390Y-128020814D01*
X132121789Y-127889711D01*
X132121786Y-127889707D01*
X132121781Y-127889701D01*
X132010297Y-127778217D01*
X132010291Y-127778212D01*
X132010290Y-127778211D01*
X131879191Y-127690613D01*
X131879190Y-127690612D01*
X131879185Y-127690609D01*
X131879172Y-127690602D01*
X131879165Y-127690598D01*
X131733502Y-127630264D01*
X131733471Y-127630257D01*
X131578847Y-127599500D01*
X131578845Y-127599500D01*
X131578842Y-127599500D01*
X131421158Y-127599500D01*
X131421155Y-127599500D01*
X131421153Y-127599500D01*
X131266527Y-127630257D01*
X131266496Y-127630264D01*
X131120833Y-127690598D01*
X131120824Y-127690603D01*
X131120807Y-127690613D01*
X130989708Y-127778211D01*
X130989707Y-127778212D01*
X130989701Y-127778217D01*
X130878217Y-127889701D01*
X130878212Y-127889707D01*
X130878211Y-127889708D01*
X130790613Y-128020807D01*
X130790603Y-128020824D01*
X130790598Y-128020833D01*
X130730264Y-128166496D01*
X130730257Y-128166527D01*
X130699500Y-128321150D01*
X130699500Y-128321153D01*
X130699500Y-128478846D01*
X130699500Y-128478848D01*
X130699499Y-128478848D01*
X130730257Y-128633471D01*
X130730264Y-128633502D01*
X130790598Y-128779165D01*
X130790603Y-128779174D01*
X130790613Y-128779191D01*
X130878211Y-128910290D01*
X130878212Y-128910291D01*
X130878217Y-128910297D01*
X130989701Y-129021781D01*
X130989707Y-129021786D01*
X130989711Y-129021789D01*
X131120814Y-129109390D01*
X131120827Y-129109397D01*
X131266498Y-129169735D01*
X131266503Y-129169737D01*
X131421153Y-129200499D01*
X131421156Y-129200500D01*
X131496009Y-129200500D01*
X131498335Y-129200587D01*
X131501369Y-129201602D01*
X131528636Y-129205523D01*
X131543634Y-129209927D01*
X131562540Y-129222076D01*
X131564592Y-129222763D01*
X131565640Y-129224068D01*
X131602403Y-129247692D01*
X131605699Y-129251495D01*
X131631722Y-129300438D01*
X131633206Y-129305944D01*
X131635095Y-129314021D01*
X131665857Y-129468671D01*
X131665864Y-129468702D01*
X131726198Y-129614366D01*
X131726203Y-129614376D01*
X131726208Y-129614384D01*
X131726211Y-129614389D01*
X131726212Y-129614390D01*
X131770847Y-129681192D01*
X131786078Y-129713025D01*
X131790750Y-129727945D01*
X131791998Y-129797804D01*
X131791998Y-129797806D01*
X131790054Y-129804892D01*
X131758153Y-129859767D01*
X131658212Y-129959707D01*
X131658209Y-129959711D01*
X131570613Y-130090807D01*
X131570603Y-130090824D01*
X131570598Y-130090833D01*
X131510264Y-130236496D01*
X131510257Y-130236527D01*
X131479500Y-130391150D01*
X131479500Y-130391153D01*
X131479500Y-130548846D01*
X131479500Y-130548848D01*
X131479499Y-130548848D01*
X131510257Y-130703471D01*
X131510264Y-130703502D01*
X131570598Y-130849165D01*
X131570602Y-130849172D01*
X131570606Y-130849180D01*
X131570613Y-130849191D01*
X131658211Y-130980290D01*
X131658212Y-130980291D01*
X131658217Y-130980297D01*
X131769701Y-131091781D01*
X131769707Y-131091786D01*
X131769711Y-131091789D01*
X131900814Y-131179390D01*
X131900827Y-131179397D01*
X132022848Y-131229939D01*
X132046503Y-131239737D01*
X132082656Y-131246928D01*
X132094491Y-131249282D01*
X132127769Y-131261024D01*
X132139839Y-131267338D01*
X132190117Y-131315854D01*
X132206184Y-131383851D01*
X132187269Y-131443321D01*
X132182803Y-131450408D01*
X132172511Y-131464449D01*
X132169421Y-131468096D01*
X132169406Y-131468117D01*
X132081813Y-131599207D01*
X132081803Y-131599224D01*
X132081798Y-131599233D01*
X132021464Y-131744896D01*
X132021457Y-131744927D01*
X131990700Y-131899550D01*
X131990700Y-131899552D01*
X131990700Y-131899553D01*
X131990700Y-132057246D01*
X131990700Y-132057248D01*
X131990699Y-132057248D01*
X132021457Y-132211871D01*
X132021464Y-132211902D01*
X132081798Y-132357565D01*
X132081803Y-132357574D01*
X132081813Y-132357591D01*
X132169409Y-132488687D01*
X132169411Y-132488690D01*
X132169417Y-132488697D01*
X132280901Y-132600181D01*
X132280907Y-132600186D01*
X132280911Y-132600189D01*
X132412014Y-132687790D01*
X132412027Y-132687797D01*
X132489141Y-132719738D01*
X132557703Y-132748137D01*
X132673422Y-132771155D01*
X132704728Y-132777382D01*
X132707452Y-132778104D01*
X132712355Y-132778900D01*
X132870044Y-132778900D01*
X132874164Y-132778900D01*
X132882014Y-132776518D01*
X133024697Y-132748137D01*
X133170379Y-132687794D01*
X133301489Y-132600189D01*
X133412989Y-132488689D01*
X133412990Y-132488688D01*
X133412991Y-132488687D01*
X133500590Y-132357585D01*
X133500590Y-132357584D01*
X133500594Y-132357579D01*
X133560937Y-132211897D01*
X133591700Y-132057242D01*
X133591700Y-131899558D01*
X133591700Y-131899555D01*
X133591699Y-131899553D01*
X133586765Y-131874747D01*
X133560937Y-131744903D01*
X133549176Y-131716510D01*
X133500597Y-131599227D01*
X133500590Y-131599214D01*
X133412989Y-131468111D01*
X133412986Y-131468107D01*
X133412981Y-131468101D01*
X133301497Y-131356617D01*
X133301491Y-131356612D01*
X133301490Y-131356611D01*
X133170391Y-131269013D01*
X133170390Y-131269012D01*
X133170385Y-131269009D01*
X133170372Y-131269002D01*
X133170365Y-131268998D01*
X133024723Y-131208672D01*
X133024709Y-131208667D01*
X133024701Y-131208664D01*
X133024691Y-131208661D01*
X133024689Y-131208660D01*
X133024682Y-131208658D01*
X132976713Y-131199117D01*
X132943429Y-131187375D01*
X132931131Y-131180942D01*
X132880852Y-131132427D01*
X132864782Y-131064459D01*
X132864909Y-131062091D01*
X132888139Y-130996201D01*
X132901056Y-130981021D01*
X132901789Y-130980289D01*
X132989394Y-130849179D01*
X132996161Y-130832840D01*
X133010628Y-130807098D01*
X133015297Y-130800712D01*
X133016404Y-130799761D01*
X133020755Y-130793247D01*
X133022291Y-130791148D01*
X133023702Y-130790066D01*
X133034700Y-130776664D01*
X133217942Y-130593422D01*
X133246199Y-130572271D01*
X133269288Y-130559665D01*
X133328709Y-130544500D01*
X140213940Y-130544500D01*
X140248872Y-130549521D01*
X140274116Y-130556934D01*
X140326862Y-130588230D01*
X141417049Y-131678416D01*
X141483532Y-131744899D01*
X141521581Y-131782949D01*
X141521589Y-131782955D01*
X141644481Y-131865069D01*
X141644485Y-131865071D01*
X141644498Y-131865080D01*
X141644511Y-131865087D01*
X141781082Y-131921656D01*
X141781087Y-131921658D01*
X141781091Y-131921658D01*
X141781092Y-131921659D01*
X141781357Y-131921711D01*
X141781358Y-131921712D01*
X141781382Y-131921717D01*
X141926077Y-131950500D01*
X141926079Y-131950500D01*
X141926082Y-131950500D01*
X143684858Y-131950500D01*
X143706868Y-131952468D01*
X143728373Y-131956348D01*
X143749674Y-131962191D01*
X143795957Y-131979454D01*
X143831312Y-132005921D01*
X143888244Y-132012035D01*
X143888243Y-132012039D01*
X143888258Y-132012036D01*
X143940927Y-132017700D01*
X146736672Y-132017699D01*
X146796283Y-132011291D01*
X146931131Y-131960996D01*
X147046346Y-131874746D01*
X147132596Y-131759531D01*
X147182891Y-131624683D01*
X147189300Y-131565073D01*
X147189299Y-130969328D01*
X147182891Y-130909717D01*
X147179616Y-130900935D01*
X151921100Y-130900935D01*
X151921100Y-131496676D01*
X151921259Y-131498606D01*
X151921485Y-131500254D01*
X151927507Y-131556282D01*
X151943520Y-131599214D01*
X151977802Y-131691128D01*
X151977804Y-131691131D01*
X151977804Y-131691132D01*
X152064050Y-131806342D01*
X152064052Y-131806344D01*
X152064055Y-131806347D01*
X152179264Y-131892593D01*
X152179271Y-131892597D01*
X152197922Y-131899553D01*
X152197926Y-131899556D01*
X152197927Y-131899555D01*
X152314117Y-131942891D01*
X152373727Y-131949300D01*
X152957673Y-131949299D01*
X152992606Y-131954321D01*
X153006217Y-131958318D01*
X153007603Y-131958725D01*
X153066355Y-131996470D01*
X153067542Y-131997839D01*
X153095019Y-132052703D01*
X153096664Y-132060262D01*
X153099500Y-132086630D01*
X153099500Y-132129041D01*
X153097117Y-132153234D01*
X153092444Y-132176725D01*
X153085388Y-132199984D01*
X153070269Y-132236482D01*
X153070263Y-132236500D01*
X153070258Y-132236517D01*
X153039500Y-132391149D01*
X153039500Y-132548848D01*
X153070257Y-132703471D01*
X153070264Y-132703502D01*
X153130598Y-132849165D01*
X153130603Y-132849174D01*
X153130613Y-132849191D01*
X153218211Y-132980290D01*
X153218212Y-132980291D01*
X153218217Y-132980297D01*
X153329701Y-133091781D01*
X153329707Y-133091786D01*
X153329711Y-133091789D01*
X153460814Y-133179390D01*
X153460827Y-133179397D01*
X153581028Y-133229185D01*
X153606503Y-133239737D01*
X153606505Y-133239737D01*
X153606510Y-133239739D01*
X153690279Y-133256401D01*
X153761153Y-133270499D01*
X153761156Y-133270500D01*
X153761158Y-133270500D01*
X153918844Y-133270500D01*
X153918845Y-133270499D01*
X154073497Y-133239737D01*
X154219179Y-133179394D01*
X154350289Y-133091789D01*
X154461789Y-132980289D01*
X154496161Y-132928848D01*
X170299499Y-132928848D01*
X170330257Y-133083471D01*
X170330264Y-133083502D01*
X170390598Y-133229165D01*
X170390603Y-133229174D01*
X170390613Y-133229191D01*
X170478211Y-133360290D01*
X170478212Y-133360291D01*
X170478217Y-133360297D01*
X170589701Y-133471781D01*
X170589707Y-133471786D01*
X170589711Y-133471789D01*
X170720814Y-133559390D01*
X170720827Y-133559397D01*
X170866498Y-133619735D01*
X170866503Y-133619737D01*
X171021153Y-133650499D01*
X171021156Y-133650500D01*
X171021158Y-133650500D01*
X171178844Y-133650500D01*
X171178845Y-133650499D01*
X171333497Y-133619737D01*
X171479179Y-133559394D01*
X171610289Y-133471789D01*
X171721789Y-133360289D01*
X171809394Y-133229179D01*
X171869737Y-133083497D01*
X171900500Y-132928842D01*
X171900500Y-132771158D01*
X171900500Y-132771155D01*
X171900500Y-132770973D01*
X171900065Y-132768971D01*
X171878269Y-132659396D01*
X171875399Y-132644968D01*
X171869737Y-132616503D01*
X171828064Y-132515894D01*
X171809397Y-132470827D01*
X171809390Y-132470814D01*
X171721789Y-132339711D01*
X171721786Y-132339707D01*
X171721781Y-132339701D01*
X171610297Y-132228217D01*
X171610291Y-132228212D01*
X171610290Y-132228211D01*
X171479191Y-132140613D01*
X171479190Y-132140612D01*
X171479185Y-132140609D01*
X171479172Y-132140602D01*
X171479165Y-132140598D01*
X171333502Y-132080264D01*
X171333471Y-132080257D01*
X171178847Y-132049500D01*
X171178845Y-132049500D01*
X171178842Y-132049500D01*
X171021158Y-132049500D01*
X171021155Y-132049500D01*
X171021153Y-132049500D01*
X170866527Y-132080257D01*
X170866496Y-132080264D01*
X170720833Y-132140598D01*
X170720824Y-132140603D01*
X170720807Y-132140613D01*
X170589708Y-132228211D01*
X170589707Y-132228212D01*
X170589701Y-132228217D01*
X170478217Y-132339701D01*
X170478212Y-132339707D01*
X170478211Y-132339708D01*
X170390613Y-132470807D01*
X170390603Y-132470824D01*
X170390598Y-132470833D01*
X170330264Y-132616496D01*
X170330257Y-132616527D01*
X170299500Y-132771150D01*
X170299500Y-132771153D01*
X170299500Y-132928846D01*
X170299500Y-132928848D01*
X170299499Y-132928848D01*
X154496161Y-132928848D01*
X154549394Y-132849179D01*
X154609737Y-132703497D01*
X154640500Y-132548842D01*
X154640500Y-132391158D01*
X154640500Y-132391155D01*
X154640500Y-132390971D01*
X154640064Y-132388966D01*
X154633818Y-132357565D01*
X154617893Y-132277504D01*
X154617924Y-132277148D01*
X154608191Y-132228210D01*
X154604947Y-132211897D01*
X154602882Y-132201513D01*
X154600500Y-132177325D01*
X154600500Y-132091128D01*
X154605523Y-132056192D01*
X154609927Y-132041194D01*
X154647672Y-131982443D01*
X154649041Y-131981256D01*
X154703920Y-131953776D01*
X154711479Y-131952132D01*
X154737832Y-131949299D01*
X155169471Y-131949299D01*
X155169472Y-131949299D01*
X155229083Y-131942891D01*
X155363931Y-131892596D01*
X155392579Y-131871150D01*
X157049500Y-131871150D01*
X157049500Y-132028848D01*
X157080257Y-132183471D01*
X157080264Y-132183502D01*
X157140598Y-132329165D01*
X157140603Y-132329174D01*
X157140613Y-132329191D01*
X157228211Y-132460290D01*
X157228212Y-132460291D01*
X157228217Y-132460297D01*
X157339701Y-132571781D01*
X157339707Y-132571786D01*
X157339711Y-132571789D01*
X157470814Y-132659390D01*
X157470827Y-132659397D01*
X157616498Y-132719735D01*
X157616503Y-132719737D01*
X157759284Y-132748138D01*
X157763533Y-132748983D01*
X157763535Y-132748984D01*
X157766247Y-132749703D01*
X157771155Y-132750500D01*
X157928844Y-132750500D01*
X157932964Y-132750500D01*
X157940814Y-132748118D01*
X158083497Y-132719737D01*
X158229179Y-132659394D01*
X158229181Y-132659392D01*
X158229184Y-132659391D01*
X158317788Y-132600187D01*
X158360289Y-132571789D01*
X158471789Y-132460289D01*
X158559394Y-132329179D01*
X158619737Y-132183497D01*
X158650500Y-132028842D01*
X158650500Y-131871158D01*
X158650500Y-131871155D01*
X158650500Y-131870971D01*
X158650064Y-131868966D01*
X158637608Y-131806346D01*
X158619738Y-131716506D01*
X158619737Y-131716504D01*
X158616021Y-131707531D01*
X158609228Y-131691131D01*
X158579119Y-131618441D01*
X158559400Y-131570833D01*
X158559395Y-131570824D01*
X158559390Y-131570814D01*
X158471789Y-131439711D01*
X158471786Y-131439707D01*
X158471781Y-131439701D01*
X158360297Y-131328217D01*
X158360291Y-131328212D01*
X158360290Y-131328211D01*
X158229191Y-131240613D01*
X158229190Y-131240612D01*
X158229185Y-131240609D01*
X158229172Y-131240602D01*
X158229165Y-131240598D01*
X158083502Y-131180264D01*
X158083471Y-131180257D01*
X157928847Y-131149500D01*
X157928845Y-131149500D01*
X157928842Y-131149500D01*
X157771158Y-131149500D01*
X157771155Y-131149500D01*
X157771153Y-131149500D01*
X157616527Y-131180257D01*
X157616496Y-131180264D01*
X157470833Y-131240598D01*
X157470824Y-131240603D01*
X157470807Y-131240613D01*
X157339708Y-131328211D01*
X157339707Y-131328212D01*
X157339701Y-131328217D01*
X157228217Y-131439701D01*
X157228212Y-131439707D01*
X157228211Y-131439708D01*
X157140613Y-131570807D01*
X157140603Y-131570824D01*
X157140598Y-131570833D01*
X157080264Y-131716496D01*
X157080257Y-131716527D01*
X157049500Y-131871150D01*
X155392579Y-131871150D01*
X155479146Y-131806346D01*
X155565396Y-131691131D01*
X155615691Y-131556283D01*
X155622100Y-131496673D01*
X155622099Y-130900928D01*
X155615691Y-130841317D01*
X155615691Y-130841315D01*
X155601301Y-130802735D01*
X155601301Y-130802734D01*
X155565398Y-130706473D01*
X155565397Y-130706471D01*
X155565392Y-130706463D01*
X155565391Y-130706462D01*
X155516890Y-130641673D01*
X155479148Y-130591256D01*
X155479142Y-130591250D01*
X155379556Y-130516700D01*
X155363935Y-130505006D01*
X155363932Y-130505004D01*
X155363930Y-130505003D01*
X155363928Y-130505002D01*
X155229082Y-130454708D01*
X155229083Y-130454708D01*
X155169483Y-130448301D01*
X155169481Y-130448300D01*
X155169473Y-130448300D01*
X155169465Y-130448300D01*
X155168441Y-130448300D01*
X153951737Y-130448300D01*
X153939576Y-130447702D01*
X153927501Y-130446512D01*
X153915474Y-130444728D01*
X153890231Y-130439707D01*
X153864575Y-130434603D01*
X153838920Y-130429500D01*
X153838919Y-130429500D01*
X153838917Y-130429500D01*
X153691083Y-130429500D01*
X153691079Y-130429500D01*
X153691074Y-130429500D01*
X153614524Y-130444727D01*
X153602496Y-130446512D01*
X153590423Y-130447702D01*
X153578260Y-130448300D01*
X152373723Y-130448300D01*
X152371792Y-130448459D01*
X152370145Y-130448685D01*
X152314116Y-130454708D01*
X152185264Y-130502767D01*
X152179266Y-130505004D01*
X152179265Y-130505005D01*
X152064056Y-130591250D01*
X152064050Y-130591256D01*
X152000155Y-130676610D01*
X151977808Y-130706462D01*
X151977807Y-130706463D01*
X151977801Y-130706471D01*
X151977800Y-130706473D01*
X151934644Y-130822186D01*
X151927509Y-130841315D01*
X151927508Y-130841317D01*
X151921101Y-130900916D01*
X151921101Y-130900923D01*
X151921100Y-130900935D01*
X147179616Y-130900935D01*
X147132596Y-130774869D01*
X147132595Y-130774868D01*
X147132593Y-130774864D01*
X147046347Y-130659655D01*
X147046344Y-130659652D01*
X147046342Y-130659650D01*
X146988416Y-130616286D01*
X146931135Y-130573406D01*
X146931132Y-130573404D01*
X146931130Y-130573403D01*
X146931128Y-130573402D01*
X146796282Y-130523108D01*
X146796283Y-130523108D01*
X146736683Y-130516701D01*
X146736681Y-130516700D01*
X146736673Y-130516700D01*
X146736665Y-130516700D01*
X146735641Y-130516700D01*
X145728780Y-130516700D01*
X145704589Y-130514317D01*
X145681096Y-130509644D01*
X145657834Y-130502588D01*
X145655282Y-130501531D01*
X145624183Y-130488649D01*
X145553921Y-130459545D01*
X145553901Y-130459538D01*
X145553893Y-130459536D01*
X145408922Y-130430700D01*
X145408919Y-130430700D01*
X145408917Y-130430700D01*
X145261082Y-130430700D01*
X145261080Y-130430700D01*
X145261078Y-130430700D01*
X145184528Y-130445927D01*
X145172499Y-130447712D01*
X145160426Y-130448902D01*
X145148263Y-130449500D01*
X142380059Y-130449500D01*
X142345123Y-130444477D01*
X142319881Y-130437065D01*
X142267136Y-130405769D01*
X142140615Y-130279248D01*
X165620299Y-130279248D01*
X165651057Y-130433871D01*
X165651064Y-130433902D01*
X165711398Y-130579565D01*
X165711403Y-130579574D01*
X165711413Y-130579591D01*
X165799011Y-130710690D01*
X165799012Y-130710691D01*
X165799017Y-130710697D01*
X165910501Y-130822181D01*
X165910507Y-130822186D01*
X165910511Y-130822189D01*
X166041614Y-130909790D01*
X166041627Y-130909797D01*
X166185338Y-130969323D01*
X166187303Y-130970137D01*
X166335323Y-130999580D01*
X166336241Y-130999778D01*
X166336643Y-130999996D01*
X166337047Y-131000103D01*
X166341955Y-131000900D01*
X166499644Y-131000900D01*
X166503764Y-131000900D01*
X166511614Y-130998518D01*
X166654297Y-130970137D01*
X166799979Y-130909794D01*
X166931089Y-130822189D01*
X167042589Y-130710689D01*
X167130194Y-130579579D01*
X167133828Y-130570807D01*
X167159162Y-130509644D01*
X167190537Y-130433897D01*
X167221300Y-130279242D01*
X167221300Y-130121558D01*
X167221300Y-130121555D01*
X167221300Y-130121373D01*
X167220865Y-130119372D01*
X167215187Y-130090827D01*
X167191195Y-129970215D01*
X167190783Y-129967803D01*
X167190537Y-129966904D01*
X167143186Y-129852588D01*
X167133861Y-129830074D01*
X167130197Y-129821227D01*
X167130190Y-129821214D01*
X167042589Y-129690111D01*
X167042586Y-129690107D01*
X167042581Y-129690101D01*
X166931097Y-129578617D01*
X166931091Y-129578612D01*
X166931090Y-129578611D01*
X166799991Y-129491013D01*
X166799990Y-129491012D01*
X166799985Y-129491009D01*
X166799972Y-129491002D01*
X166799965Y-129490998D01*
X166654302Y-129430664D01*
X166654271Y-129430657D01*
X166499647Y-129399900D01*
X166499645Y-129399900D01*
X166499642Y-129399900D01*
X166341958Y-129399900D01*
X166341955Y-129399900D01*
X166341953Y-129399900D01*
X166187327Y-129430657D01*
X166187296Y-129430664D01*
X166041633Y-129490998D01*
X166041624Y-129491003D01*
X166041607Y-129491013D01*
X165910508Y-129578611D01*
X165910507Y-129578612D01*
X165910501Y-129578617D01*
X165799017Y-129690101D01*
X165799012Y-129690107D01*
X165799011Y-129690108D01*
X165711413Y-129821207D01*
X165711403Y-129821224D01*
X165711398Y-129821233D01*
X165651064Y-129966896D01*
X165651057Y-129966927D01*
X165620300Y-130121550D01*
X165620300Y-130121553D01*
X165620300Y-130279246D01*
X165620300Y-130279248D01*
X165620299Y-130279248D01*
X142140615Y-130279248D01*
X141655551Y-129794184D01*
X141505815Y-129644447D01*
X141505814Y-129644446D01*
X141180586Y-129319218D01*
X141159433Y-129290960D01*
X141151943Y-129277242D01*
X141137092Y-129208984D01*
X141137221Y-129207175D01*
X141156587Y-129148979D01*
X141160777Y-129142459D01*
X141177401Y-129121831D01*
X141296548Y-129002684D01*
X141324805Y-128981533D01*
X141336758Y-128975007D01*
X141405032Y-128960158D01*
X141470495Y-128984579D01*
X141509431Y-129033347D01*
X141509754Y-129034070D01*
X141512796Y-129040892D01*
X141521159Y-129067193D01*
X141547694Y-129200587D01*
X141550261Y-129213491D01*
X141550264Y-129213501D01*
X141550267Y-129213509D01*
X141550272Y-129213523D01*
X141610598Y-129359165D01*
X141610612Y-129359191D01*
X141683765Y-129468671D01*
X141686850Y-129473288D01*
X141686852Y-129473290D01*
X141698211Y-129490289D01*
X141809711Y-129601789D01*
X141940821Y-129689394D01*
X142052504Y-129735654D01*
X142085445Y-129749299D01*
X142086503Y-129749737D01*
X142241153Y-129780499D01*
X142241156Y-129780500D01*
X142241158Y-129780500D01*
X142398844Y-129780500D01*
X142398845Y-129780499D01*
X142409226Y-129778434D01*
X142409756Y-129778439D01*
X142410820Y-129778116D01*
X142496895Y-129760996D01*
X142549147Y-129750602D01*
X142552931Y-129749990D01*
X142554346Y-129749663D01*
X142559073Y-129747426D01*
X142562965Y-129745814D01*
X142586233Y-129738755D01*
X142609735Y-129734080D01*
X142633918Y-129731700D01*
X143648234Y-129731700D01*
X143683169Y-129736723D01*
X143712505Y-129745337D01*
X143737958Y-129758077D01*
X143738686Y-129756746D01*
X143746466Y-129760993D01*
X143746469Y-129760996D01*
X143793236Y-129778439D01*
X143795955Y-129779453D01*
X143811883Y-129791377D01*
X143828331Y-129791528D01*
X143881317Y-129811291D01*
X143881316Y-129811291D01*
X143888244Y-129812035D01*
X143940927Y-129817700D01*
X146736672Y-129817699D01*
X146796283Y-129811291D01*
X146931131Y-129760996D01*
X146931134Y-129760994D01*
X146938921Y-129756743D01*
X146939487Y-129757779D01*
X146955534Y-129749001D01*
X146984181Y-129738316D01*
X147027511Y-129730500D01*
X152247429Y-129730500D01*
X152269437Y-129732469D01*
X152272315Y-129732988D01*
X152290932Y-129736346D01*
X152312260Y-129742198D01*
X152314117Y-129742891D01*
X152373727Y-129749300D01*
X155169472Y-129749299D01*
X155229083Y-129742891D01*
X155363931Y-129692596D01*
X155479146Y-129606346D01*
X155565396Y-129491131D01*
X155615691Y-129356283D01*
X155622100Y-129296673D01*
X155622099Y-128700928D01*
X155615691Y-128641317D01*
X155614860Y-128639090D01*
X155565397Y-128506471D01*
X155565396Y-128506469D01*
X155525735Y-128453489D01*
X155502971Y-128423080D01*
X155486059Y-128392108D01*
X155481623Y-128380215D01*
X155476638Y-128310523D01*
X155510122Y-128249200D01*
X155567141Y-128216731D01*
X155576468Y-128214351D01*
X155607130Y-128210500D01*
X158051380Y-128210500D01*
X158051443Y-128210501D01*
X158053347Y-128210501D01*
X158060943Y-128210501D01*
X158219054Y-128210501D01*
X158219057Y-128210501D01*
X158371785Y-128169577D01*
X158439094Y-128130716D01*
X158508716Y-128090520D01*
X158620520Y-127978716D01*
X158620520Y-127978715D01*
X158637958Y-127961277D01*
X158637960Y-127961273D01*
X159215797Y-127383435D01*
X159244047Y-127362288D01*
X159256230Y-127355635D01*
X159324504Y-127340785D01*
X159389965Y-127365202D01*
X159389972Y-127365207D01*
X159398786Y-127371806D01*
X159427570Y-127402175D01*
X159478801Y-127478846D01*
X159499814Y-127510294D01*
X159611301Y-127621781D01*
X159611307Y-127621786D01*
X159611311Y-127621789D01*
X159742414Y-127709390D01*
X159742427Y-127709397D01*
X159861848Y-127758862D01*
X159888103Y-127769737D01*
X159930735Y-127778217D01*
X160021557Y-127796283D01*
X160042597Y-127800468D01*
X160042753Y-127800499D01*
X160042756Y-127800500D01*
X160042758Y-127800500D01*
X160200443Y-127800500D01*
X160219103Y-127796787D01*
X160226054Y-127795404D01*
X160237918Y-127795339D01*
X160241202Y-127796283D01*
X160249651Y-127795830D01*
X160265226Y-127797223D01*
X160330244Y-127822803D01*
X160330245Y-127822803D01*
X160340997Y-127831155D01*
X160368030Y-127860190D01*
X160388805Y-127891281D01*
X160388812Y-127891291D01*
X160388817Y-127891297D01*
X160500301Y-128002781D01*
X160500307Y-128002786D01*
X160500311Y-128002789D01*
X160631414Y-128090390D01*
X160631427Y-128090397D01*
X160753965Y-128141153D01*
X160777103Y-128150737D01*
X160926337Y-128180421D01*
X160928543Y-128180945D01*
X160928625Y-128180992D01*
X160931755Y-128181500D01*
X161089444Y-128181500D01*
X161093564Y-128181500D01*
X161101414Y-128179118D01*
X161244097Y-128150737D01*
X161368434Y-128099235D01*
X161389772Y-128090397D01*
X161389772Y-128090396D01*
X161389779Y-128090394D01*
X161520889Y-128002789D01*
X161632389Y-127891289D01*
X161643874Y-127874100D01*
X161644082Y-127873787D01*
X161667766Y-127847380D01*
X161683874Y-127833919D01*
X161738115Y-127807673D01*
X161744696Y-127806303D01*
X161769968Y-127803700D01*
X162725380Y-127803700D01*
X162725443Y-127803701D01*
X162727347Y-127803701D01*
X162734943Y-127803701D01*
X162893054Y-127803701D01*
X162893057Y-127803701D01*
X163045785Y-127762777D01*
X163118501Y-127720794D01*
X163138242Y-127709397D01*
X163179508Y-127685571D01*
X163185008Y-127682612D01*
X163188140Y-127680587D01*
X163213211Y-127666112D01*
X163233328Y-127633107D01*
X163294520Y-127571916D01*
X163294520Y-127571914D01*
X163304724Y-127561711D01*
X163304728Y-127561706D01*
X165294414Y-125572019D01*
X165322657Y-125550875D01*
X165332591Y-125545451D01*
X165400861Y-125530598D01*
X165466326Y-125555012D01*
X165508199Y-125610944D01*
X165509819Y-125615286D01*
X165510882Y-125618136D01*
X165518700Y-125661470D01*
X165518700Y-125707246D01*
X165518700Y-125707248D01*
X165518699Y-125707248D01*
X165549457Y-125861871D01*
X165549464Y-125861902D01*
X165609798Y-126007565D01*
X165609803Y-126007574D01*
X165609813Y-126007591D01*
X165697411Y-126138690D01*
X165697412Y-126138691D01*
X165697417Y-126138697D01*
X165808901Y-126250181D01*
X165808907Y-126250186D01*
X165808911Y-126250189D01*
X165940014Y-126337790D01*
X165940027Y-126337797D01*
X166085698Y-126398135D01*
X166085703Y-126398137D01*
X166240353Y-126428899D01*
X166240356Y-126428900D01*
X166240358Y-126428900D01*
X166398044Y-126428900D01*
X166398045Y-126428899D01*
X166552697Y-126398137D01*
X166698379Y-126337794D01*
X166829489Y-126250189D01*
X166940989Y-126138689D01*
X167028594Y-126007579D01*
X167031458Y-126000666D01*
X167048125Y-125960426D01*
X167088937Y-125861897D01*
X167119700Y-125707242D01*
X167119700Y-125549558D01*
X167119700Y-125549555D01*
X167119700Y-125549373D01*
X167119265Y-125547372D01*
X167116548Y-125533715D01*
X167104414Y-125472712D01*
X167088937Y-125394903D01*
X167064617Y-125336189D01*
X167028597Y-125249227D01*
X167028590Y-125249214D01*
X166940989Y-125118111D01*
X166940986Y-125118107D01*
X166940981Y-125118101D01*
X166829497Y-125006617D01*
X166829491Y-125006612D01*
X166829490Y-125006611D01*
X166698391Y-124919013D01*
X166698390Y-124919012D01*
X166698385Y-124919009D01*
X166698372Y-124919002D01*
X166698365Y-124918998D01*
X166552702Y-124858664D01*
X166552671Y-124858657D01*
X166398047Y-124827900D01*
X166398045Y-124827900D01*
X166398042Y-124827900D01*
X166355727Y-124827900D01*
X166320792Y-124822877D01*
X166309938Y-124819690D01*
X166251160Y-124781916D01*
X166222135Y-124718360D01*
X166232075Y-124649211D01*
X166235265Y-124642224D01*
X166260374Y-124606060D01*
X167325833Y-123540602D01*
X168593215Y-122273219D01*
X168621464Y-122252072D01*
X168631393Y-122246650D01*
X168699665Y-122231799D01*
X168765129Y-122256216D01*
X168807001Y-122312149D01*
X168809682Y-122319337D01*
X168817500Y-122362671D01*
X168817500Y-123491574D01*
X168812475Y-123526516D01*
X168808637Y-123539584D01*
X168770859Y-123598360D01*
X168707301Y-123627381D01*
X168645283Y-123620428D01*
X168637569Y-123617472D01*
X168613060Y-123604789D01*
X168570637Y-123576443D01*
X168527185Y-123547409D01*
X168527172Y-123547402D01*
X168527165Y-123547398D01*
X168381502Y-123487064D01*
X168381471Y-123487057D01*
X168226847Y-123456300D01*
X168226845Y-123456300D01*
X168226842Y-123456300D01*
X168069158Y-123456300D01*
X168069155Y-123456300D01*
X168069153Y-123456300D01*
X167914527Y-123487057D01*
X167914496Y-123487064D01*
X167768833Y-123547398D01*
X167768827Y-123547402D01*
X167768807Y-123547413D01*
X167637708Y-123635011D01*
X167637707Y-123635012D01*
X167637701Y-123635017D01*
X167526217Y-123746501D01*
X167526212Y-123746507D01*
X167526211Y-123746508D01*
X167438613Y-123877607D01*
X167438603Y-123877624D01*
X167438598Y-123877633D01*
X167378264Y-124023296D01*
X167378257Y-124023327D01*
X167347500Y-124177950D01*
X167347500Y-124177953D01*
X167347500Y-124335646D01*
X167347500Y-124335648D01*
X167347499Y-124335648D01*
X167378257Y-124490271D01*
X167378264Y-124490302D01*
X167438598Y-124635965D01*
X167438602Y-124635972D01*
X167438609Y-124635985D01*
X167516697Y-124752850D01*
X167531928Y-124784686D01*
X167541834Y-124816322D01*
X167547500Y-124853375D01*
X167547500Y-127469492D01*
X167545117Y-127493687D01*
X167539299Y-127522931D01*
X167537458Y-127530826D01*
X167529185Y-127561706D01*
X167526450Y-127571913D01*
X167497331Y-127680587D01*
X167496699Y-127682944D01*
X167496699Y-127853400D01*
X167496700Y-127853451D01*
X167496700Y-128676452D01*
X167496699Y-128676526D01*
X167496699Y-128843919D01*
X167509524Y-128891785D01*
X167513239Y-128905647D01*
X167516404Y-128921558D01*
X167518037Y-128933960D01*
X167518508Y-128937533D01*
X167519569Y-128953719D01*
X167519569Y-130641673D01*
X167514545Y-130676610D01*
X167505205Y-130708417D01*
X167489331Y-130742371D01*
X167410682Y-130860076D01*
X167410672Y-130860093D01*
X167410667Y-130860102D01*
X167350333Y-131005765D01*
X167350326Y-131005796D01*
X167319569Y-131160419D01*
X167319569Y-131160422D01*
X167319569Y-131318115D01*
X167319569Y-131318117D01*
X167319568Y-131318117D01*
X167350326Y-131472740D01*
X167350333Y-131472771D01*
X167410667Y-131618434D01*
X167410672Y-131618443D01*
X167410682Y-131618460D01*
X167498280Y-131749559D01*
X167498281Y-131749560D01*
X167498286Y-131749566D01*
X167609770Y-131861050D01*
X167609776Y-131861055D01*
X167609780Y-131861058D01*
X167740883Y-131948659D01*
X167740896Y-131948666D01*
X167886567Y-132009004D01*
X167886572Y-132009006D01*
X167986294Y-132028842D01*
X168033601Y-132038252D01*
X168036323Y-132038973D01*
X168041224Y-132039769D01*
X168198913Y-132039769D01*
X168203033Y-132039769D01*
X168210883Y-132037387D01*
X168353566Y-132009006D01*
X168486904Y-131953776D01*
X168499241Y-131948666D01*
X168499241Y-131948665D01*
X168499248Y-131948663D01*
X168630358Y-131861058D01*
X168741858Y-131749558D01*
X168829463Y-131618448D01*
X168889806Y-131472766D01*
X168920569Y-131318111D01*
X168920569Y-131160427D01*
X168920569Y-131160424D01*
X168920569Y-131160240D01*
X168920133Y-131158235D01*
X168895176Y-131032767D01*
X168893386Y-131023769D01*
X168889806Y-131005772D01*
X168874711Y-130969328D01*
X168874707Y-130969319D01*
X168829469Y-130860102D01*
X168829464Y-130860093D01*
X168829459Y-130860083D01*
X168829448Y-130860066D01*
X168751373Y-130743218D01*
X168736140Y-130711380D01*
X168726234Y-130679743D01*
X168720569Y-130642691D01*
X168720569Y-128879183D01*
X168720570Y-128879132D01*
X168720570Y-128708676D01*
X168720570Y-128708674D01*
X168704026Y-128646931D01*
X168700864Y-128631037D01*
X168698759Y-128615046D01*
X168697700Y-128598871D01*
X168697700Y-128003707D01*
X168700082Y-127979519D01*
X168705897Y-127950281D01*
X168707740Y-127942376D01*
X168716337Y-127910291D01*
X168748500Y-127790257D01*
X168748500Y-127632143D01*
X168748500Y-126164329D01*
X168753523Y-126129393D01*
X168756112Y-126120578D01*
X168757927Y-126114394D01*
X168795672Y-126055644D01*
X168797041Y-126054457D01*
X168851920Y-126026977D01*
X168859479Y-126025333D01*
X168885832Y-126022500D01*
X168891364Y-126022500D01*
X168899214Y-126020118D01*
X169041897Y-125991737D01*
X169158379Y-125943489D01*
X169187572Y-125931397D01*
X169187572Y-125931396D01*
X169187579Y-125931394D01*
X169187583Y-125931390D01*
X169189908Y-125930428D01*
X169189930Y-125930419D01*
X169199191Y-125926583D01*
X169208075Y-125917698D01*
X169318689Y-125843789D01*
X169430189Y-125732289D01*
X169517794Y-125601179D01*
X169517795Y-125601176D01*
X169517797Y-125601173D01*
X169517805Y-125601151D01*
X169518495Y-125599745D01*
X169519466Y-125597142D01*
X169557095Y-125506297D01*
X169564183Y-125489183D01*
X169582191Y-125458829D01*
X169590904Y-125448017D01*
X169648297Y-125408172D01*
X169718111Y-125405679D01*
X169723196Y-125406976D01*
X169780207Y-125439442D01*
X170350573Y-126009808D01*
X170371723Y-126038060D01*
X170384331Y-126061149D01*
X170399500Y-126120578D01*
X170399500Y-127622404D01*
X170394476Y-127657341D01*
X170385136Y-127689148D01*
X170369262Y-127723102D01*
X170290613Y-127840807D01*
X170290603Y-127840824D01*
X170290598Y-127840833D01*
X170230264Y-127986496D01*
X170230257Y-127986527D01*
X170199500Y-128141150D01*
X170199500Y-128141153D01*
X170199500Y-128298846D01*
X170199500Y-128298848D01*
X170199499Y-128298848D01*
X170230257Y-128453471D01*
X170230261Y-128453489D01*
X170230263Y-128453500D01*
X170290598Y-128599165D01*
X170290603Y-128599174D01*
X170290613Y-128599191D01*
X170378211Y-128730290D01*
X170378212Y-128730291D01*
X170378217Y-128730297D01*
X170489701Y-128841781D01*
X170489707Y-128841786D01*
X170489711Y-128841789D01*
X170620814Y-128929390D01*
X170620827Y-128929397D01*
X170766498Y-128989735D01*
X170766503Y-128989737D01*
X170912446Y-129018767D01*
X170913576Y-129018991D01*
X170913602Y-129019005D01*
X170916225Y-129019700D01*
X170921155Y-129020500D01*
X171078844Y-129020500D01*
X171082964Y-129020500D01*
X171090814Y-129018118D01*
X171233497Y-128989737D01*
X171379179Y-128929394D01*
X171510289Y-128841789D01*
X171621789Y-128730289D01*
X171660784Y-128671927D01*
X171684368Y-128645673D01*
X171704551Y-128628806D01*
X171759874Y-128602337D01*
X171873497Y-128579737D01*
X172019179Y-128519394D01*
X172150289Y-128431789D01*
X172261789Y-128320289D01*
X172292001Y-128275074D01*
X172296195Y-128268796D01*
X172319759Y-128242565D01*
X172339954Y-128225688D01*
X172395273Y-128199221D01*
X172463108Y-128185727D01*
X172543497Y-128169737D01*
X172689179Y-128109394D01*
X172820289Y-128021789D01*
X172931789Y-127910289D01*
X173019394Y-127779179D01*
X173019397Y-127779172D01*
X173019865Y-127778045D01*
X173043575Y-127720801D01*
X173052424Y-127699436D01*
X173079737Y-127633497D01*
X173110500Y-127478842D01*
X173110500Y-127321158D01*
X173110500Y-127321155D01*
X173110500Y-127320971D01*
X173110064Y-127318966D01*
X173096206Y-127249297D01*
X173079739Y-127166510D01*
X173079736Y-127166501D01*
X173048149Y-127090242D01*
X173019397Y-127020827D01*
X173019390Y-127020814D01*
X173019379Y-127020797D01*
X172941304Y-126903949D01*
X172926071Y-126872111D01*
X172916165Y-126840474D01*
X172910500Y-126803422D01*
X172910500Y-126324926D01*
X172915521Y-126289999D01*
X172918707Y-126279146D01*
X172956477Y-126220365D01*
X173020031Y-126191336D01*
X173089186Y-126201274D01*
X173096172Y-126204464D01*
X173132342Y-126229577D01*
X174051773Y-127149008D01*
X174072923Y-127177260D01*
X174085531Y-127200349D01*
X174100700Y-127259778D01*
X174100700Y-136130872D01*
X174095676Y-136165809D01*
X174088264Y-136191050D01*
X174056969Y-136243794D01*
X173509485Y-136791277D01*
X173509478Y-136791284D01*
X173509470Y-136791296D01*
X173458932Y-136878835D01*
X173458931Y-136878837D01*
X173430424Y-136928211D01*
X173430423Y-136928215D01*
X173389499Y-137080943D01*
X173389499Y-137080945D01*
X173389499Y-137251400D01*
X173389500Y-137251451D01*
X173389500Y-138518472D01*
X173384476Y-138553409D01*
X173377064Y-138578650D01*
X173345769Y-138631394D01*
X172849081Y-139128081D01*
X172848576Y-139128781D01*
X172847220Y-139131303D01*
X172809475Y-139196682D01*
X172809474Y-139196684D01*
X172770023Y-139265015D01*
X172747483Y-139349134D01*
X172729099Y-139417744D01*
X172729099Y-139588200D01*
X172729100Y-139588251D01*
X172729100Y-139940872D01*
X172724076Y-139975809D01*
X172716664Y-140001050D01*
X172685369Y-140053794D01*
X172442683Y-140296478D01*
X172442681Y-140296482D01*
X172442664Y-140296508D01*
X172437335Y-140305740D01*
X172436150Y-140307794D01*
X172397688Y-140374413D01*
X172371068Y-140420520D01*
X172365826Y-140429600D01*
X172364319Y-140432209D01*
X172363621Y-140433418D01*
X172322699Y-140586143D01*
X172322699Y-140756600D01*
X172322700Y-140756651D01*
X172322700Y-141007672D01*
X172317676Y-141042609D01*
X172310264Y-141067850D01*
X172278969Y-141120594D01*
X169902681Y-143496882D01*
X169902677Y-143496885D01*
X169883195Y-143530631D01*
X169883195Y-143530633D01*
X169874959Y-143544899D01*
X169823623Y-143633815D01*
X169782699Y-143786543D01*
X169782699Y-143786545D01*
X169782699Y-143957000D01*
X169782700Y-143957051D01*
X169782700Y-144055672D01*
X169777676Y-144090609D01*
X169770264Y-144115850D01*
X169738969Y-144168594D01*
X165997576Y-147909986D01*
X165971895Y-147929692D01*
X165944586Y-147945459D01*
X165914681Y-147957846D01*
X165847188Y-147975931D01*
X165847181Y-147975934D01*
X165833415Y-147979623D01*
X165833414Y-147979623D01*
X165833412Y-147979624D01*
X165794298Y-148002207D01*
X165794287Y-148002213D01*
X165696489Y-148058675D01*
X165696486Y-148058677D01*
X165696480Y-148058682D01*
X165650152Y-148105011D01*
X165621895Y-148126164D01*
X165609941Y-148132691D01*
X165541668Y-148147541D01*
X165476204Y-148123122D01*
X165437267Y-148074357D01*
X165433902Y-148066811D01*
X165425539Y-148040517D01*
X165399744Y-147910831D01*
X165323721Y-147727296D01*
X165323720Y-147727295D01*
X165323719Y-147727293D01*
X165323719Y-147727292D01*
X165213351Y-147562116D01*
X165213350Y-147562115D01*
X165213345Y-147562109D01*
X165072889Y-147421653D01*
X165072883Y-147421648D01*
X165072882Y-147421647D01*
X164907704Y-147311278D01*
X164907705Y-147311278D01*
X164907695Y-147311273D01*
X164724170Y-147235256D01*
X164724143Y-147235250D01*
X164529335Y-147196500D01*
X164529333Y-147196500D01*
X164529329Y-147196500D01*
X164330671Y-147196500D01*
X164330666Y-147196500D01*
X164330664Y-147196500D01*
X164135855Y-147235250D01*
X164135828Y-147235256D01*
X163952303Y-147311273D01*
X163952293Y-147311278D01*
X163787116Y-147421647D01*
X163787115Y-147421648D01*
X163787109Y-147421653D01*
X163646653Y-147562109D01*
X163646648Y-147562115D01*
X163646647Y-147562116D01*
X163536278Y-147727293D01*
X163536273Y-147727303D01*
X163460256Y-147910828D01*
X163460250Y-147910855D01*
X163421500Y-148105663D01*
X163421500Y-148105666D01*
X163421500Y-148304333D01*
X163421500Y-148304335D01*
X163421499Y-148304335D01*
X163460250Y-148499143D01*
X163460256Y-148499170D01*
X163536273Y-148682695D01*
X163536276Y-148682701D01*
X163536281Y-148682709D01*
X163536282Y-148682710D01*
X163635461Y-148831140D01*
X163651826Y-148866814D01*
X163653948Y-148874447D01*
X163669680Y-148903255D01*
X163664699Y-148972947D01*
X163622830Y-149028883D01*
X163591854Y-149045799D01*
X163584667Y-149048480D01*
X163541328Y-149056300D01*
X152692796Y-149056300D01*
X152657861Y-149051277D01*
X152626052Y-149041937D01*
X152592098Y-149026063D01*
X152474385Y-148947409D01*
X152474372Y-148947402D01*
X152474365Y-148947398D01*
X152328702Y-148887064D01*
X152328671Y-148887057D01*
X152174047Y-148856300D01*
X152174045Y-148856300D01*
X152174042Y-148856300D01*
X152016358Y-148856300D01*
X152016355Y-148856300D01*
X152016353Y-148856300D01*
X151861727Y-148887057D01*
X151861696Y-148887064D01*
X151716033Y-148947398D01*
X151716024Y-148947403D01*
X151716007Y-148947413D01*
X151584908Y-149035011D01*
X151584907Y-149035012D01*
X151584901Y-149035017D01*
X151473417Y-149146501D01*
X151473412Y-149146507D01*
X151473411Y-149146508D01*
X151385813Y-149277607D01*
X151385803Y-149277624D01*
X151385798Y-149277633D01*
X151325464Y-149423296D01*
X151325461Y-149423310D01*
X151294700Y-149577950D01*
X151294700Y-149577953D01*
X151294700Y-149735646D01*
X151294700Y-149735648D01*
X151294699Y-149735648D01*
X151325457Y-149890271D01*
X151325464Y-149890302D01*
X151385798Y-150035965D01*
X151385803Y-150035974D01*
X151385813Y-150035991D01*
X151473411Y-150167090D01*
X151473412Y-150167091D01*
X151473417Y-150167097D01*
X151584901Y-150278581D01*
X151584907Y-150278586D01*
X151584911Y-150278589D01*
X151716014Y-150366190D01*
X151716027Y-150366197D01*
X151861698Y-150426535D01*
X151861703Y-150426537D01*
X152016353Y-150457299D01*
X152016356Y-150457300D01*
X152016358Y-150457300D01*
X152174044Y-150457300D01*
X152174045Y-150457299D01*
X152328697Y-150426537D01*
X152474379Y-150366194D01*
X152490086Y-150355699D01*
X152591255Y-150288099D01*
X152623085Y-150272871D01*
X152642774Y-150266706D01*
X152654729Y-150262964D01*
X152691778Y-150257300D01*
X164858980Y-150257300D01*
X164859043Y-150257301D01*
X164860947Y-150257301D01*
X164868543Y-150257301D01*
X165026654Y-150257301D01*
X165026657Y-150257301D01*
X165179385Y-150216377D01*
X165236151Y-150183603D01*
X165241176Y-150180702D01*
X165242851Y-150183603D01*
X165293208Y-150164821D01*
X165307994Y-150143734D01*
X165309865Y-150142270D01*
X165316309Y-150137323D01*
X165316316Y-150137320D01*
X165428120Y-150025516D01*
X165428120Y-150025514D01*
X165438324Y-150015311D01*
X165438328Y-150015306D01*
X166287925Y-149165707D01*
X166307185Y-149149975D01*
X166323649Y-149139086D01*
X166359950Y-149122740D01*
X166449385Y-149098777D01*
X166522957Y-149056300D01*
X166586316Y-149019720D01*
X166698120Y-148907916D01*
X166698120Y-148907915D01*
X166715561Y-148890475D01*
X166716304Y-148891218D01*
X166718302Y-148887814D01*
X166780626Y-148856232D01*
X166850131Y-148863359D01*
X166875463Y-148877354D01*
X166949612Y-148930480D01*
X170268472Y-145337697D01*
X170300132Y-145313004D01*
X170305497Y-145310074D01*
X170373770Y-145295226D01*
X170439233Y-145319646D01*
X170481102Y-145375582D01*
X170486083Y-145445274D01*
X170486027Y-145445527D01*
X170485987Y-145445709D01*
X170462257Y-145495860D01*
X169843561Y-146280673D01*
X169842033Y-146282573D01*
X169840481Y-146284464D01*
X169838933Y-146286311D01*
X169253183Y-146972139D01*
X169189090Y-147047182D01*
X169187479Y-147049031D01*
X169185855Y-147050858D01*
X169184232Y-147052648D01*
X168505010Y-147787426D01*
X168503370Y-147789166D01*
X168501703Y-147790901D01*
X168499968Y-147792671D01*
X167792420Y-148500219D01*
X167790650Y-148501954D01*
X167788915Y-148503621D01*
X167787175Y-148505261D01*
X167052397Y-149184483D01*
X167050607Y-149186106D01*
X167048780Y-149187730D01*
X167046939Y-149189333D01*
X166289283Y-149836433D01*
X166286077Y-149839171D01*
X166284213Y-149840732D01*
X166282322Y-149842284D01*
X166280422Y-149843812D01*
X165494618Y-150463289D01*
X165492690Y-150464778D01*
X165490752Y-150466245D01*
X165488797Y-150467695D01*
X164679309Y-151055823D01*
X164677312Y-151057244D01*
X164675307Y-151058641D01*
X164673310Y-151060004D01*
X163841310Y-151615929D01*
X163839279Y-151617257D01*
X163837261Y-151618549D01*
X163835191Y-151619846D01*
X162982042Y-152142656D01*
X162979957Y-152143906D01*
X162977804Y-152145168D01*
X162975688Y-152146380D01*
X162102735Y-152635258D01*
X162100619Y-152636417D01*
X162098446Y-152637579D01*
X162096268Y-152638716D01*
X161204691Y-153092996D01*
X161202518Y-153094076D01*
X161200368Y-153095119D01*
X161198160Y-153096164D01*
X160289434Y-153515093D01*
X160287227Y-153516084D01*
X160285001Y-153517058D01*
X160282747Y-153518018D01*
X159358304Y-153900935D01*
X159356049Y-153901843D01*
X159354763Y-153902346D01*
X159353790Y-153902727D01*
X159351543Y-153903581D01*
X158412737Y-154249925D01*
X158410422Y-154250753D01*
X158408128Y-154251548D01*
X158405842Y-154252315D01*
X157454225Y-154561514D01*
X157451897Y-154562245D01*
X157449533Y-154562962D01*
X157447202Y-154563644D01*
X156484229Y-154835231D01*
X156481901Y-154835864D01*
X156479500Y-154836491D01*
X156477116Y-154837088D01*
X155504170Y-155070671D01*
X155501784Y-155071219D01*
X155499358Y-155071751D01*
X155496988Y-155072246D01*
X154515698Y-155267437D01*
X154513325Y-155267885D01*
X154510841Y-155268329D01*
X154508421Y-155268737D01*
X153520193Y-155425257D01*
X153517750Y-155425619D01*
X153515294Y-155425958D01*
X153512914Y-155426263D01*
X152519294Y-155543866D01*
X152516890Y-155544127D01*
X152515656Y-155544249D01*
X152514447Y-155544368D01*
X152512030Y-155544582D01*
X151514461Y-155623093D01*
X151512022Y-155623260D01*
X151509577Y-155623404D01*
X151507155Y-155623523D01*
X150507385Y-155662804D01*
X150504981Y-155662876D01*
X150504892Y-155662877D01*
X150502478Y-155662925D01*
X150500052Y-155662949D01*
X149499446Y-155662949D01*
X149497018Y-155662925D01*
X149494610Y-155662877D01*
X149494517Y-155662876D01*
X149492112Y-155662804D01*
X148492341Y-155623523D01*
X148489919Y-155623404D01*
X148487474Y-155623260D01*
X148485035Y-155623093D01*
X147487466Y-155544582D01*
X147485049Y-155544368D01*
X147484310Y-155544295D01*
X147482595Y-155544126D01*
X147480202Y-155543866D01*
X146486582Y-155426263D01*
X146484202Y-155425958D01*
X146481746Y-155425619D01*
X146479303Y-155425257D01*
X145491075Y-155268737D01*
X145488655Y-155268329D01*
X145486171Y-155267885D01*
X145483798Y-155267437D01*
X144502508Y-155072246D01*
X144500138Y-155071751D01*
X144497712Y-155071219D01*
X144495326Y-155070671D01*
X143522380Y-154837088D01*
X143519996Y-154836491D01*
X143517595Y-154835864D01*
X143515267Y-154835231D01*
X142552294Y-154563644D01*
X142549963Y-154562962D01*
X142547599Y-154562245D01*
X142545271Y-154561514D01*
X141593654Y-154252315D01*
X141591368Y-154251548D01*
X141590357Y-154251197D01*
X141589052Y-154250745D01*
X141586776Y-154249931D01*
X141105921Y-154072534D01*
X140647953Y-153903581D01*
X140645706Y-153902727D01*
X140643412Y-153901829D01*
X140641192Y-153900935D01*
X140579714Y-153875470D01*
X140078197Y-153667735D01*
X144635099Y-153667735D01*
X144673850Y-153862543D01*
X144673856Y-153862570D01*
X144749873Y-154046095D01*
X144749878Y-154046105D01*
X144860247Y-154211282D01*
X144860248Y-154211283D01*
X144860253Y-154211289D01*
X145000709Y-154351745D01*
X145000715Y-154351750D01*
X145000716Y-154351751D01*
X145165892Y-154462119D01*
X145165895Y-154462120D01*
X145165896Y-154462121D01*
X145349431Y-154538144D01*
X145532276Y-154574514D01*
X145541295Y-154576308D01*
X145543530Y-154576809D01*
X145544268Y-154576900D01*
X145742930Y-154576900D01*
X145747050Y-154576900D01*
X145754899Y-154574518D01*
X145937769Y-154538144D01*
X146121304Y-154462121D01*
X146286481Y-154351753D01*
X146426953Y-154211281D01*
X146518591Y-154074135D01*
X151493099Y-154074135D01*
X151531850Y-154268943D01*
X151531856Y-154268970D01*
X151607873Y-154452495D01*
X151607878Y-154452505D01*
X151718247Y-154617682D01*
X151718248Y-154617683D01*
X151718253Y-154617689D01*
X151858709Y-154758145D01*
X151858715Y-154758150D01*
X151858716Y-154758151D01*
X152023892Y-154868519D01*
X152023895Y-154868520D01*
X152023896Y-154868521D01*
X152207431Y-154944544D01*
X152390276Y-154980914D01*
X152399295Y-154982708D01*
X152401530Y-154983209D01*
X152402268Y-154983300D01*
X152600930Y-154983300D01*
X152605050Y-154983300D01*
X152612899Y-154980918D01*
X152795769Y-154944544D01*
X152979304Y-154868521D01*
X153144481Y-154758153D01*
X153284953Y-154617681D01*
X153395321Y-154452504D01*
X153471344Y-154268969D01*
X153510100Y-154074129D01*
X153510100Y-153875471D01*
X153471344Y-153680631D01*
X153395321Y-153497096D01*
X153395320Y-153497095D01*
X153395319Y-153497093D01*
X153395319Y-153497092D01*
X153284951Y-153331916D01*
X153284950Y-153331915D01*
X153284945Y-153331909D01*
X153144489Y-153191453D01*
X153144483Y-153191448D01*
X153144482Y-153191447D01*
X152979304Y-153081078D01*
X152979305Y-153081078D01*
X152979295Y-153081073D01*
X152795770Y-153005056D01*
X152795743Y-153005050D01*
X152600935Y-152966300D01*
X152600933Y-152966300D01*
X152600929Y-152966300D01*
X152402271Y-152966300D01*
X152402266Y-152966300D01*
X152402264Y-152966300D01*
X152207455Y-153005050D01*
X152207428Y-153005056D01*
X152023903Y-153081073D01*
X152023893Y-153081078D01*
X151858716Y-153191447D01*
X151858715Y-153191448D01*
X151858709Y-153191453D01*
X151718253Y-153331909D01*
X151718248Y-153331915D01*
X151718247Y-153331916D01*
X151607878Y-153497093D01*
X151607873Y-153497103D01*
X151531856Y-153680628D01*
X151531850Y-153680655D01*
X151493100Y-153875463D01*
X151493100Y-153875466D01*
X151493100Y-154074133D01*
X151493100Y-154074135D01*
X151493099Y-154074135D01*
X146518591Y-154074135D01*
X146537321Y-154046104D01*
X146613344Y-153862569D01*
X146652100Y-153667729D01*
X146652100Y-153469071D01*
X146613344Y-153274231D01*
X146537321Y-153090696D01*
X146537320Y-153090695D01*
X146537319Y-153090693D01*
X146537319Y-153090692D01*
X146431167Y-152931826D01*
X146426953Y-152925519D01*
X146426950Y-152925515D01*
X146426949Y-152925514D01*
X146426945Y-152925509D01*
X146286489Y-152785053D01*
X146286483Y-152785048D01*
X146286482Y-152785047D01*
X146121304Y-152674678D01*
X146121305Y-152674678D01*
X146121295Y-152674673D01*
X145937770Y-152598656D01*
X145937743Y-152598650D01*
X145742935Y-152559900D01*
X145742933Y-152559900D01*
X145742929Y-152559900D01*
X145544271Y-152559900D01*
X145544266Y-152559900D01*
X145544264Y-152559900D01*
X145349455Y-152598650D01*
X145349428Y-152598656D01*
X145165903Y-152674673D01*
X145165893Y-152674678D01*
X145000716Y-152785047D01*
X145000715Y-152785048D01*
X145000709Y-152785053D01*
X144860253Y-152925509D01*
X144860248Y-152925515D01*
X144749878Y-153090693D01*
X144749873Y-153090703D01*
X144673856Y-153274228D01*
X144673850Y-153274255D01*
X144635100Y-153469063D01*
X144635100Y-153469066D01*
X144635100Y-153667733D01*
X144635100Y-153667735D01*
X144635099Y-153667735D01*
X140078197Y-153667735D01*
X140015679Y-153641839D01*
X139860448Y-153577540D01*
X139860209Y-153577441D01*
X139860197Y-153577436D01*
X139716749Y-153518018D01*
X139714495Y-153517058D01*
X139712269Y-153516084D01*
X139710062Y-153515093D01*
X139008021Y-153191447D01*
X138801314Y-153096153D01*
X138799128Y-153095119D01*
X138796978Y-153094076D01*
X138794805Y-153092996D01*
X138790277Y-153090689D01*
X137903217Y-152638710D01*
X137901072Y-152637590D01*
X137898862Y-152636409D01*
X137896761Y-152635258D01*
X137727044Y-152540212D01*
X137023807Y-152146379D01*
X137021692Y-152145168D01*
X137019539Y-152143906D01*
X137017454Y-152142656D01*
X136164345Y-151619870D01*
X136162292Y-151618585D01*
X136160167Y-151617225D01*
X136158162Y-151615913D01*
X136105009Y-151580398D01*
X136105005Y-151580395D01*
X135996516Y-151507905D01*
X135955909Y-151462996D01*
X135950646Y-151453093D01*
X135950697Y-151453065D01*
X135944441Y-151445574D01*
X135935759Y-151376246D01*
X135965938Y-151313230D01*
X135993025Y-151290609D01*
X135994062Y-151289968D01*
X135995016Y-151289380D01*
X136060143Y-151270900D01*
X136932340Y-151270900D01*
X136967272Y-151275921D01*
X136992516Y-151283334D01*
X137045262Y-151314630D01*
X137228634Y-151498001D01*
X137347227Y-151616594D01*
X137440649Y-151710016D01*
X137545183Y-151814550D01*
X137545185Y-151814552D01*
X137545188Y-151814554D01*
X137668103Y-151896683D01*
X137668106Y-151896685D01*
X137668108Y-151896686D01*
X137668110Y-151896687D01*
X137704460Y-151911743D01*
X137718265Y-151917461D01*
X137724662Y-151920110D01*
X137724677Y-151920123D01*
X137724680Y-151920118D01*
X137804688Y-151953259D01*
X137850768Y-151962424D01*
X137920838Y-151976363D01*
X137920839Y-151976363D01*
X137935836Y-151979345D01*
X137943980Y-151980965D01*
X137949681Y-151982100D01*
X137949682Y-151982100D01*
X140637520Y-151982100D01*
X140735062Y-151962696D01*
X140782513Y-151953258D01*
X140919095Y-151896684D01*
X140968329Y-151863786D01*
X141042016Y-151814552D01*
X142501943Y-150354622D01*
X142530197Y-150333473D01*
X142553287Y-150320866D01*
X142612710Y-150305700D01*
X145021983Y-150305700D01*
X145046170Y-150308082D01*
X145069662Y-150312754D01*
X145092930Y-150319812D01*
X145105302Y-150324937D01*
X145105309Y-150324938D01*
X145105311Y-150324939D01*
X145252328Y-150354182D01*
X145255052Y-150354904D01*
X145259955Y-150355700D01*
X145417644Y-150355700D01*
X145421764Y-150355700D01*
X145429614Y-150353318D01*
X145572297Y-150324937D01*
X145645905Y-150294448D01*
X146316299Y-150294448D01*
X146347057Y-150449071D01*
X146347064Y-150449102D01*
X146407398Y-150594765D01*
X146407402Y-150594772D01*
X146407409Y-150594785D01*
X146485497Y-150711650D01*
X146500728Y-150743486D01*
X146510634Y-150775122D01*
X146516300Y-150812175D01*
X146516300Y-150838390D01*
X146516299Y-150838464D01*
X146516299Y-150963760D01*
X146510400Y-150983846D01*
X146557223Y-151158586D01*
X146577462Y-151193641D01*
X146577463Y-151193641D01*
X146586158Y-151208701D01*
X146586159Y-151208704D01*
X146586160Y-151208704D01*
X146598222Y-151229596D01*
X146598222Y-151229598D01*
X146636267Y-151295495D01*
X146636277Y-151295511D01*
X146636281Y-151295517D01*
X146636285Y-151295522D01*
X146757114Y-151416351D01*
X146757159Y-151416394D01*
X148815285Y-153474520D01*
X148815306Y-153474542D01*
X148816349Y-153475585D01*
X148820679Y-153479915D01*
X148820680Y-153479916D01*
X148932484Y-153591720D01*
X149019295Y-153641839D01*
X149019297Y-153641841D01*
X149057346Y-153663808D01*
X149057349Y-153663811D01*
X149057350Y-153663811D01*
X149069411Y-153670775D01*
X149069412Y-153670775D01*
X149069415Y-153670777D01*
X149222143Y-153711700D01*
X149380257Y-153711700D01*
X149716430Y-153711700D01*
X149751362Y-153716721D01*
X149776606Y-153724134D01*
X149829351Y-153755429D01*
X149857707Y-153783786D01*
X149857711Y-153783789D01*
X149988814Y-153871390D01*
X149988827Y-153871397D01*
X150134498Y-153931735D01*
X150134503Y-153931737D01*
X150289153Y-153962499D01*
X150289156Y-153962500D01*
X150289158Y-153962500D01*
X150446844Y-153962500D01*
X150446845Y-153962499D01*
X150601497Y-153931737D01*
X150737348Y-153875466D01*
X150747172Y-153871397D01*
X150747172Y-153871396D01*
X150747179Y-153871394D01*
X150878289Y-153783789D01*
X150878292Y-153783786D01*
X150880381Y-153781698D01*
X150989786Y-153672292D01*
X150989789Y-153672289D01*
X151077394Y-153541179D01*
X151137737Y-153395497D01*
X151168500Y-153240842D01*
X151168500Y-153083158D01*
X151168500Y-153083155D01*
X151168500Y-153082973D01*
X151168065Y-153080972D01*
X151152964Y-153005056D01*
X151138393Y-152931804D01*
X151137983Y-152929402D01*
X151137737Y-152928507D01*
X151137737Y-152928503D01*
X151136499Y-152925515D01*
X151077397Y-152782827D01*
X151077390Y-152782814D01*
X150989789Y-152651711D01*
X150989786Y-152651707D01*
X150989781Y-152651701D01*
X150878297Y-152540217D01*
X150878291Y-152540212D01*
X150878290Y-152540211D01*
X150747191Y-152452613D01*
X150747190Y-152452612D01*
X150747185Y-152452609D01*
X150747172Y-152452602D01*
X150747170Y-152452601D01*
X150747165Y-152452598D01*
X150601502Y-152392264D01*
X150601471Y-152392257D01*
X150446847Y-152361500D01*
X150446845Y-152361500D01*
X150446842Y-152361500D01*
X150289158Y-152361500D01*
X150289155Y-152361500D01*
X150289153Y-152361500D01*
X150134527Y-152392257D01*
X150134496Y-152392264D01*
X149988827Y-152452601D01*
X149988822Y-152452604D01*
X149947976Y-152479896D01*
X149916143Y-152495127D01*
X149884506Y-152505034D01*
X149847450Y-152510700D01*
X149619127Y-152510700D01*
X149584191Y-152505677D01*
X149558949Y-152498265D01*
X149506204Y-152466969D01*
X147833782Y-150794547D01*
X147812630Y-150766291D01*
X147805138Y-150752570D01*
X147790287Y-150684297D01*
X147790811Y-150676972D01*
X147811395Y-150616926D01*
X147826194Y-150594779D01*
X147886537Y-150449097D01*
X147917300Y-150294442D01*
X147917300Y-150136758D01*
X147917300Y-150136755D01*
X147917300Y-150136573D01*
X147916865Y-150134571D01*
X147903124Y-150065491D01*
X147891702Y-150008071D01*
X147886537Y-149982103D01*
X147868042Y-149937451D01*
X147826197Y-149836427D01*
X147826190Y-149836414D01*
X147738589Y-149705311D01*
X147738586Y-149705307D01*
X147738581Y-149705301D01*
X147627097Y-149593817D01*
X147627091Y-149593812D01*
X147627090Y-149593811D01*
X147495991Y-149506213D01*
X147495990Y-149506212D01*
X147495985Y-149506209D01*
X147495972Y-149506202D01*
X147495965Y-149506198D01*
X147350302Y-149445864D01*
X147350271Y-149445857D01*
X147195647Y-149415100D01*
X147195645Y-149415100D01*
X147195642Y-149415100D01*
X147037958Y-149415100D01*
X147037955Y-149415100D01*
X147037953Y-149415100D01*
X146883327Y-149445857D01*
X146883296Y-149445864D01*
X146737633Y-149506198D01*
X146737624Y-149506203D01*
X146737607Y-149506213D01*
X146606508Y-149593811D01*
X146606507Y-149593812D01*
X146606501Y-149593817D01*
X146495017Y-149705301D01*
X146495012Y-149705307D01*
X146495011Y-149705308D01*
X146407413Y-149836407D01*
X146407403Y-149836424D01*
X146407398Y-149836433D01*
X146347064Y-149982096D01*
X146347057Y-149982127D01*
X146316300Y-150136750D01*
X146316300Y-150136753D01*
X146316300Y-150294446D01*
X146316300Y-150294448D01*
X146316299Y-150294448D01*
X145645905Y-150294448D01*
X145717979Y-150264594D01*
X145849089Y-150176989D01*
X145894413Y-150131665D01*
X145960588Y-150065491D01*
X145960588Y-150065490D01*
X145963072Y-150061773D01*
X145963073Y-150061771D01*
X145963074Y-150061770D01*
X146048190Y-149934385D01*
X146048190Y-149934384D01*
X146048194Y-149934379D01*
X146108537Y-149788697D01*
X146139300Y-149634042D01*
X146139300Y-149476358D01*
X146139300Y-149476355D01*
X146139300Y-149476171D01*
X146138864Y-149474166D01*
X146128748Y-149423310D01*
X146108539Y-149321710D01*
X146108536Y-149321701D01*
X146105482Y-149314329D01*
X146090275Y-149277614D01*
X146048197Y-149176027D01*
X146048190Y-149176014D01*
X145960589Y-149044911D01*
X145960586Y-149044907D01*
X145960581Y-149044901D01*
X145849097Y-148933417D01*
X145849091Y-148933412D01*
X145849090Y-148933411D01*
X145717991Y-148845813D01*
X145717990Y-148845812D01*
X145717985Y-148845809D01*
X145717972Y-148845802D01*
X145717965Y-148845798D01*
X145572302Y-148785464D01*
X145572271Y-148785457D01*
X145417647Y-148754700D01*
X145417645Y-148754700D01*
X145417642Y-148754700D01*
X145259958Y-148754700D01*
X145259955Y-148754700D01*
X145259950Y-148754700D01*
X145121256Y-148782287D01*
X145121235Y-148782292D01*
X145105311Y-148785460D01*
X145105306Y-148785462D01*
X145105304Y-148785462D01*
X145105303Y-148785463D01*
X145097803Y-148788569D01*
X145097793Y-148788572D01*
X145092918Y-148790592D01*
X145069664Y-148797644D01*
X145046175Y-148802317D01*
X145021985Y-148804700D01*
X142166076Y-148804700D01*
X142137242Y-148810434D01*
X142073295Y-148823150D01*
X142073261Y-148823161D01*
X142021093Y-148833539D01*
X142021083Y-148833542D01*
X141941081Y-148866679D01*
X141941082Y-148866680D01*
X141884506Y-148890115D01*
X141883130Y-148891034D01*
X141883128Y-148891035D01*
X141819706Y-148933413D01*
X141804170Y-148943794D01*
X141798760Y-148947409D01*
X141761579Y-148972251D01*
X140301658Y-150432173D01*
X140273407Y-150453322D01*
X140250319Y-150465930D01*
X140190889Y-150481100D01*
X138403659Y-150481100D01*
X138368723Y-150476077D01*
X138343481Y-150468665D01*
X138290736Y-150437369D01*
X138168504Y-150315137D01*
X137985033Y-150131665D01*
X137795931Y-149942562D01*
X137795930Y-149942561D01*
X137790821Y-149937452D01*
X137790820Y-149937451D01*
X137786231Y-149934385D01*
X137679884Y-149863327D01*
X137679884Y-149863326D01*
X137679881Y-149863325D01*
X137667908Y-149855324D01*
X137667888Y-149855312D01*
X137667886Y-149855311D01*
X137531319Y-149798744D01*
X137531320Y-149798744D01*
X137531317Y-149798743D01*
X137531307Y-149798740D01*
X137531305Y-149798739D01*
X137531300Y-149798738D01*
X137386322Y-149769900D01*
X137386320Y-149769900D01*
X137386318Y-149769900D01*
X135406459Y-149769900D01*
X135371523Y-149764877D01*
X135346281Y-149757465D01*
X135293536Y-149726169D01*
X130257910Y-144690542D01*
X130236760Y-144662290D01*
X130219000Y-144629766D01*
X130213779Y-144617265D01*
X130213187Y-144617511D01*
X130208163Y-144605380D01*
X130208163Y-144605379D01*
X130154290Y-144475317D01*
X130154285Y-144475308D01*
X130154280Y-144475298D01*
X130135707Y-144447502D01*
X130072155Y-144352389D01*
X130072151Y-144352383D01*
X130065889Y-144346122D01*
X129967616Y-144247849D01*
X129882223Y-144162455D01*
X129861073Y-144134201D01*
X129848465Y-144111110D01*
X129833300Y-144051688D01*
X129833300Y-143639276D01*
X129804219Y-143493084D01*
X129802132Y-143488672D01*
X129790675Y-143461013D01*
X129769761Y-143410520D01*
X129747887Y-143357711D01*
X129747880Y-143357698D01*
X129732686Y-143334959D01*
X129665755Y-143234789D01*
X129665751Y-143234783D01*
X129659752Y-143228785D01*
X129561216Y-143130249D01*
X128663026Y-142232058D01*
X128641874Y-142203802D01*
X128629267Y-142180713D01*
X128614100Y-142121288D01*
X128614100Y-141810477D01*
X128604893Y-141764197D01*
X128590993Y-141694318D01*
X128590993Y-141694314D01*
X128585637Y-141667389D01*
X128585343Y-141665786D01*
X128585260Y-141665494D01*
X128585259Y-141665488D01*
X128534019Y-141541785D01*
X128528684Y-141528905D01*
X128472430Y-141444715D01*
X128446554Y-141405988D01*
X128446553Y-141405987D01*
X128446551Y-141405984D01*
X128342016Y-141301449D01*
X128234444Y-141193877D01*
X128119667Y-141079100D01*
X128002626Y-140962058D01*
X127981474Y-140933802D01*
X127968867Y-140910713D01*
X127953700Y-140851288D01*
X127953700Y-140434758D01*
X127951316Y-140426899D01*
X127943775Y-140388984D01*
X127943775Y-140388983D01*
X127924860Y-140293893D01*
X127924859Y-140293892D01*
X127924859Y-140293888D01*
X127889088Y-140207530D01*
X127868284Y-140157305D01*
X127868283Y-140157304D01*
X127868280Y-140157298D01*
X127809318Y-140069056D01*
X127786152Y-140034385D01*
X127786149Y-140034382D01*
X127443826Y-139692058D01*
X127422674Y-139663802D01*
X127410067Y-139640713D01*
X127394900Y-139581288D01*
X127394900Y-138965676D01*
X127365819Y-138819484D01*
X127363728Y-138815063D01*
X127363100Y-138813546D01*
X127309487Y-138684111D01*
X127309480Y-138684098D01*
X127307848Y-138681656D01*
X127227355Y-138561189D01*
X127227349Y-138561181D01*
X127185467Y-138519300D01*
X127023947Y-138357780D01*
X126935824Y-138269656D01*
X126914673Y-138241400D01*
X126902067Y-138218313D01*
X126886900Y-138158888D01*
X126886900Y-137797276D01*
X126857959Y-137651787D01*
X126857281Y-137650412D01*
X126801484Y-137515705D01*
X126758248Y-137450997D01*
X126758248Y-137450996D01*
X126719350Y-137392781D01*
X126719348Y-137392778D01*
X126719347Y-137392777D01*
X126489426Y-137162857D01*
X126468274Y-137134601D01*
X126455667Y-137111512D01*
X126440500Y-137052087D01*
X126440500Y-135315028D01*
X126445521Y-135280101D01*
X126448707Y-135269248D01*
X126486477Y-135210467D01*
X126550031Y-135181438D01*
X126619171Y-135191369D01*
X126621299Y-135192341D01*
X126672910Y-135236252D01*
X126694957Y-135269248D01*
X126724649Y-135313684D01*
X126724653Y-135313689D01*
X126852780Y-135441816D01*
X126867573Y-135459675D01*
X126879009Y-135476459D01*
X126885439Y-135485897D01*
X126885813Y-135486445D01*
X126905819Y-135536913D01*
X126905981Y-135537945D01*
X126907500Y-135557286D01*
X126907500Y-136563590D01*
X126907499Y-136563664D01*
X126907499Y-136688960D01*
X126901601Y-136709046D01*
X126907498Y-136731054D01*
X126920830Y-136780809D01*
X126948423Y-136883785D01*
X126978137Y-136935252D01*
X126978140Y-136935257D01*
X127003921Y-136979911D01*
X127020948Y-137009402D01*
X127025730Y-137017684D01*
X127027480Y-137020716D01*
X127027485Y-137020722D01*
X127148314Y-137141551D01*
X127148359Y-137141594D01*
X129185654Y-139178889D01*
X129206806Y-139207145D01*
X129214298Y-139220866D01*
X129229150Y-139289126D01*
X129229021Y-139290932D01*
X129209653Y-139349134D01*
X129205474Y-139355637D01*
X129188838Y-139376281D01*
X129121421Y-139443697D01*
X129121413Y-139443707D01*
X129121407Y-139443715D01*
X129033813Y-139574807D01*
X129033803Y-139574824D01*
X129033798Y-139574833D01*
X128973464Y-139720496D01*
X128973457Y-139720527D01*
X128942700Y-139875150D01*
X128942700Y-139875153D01*
X128942700Y-140032846D01*
X128942700Y-140032848D01*
X128942699Y-140032848D01*
X128973457Y-140187471D01*
X128973464Y-140187502D01*
X129033798Y-140333165D01*
X129033803Y-140333174D01*
X129033813Y-140333191D01*
X129121411Y-140464290D01*
X129121412Y-140464291D01*
X129121417Y-140464297D01*
X129232901Y-140575781D01*
X129232907Y-140575786D01*
X129232911Y-140575789D01*
X129364014Y-140663390D01*
X129364027Y-140663397D01*
X129434087Y-140692416D01*
X129509703Y-140723737D01*
X129530322Y-140727838D01*
X129539484Y-140731220D01*
X129542875Y-140733741D01*
X129554013Y-140737670D01*
X129583388Y-140753035D01*
X129613595Y-140775230D01*
X133676885Y-144838520D01*
X133676906Y-144838542D01*
X133794084Y-144955720D01*
X133794773Y-144956216D01*
X133797269Y-144957559D01*
X133858824Y-144993098D01*
X133858825Y-144993098D01*
X133866314Y-144997422D01*
X133866321Y-144997425D01*
X133894922Y-145013938D01*
X133894923Y-145013939D01*
X133894925Y-145013939D01*
X133931012Y-145034776D01*
X133931013Y-145034776D01*
X133931014Y-145034776D01*
X133931015Y-145034777D01*
X134083743Y-145075700D01*
X134241857Y-145075700D01*
X136372443Y-145075700D01*
X136407370Y-145080721D01*
X136418223Y-145083907D01*
X136477004Y-145121677D01*
X136506033Y-145185231D01*
X136496094Y-145254390D01*
X136496093Y-145254392D01*
X136492908Y-145261367D01*
X136467792Y-145297542D01*
X136435615Y-145329718D01*
X136435607Y-145329727D01*
X136435604Y-145329732D01*
X136333611Y-145482373D01*
X136333606Y-145482383D01*
X136263356Y-145651986D01*
X136263350Y-145652013D01*
X136227540Y-145832042D01*
X136227540Y-145884627D01*
X136222515Y-145919571D01*
X136218110Y-145934569D01*
X136180349Y-145993328D01*
X136174797Y-145998140D01*
X136117770Y-146026055D01*
X136105812Y-146028432D01*
X136105809Y-146028433D01*
X136105753Y-146028456D01*
X135936195Y-146098687D01*
X135936185Y-146098692D01*
X135783537Y-146200689D01*
X135783536Y-146200690D01*
X135783530Y-146200695D01*
X135653730Y-146330495D01*
X135653725Y-146330501D01*
X135653724Y-146330502D01*
X135551727Y-146483150D01*
X135551722Y-146483160D01*
X135481472Y-146652763D01*
X135481466Y-146652790D01*
X135455816Y-146781741D01*
X135444075Y-146815023D01*
X135428710Y-146844397D01*
X135406515Y-146874604D01*
X135319017Y-146962101D01*
X135319012Y-146962107D01*
X135231413Y-147093207D01*
X135231403Y-147093224D01*
X135231398Y-147093233D01*
X135171064Y-147238896D01*
X135171057Y-147238927D01*
X135140300Y-147393550D01*
X135140300Y-147393553D01*
X135140300Y-147551246D01*
X135140300Y-147551248D01*
X135140299Y-147551248D01*
X135171057Y-147705871D01*
X135171064Y-147705902D01*
X135231398Y-147851565D01*
X135231403Y-147851574D01*
X135231413Y-147851591D01*
X135319011Y-147982690D01*
X135319012Y-147982691D01*
X135319017Y-147982697D01*
X135430501Y-148094181D01*
X135430507Y-148094186D01*
X135430511Y-148094189D01*
X135561614Y-148181790D01*
X135561627Y-148181797D01*
X135707298Y-148242135D01*
X135707303Y-148242137D01*
X135861953Y-148272899D01*
X135861956Y-148272900D01*
X135979529Y-148272900D01*
X135981156Y-148272943D01*
X135983549Y-148273714D01*
X136012817Y-148277923D01*
X136027815Y-148282327D01*
X136045517Y-148293703D01*
X136047652Y-148294392D01*
X136048840Y-148295838D01*
X136086589Y-148320098D01*
X136091401Y-148325651D01*
X136119308Y-148382665D01*
X136136259Y-148467885D01*
X136136260Y-148467890D01*
X136136261Y-148467891D01*
X136136264Y-148467901D01*
X136136267Y-148467909D01*
X136136272Y-148467923D01*
X136196598Y-148613565D01*
X136196603Y-148613574D01*
X136196613Y-148613591D01*
X136284211Y-148744690D01*
X136284212Y-148744691D01*
X136284217Y-148744697D01*
X136395701Y-148856181D01*
X136395707Y-148856186D01*
X136395711Y-148856189D01*
X136526814Y-148943790D01*
X136526827Y-148943797D01*
X136672498Y-149004135D01*
X136672503Y-149004137D01*
X136750844Y-149019720D01*
X136819532Y-149033383D01*
X136822254Y-149034104D01*
X136827155Y-149034900D01*
X136984844Y-149034900D01*
X136988964Y-149034900D01*
X136996814Y-149032518D01*
X137139497Y-149004137D01*
X137276459Y-148947406D01*
X137285172Y-148943797D01*
X137285172Y-148943796D01*
X137285179Y-148943794D01*
X137285181Y-148943792D01*
X137287529Y-148942820D01*
X137287530Y-148942819D01*
X137296787Y-148938985D01*
X137305672Y-148930100D01*
X137359630Y-148894045D01*
X137391456Y-148878819D01*
X137405581Y-148874396D01*
X137475435Y-148873150D01*
X137533003Y-148907829D01*
X137545170Y-148920780D01*
X137557896Y-148936790D01*
X137655267Y-149082515D01*
X137655270Y-149082519D01*
X137655272Y-149082521D01*
X137655274Y-149082524D01*
X137785074Y-149212324D01*
X137785080Y-149212329D01*
X137785081Y-149212330D01*
X137937724Y-149314324D01*
X137937729Y-149314326D01*
X137937731Y-149314327D01*
X137937732Y-149314328D01*
X138107345Y-149384584D01*
X138260761Y-149415100D01*
X138284430Y-149419808D01*
X138286665Y-149420309D01*
X138287403Y-149420400D01*
X138470995Y-149420400D01*
X138475115Y-149420400D01*
X138482964Y-149418018D01*
X138651055Y-149384584D01*
X138820668Y-149314328D01*
X138973316Y-149212332D01*
X139103132Y-149082516D01*
X139205128Y-148929868D01*
X139275384Y-148760255D01*
X139311200Y-148580194D01*
X139311200Y-148396606D01*
X139275384Y-148216545D01*
X139205128Y-148046932D01*
X139205127Y-148046931D01*
X139205124Y-148046925D01*
X139179414Y-148008448D01*
X150024699Y-148008448D01*
X150055457Y-148163071D01*
X150055464Y-148163102D01*
X150115798Y-148308765D01*
X150115803Y-148308774D01*
X150115813Y-148308791D01*
X150203411Y-148439890D01*
X150203412Y-148439891D01*
X150203417Y-148439897D01*
X150314901Y-148551381D01*
X150314907Y-148551386D01*
X150314911Y-148551389D01*
X150446014Y-148638990D01*
X150446027Y-148638997D01*
X150591698Y-148699335D01*
X150591703Y-148699337D01*
X150746353Y-148730099D01*
X150746356Y-148730100D01*
X150746358Y-148730100D01*
X150904044Y-148730100D01*
X150904045Y-148730099D01*
X151058697Y-148699337D01*
X151204379Y-148638994D01*
X151335489Y-148551389D01*
X151446989Y-148439889D01*
X151534594Y-148308779D01*
X151594937Y-148163097D01*
X151625700Y-148008442D01*
X151625700Y-147850758D01*
X151625700Y-147850755D01*
X151625700Y-147850571D01*
X151625264Y-147848566D01*
X151608536Y-147764468D01*
X151601142Y-147727296D01*
X151594937Y-147696103D01*
X151581005Y-147662468D01*
X151581002Y-147662461D01*
X151539440Y-147562119D01*
X151534597Y-147550427D01*
X151534590Y-147550414D01*
X151446989Y-147419311D01*
X151446986Y-147419307D01*
X151446981Y-147419301D01*
X151335497Y-147307817D01*
X151335491Y-147307812D01*
X151335490Y-147307811D01*
X151204391Y-147220213D01*
X151204390Y-147220212D01*
X151204385Y-147220209D01*
X151204372Y-147220202D01*
X151204365Y-147220198D01*
X151058702Y-147159864D01*
X151058671Y-147159857D01*
X150904047Y-147129100D01*
X150904045Y-147129100D01*
X150904042Y-147129100D01*
X150746358Y-147129100D01*
X150746355Y-147129100D01*
X150746353Y-147129100D01*
X150591727Y-147159857D01*
X150591696Y-147159864D01*
X150446033Y-147220198D01*
X150446024Y-147220203D01*
X150446007Y-147220213D01*
X150314908Y-147307811D01*
X150314907Y-147307812D01*
X150314901Y-147307817D01*
X150203417Y-147419301D01*
X150203412Y-147419307D01*
X150203411Y-147419308D01*
X150115813Y-147550407D01*
X150115803Y-147550424D01*
X150115798Y-147550433D01*
X150055464Y-147696096D01*
X150055457Y-147696127D01*
X150024700Y-147850750D01*
X150024700Y-147850753D01*
X150024700Y-148008446D01*
X150024700Y-148008448D01*
X150024699Y-148008448D01*
X139179414Y-148008448D01*
X139116010Y-147913557D01*
X139116009Y-147913555D01*
X139103135Y-147894288D01*
X139103129Y-147894280D01*
X139103124Y-147894274D01*
X138973324Y-147764474D01*
X138973317Y-147764468D01*
X138917674Y-147727289D01*
X138820674Y-147662475D01*
X138820662Y-147662468D01*
X138820660Y-147662467D01*
X138820648Y-147662461D01*
X138795489Y-147652041D01*
X138765137Y-147634034D01*
X138754536Y-147625492D01*
X138714685Y-147568102D01*
X138712188Y-147498277D01*
X138742348Y-147443627D01*
X138775635Y-147408514D01*
X138777907Y-147406180D01*
X138884243Y-147299845D01*
X138986239Y-147147197D01*
X139056495Y-146977584D01*
X139064851Y-146935568D01*
X139076589Y-146902295D01*
X139088784Y-146878980D01*
X139129773Y-146833352D01*
X139143489Y-146824189D01*
X139143491Y-146824187D01*
X139143492Y-146824187D01*
X139254986Y-146712692D01*
X139254989Y-146712689D01*
X139342594Y-146581579D01*
X139402937Y-146435897D01*
X139433700Y-146281242D01*
X139433700Y-146123558D01*
X139433700Y-146123555D01*
X139433700Y-146123373D01*
X139433265Y-146121371D01*
X139414779Y-146028436D01*
X139402937Y-145968903D01*
X139402935Y-145968898D01*
X139342597Y-145823227D01*
X139342590Y-145823214D01*
X139254989Y-145692111D01*
X139254986Y-145692107D01*
X139254981Y-145692101D01*
X139143497Y-145580617D01*
X139143491Y-145580612D01*
X139143490Y-145580611D01*
X139012391Y-145493013D01*
X139012390Y-145493012D01*
X139012385Y-145493009D01*
X139012372Y-145493002D01*
X139012365Y-145492998D01*
X138866702Y-145432664D01*
X138866671Y-145432657D01*
X138712047Y-145401900D01*
X138712045Y-145401900D01*
X138712042Y-145401900D01*
X138554358Y-145401900D01*
X138554353Y-145401900D01*
X138554351Y-145401900D01*
X138548289Y-145402497D01*
X138548182Y-145401418D01*
X138524751Y-145402664D01*
X138515490Y-145401835D01*
X138509183Y-145401271D01*
X138444193Y-145375706D01*
X138443983Y-145375543D01*
X138441358Y-145373504D01*
X138405082Y-145328084D01*
X138404225Y-145326251D01*
X138394937Y-145297926D01*
X138386937Y-145257703D01*
X138386933Y-145257694D01*
X138385168Y-145251874D01*
X138385949Y-145251637D01*
X138377791Y-145207955D01*
X138377806Y-145207305D01*
X138377924Y-145203975D01*
X138377891Y-145203676D01*
X138377987Y-145199640D01*
X138387534Y-145169749D01*
X138395277Y-145139346D01*
X138398080Y-145136733D01*
X138399246Y-145133083D01*
X138423433Y-145113102D01*
X138440846Y-145096872D01*
X138439915Y-145095303D01*
X138443697Y-145093059D01*
X138445456Y-145092576D01*
X138446388Y-145091708D01*
X138446499Y-145091653D01*
X138447735Y-145091035D01*
X138448137Y-145091840D01*
X138449687Y-145091415D01*
X138453114Y-145088585D01*
X138465346Y-145087119D01*
X138506971Y-145075700D01*
X146138473Y-145075700D01*
X146173405Y-145080721D01*
X146198649Y-145088134D01*
X146251395Y-145119430D01*
X146376885Y-145244920D01*
X146376906Y-145244942D01*
X146494087Y-145362123D01*
X146494769Y-145362614D01*
X146497275Y-145363963D01*
X146569763Y-145405813D01*
X146610069Y-145429084D01*
X146610068Y-145429084D01*
X146623702Y-145436954D01*
X146631016Y-145441177D01*
X146707296Y-145461616D01*
X146783742Y-145482100D01*
X146783743Y-145482100D01*
X150949670Y-145482100D01*
X150984606Y-145487123D01*
X150999604Y-145491527D01*
X151058355Y-145529272D01*
X151059542Y-145530641D01*
X151087018Y-145585502D01*
X151088663Y-145593060D01*
X151091500Y-145619431D01*
X151091500Y-145722446D01*
X151091500Y-145722448D01*
X151091499Y-145722448D01*
X151122257Y-145877071D01*
X151122264Y-145877102D01*
X151182598Y-146022765D01*
X151182603Y-146022774D01*
X151182613Y-146022791D01*
X151270211Y-146153890D01*
X151270212Y-146153891D01*
X151270217Y-146153897D01*
X151381701Y-146265381D01*
X151381707Y-146265386D01*
X151381711Y-146265389D01*
X151512814Y-146352990D01*
X151512827Y-146352997D01*
X151658498Y-146413335D01*
X151658503Y-146413337D01*
X151796359Y-146440758D01*
X151829642Y-146452500D01*
X151859019Y-146467867D01*
X151889225Y-146490061D01*
X152082136Y-146682972D01*
X152082652Y-146683352D01*
X152085275Y-146684763D01*
X152219009Y-146761973D01*
X152219016Y-146761977D01*
X152371743Y-146802901D01*
X152371745Y-146802901D01*
X152537454Y-146802901D01*
X152539358Y-146802901D01*
X152539421Y-146802900D01*
X157949204Y-146802900D01*
X157984136Y-146807921D01*
X158015950Y-146817263D01*
X158049898Y-146833135D01*
X158167614Y-146911790D01*
X158167627Y-146911797D01*
X158289088Y-146962107D01*
X158313303Y-146972137D01*
X158313310Y-146972138D01*
X158313310Y-146972139D01*
X158397079Y-146988801D01*
X158467953Y-147002899D01*
X158467956Y-147002900D01*
X158467958Y-147002900D01*
X158625644Y-147002900D01*
X158625645Y-147002899D01*
X158780297Y-146972137D01*
X158925979Y-146911794D01*
X159057089Y-146824189D01*
X159168589Y-146712689D01*
X159256194Y-146581579D01*
X159316537Y-146435897D01*
X159347300Y-146281242D01*
X159347300Y-146123558D01*
X159347300Y-146123555D01*
X159347300Y-146123373D01*
X159346865Y-146121371D01*
X159328379Y-146028436D01*
X159316538Y-145968909D01*
X159316537Y-145968905D01*
X159316537Y-145968903D01*
X159272970Y-145863724D01*
X159264242Y-145829524D01*
X159262759Y-145815725D01*
X159275167Y-145746966D01*
X159322769Y-145695837D01*
X159332246Y-145690214D01*
X159371318Y-145675242D01*
X159491497Y-145651337D01*
X159622981Y-145596875D01*
X159637172Y-145590997D01*
X159637172Y-145590996D01*
X159637179Y-145590994D01*
X159768289Y-145503389D01*
X159879789Y-145391889D01*
X159967394Y-145260779D01*
X160027737Y-145115097D01*
X160052004Y-144993098D01*
X160055160Y-144977230D01*
X160055162Y-144977227D01*
X160066901Y-144943954D01*
X160082268Y-144914577D01*
X160104459Y-144884374D01*
X161444298Y-143544534D01*
X161462956Y-143529202D01*
X161478592Y-143518728D01*
X161515511Y-143501975D01*
X161561785Y-143489577D01*
X161611904Y-143460639D01*
X161698716Y-143410520D01*
X161810520Y-143298716D01*
X161810520Y-143298715D01*
X161827960Y-143281275D01*
X161827961Y-143281273D01*
X163301274Y-141807960D01*
X163301277Y-141807958D01*
X163318715Y-141790520D01*
X163318716Y-141790520D01*
X163430520Y-141678716D01*
X163500569Y-141557387D01*
X163500570Y-141557386D01*
X163504224Y-141551055D01*
X163509577Y-141541785D01*
X163550501Y-141389057D01*
X163550501Y-141230943D01*
X163550501Y-141223348D01*
X163550501Y-141221664D01*
X163550500Y-141221590D01*
X163550500Y-140400944D01*
X163550498Y-140400932D01*
X163550497Y-140400928D01*
X163545150Y-140380975D01*
X163543763Y-140375798D01*
X163543392Y-140374413D01*
X163509577Y-140248215D01*
X163474524Y-140187502D01*
X163470169Y-140179958D01*
X163432359Y-140114469D01*
X163431016Y-140111973D01*
X163430520Y-140111284D01*
X163313363Y-139994127D01*
X163313320Y-139994085D01*
X163059426Y-139740191D01*
X163038274Y-139711935D01*
X163025667Y-139688846D01*
X163010500Y-139629421D01*
X163010500Y-138697926D01*
X163015522Y-138662993D01*
X163016756Y-138658790D01*
X163022934Y-138637748D01*
X163054228Y-138585006D01*
X163627953Y-138011282D01*
X164202057Y-137437176D01*
X164230307Y-137416029D01*
X164259403Y-137400141D01*
X164294635Y-137387358D01*
X164336085Y-137379113D01*
X164433497Y-137359737D01*
X164566118Y-137304804D01*
X164572627Y-137302107D01*
X164575413Y-137301137D01*
X164576850Y-137300472D01*
X164581518Y-137298425D01*
X164590790Y-137294584D01*
X164599675Y-137285698D01*
X164710289Y-137211789D01*
X164821789Y-137100289D01*
X164909394Y-136969179D01*
X164969737Y-136823497D01*
X165000500Y-136668842D01*
X165000500Y-136511158D01*
X165000500Y-136511155D01*
X165000500Y-136510971D01*
X165000064Y-136508966D01*
X164982188Y-136419098D01*
X164969737Y-136356503D01*
X164946864Y-136301282D01*
X164909397Y-136210827D01*
X164909390Y-136210814D01*
X164821789Y-136079711D01*
X164821786Y-136079707D01*
X164821781Y-136079701D01*
X164710297Y-135968217D01*
X164710291Y-135968212D01*
X164710290Y-135968211D01*
X164579191Y-135880613D01*
X164579190Y-135880612D01*
X164579185Y-135880609D01*
X164579172Y-135880602D01*
X164579165Y-135880598D01*
X164433502Y-135820264D01*
X164433471Y-135820257D01*
X164278847Y-135789500D01*
X164278845Y-135789500D01*
X164278842Y-135789500D01*
X164121158Y-135789500D01*
X164121155Y-135789500D01*
X164121153Y-135789500D01*
X163966527Y-135820257D01*
X163966496Y-135820264D01*
X163820833Y-135880598D01*
X163820824Y-135880603D01*
X163820807Y-135880613D01*
X163689708Y-135968211D01*
X163689707Y-135968212D01*
X163689701Y-135968217D01*
X163578217Y-136079701D01*
X163578212Y-136079707D01*
X163578211Y-136079708D01*
X163490613Y-136210807D01*
X163490603Y-136210824D01*
X163490598Y-136210833D01*
X163430272Y-136356475D01*
X163430264Y-136356499D01*
X163430259Y-136356515D01*
X163402839Y-136494362D01*
X163391098Y-136527644D01*
X163375733Y-136557018D01*
X163353538Y-136587225D01*
X161929481Y-138011281D01*
X161928978Y-138011979D01*
X161927624Y-138014497D01*
X161904876Y-138053901D01*
X161895427Y-138070267D01*
X161886101Y-138086419D01*
X161883490Y-138090942D01*
X161883489Y-138090944D01*
X161879436Y-138097965D01*
X161879428Y-138097978D01*
X161879426Y-138097980D01*
X161879420Y-138097991D01*
X161858585Y-138134075D01*
X161856614Y-138136644D01*
X161850187Y-138148652D01*
X161849390Y-138152066D01*
X161809499Y-138300943D01*
X161809499Y-138471400D01*
X161809500Y-138471451D01*
X161809500Y-139853330D01*
X161809499Y-139853348D01*
X161809499Y-139940872D01*
X161809499Y-139976962D01*
X161803601Y-139997047D01*
X161809498Y-140019054D01*
X161811290Y-140025741D01*
X161846541Y-140157298D01*
X161847581Y-140161180D01*
X161850423Y-140171786D01*
X161850424Y-140171787D01*
X161859497Y-140187502D01*
X161862734Y-140193107D01*
X161862742Y-140193122D01*
X161929476Y-140308711D01*
X161929477Y-140308712D01*
X161929482Y-140308718D01*
X161929488Y-140308725D01*
X162050314Y-140429551D01*
X162050359Y-140429594D01*
X162300573Y-140679808D01*
X162321723Y-140708060D01*
X162334331Y-140731149D01*
X162349500Y-140790578D01*
X162349500Y-140992072D01*
X162344476Y-141027009D01*
X162337064Y-141052250D01*
X162305769Y-141104994D01*
X161098264Y-142312498D01*
X161072586Y-142332202D01*
X161045277Y-142347970D01*
X161015371Y-142360358D01*
X160982467Y-142369175D01*
X160977812Y-142370423D01*
X160977809Y-142370425D01*
X160927696Y-142399359D01*
X160927695Y-142399360D01*
X160884289Y-142424420D01*
X160884288Y-142424419D01*
X160840890Y-142449475D01*
X160840878Y-142449483D01*
X159255946Y-144034417D01*
X159227693Y-144055567D01*
X159198599Y-144071454D01*
X159163363Y-144084240D01*
X159024515Y-144111859D01*
X159024509Y-144111860D01*
X159024508Y-144111861D01*
X159024498Y-144111864D01*
X159024493Y-144111865D01*
X159024475Y-144111872D01*
X158878833Y-144172198D01*
X158878824Y-144172203D01*
X158878807Y-144172213D01*
X158747708Y-144259811D01*
X158747707Y-144259812D01*
X158747701Y-144259817D01*
X158636217Y-144371301D01*
X158636212Y-144371307D01*
X158636211Y-144371308D01*
X158548613Y-144502407D01*
X158548603Y-144502424D01*
X158548598Y-144502433D01*
X158488264Y-144648096D01*
X158488257Y-144648127D01*
X158457500Y-144802750D01*
X158457500Y-144802753D01*
X158457500Y-144960446D01*
X158457500Y-144960448D01*
X158457499Y-144960448D01*
X158488257Y-145115071D01*
X158488264Y-145115102D01*
X158531827Y-145220274D01*
X158540555Y-145254465D01*
X158541626Y-145264427D01*
X158542039Y-145268262D01*
X158529637Y-145337022D01*
X158482029Y-145388162D01*
X158482017Y-145388169D01*
X158472547Y-145393787D01*
X158433472Y-145408758D01*
X158313315Y-145432659D01*
X158313309Y-145432660D01*
X158313308Y-145432661D01*
X158313298Y-145432664D01*
X158313293Y-145432665D01*
X158313275Y-145432672D01*
X158167633Y-145492998D01*
X158167624Y-145493003D01*
X158167597Y-145493019D01*
X158050749Y-145571095D01*
X158018915Y-145586327D01*
X157987278Y-145596234D01*
X157950222Y-145601900D01*
X152819482Y-145601900D01*
X152784541Y-145596875D01*
X152769542Y-145592470D01*
X152710780Y-145554709D01*
X152705968Y-145549157D01*
X152678054Y-145492134D01*
X152677933Y-145491527D01*
X152668820Y-145445709D01*
X152666734Y-145435223D01*
X152661737Y-145410103D01*
X152641864Y-145362124D01*
X152624269Y-145319646D01*
X152601400Y-145264433D01*
X152601397Y-145264427D01*
X152601390Y-145264414D01*
X152598961Y-145260779D01*
X152550165Y-145187750D01*
X152534934Y-145155916D01*
X152530262Y-145140997D01*
X152529012Y-145071140D01*
X152530959Y-145064044D01*
X152562856Y-145009176D01*
X153057011Y-144515023D01*
X153085261Y-144493875D01*
X153108353Y-144481267D01*
X153167778Y-144466100D01*
X154495780Y-144466100D01*
X154495843Y-144466101D01*
X154497747Y-144466101D01*
X154505343Y-144466101D01*
X154663454Y-144466101D01*
X154663457Y-144466101D01*
X154816185Y-144425177D01*
X154816187Y-144425175D01*
X154816189Y-144425175D01*
X154816190Y-144425174D01*
X154816189Y-144425174D01*
X154818817Y-144424470D01*
X154823704Y-144422061D01*
X154823796Y-144422022D01*
X154830322Y-144417014D01*
X154866472Y-144396144D01*
X154866473Y-144396143D01*
X154953116Y-144346120D01*
X155064920Y-144234316D01*
X155064920Y-144234315D01*
X155082358Y-144216877D01*
X155082360Y-144216874D01*
X158305913Y-140993321D01*
X158305916Y-140993320D01*
X158347655Y-140951579D01*
X158356635Y-140943442D01*
X158358643Y-140941793D01*
X158366001Y-140935753D01*
X158375766Y-140928510D01*
X158447489Y-140880589D01*
X158558989Y-140769089D01*
X158646594Y-140637979D01*
X158706937Y-140492297D01*
X158737700Y-140337642D01*
X158737700Y-140179958D01*
X158737700Y-140179955D01*
X158737700Y-140179773D01*
X158737265Y-140177771D01*
X158723524Y-140108691D01*
X158715640Y-140069055D01*
X158706937Y-140025303D01*
X158687169Y-139977579D01*
X158687166Y-139977572D01*
X158646602Y-139879640D01*
X158646599Y-139879633D01*
X158646597Y-139879627D01*
X158646590Y-139879614D01*
X158558989Y-139748511D01*
X158558986Y-139748507D01*
X158558981Y-139748501D01*
X158447497Y-139637017D01*
X158447491Y-139637012D01*
X158447490Y-139637011D01*
X158316391Y-139549413D01*
X158316390Y-139549412D01*
X158316385Y-139549409D01*
X158316372Y-139549402D01*
X158316365Y-139549398D01*
X158170702Y-139489064D01*
X158170671Y-139489057D01*
X158016047Y-139458300D01*
X158016045Y-139458300D01*
X158016042Y-139458300D01*
X157858358Y-139458300D01*
X157858355Y-139458300D01*
X157858353Y-139458300D01*
X157703727Y-139489057D01*
X157703696Y-139489064D01*
X157558033Y-139549398D01*
X157558024Y-139549403D01*
X157558007Y-139549413D01*
X157426908Y-139637011D01*
X157426907Y-139637012D01*
X157426901Y-139637017D01*
X157315417Y-139748501D01*
X157315412Y-139748507D01*
X157315411Y-139748508D01*
X157227813Y-139879607D01*
X157227803Y-139879624D01*
X157227798Y-139879633D01*
X157167464Y-140025296D01*
X157167457Y-140025327D01*
X157136700Y-140179950D01*
X157136700Y-140337645D01*
X157141265Y-140360593D01*
X157143155Y-140395837D01*
X157141285Y-140416737D01*
X157121486Y-140473660D01*
X157118238Y-140478617D01*
X157117803Y-140479281D01*
X157101776Y-140498986D01*
X154384591Y-143216173D01*
X154356340Y-143237322D01*
X154333252Y-143249930D01*
X154273822Y-143265100D01*
X152945820Y-143265100D01*
X152945757Y-143265099D01*
X152943853Y-143265099D01*
X152936257Y-143265099D01*
X152778143Y-143265099D01*
X152690785Y-143288507D01*
X152625410Y-143306024D01*
X152625409Y-143306025D01*
X152601111Y-143320053D01*
X152601102Y-143320057D01*
X152575299Y-143334957D01*
X152575295Y-143334960D01*
X152535911Y-143357698D01*
X152535910Y-143357697D01*
X152488490Y-143385075D01*
X152488481Y-143385081D01*
X152376677Y-143496886D01*
X151641391Y-144232173D01*
X151613140Y-144253322D01*
X151590052Y-144265930D01*
X151530622Y-144281100D01*
X151208730Y-144281100D01*
X151173789Y-144276075D01*
X151158790Y-144271670D01*
X151100044Y-144233927D01*
X151098857Y-144232558D01*
X151071377Y-144177683D01*
X151069732Y-144170121D01*
X151066900Y-144143768D01*
X151066900Y-144091373D01*
X151066465Y-144089372D01*
X151061054Y-144062169D01*
X151036138Y-143936910D01*
X151036137Y-143936903D01*
X150994535Y-143836466D01*
X150975797Y-143791227D01*
X150975790Y-143791214D01*
X150888189Y-143660111D01*
X150888186Y-143660107D01*
X150888181Y-143660101D01*
X150776697Y-143548617D01*
X150776691Y-143548612D01*
X150776690Y-143548611D01*
X150645591Y-143461013D01*
X150645590Y-143461012D01*
X150645585Y-143461009D01*
X150645572Y-143461002D01*
X150645565Y-143460998D01*
X150499902Y-143400664D01*
X150499871Y-143400657D01*
X150345247Y-143369900D01*
X150345245Y-143369900D01*
X150345242Y-143369900D01*
X150187558Y-143369900D01*
X150187555Y-143369900D01*
X150187553Y-143369900D01*
X150032927Y-143400657D01*
X150032896Y-143400664D01*
X149887233Y-143460998D01*
X149887224Y-143461003D01*
X149887197Y-143461019D01*
X149770349Y-143539095D01*
X149738515Y-143554327D01*
X149706878Y-143564234D01*
X149669822Y-143569900D01*
X135344327Y-143569900D01*
X135309391Y-143564877D01*
X135284149Y-143557465D01*
X135231404Y-143526169D01*
X133892170Y-142186935D01*
X149613499Y-142186935D01*
X149652250Y-142381743D01*
X149652256Y-142381770D01*
X149728273Y-142565295D01*
X149728278Y-142565305D01*
X149838647Y-142730482D01*
X149838648Y-142730483D01*
X149838653Y-142730489D01*
X149979109Y-142870945D01*
X149979115Y-142870950D01*
X149979116Y-142870951D01*
X150144292Y-142981319D01*
X150144295Y-142981320D01*
X150144296Y-142981321D01*
X150327831Y-143057344D01*
X150510676Y-143093714D01*
X150519695Y-143095508D01*
X150521930Y-143096009D01*
X150522668Y-143096100D01*
X150721330Y-143096100D01*
X150725450Y-143096100D01*
X150733299Y-143093718D01*
X150916169Y-143057344D01*
X151099704Y-142981321D01*
X151264881Y-142870953D01*
X151405353Y-142730481D01*
X151515721Y-142565304D01*
X151591744Y-142381769D01*
X151630500Y-142186929D01*
X151630500Y-141988271D01*
X151591744Y-141793431D01*
X151515721Y-141609896D01*
X151515720Y-141609895D01*
X151515719Y-141609893D01*
X151515719Y-141609892D01*
X151405350Y-141444715D01*
X151405345Y-141444709D01*
X151264889Y-141304253D01*
X151264883Y-141304248D01*
X151264882Y-141304247D01*
X151099704Y-141193878D01*
X151099702Y-141193877D01*
X151099695Y-141193873D01*
X150916170Y-141117856D01*
X150916143Y-141117850D01*
X150721335Y-141079100D01*
X150721333Y-141079100D01*
X150721329Y-141079100D01*
X150522671Y-141079100D01*
X150522666Y-141079100D01*
X150522664Y-141079100D01*
X150327855Y-141117850D01*
X150327828Y-141117856D01*
X150144303Y-141193873D01*
X150144297Y-141193877D01*
X150144294Y-141193878D01*
X149979116Y-141304247D01*
X149979115Y-141304248D01*
X149979109Y-141304253D01*
X149838653Y-141444709D01*
X149838648Y-141444715D01*
X149728278Y-141609893D01*
X149728273Y-141609903D01*
X149652256Y-141793428D01*
X149652250Y-141793455D01*
X149613500Y-141988263D01*
X149613500Y-141988266D01*
X149613500Y-142186933D01*
X149613500Y-142186935D01*
X149613499Y-142186935D01*
X133892170Y-142186935D01*
X129604483Y-137899248D01*
X132041499Y-137899248D01*
X132072257Y-138053871D01*
X132072264Y-138053902D01*
X132132598Y-138199565D01*
X132132603Y-138199574D01*
X132132613Y-138199591D01*
X132220211Y-138330690D01*
X132220217Y-138330697D01*
X132331701Y-138442181D01*
X132331707Y-138442186D01*
X132331711Y-138442189D01*
X132462814Y-138529790D01*
X132462827Y-138529797D01*
X132608498Y-138590135D01*
X132608503Y-138590137D01*
X132674884Y-138603341D01*
X132723734Y-138613058D01*
X132755512Y-138619379D01*
X132758247Y-138620103D01*
X132763155Y-138620900D01*
X132920844Y-138620900D01*
X132924964Y-138620900D01*
X132932814Y-138618518D01*
X133075497Y-138590137D01*
X133221179Y-138529794D01*
X133352289Y-138442189D01*
X133463789Y-138330689D01*
X133463796Y-138330677D01*
X133466767Y-138327059D01*
X133503483Y-138296733D01*
X133513761Y-138291156D01*
X133513886Y-138291388D01*
X133522158Y-138284473D01*
X133591481Y-138275750D01*
X133654515Y-138305892D01*
X133677153Y-138332969D01*
X133678381Y-138334956D01*
X133696900Y-138400145D01*
X133696900Y-139739600D01*
X133696901Y-139739617D01*
X133707400Y-139842395D01*
X133707401Y-139842398D01*
X133762585Y-140008930D01*
X133762587Y-140008935D01*
X133778283Y-140034382D01*
X133784444Y-140044371D01*
X133784445Y-140044373D01*
X133854101Y-140157304D01*
X133854688Y-140158255D01*
X133978744Y-140282311D01*
X134128066Y-140374413D01*
X134294603Y-140429598D01*
X134397391Y-140440099D01*
X135147408Y-140440098D01*
X135147416Y-140440097D01*
X135147419Y-140440097D01*
X135147423Y-140440096D01*
X135147723Y-140440077D01*
X135148751Y-140439960D01*
X135250197Y-140429598D01*
X135314418Y-140408317D01*
X135329995Y-140404257D01*
X135331800Y-140403909D01*
X135353275Y-140400444D01*
X135353210Y-140399791D01*
X135356388Y-140399180D01*
X135359236Y-140398900D01*
X135359242Y-140398900D01*
X135513897Y-140368137D01*
X135659579Y-140307794D01*
X135692975Y-140285479D01*
X135724810Y-140270247D01*
X135739733Y-140265574D01*
X135809584Y-140264327D01*
X135814134Y-140265575D01*
X135821241Y-140267524D01*
X135853538Y-140281568D01*
X135854739Y-140282309D01*
X135854742Y-140282311D01*
X135854744Y-140282313D01*
X136004066Y-140374415D01*
X136170603Y-140429600D01*
X136273391Y-140440101D01*
X137023408Y-140440100D01*
X137023416Y-140440099D01*
X137023419Y-140440099D01*
X137023423Y-140440098D01*
X137023723Y-140440079D01*
X137024761Y-140439961D01*
X137088870Y-140433413D01*
X137126197Y-140429600D01*
X137273288Y-140380857D01*
X137304621Y-140374803D01*
X137335697Y-140372880D01*
X137367533Y-140375025D01*
X137466086Y-140394629D01*
X137487554Y-140398900D01*
X137645244Y-140398900D01*
X137649364Y-140398900D01*
X137657214Y-140396518D01*
X137799897Y-140368137D01*
X137924234Y-140316635D01*
X137945572Y-140307797D01*
X137945572Y-140307796D01*
X137945579Y-140307794D01*
X138076689Y-140220189D01*
X138125092Y-140171786D01*
X138188188Y-140108691D01*
X138188189Y-140108689D01*
X138275794Y-139977579D01*
X138336137Y-139831897D01*
X138366900Y-139677242D01*
X138366900Y-139519558D01*
X138366900Y-139519555D01*
X138366900Y-139519371D01*
X138366464Y-139517366D01*
X138346648Y-139417745D01*
X138336137Y-139364903D01*
X138318578Y-139322512D01*
X138305497Y-139290932D01*
X138275802Y-139219240D01*
X138275797Y-139219227D01*
X138275790Y-139219214D01*
X138188189Y-139088111D01*
X138188186Y-139088107D01*
X138188181Y-139088101D01*
X138076697Y-138976617D01*
X138076691Y-138976612D01*
X138076690Y-138976611D01*
X137945579Y-138889005D01*
X137945580Y-138889005D01*
X137945570Y-138889000D01*
X137816917Y-138835712D01*
X137786564Y-138817703D01*
X137774394Y-138807896D01*
X137734545Y-138750504D01*
X137730243Y-138737580D01*
X137723899Y-138698424D01*
X137723899Y-138339745D01*
X137723899Y-138339599D01*
X137723898Y-138339590D01*
X137722989Y-138330689D01*
X137713399Y-138236804D01*
X137713398Y-138236801D01*
X137701064Y-138199579D01*
X137658214Y-138070267D01*
X137566112Y-137920945D01*
X137442056Y-137796889D01*
X137292734Y-137704787D01*
X137134665Y-137652408D01*
X137131845Y-137651242D01*
X137126192Y-137649600D01*
X137023419Y-137639101D01*
X137023410Y-137639101D01*
X136273398Y-137639101D01*
X136273380Y-137639102D01*
X136273372Y-137639102D01*
X136273353Y-137639104D01*
X136170597Y-137649601D01*
X136170593Y-137649602D01*
X136170432Y-137649657D01*
X136004067Y-137704786D01*
X136004065Y-137704787D01*
X136004063Y-137704788D01*
X135877502Y-137782851D01*
X135854739Y-137796892D01*
X135810686Y-137840945D01*
X135782429Y-137862097D01*
X135768711Y-137869587D01*
X135700463Y-137884439D01*
X135698655Y-137884310D01*
X135640434Y-137864935D01*
X135633926Y-137860752D01*
X135613291Y-137844122D01*
X135566057Y-137796888D01*
X135566056Y-137796887D01*
X135447402Y-137723701D01*
X135447402Y-137723700D01*
X135416742Y-137704790D01*
X135416736Y-137704786D01*
X135416733Y-137704785D01*
X135416732Y-137704784D01*
X135416719Y-137704779D01*
X135404479Y-137700724D01*
X135404476Y-137700723D01*
X135258665Y-137652406D01*
X135255845Y-137651240D01*
X135250192Y-137649598D01*
X135147419Y-137639099D01*
X135147410Y-137639099D01*
X134397398Y-137639099D01*
X134397380Y-137639100D01*
X134397372Y-137639100D01*
X134397353Y-137639102D01*
X134294597Y-137649599D01*
X134294593Y-137649600D01*
X134294432Y-137649655D01*
X134128067Y-137704784D01*
X134128065Y-137704785D01*
X134128063Y-137704786D01*
X134097399Y-137723700D01*
X133978738Y-137796890D01*
X133866785Y-137908844D01*
X133838532Y-137929995D01*
X133828608Y-137935414D01*
X133760335Y-137950266D01*
X133694870Y-137925850D01*
X133652999Y-137869916D01*
X133652997Y-137869912D01*
X133650313Y-137862714D01*
X133642500Y-137819394D01*
X133642500Y-137741370D01*
X133642070Y-137739394D01*
X133638942Y-137723671D01*
X133635186Y-137704787D01*
X133624743Y-137652287D01*
X133611738Y-137586907D01*
X133611738Y-137586906D01*
X133611734Y-137586896D01*
X133604341Y-137569048D01*
X139686899Y-137569048D01*
X139717657Y-137723671D01*
X139717664Y-137723701D01*
X139777998Y-137869365D01*
X139778003Y-137869374D01*
X139778013Y-137869391D01*
X139865611Y-138000490D01*
X139865612Y-138000491D01*
X139865617Y-138000497D01*
X139977101Y-138111981D01*
X139977107Y-138111986D01*
X139977111Y-138111989D01*
X140108214Y-138199590D01*
X140108227Y-138199597D01*
X140253898Y-138259935D01*
X140253903Y-138259937D01*
X140408553Y-138290699D01*
X140408556Y-138290700D01*
X140408558Y-138290700D01*
X140566244Y-138290700D01*
X140566245Y-138290699D01*
X140720897Y-138259937D01*
X140866579Y-138199594D01*
X140997689Y-138111989D01*
X141109189Y-138000489D01*
X141196794Y-137869379D01*
X141226506Y-137797648D01*
X145706699Y-137797648D01*
X145737457Y-137952271D01*
X145737464Y-137952302D01*
X145797798Y-138097965D01*
X145797802Y-138097972D01*
X145797806Y-138097980D01*
X145797813Y-138097991D01*
X145885411Y-138229090D01*
X145885412Y-138229091D01*
X145885417Y-138229097D01*
X145996901Y-138340581D01*
X145996907Y-138340586D01*
X145996911Y-138340589D01*
X146128014Y-138428190D01*
X146128027Y-138428197D01*
X146273698Y-138488535D01*
X146273703Y-138488537D01*
X146428353Y-138519299D01*
X146428356Y-138519300D01*
X146428358Y-138519300D01*
X146465418Y-138519300D01*
X146469124Y-138519522D01*
X146473029Y-138520927D01*
X146496646Y-138524322D01*
X146518467Y-138530730D01*
X146568017Y-138558944D01*
X146570678Y-138561421D01*
X146585457Y-138577872D01*
X146644051Y-138656143D01*
X146644053Y-138656145D01*
X146644055Y-138656147D01*
X146759264Y-138742393D01*
X146759271Y-138742397D01*
X146804218Y-138759161D01*
X146894117Y-138792691D01*
X146953727Y-138799100D01*
X147589472Y-138799099D01*
X147649083Y-138792691D01*
X147783931Y-138742396D01*
X147838024Y-138701901D01*
X147868982Y-138684995D01*
X147883642Y-138679527D01*
X147953329Y-138674544D01*
X147953334Y-138674545D01*
X147962641Y-138676570D01*
X148010589Y-138698468D01*
X148037689Y-138718755D01*
X148037688Y-138718755D01*
X148068794Y-138742040D01*
X148069268Y-138742395D01*
X148069271Y-138742397D01*
X148069272Y-138742397D01*
X148069273Y-138742398D01*
X148114217Y-138759161D01*
X148114218Y-138759161D01*
X148204117Y-138792691D01*
X148263727Y-138799100D01*
X148899472Y-138799099D01*
X148959083Y-138792691D01*
X149093931Y-138742396D01*
X149183023Y-138675700D01*
X149213981Y-138658795D01*
X149228640Y-138653327D01*
X149298325Y-138648342D01*
X149298331Y-138648343D01*
X149298334Y-138648344D01*
X149307641Y-138650369D01*
X149355589Y-138672267D01*
X149417689Y-138718755D01*
X149417688Y-138718755D01*
X149448794Y-138742040D01*
X149449268Y-138742395D01*
X149449271Y-138742397D01*
X149449272Y-138742397D01*
X149449273Y-138742398D01*
X149494217Y-138759161D01*
X149494218Y-138759161D01*
X149584117Y-138792691D01*
X149643727Y-138799100D01*
X150279472Y-138799099D01*
X150339083Y-138792691D01*
X150473931Y-138742396D01*
X150528024Y-138701901D01*
X150558982Y-138684995D01*
X150573642Y-138679527D01*
X150643329Y-138674544D01*
X150643334Y-138674545D01*
X150652641Y-138676570D01*
X150700589Y-138698468D01*
X150727689Y-138718755D01*
X150727688Y-138718755D01*
X150758794Y-138742040D01*
X150759268Y-138742395D01*
X150759271Y-138742397D01*
X150759272Y-138742397D01*
X150759273Y-138742398D01*
X150804217Y-138759161D01*
X150804218Y-138759161D01*
X150894117Y-138792691D01*
X150953727Y-138799100D01*
X151589472Y-138799099D01*
X151649083Y-138792691D01*
X151783931Y-138742396D01*
X151899146Y-138656146D01*
X151985396Y-138540931D01*
X152035691Y-138406083D01*
X152042100Y-138346473D01*
X152042099Y-137700728D01*
X152042098Y-137700723D01*
X152037679Y-137659610D01*
X152035691Y-137641117D01*
X152034939Y-137639102D01*
X152015472Y-137586907D01*
X151985398Y-137506273D01*
X151985397Y-137506271D01*
X151985393Y-137506264D01*
X151899147Y-137391055D01*
X151899144Y-137391052D01*
X151899142Y-137391050D01*
X151803694Y-137319598D01*
X151783935Y-137304806D01*
X151783933Y-137304805D01*
X151783932Y-137304804D01*
X151783927Y-137304801D01*
X151783925Y-137304800D01*
X151659254Y-137258302D01*
X151659251Y-137258301D01*
X151649086Y-137254510D01*
X151649085Y-137254509D01*
X151649083Y-137254509D01*
X151635621Y-137253061D01*
X151635614Y-137253060D01*
X151589483Y-137248101D01*
X151589481Y-137248100D01*
X151589473Y-137248100D01*
X151589465Y-137248100D01*
X150957423Y-137248100D01*
X150953729Y-137248100D01*
X150953723Y-137248101D01*
X150894116Y-137254508D01*
X150789211Y-137293634D01*
X150785011Y-137294772D01*
X150731812Y-137314614D01*
X150662120Y-137319598D01*
X150600797Y-137286112D01*
X150568330Y-137229091D01*
X150565950Y-137219764D01*
X150562100Y-137189105D01*
X150562100Y-136480346D01*
X150567121Y-136445418D01*
X150568834Y-136439584D01*
X150570697Y-136433237D01*
X150608467Y-136374460D01*
X150672021Y-136345431D01*
X150737132Y-136353609D01*
X150777950Y-136370518D01*
X150778244Y-136370503D01*
X150793046Y-136374994D01*
X150801805Y-136378261D01*
X150894117Y-136412691D01*
X150953727Y-136419100D01*
X151589472Y-136419099D01*
X151649083Y-136412691D01*
X151783931Y-136362396D01*
X151899146Y-136276146D01*
X151985396Y-136160931D01*
X152035691Y-136026083D01*
X152042100Y-135966473D01*
X152042099Y-135320728D01*
X152035691Y-135261117D01*
X152016290Y-135209101D01*
X151985397Y-135126271D01*
X151985393Y-135126264D01*
X151931626Y-135054442D01*
X151926341Y-135047382D01*
X151926340Y-135047380D01*
X151907326Y-135021981D01*
X151899146Y-135011054D01*
X151899144Y-135011052D01*
X151899141Y-135011049D01*
X151870938Y-134989937D01*
X151870925Y-134989928D01*
X151783931Y-134924804D01*
X151783928Y-134924802D01*
X151783927Y-134924801D01*
X151783925Y-134924800D01*
X151708717Y-134896750D01*
X166737900Y-134896750D01*
X166737900Y-135054448D01*
X166763160Y-135181438D01*
X166768661Y-135209089D01*
X166768664Y-135209100D01*
X166768663Y-135209100D01*
X166828998Y-135354765D01*
X166829003Y-135354774D01*
X166829013Y-135354791D01*
X166916611Y-135485890D01*
X166916612Y-135485891D01*
X166916617Y-135485897D01*
X167028101Y-135597381D01*
X167028107Y-135597386D01*
X167028111Y-135597389D01*
X167159214Y-135684990D01*
X167159227Y-135684997D01*
X167304898Y-135745335D01*
X167304903Y-135745337D01*
X167459553Y-135776099D01*
X167459556Y-135776100D01*
X167459558Y-135776100D01*
X167617244Y-135776100D01*
X167617245Y-135776099D01*
X167771897Y-135745337D01*
X167917579Y-135684994D01*
X168048689Y-135597389D01*
X168160189Y-135485889D01*
X168247794Y-135354779D01*
X168247800Y-135354765D01*
X168308136Y-135209100D01*
X168308137Y-135209097D01*
X168338900Y-135054442D01*
X168338900Y-134896758D01*
X168338900Y-134896755D01*
X168338900Y-134896576D01*
X168338476Y-134894626D01*
X168333200Y-134868101D01*
X168308142Y-134742127D01*
X168308139Y-134742110D01*
X168308136Y-134742101D01*
X168279551Y-134673089D01*
X168247797Y-134596427D01*
X168247790Y-134596414D01*
X168160189Y-134465311D01*
X168160186Y-134465307D01*
X168160181Y-134465301D01*
X168048697Y-134353817D01*
X168048691Y-134353812D01*
X168048690Y-134353811D01*
X167917591Y-134266213D01*
X167917590Y-134266212D01*
X167917585Y-134266209D01*
X167917572Y-134266202D01*
X167917565Y-134266198D01*
X167771902Y-134205864D01*
X167771871Y-134205857D01*
X167617247Y-134175100D01*
X167617245Y-134175100D01*
X167617242Y-134175100D01*
X167459558Y-134175100D01*
X167459555Y-134175100D01*
X167459553Y-134175100D01*
X167304927Y-134205857D01*
X167304896Y-134205864D01*
X167159233Y-134266198D01*
X167159224Y-134266203D01*
X167159207Y-134266213D01*
X167028108Y-134353811D01*
X167028107Y-134353812D01*
X167028101Y-134353817D01*
X166916617Y-134465301D01*
X166916612Y-134465307D01*
X166916611Y-134465308D01*
X166829013Y-134596407D01*
X166829003Y-134596424D01*
X166828998Y-134596433D01*
X166768664Y-134742096D01*
X166768657Y-134742127D01*
X166737900Y-134896750D01*
X151708717Y-134896750D01*
X151659254Y-134878302D01*
X151659251Y-134878301D01*
X151649086Y-134874510D01*
X151649085Y-134874509D01*
X151649083Y-134874509D01*
X151635621Y-134873061D01*
X151635614Y-134873060D01*
X151589483Y-134868101D01*
X151589481Y-134868100D01*
X151589473Y-134868100D01*
X151589465Y-134868100D01*
X150953723Y-134868100D01*
X150951792Y-134868259D01*
X150950145Y-134868485D01*
X150894115Y-134874508D01*
X150894114Y-134874508D01*
X150759272Y-134924801D01*
X150759264Y-134924806D01*
X150705183Y-134965292D01*
X150674208Y-134982206D01*
X150659562Y-134987669D01*
X150589870Y-134992655D01*
X150589866Y-134992654D01*
X150580558Y-134990629D01*
X150532608Y-134968730D01*
X150473930Y-134924803D01*
X150473928Y-134924802D01*
X150339086Y-134874510D01*
X150339085Y-134874509D01*
X150339083Y-134874509D01*
X150325608Y-134873060D01*
X150325607Y-134873060D01*
X150279483Y-134868101D01*
X150279481Y-134868100D01*
X150279473Y-134868100D01*
X150279465Y-134868100D01*
X149643723Y-134868100D01*
X149641792Y-134868259D01*
X149640145Y-134868485D01*
X149584115Y-134874508D01*
X149584114Y-134874508D01*
X149449272Y-134924801D01*
X149449264Y-134924806D01*
X149360183Y-134991493D01*
X149329208Y-135008407D01*
X149314562Y-135013870D01*
X149244870Y-135018856D01*
X149244866Y-135018855D01*
X149235558Y-135016830D01*
X149187607Y-134994930D01*
X149148016Y-134965292D01*
X149093931Y-134924804D01*
X149093932Y-134924804D01*
X149093930Y-134924803D01*
X149093928Y-134924802D01*
X148959086Y-134874510D01*
X148959085Y-134874509D01*
X148959083Y-134874509D01*
X148945608Y-134873060D01*
X148945607Y-134873060D01*
X148899483Y-134868101D01*
X148899481Y-134868100D01*
X148899473Y-134868100D01*
X148899465Y-134868100D01*
X148263723Y-134868100D01*
X148261792Y-134868259D01*
X148260145Y-134868485D01*
X148204116Y-134874508D01*
X148069277Y-134924800D01*
X148069266Y-134924804D01*
X148069265Y-134924805D01*
X147954056Y-135011050D01*
X147954050Y-135011056D01*
X147867805Y-135126265D01*
X147867802Y-135126270D01*
X147853351Y-135165017D01*
X147829055Y-135230160D01*
X147826783Y-135236253D01*
X147817508Y-135261118D01*
X147811101Y-135320716D01*
X147811101Y-135320723D01*
X147811100Y-135320735D01*
X147811100Y-135966476D01*
X147811259Y-135968406D01*
X147811485Y-135970054D01*
X147817507Y-136026082D01*
X147837506Y-136079701D01*
X147867802Y-136160928D01*
X147867803Y-136160930D01*
X147867804Y-136160932D01*
X147867805Y-136160933D01*
X147954050Y-136276142D01*
X147954056Y-136276148D01*
X147979504Y-136295198D01*
X148069264Y-136362393D01*
X148069271Y-136362397D01*
X148111805Y-136378261D01*
X148204117Y-136412691D01*
X148263727Y-136419100D01*
X148899472Y-136419099D01*
X148959083Y-136412691D01*
X148990841Y-136400846D01*
X149093929Y-136362397D01*
X149093929Y-136362396D01*
X149093931Y-136362396D01*
X149148520Y-136321529D01*
X149179491Y-136304618D01*
X149191390Y-136300179D01*
X149261079Y-136295198D01*
X149322402Y-136328684D01*
X149354863Y-136385683D01*
X149357245Y-136395011D01*
X149361100Y-136425691D01*
X149361100Y-137239254D01*
X149356075Y-137274197D01*
X149352498Y-137286376D01*
X149314719Y-137345152D01*
X149251161Y-137374172D01*
X149186072Y-137365995D01*
X149177180Y-137362312D01*
X149150320Y-137347017D01*
X149147829Y-137345152D01*
X149093931Y-137304804D01*
X149093928Y-137304802D01*
X149093927Y-137304801D01*
X149093925Y-137304800D01*
X148969254Y-137258302D01*
X148969251Y-137258301D01*
X148959086Y-137254510D01*
X148959085Y-137254509D01*
X148959083Y-137254509D01*
X148945621Y-137253061D01*
X148945614Y-137253060D01*
X148899483Y-137248101D01*
X148899481Y-137248100D01*
X148899473Y-137248100D01*
X148899465Y-137248100D01*
X148263723Y-137248100D01*
X148261792Y-137248259D01*
X148260145Y-137248485D01*
X148204115Y-137254508D01*
X148204114Y-137254508D01*
X148069272Y-137304801D01*
X148069264Y-137304806D01*
X148015183Y-137345292D01*
X147984208Y-137362206D01*
X147969562Y-137367669D01*
X147899870Y-137372655D01*
X147899866Y-137372654D01*
X147890558Y-137370629D01*
X147842608Y-137348730D01*
X147783930Y-137304803D01*
X147783928Y-137304802D01*
X147734444Y-137286346D01*
X147699097Y-137259884D01*
X147597183Y-137248928D01*
X147592342Y-137248100D01*
X147589481Y-137248100D01*
X147589473Y-137248100D01*
X147589465Y-137248100D01*
X147402076Y-137248100D01*
X147369983Y-137243875D01*
X147339521Y-137235713D01*
X147309615Y-137223326D01*
X147266810Y-137198613D01*
X147266810Y-137198611D01*
X147266805Y-137198610D01*
X147245224Y-137186149D01*
X147245199Y-137186136D01*
X147238162Y-137182073D01*
X147238161Y-137182072D01*
X147212725Y-137167386D01*
X147212720Y-137167382D01*
X147198590Y-137159225D01*
X147198589Y-137159224D01*
X147186328Y-137155938D01*
X147165096Y-137150249D01*
X147165096Y-137150248D01*
X147080903Y-137127688D01*
X147056344Y-137118215D01*
X147031887Y-137105653D01*
X147019650Y-137098454D01*
X146886391Y-137009413D01*
X146886390Y-137009412D01*
X146886385Y-137009409D01*
X146886372Y-137009402D01*
X146886365Y-137009398D01*
X146740702Y-136949064D01*
X146740671Y-136949057D01*
X146586047Y-136918300D01*
X146586045Y-136918300D01*
X146586042Y-136918300D01*
X146428358Y-136918300D01*
X146428355Y-136918300D01*
X146428353Y-136918300D01*
X146273727Y-136949057D01*
X146273696Y-136949064D01*
X146128033Y-137009398D01*
X146128027Y-137009402D01*
X146128007Y-137009413D01*
X145996908Y-137097011D01*
X145996907Y-137097012D01*
X145996901Y-137097017D01*
X145885417Y-137208501D01*
X145885412Y-137208507D01*
X145885411Y-137208508D01*
X145797813Y-137339607D01*
X145797803Y-137339624D01*
X145797798Y-137339633D01*
X145737464Y-137485296D01*
X145737457Y-137485327D01*
X145706700Y-137639950D01*
X145706700Y-137639953D01*
X145706700Y-137797646D01*
X145706700Y-137797648D01*
X145706699Y-137797648D01*
X141226506Y-137797648D01*
X141257137Y-137723697D01*
X141269884Y-137659612D01*
X141279818Y-137609675D01*
X141279818Y-137609674D01*
X141285441Y-137581402D01*
X141287900Y-137569046D01*
X141287900Y-137411174D01*
X141287469Y-137409191D01*
X141283868Y-137391089D01*
X141283861Y-137391052D01*
X141277632Y-137359735D01*
X141257139Y-137256710D01*
X141257136Y-137256701D01*
X141256228Y-137254510D01*
X141238532Y-137211786D01*
X141196797Y-137111027D01*
X141196790Y-137111014D01*
X141109189Y-136979911D01*
X141109186Y-136979907D01*
X141109181Y-136979901D01*
X140997697Y-136868417D01*
X140997691Y-136868412D01*
X140997690Y-136868411D01*
X140866591Y-136780813D01*
X140866590Y-136780812D01*
X140866585Y-136780809D01*
X140866572Y-136780802D01*
X140866565Y-136780798D01*
X140720902Y-136720464D01*
X140720871Y-136720457D01*
X140566247Y-136689700D01*
X140566245Y-136689700D01*
X140566242Y-136689700D01*
X140408558Y-136689700D01*
X140408555Y-136689700D01*
X140408553Y-136689700D01*
X140253927Y-136720457D01*
X140253896Y-136720464D01*
X140108233Y-136780798D01*
X140108224Y-136780803D01*
X140108207Y-136780813D01*
X139977108Y-136868411D01*
X139977107Y-136868412D01*
X139977101Y-136868417D01*
X139865617Y-136979901D01*
X139865612Y-136979907D01*
X139865611Y-136979908D01*
X139778013Y-137111007D01*
X139778003Y-137111024D01*
X139777998Y-137111033D01*
X139717664Y-137256696D01*
X139717657Y-137256727D01*
X139686900Y-137411350D01*
X139686900Y-137411353D01*
X139686900Y-137569046D01*
X139686900Y-137569048D01*
X139686899Y-137569048D01*
X133604341Y-137569048D01*
X133604340Y-137569046D01*
X133556173Y-137452758D01*
X133556157Y-137452720D01*
X133555443Y-137450996D01*
X133551394Y-137441221D01*
X133551391Y-137441216D01*
X133551390Y-137441214D01*
X133463789Y-137310111D01*
X133463786Y-137310107D01*
X133463781Y-137310101D01*
X133352297Y-137198617D01*
X133352291Y-137198612D01*
X133352288Y-137198610D01*
X133221191Y-137111013D01*
X133221190Y-137111012D01*
X133221185Y-137111009D01*
X133221172Y-137111002D01*
X133221165Y-137110998D01*
X133075502Y-137050664D01*
X133075471Y-137050657D01*
X132920847Y-137019900D01*
X132920845Y-137019900D01*
X132920842Y-137019900D01*
X132763158Y-137019900D01*
X132763155Y-137019900D01*
X132763153Y-137019900D01*
X132608527Y-137050657D01*
X132608496Y-137050664D01*
X132462833Y-137110998D01*
X132462824Y-137111003D01*
X132462807Y-137111013D01*
X132331711Y-137198610D01*
X132331707Y-137198612D01*
X132331701Y-137198617D01*
X132220217Y-137310101D01*
X132220212Y-137310107D01*
X132220211Y-137310108D01*
X132132613Y-137441207D01*
X132132603Y-137441224D01*
X132132598Y-137441233D01*
X132072264Y-137586896D01*
X132072257Y-137586927D01*
X132041500Y-137741550D01*
X132041500Y-137741553D01*
X132041500Y-137899246D01*
X132041500Y-137899248D01*
X132041499Y-137899248D01*
X129604483Y-137899248D01*
X128157426Y-136452191D01*
X128136274Y-136423935D01*
X128123667Y-136400846D01*
X128108500Y-136341421D01*
X128108500Y-135565411D01*
X128113523Y-135530477D01*
X128120339Y-135507263D01*
X128146701Y-135459744D01*
X128147246Y-135459133D01*
X128147245Y-135459132D01*
X128155762Y-135449567D01*
X128160694Y-135444341D01*
X128291351Y-135313684D01*
X128291353Y-135313681D01*
X128401721Y-135148504D01*
X128477744Y-134964969D01*
X128516500Y-134770129D01*
X128516500Y-134571471D01*
X128477744Y-134376631D01*
X128421832Y-134241648D01*
X140271099Y-134241648D01*
X140301857Y-134396271D01*
X140301864Y-134396302D01*
X140362198Y-134541965D01*
X140362203Y-134541974D01*
X140362213Y-134541991D01*
X140449812Y-134673091D01*
X140449817Y-134673097D01*
X140561301Y-134784581D01*
X140561307Y-134784586D01*
X140561311Y-134784589D01*
X140692414Y-134872190D01*
X140692427Y-134872197D01*
X140838098Y-134932535D01*
X140838103Y-134932537D01*
X140992753Y-134963299D01*
X140992756Y-134963300D01*
X140992758Y-134963300D01*
X141150444Y-134963300D01*
X141150445Y-134963299D01*
X141305097Y-134932537D01*
X141445190Y-134874509D01*
X141450772Y-134872197D01*
X141450772Y-134872196D01*
X141450779Y-134872194D01*
X141450783Y-134872191D01*
X141453133Y-134871218D01*
X141453134Y-134871217D01*
X141462389Y-134867385D01*
X141471275Y-134858498D01*
X141581889Y-134784589D01*
X141693389Y-134673089D01*
X141780994Y-134541979D01*
X141841337Y-134396297D01*
X141872100Y-134241642D01*
X141872100Y-134083958D01*
X141872100Y-134083955D01*
X141872100Y-134083773D01*
X141871665Y-134081772D01*
X141841998Y-133932630D01*
X141841583Y-133930203D01*
X141841337Y-133929304D01*
X141824000Y-133887447D01*
X141780997Y-133783627D01*
X141780990Y-133783614D01*
X141693389Y-133652511D01*
X141693386Y-133652507D01*
X141693381Y-133652501D01*
X141581897Y-133541017D01*
X141581891Y-133541012D01*
X141581890Y-133541011D01*
X141450791Y-133453413D01*
X141450790Y-133453412D01*
X141450785Y-133453409D01*
X141450772Y-133453402D01*
X141450765Y-133453398D01*
X141305102Y-133393064D01*
X141305071Y-133393057D01*
X141150447Y-133362300D01*
X141150445Y-133362300D01*
X141150442Y-133362300D01*
X140992758Y-133362300D01*
X140992755Y-133362300D01*
X140992753Y-133362300D01*
X140838127Y-133393057D01*
X140838096Y-133393064D01*
X140692433Y-133453398D01*
X140692424Y-133453403D01*
X140692407Y-133453413D01*
X140561308Y-133541011D01*
X140561307Y-133541012D01*
X140561301Y-133541017D01*
X140449817Y-133652501D01*
X140449812Y-133652507D01*
X140449811Y-133652508D01*
X140362213Y-133783607D01*
X140362203Y-133783624D01*
X140362198Y-133783633D01*
X140301864Y-133929296D01*
X140301857Y-133929327D01*
X140271100Y-134083950D01*
X140271100Y-134083953D01*
X140271100Y-134241646D01*
X140271100Y-134241648D01*
X140271099Y-134241648D01*
X128421832Y-134241648D01*
X128407009Y-134205863D01*
X128401722Y-134193098D01*
X128401717Y-134193089D01*
X128370759Y-134146757D01*
X128368888Y-134143957D01*
X128368884Y-134143950D01*
X128291351Y-134027916D01*
X128291350Y-134027915D01*
X128291345Y-134027909D01*
X128150889Y-133887453D01*
X128150882Y-133887447D01*
X127985704Y-133777078D01*
X127985705Y-133777078D01*
X127985695Y-133777073D01*
X127802170Y-133701056D01*
X127802143Y-133701050D01*
X127607335Y-133662300D01*
X127607333Y-133662300D01*
X127607329Y-133662300D01*
X127408671Y-133662300D01*
X127408666Y-133662300D01*
X127408664Y-133662300D01*
X127213855Y-133701050D01*
X127213828Y-133701056D01*
X127030303Y-133777073D01*
X127030293Y-133777078D01*
X126865117Y-133887447D01*
X126865109Y-133887453D01*
X126724652Y-134027910D01*
X126677505Y-134098469D01*
X126632609Y-134139066D01*
X126622705Y-134144331D01*
X126622679Y-134144282D01*
X126615200Y-134150531D01*
X126545874Y-134159228D01*
X126482851Y-134129064D01*
X126460222Y-134101979D01*
X126458995Y-134099992D01*
X126440500Y-134034841D01*
X126440500Y-131266814D01*
X126442881Y-131242631D01*
X126447557Y-131219123D01*
X126454613Y-131195866D01*
X126459737Y-131183497D01*
X126490500Y-131028842D01*
X126490500Y-130871158D01*
X126490500Y-130871155D01*
X126490500Y-130870971D01*
X126490064Y-130868966D01*
X126471346Y-130774864D01*
X126459738Y-130716506D01*
X126459736Y-130716500D01*
X126455579Y-130706463D01*
X126455579Y-130706462D01*
X126399400Y-130570833D01*
X126399395Y-130570824D01*
X126399390Y-130570814D01*
X126311789Y-130439711D01*
X126311786Y-130439707D01*
X126311781Y-130439701D01*
X126200297Y-130328217D01*
X126200291Y-130328212D01*
X126200290Y-130328211D01*
X126069191Y-130240613D01*
X126069190Y-130240612D01*
X126069185Y-130240609D01*
X126069172Y-130240602D01*
X126069165Y-130240598D01*
X125923502Y-130180264D01*
X125923471Y-130180257D01*
X125768847Y-130149500D01*
X125768845Y-130149500D01*
X125768842Y-130149500D01*
X125611158Y-130149500D01*
X125611155Y-130149500D01*
X125611153Y-130149500D01*
X125456527Y-130180257D01*
X125456496Y-130180264D01*
X125310833Y-130240598D01*
X125310824Y-130240603D01*
X125310807Y-130240613D01*
X125179708Y-130328211D01*
X125179707Y-130328212D01*
X125179701Y-130328217D01*
X125068217Y-130439701D01*
X125068212Y-130439707D01*
X124980613Y-130570807D01*
X124980603Y-130570824D01*
X124980598Y-130570833D01*
X124920264Y-130716496D01*
X124920257Y-130716527D01*
X124889500Y-130871150D01*
X124889500Y-130871153D01*
X124889500Y-131028846D01*
X124889500Y-131028848D01*
X124889499Y-131028848D01*
X124919619Y-131180264D01*
X124920261Y-131183489D01*
X124920263Y-131183497D01*
X124920264Y-131183500D01*
X124920267Y-131183509D01*
X124925389Y-131195874D01*
X124932443Y-131219127D01*
X124937117Y-131242627D01*
X124939500Y-131266814D01*
X124939500Y-134231622D01*
X124934477Y-134266558D01*
X124932756Y-134272419D01*
X124894981Y-134331197D01*
X124831425Y-134360221D01*
X124762267Y-134350277D01*
X124709463Y-134304522D01*
X124709231Y-134304161D01*
X124691074Y-134256519D01*
X124683051Y-134205863D01*
X124666597Y-134101979D01*
X124574484Y-133520410D01*
X124574127Y-133517998D01*
X124573795Y-133515596D01*
X124573501Y-133513315D01*
X124566411Y-133453406D01*
X124455874Y-132519484D01*
X124455617Y-132517110D01*
X124455497Y-132515894D01*
X124455378Y-132514681D01*
X124455164Y-132512265D01*
X124453309Y-132488690D01*
X124451778Y-132469241D01*
X124376646Y-131514607D01*
X124376483Y-131512211D01*
X124376343Y-131509823D01*
X124376226Y-131507434D01*
X124375879Y-131498606D01*
X124336942Y-130507575D01*
X124336872Y-130505182D01*
X124336824Y-130502717D01*
X124336800Y-130500303D01*
X124336800Y-129499696D01*
X124336823Y-129497283D01*
X124336824Y-129497233D01*
X124336873Y-129494717D01*
X124336941Y-129492431D01*
X124344112Y-129309935D01*
X124376229Y-128492485D01*
X124376338Y-128490235D01*
X124376488Y-128487688D01*
X124376648Y-128485366D01*
X124455170Y-127487652D01*
X124455372Y-127485375D01*
X124455627Y-127482784D01*
X124455877Y-127480494D01*
X124573493Y-126486761D01*
X124573791Y-126484427D01*
X124574139Y-126481909D01*
X124574473Y-126479659D01*
X124731028Y-125491214D01*
X124731417Y-125488906D01*
X124731860Y-125486422D01*
X124732301Y-125484094D01*
X124732735Y-125481912D01*
X124927514Y-124502692D01*
X124928001Y-124500365D01*
X124928163Y-124499625D01*
X124928525Y-124497975D01*
X124929052Y-124495677D01*
X125162686Y-123522523D01*
X125163256Y-123520249D01*
X125163381Y-123519768D01*
X125163867Y-123517902D01*
X125164474Y-123515667D01*
X125436121Y-122552480D01*
X125436759Y-122550298D01*
X125437533Y-122547747D01*
X125438192Y-122545649D01*
X125698980Y-121743024D01*
X137063675Y-121743024D01*
X137094433Y-121897647D01*
X137094440Y-121897678D01*
X137154774Y-122043341D01*
X137154779Y-122043350D01*
X137154789Y-122043367D01*
X137242387Y-122174466D01*
X137242388Y-122174467D01*
X137242393Y-122174473D01*
X137353877Y-122285957D01*
X137353883Y-122285962D01*
X137353887Y-122285965D01*
X137484990Y-122373566D01*
X137485003Y-122373573D01*
X137597727Y-122420264D01*
X137630679Y-122433913D01*
X137630681Y-122433913D01*
X137630686Y-122433915D01*
X137714455Y-122450577D01*
X137785329Y-122464675D01*
X137785332Y-122464676D01*
X137785334Y-122464676D01*
X137943020Y-122464676D01*
X137943021Y-122464675D01*
X138097673Y-122433913D01*
X138243355Y-122373570D01*
X138374465Y-122285965D01*
X138485965Y-122174465D01*
X138573570Y-122043355D01*
X138583676Y-122018958D01*
X138584483Y-122017011D01*
X138606735Y-121963287D01*
X138632236Y-121901720D01*
X138633398Y-121899173D01*
X138633906Y-121897686D01*
X138633911Y-121897677D01*
X138633913Y-121897673D01*
X138664675Y-121743024D01*
X138664676Y-121743020D01*
X138664676Y-121585149D01*
X138664241Y-121583148D01*
X138660152Y-121562594D01*
X138651838Y-121520795D01*
X138651548Y-121519339D01*
X138644619Y-121484504D01*
X138633913Y-121430679D01*
X138632073Y-121426237D01*
X138632069Y-121426226D01*
X138632069Y-121426225D01*
X138573576Y-121285009D01*
X138573571Y-121285000D01*
X138573566Y-121284990D01*
X138485965Y-121153887D01*
X138485962Y-121153883D01*
X138485957Y-121153877D01*
X138374473Y-121042393D01*
X138374467Y-121042388D01*
X138374466Y-121042387D01*
X138243367Y-120954789D01*
X138243366Y-120954788D01*
X138243361Y-120954785D01*
X138243348Y-120954778D01*
X138243341Y-120954774D01*
X138097678Y-120894440D01*
X138097647Y-120894433D01*
X137943023Y-120863676D01*
X137943021Y-120863676D01*
X137943018Y-120863676D01*
X137785334Y-120863676D01*
X137785331Y-120863676D01*
X137785329Y-120863676D01*
X137630703Y-120894433D01*
X137630672Y-120894440D01*
X137485009Y-120954774D01*
X137485000Y-120954779D01*
X137484983Y-120954789D01*
X137353884Y-121042387D01*
X137353883Y-121042388D01*
X137353877Y-121042393D01*
X137242393Y-121153877D01*
X137242388Y-121153883D01*
X137242387Y-121153884D01*
X137154789Y-121284983D01*
X137154779Y-121285000D01*
X137154774Y-121285009D01*
X137094440Y-121430672D01*
X137094433Y-121430703D01*
X137063676Y-121585326D01*
X137063676Y-121585329D01*
X137063676Y-121743022D01*
X137063676Y-121743024D01*
X137063675Y-121743024D01*
X125698980Y-121743024D01*
X125747458Y-121593825D01*
X125748213Y-121591578D01*
X125749012Y-121589272D01*
X125749786Y-121587108D01*
X126096217Y-120648066D01*
X126097020Y-120645957D01*
X126097926Y-120643641D01*
X126098759Y-120641572D01*
X126481766Y-119716910D01*
X126482680Y-119714763D01*
X126483655Y-119712535D01*
X126484626Y-119710374D01*
X126521856Y-119629617D01*
X126903615Y-118801517D01*
X126904579Y-118799479D01*
X126905727Y-118797114D01*
X126906702Y-118795154D01*
X127030816Y-118551567D01*
X127361084Y-117903377D01*
X127362186Y-117901268D01*
X127363325Y-117899137D01*
X127364428Y-117897121D01*
X127853435Y-117023938D01*
X127854532Y-117022022D01*
X127855879Y-117019723D01*
X127857019Y-117017822D01*
X128379935Y-116164500D01*
X128381148Y-116162564D01*
X128382546Y-116160381D01*
X128383800Y-116158464D01*
X128455754Y-116050779D01*
X128656428Y-115750448D01*
X148551499Y-115750448D01*
X148582257Y-115905071D01*
X148582264Y-115905102D01*
X148642598Y-116050765D01*
X148642603Y-116050774D01*
X148642613Y-116050791D01*
X148730211Y-116181890D01*
X148730212Y-116181891D01*
X148730217Y-116181897D01*
X148841701Y-116293381D01*
X148841707Y-116293386D01*
X148841711Y-116293389D01*
X148972814Y-116380990D01*
X148972827Y-116380997D01*
X149118498Y-116441335D01*
X149118503Y-116441337D01*
X149273153Y-116472099D01*
X149273156Y-116472100D01*
X149273158Y-116472100D01*
X149430844Y-116472100D01*
X149430845Y-116472099D01*
X149585497Y-116441337D01*
X149731179Y-116380994D01*
X149862289Y-116293389D01*
X149973789Y-116181889D01*
X150061394Y-116050779D01*
X150121737Y-115905097D01*
X150152500Y-115750442D01*
X150152500Y-115592758D01*
X150152500Y-115592755D01*
X150152500Y-115592573D01*
X150152065Y-115590572D01*
X150122395Y-115441415D01*
X150121984Y-115439006D01*
X150121736Y-115438099D01*
X150110769Y-115411623D01*
X150110740Y-115411555D01*
X150110739Y-115411552D01*
X150061397Y-115292427D01*
X150061390Y-115292414D01*
X149973789Y-115161311D01*
X149973786Y-115161307D01*
X149973781Y-115161301D01*
X149862297Y-115049817D01*
X149862291Y-115049812D01*
X149862290Y-115049811D01*
X149731191Y-114962213D01*
X149731190Y-114962212D01*
X149731185Y-114962209D01*
X149731172Y-114962202D01*
X149731165Y-114962198D01*
X149585502Y-114901864D01*
X149585471Y-114901857D01*
X149430847Y-114871100D01*
X149430845Y-114871100D01*
X149430842Y-114871100D01*
X149273158Y-114871100D01*
X149273155Y-114871100D01*
X149273153Y-114871100D01*
X149118527Y-114901857D01*
X149118496Y-114901864D01*
X148972833Y-114962198D01*
X148972824Y-114962203D01*
X148972807Y-114962213D01*
X148841708Y-115049811D01*
X148841707Y-115049812D01*
X148841701Y-115049817D01*
X148730217Y-115161301D01*
X148730212Y-115161307D01*
X148730211Y-115161308D01*
X148642613Y-115292407D01*
X148642603Y-115292424D01*
X148642598Y-115292433D01*
X148582264Y-115438096D01*
X148582257Y-115438127D01*
X148551500Y-115592750D01*
X148551500Y-115592753D01*
X148551500Y-115750446D01*
X148551500Y-115750448D01*
X148551499Y-115750448D01*
X128656428Y-115750448D01*
X128939763Y-115326405D01*
X128941107Y-115324435D01*
X128942527Y-115322398D01*
X128943872Y-115320508D01*
X129532066Y-114510929D01*
X129533490Y-114509010D01*
X129535010Y-114507002D01*
X129536383Y-114505224D01*
X129586514Y-114441634D01*
X130155975Y-113719274D01*
X130157464Y-113717425D01*
X130159066Y-113715473D01*
X130160529Y-113713727D01*
X130633540Y-113159902D01*
X130810443Y-112952774D01*
X130812005Y-112950982D01*
X130813592Y-112949195D01*
X130815252Y-112947363D01*
X130834391Y-112926659D01*
X131494548Y-112212504D01*
X131496151Y-112210806D01*
X131497866Y-112209022D01*
X131499457Y-112207400D01*
X132088238Y-111618619D01*
X136918678Y-111618619D01*
X136918678Y-111839073D01*
X136953163Y-112056802D01*
X137021272Y-112266426D01*
X137021280Y-112266449D01*
X137021282Y-112266453D01*
X137121365Y-112462873D01*
X137238413Y-112623976D01*
X137250930Y-112641205D01*
X137250934Y-112641210D01*
X137250939Y-112641216D01*
X137406807Y-112797084D01*
X137406811Y-112797087D01*
X137406814Y-112797090D01*
X137406819Y-112797094D01*
X137548592Y-112900097D01*
X137585156Y-112926662D01*
X137694280Y-112982264D01*
X137749767Y-113010537D01*
X137781570Y-113026742D01*
X137781574Y-113026743D01*
X137781597Y-113026751D01*
X137886399Y-113060802D01*
X137991227Y-113094862D01*
X138208956Y-113129347D01*
X138208957Y-113129347D01*
X138429399Y-113129347D01*
X138429400Y-113129347D01*
X138647129Y-113094862D01*
X138856784Y-113026742D01*
X139053200Y-112926662D01*
X139089764Y-112900097D01*
X150439500Y-112900097D01*
X150439500Y-113159901D01*
X150480140Y-113416494D01*
X150480140Y-113416497D01*
X150536715Y-113590613D01*
X150560422Y-113663576D01*
X150624690Y-113789707D01*
X150678366Y-113895051D01*
X150831069Y-114105229D01*
X151014771Y-114288931D01*
X151224949Y-114441634D01*
X151359054Y-114509964D01*
X151449976Y-114556292D01*
X151451574Y-114557228D01*
X151455262Y-114559014D01*
X151457288Y-114560020D01*
X151461053Y-114561082D01*
X151680716Y-114632454D01*
X151703507Y-114639860D01*
X151771235Y-114650586D01*
X151835545Y-114660772D01*
X151835644Y-114660787D01*
X151835706Y-114660797D01*
X151960098Y-114680500D01*
X151960103Y-114680500D01*
X152219901Y-114680500D01*
X152219902Y-114680500D01*
X152333298Y-114662539D01*
X152476493Y-114639860D01*
X152723572Y-114559579D01*
X152955051Y-114441634D01*
X153165229Y-114288931D01*
X153348931Y-114105229D01*
X153501634Y-113895051D01*
X153619579Y-113663572D01*
X153699860Y-113416493D01*
X153722539Y-113273298D01*
X153740500Y-113159902D01*
X153740500Y-112900097D01*
X153718947Y-112764021D01*
X153699860Y-112643507D01*
X153619579Y-112396428D01*
X153619577Y-112396425D01*
X153619577Y-112396423D01*
X153617338Y-112392028D01*
X153617026Y-112391229D01*
X153616292Y-112389976D01*
X153553353Y-112266453D01*
X153501634Y-112164949D01*
X153348931Y-111954771D01*
X153348914Y-111954754D01*
X153165234Y-111771073D01*
X153165223Y-111771065D01*
X152955054Y-111618368D01*
X152955053Y-111618367D01*
X152955051Y-111618366D01*
X152882764Y-111581534D01*
X152882764Y-111581533D01*
X152882762Y-111581533D01*
X152723581Y-111500424D01*
X152723574Y-111500421D01*
X152476495Y-111420140D01*
X152305432Y-111393046D01*
X152219902Y-111379500D01*
X152219901Y-111379500D01*
X151960093Y-111379500D01*
X151703504Y-111420140D01*
X151703501Y-111420140D01*
X151463646Y-111498075D01*
X151456423Y-111500422D01*
X151297235Y-111581534D01*
X151224941Y-111618370D01*
X151014774Y-111771065D01*
X151014754Y-111771083D01*
X150831083Y-111954754D01*
X150831065Y-111954774D01*
X150678370Y-112164941D01*
X150678368Y-112164945D01*
X150560422Y-112396423D01*
X150560421Y-112396425D01*
X150560421Y-112396426D01*
X150480140Y-112643501D01*
X150480140Y-112643504D01*
X150439500Y-112900097D01*
X139089764Y-112900097D01*
X139231543Y-112797089D01*
X139387420Y-112641212D01*
X139516993Y-112462869D01*
X139617073Y-112266453D01*
X139685193Y-112056798D01*
X139719678Y-111839069D01*
X139719678Y-111618625D01*
X139685193Y-111400896D01*
X139617073Y-111191241D01*
X139617073Y-111191240D01*
X139543576Y-111046997D01*
X139516993Y-110994825D01*
X139516990Y-110994821D01*
X139410241Y-110847892D01*
X139410240Y-110847889D01*
X139387439Y-110816507D01*
X139387421Y-110816483D01*
X139387413Y-110816474D01*
X139231547Y-110660608D01*
X139231542Y-110660604D01*
X139231541Y-110660603D01*
X139231536Y-110660599D01*
X139108353Y-110571102D01*
X139063808Y-110538738D01*
X139063796Y-110538730D01*
X139053203Y-110531034D01*
X139053202Y-110531033D01*
X139053200Y-110531032D01*
X139047087Y-110527917D01*
X139047076Y-110527910D01*
X138990276Y-110498970D01*
X138990274Y-110498969D01*
X138856784Y-110430951D01*
X138856780Y-110430949D01*
X138856757Y-110430941D01*
X138812150Y-110416448D01*
X150024699Y-110416448D01*
X150055457Y-110571071D01*
X150055464Y-110571102D01*
X150115798Y-110716765D01*
X150115803Y-110716774D01*
X150115813Y-110716791D01*
X150203411Y-110847890D01*
X150203412Y-110847891D01*
X150203417Y-110847897D01*
X150314901Y-110959381D01*
X150314907Y-110959386D01*
X150314911Y-110959389D01*
X150446014Y-111046990D01*
X150446027Y-111046997D01*
X150591698Y-111107335D01*
X150591703Y-111107337D01*
X150746353Y-111138099D01*
X150746356Y-111138100D01*
X150746358Y-111138100D01*
X150904044Y-111138100D01*
X150904045Y-111138099D01*
X151058697Y-111107337D01*
X151204379Y-111046994D01*
X151335489Y-110959389D01*
X151446989Y-110847889D01*
X151534594Y-110716779D01*
X151594937Y-110571097D01*
X151625700Y-110416442D01*
X151625700Y-110258758D01*
X151625700Y-110258755D01*
X151625700Y-110258573D01*
X151625265Y-110256572D01*
X151605450Y-110156956D01*
X151595595Y-110107416D01*
X151595194Y-110105067D01*
X151594938Y-110104108D01*
X151594937Y-110104106D01*
X151594937Y-110104103D01*
X151594935Y-110104098D01*
X151534597Y-109958427D01*
X151534590Y-109958414D01*
X151446989Y-109827311D01*
X151446986Y-109827307D01*
X151446981Y-109827301D01*
X151335497Y-109715817D01*
X151335491Y-109715812D01*
X151335490Y-109715811D01*
X151204391Y-109628213D01*
X151204390Y-109628212D01*
X151204385Y-109628209D01*
X151204372Y-109628202D01*
X151204365Y-109628198D01*
X151058702Y-109567864D01*
X151058671Y-109567857D01*
X150904047Y-109537100D01*
X150904045Y-109537100D01*
X150904042Y-109537100D01*
X150746358Y-109537100D01*
X150746355Y-109537100D01*
X150746353Y-109537100D01*
X150591727Y-109567857D01*
X150591696Y-109567864D01*
X150446033Y-109628198D01*
X150446024Y-109628203D01*
X150446007Y-109628213D01*
X150314908Y-109715811D01*
X150314907Y-109715812D01*
X150314901Y-109715817D01*
X150203417Y-109827301D01*
X150203412Y-109827307D01*
X150203411Y-109827308D01*
X150115813Y-109958407D01*
X150115803Y-109958424D01*
X150115798Y-109958433D01*
X150055464Y-110104096D01*
X150055457Y-110104127D01*
X150024700Y-110258750D01*
X150024700Y-110258753D01*
X150024700Y-110416446D01*
X150024700Y-110416448D01*
X150024699Y-110416448D01*
X138812150Y-110416448D01*
X138740102Y-110393039D01*
X138710401Y-110378788D01*
X138698474Y-110370963D01*
X138483832Y-110336968D01*
X138472945Y-110335243D01*
X138429404Y-110328347D01*
X138429400Y-110328347D01*
X138208956Y-110328347D01*
X138208952Y-110328347D01*
X138154525Y-110336968D01*
X138136379Y-110339842D01*
X137991221Y-110362832D01*
X137781597Y-110430941D01*
X137781574Y-110430949D01*
X137781570Y-110430951D01*
X137585150Y-110531034D01*
X137406836Y-110660586D01*
X137406807Y-110660608D01*
X137250939Y-110816476D01*
X137250917Y-110816505D01*
X137121365Y-110994819D01*
X137021282Y-111191239D01*
X137021280Y-111191243D01*
X137021272Y-111191266D01*
X136953163Y-111400890D01*
X136918678Y-111618619D01*
X132088238Y-111618619D01*
X132207149Y-111499708D01*
X132208771Y-111498117D01*
X132210574Y-111496383D01*
X132212253Y-111494799D01*
X132947136Y-110815481D01*
X132948944Y-110813843D01*
X132950731Y-110812256D01*
X132952538Y-110810682D01*
X133713479Y-110160777D01*
X133715256Y-110159289D01*
X133717175Y-110157714D01*
X133719023Y-110156226D01*
X134504975Y-109536632D01*
X134506753Y-109535259D01*
X134508828Y-109533689D01*
X134510683Y-109532315D01*
X134510700Y-109532303D01*
X134609677Y-109460392D01*
X135320303Y-108944090D01*
X135322146Y-108942779D01*
X135324185Y-108941357D01*
X135326107Y-108940045D01*
X136158278Y-108384007D01*
X136160097Y-108382817D01*
X136162369Y-108381363D01*
X136164227Y-108380200D01*
X136916721Y-107919071D01*
X147215037Y-107919071D01*
X147249138Y-108090499D01*
X147249144Y-108090519D01*
X147305708Y-108227081D01*
X147305713Y-108227090D01*
X147305723Y-108227107D01*
X147387849Y-108350017D01*
X147387850Y-108350018D01*
X147387855Y-108350024D01*
X147492374Y-108454543D01*
X147492380Y-108454548D01*
X147492384Y-108454551D01*
X147615298Y-108536680D01*
X147615311Y-108536687D01*
X147751882Y-108593256D01*
X147751887Y-108593258D01*
X147751891Y-108593258D01*
X147751892Y-108593259D01*
X147752157Y-108593311D01*
X147752158Y-108593312D01*
X147752182Y-108593317D01*
X147896877Y-108622100D01*
X147896879Y-108622100D01*
X147896882Y-108622100D01*
X148044720Y-108622100D01*
X148142262Y-108602696D01*
X148189713Y-108593258D01*
X148326295Y-108536684D01*
X148449216Y-108454551D01*
X148553751Y-108350016D01*
X148635884Y-108227095D01*
X148692458Y-108090513D01*
X148721300Y-107945520D01*
X151220299Y-107945520D01*
X151249140Y-108090507D01*
X151249143Y-108090517D01*
X151249619Y-108091667D01*
X151249620Y-108091670D01*
X151305708Y-108227081D01*
X151305713Y-108227090D01*
X151305723Y-108227107D01*
X151387849Y-108350017D01*
X151387850Y-108350018D01*
X151387855Y-108350024D01*
X151492374Y-108454543D01*
X151492380Y-108454548D01*
X151492384Y-108454551D01*
X151615298Y-108536680D01*
X151615311Y-108536687D01*
X151751882Y-108593256D01*
X151751887Y-108593258D01*
X151751891Y-108593258D01*
X151751892Y-108593259D01*
X151752157Y-108593311D01*
X151752158Y-108593312D01*
X151752182Y-108593317D01*
X151896877Y-108622100D01*
X151896879Y-108622100D01*
X151896882Y-108622100D01*
X152044720Y-108622100D01*
X152142262Y-108602696D01*
X152189713Y-108593258D01*
X152326295Y-108536684D01*
X152449216Y-108454551D01*
X152553751Y-108350016D01*
X152635884Y-108227095D01*
X152692458Y-108090513D01*
X152721300Y-107945518D01*
X152721300Y-107797682D01*
X152721300Y-107797679D01*
X152721300Y-107797676D01*
X152692517Y-107652983D01*
X152692219Y-107651485D01*
X152690138Y-107647087D01*
X152635887Y-107516111D01*
X152635880Y-107516098D01*
X152553751Y-107393184D01*
X152553748Y-107393180D01*
X152553743Y-107393174D01*
X152449224Y-107288655D01*
X152449218Y-107288650D01*
X152449217Y-107288649D01*
X152326307Y-107206523D01*
X152326306Y-107206522D01*
X152326301Y-107206519D01*
X152326288Y-107206512D01*
X152326281Y-107206508D01*
X152189719Y-107149944D01*
X152189720Y-107149944D01*
X152189717Y-107149943D01*
X152189707Y-107149940D01*
X152189705Y-107149939D01*
X152189700Y-107149938D01*
X152044722Y-107121100D01*
X152044720Y-107121100D01*
X152044718Y-107121100D01*
X151896882Y-107121100D01*
X151896880Y-107121100D01*
X151896878Y-107121100D01*
X151751896Y-107149938D01*
X151751879Y-107149944D01*
X151615317Y-107206508D01*
X151615308Y-107206513D01*
X151615291Y-107206523D01*
X151492381Y-107288649D01*
X151492380Y-107288650D01*
X151492374Y-107288655D01*
X151387855Y-107393174D01*
X151387850Y-107393180D01*
X151387849Y-107393181D01*
X151305723Y-107516091D01*
X151305713Y-107516108D01*
X151305708Y-107516117D01*
X151249144Y-107652679D01*
X151249138Y-107652698D01*
X151220300Y-107797676D01*
X151220300Y-107797679D01*
X151220300Y-107797682D01*
X151220300Y-107945518D01*
X151220300Y-107945520D01*
X151220299Y-107945520D01*
X148721300Y-107945520D01*
X148721300Y-107945518D01*
X148721300Y-107797682D01*
X148721300Y-107797679D01*
X148721300Y-107797676D01*
X148692517Y-107652983D01*
X148692219Y-107651485D01*
X148690138Y-107647087D01*
X148635887Y-107516111D01*
X148635880Y-107516098D01*
X148553751Y-107393184D01*
X148553748Y-107393180D01*
X148553743Y-107393174D01*
X148449224Y-107288655D01*
X148449218Y-107288650D01*
X148449217Y-107288649D01*
X148326307Y-107206523D01*
X148326306Y-107206522D01*
X148326301Y-107206519D01*
X148326288Y-107206512D01*
X148326281Y-107206508D01*
X148189719Y-107149944D01*
X148189720Y-107149944D01*
X148189717Y-107149943D01*
X148189707Y-107149940D01*
X148189705Y-107149939D01*
X148189700Y-107149938D01*
X148044722Y-107121100D01*
X148044720Y-107121100D01*
X148044718Y-107121100D01*
X147896882Y-107121100D01*
X147896880Y-107121100D01*
X147896878Y-107121100D01*
X147751896Y-107149938D01*
X147751879Y-107149944D01*
X147615317Y-107206508D01*
X147615308Y-107206513D01*
X147615291Y-107206523D01*
X147492381Y-107288649D01*
X147492380Y-107288650D01*
X147492374Y-107288655D01*
X147387855Y-107393174D01*
X147387850Y-107393180D01*
X147387849Y-107393181D01*
X147305723Y-107516091D01*
X147305713Y-107516108D01*
X147305708Y-107516117D01*
X147249144Y-107652679D01*
X147249138Y-107652698D01*
X147220300Y-107797676D01*
X147220300Y-107901151D01*
X147215037Y-107919071D01*
X136916721Y-107919071D01*
X137017571Y-107857270D01*
X137019472Y-107856130D01*
X137021775Y-107854780D01*
X137023612Y-107853728D01*
X137896870Y-107364679D01*
X137898886Y-107363576D01*
X137901056Y-107362416D01*
X137903126Y-107361335D01*
X138794899Y-106906954D01*
X138796919Y-106905950D01*
X138799217Y-106904836D01*
X138801270Y-106903865D01*
X139710152Y-106484863D01*
X139712284Y-106483906D01*
X139714512Y-106482931D01*
X139716659Y-106482017D01*
X140641255Y-106099038D01*
X140643390Y-106098177D01*
X140645745Y-106097255D01*
X140647845Y-106096457D01*
X141586881Y-105750028D01*
X141589008Y-105749268D01*
X141591395Y-105748440D01*
X141593574Y-105747709D01*
X142545298Y-105438475D01*
X142547598Y-105437753D01*
X142549978Y-105437031D01*
X142552239Y-105436370D01*
X143515416Y-105164725D01*
X143517651Y-105164118D01*
X143519944Y-105163521D01*
X143519998Y-105163507D01*
X143522272Y-105162937D01*
X144495426Y-104929303D01*
X144497730Y-104928775D01*
X144500118Y-104928251D01*
X144502441Y-104927765D01*
X145483870Y-104732546D01*
X145486171Y-104732111D01*
X145488684Y-104731662D01*
X145490963Y-104731279D01*
X146479407Y-104574724D01*
X146481696Y-104574385D01*
X146484187Y-104574040D01*
X146486523Y-104573741D01*
X147480291Y-104456121D01*
X147482547Y-104455876D01*
X147485103Y-104455625D01*
X147487377Y-104455423D01*
X148485115Y-104376899D01*
X148487437Y-104376739D01*
X148489984Y-104376589D01*
X148492234Y-104376480D01*
X149492179Y-104337193D01*
X149494467Y-104337124D01*
X149497069Y-104337073D01*
X149499446Y-104337051D01*
X150500052Y-104337051D01*
X150502466Y-104337075D01*
G37*
G04 #@! TD.AperFunction*
G04 #@! TA.AperFunction,Conductor*
G36*
X152158000Y-123295521D02*
G01*
X152168853Y-123298707D01*
X152227634Y-123336477D01*
X152256663Y-123400031D01*
X152246724Y-123469190D01*
X152246723Y-123469192D01*
X152243538Y-123476167D01*
X152220802Y-123502407D01*
X152222701Y-123504259D01*
X152073685Y-123657065D01*
X152044340Y-123679322D01*
X152021252Y-123691930D01*
X151961822Y-123707100D01*
X145611241Y-123707100D01*
X145530827Y-123728646D01*
X145530684Y-123728686D01*
X145458521Y-123748023D01*
X145458514Y-123748026D01*
X145453628Y-123750847D01*
X145441014Y-123754475D01*
X145439999Y-123754469D01*
X145435966Y-123755812D01*
X145415974Y-123760660D01*
X145351817Y-123759130D01*
X145341828Y-123756197D01*
X145328459Y-123750473D01*
X145328186Y-123751133D01*
X145320675Y-123748021D01*
X145296574Y-123741563D01*
X145296574Y-123741564D01*
X145208871Y-123718064D01*
X145167950Y-123707099D01*
X145167949Y-123707099D01*
X145000336Y-123707099D01*
X145000273Y-123707100D01*
X140603327Y-123707100D01*
X140568392Y-123702077D01*
X140557538Y-123698890D01*
X140498760Y-123661116D01*
X140469735Y-123597560D01*
X140479675Y-123528411D01*
X140482865Y-123521424D01*
X140507974Y-123485260D01*
X140653811Y-123339423D01*
X140682061Y-123318275D01*
X140705153Y-123305667D01*
X140764578Y-123290500D01*
X152123073Y-123290500D01*
X152158000Y-123295521D01*
G37*
G04 #@! TD.AperFunction*
G04 #@! TA.AperFunction,Conductor*
G36*
X164603316Y-108893225D02*
G01*
X164673310Y-108939994D01*
X164675307Y-108941357D01*
X164677312Y-108942754D01*
X164679309Y-108944175D01*
X165488797Y-109532303D01*
X165490752Y-109533753D01*
X165492690Y-109535220D01*
X165494618Y-109536709D01*
X166027001Y-109956405D01*
X166218567Y-110107424D01*
X166280422Y-110156186D01*
X166282277Y-110157678D01*
X166284275Y-110159318D01*
X166286000Y-110160762D01*
X167046942Y-110810668D01*
X167048742Y-110812236D01*
X167050580Y-110813869D01*
X167052392Y-110815511D01*
X167458853Y-111191239D01*
X167685659Y-111400896D01*
X167787182Y-111494743D01*
X167788942Y-111496403D01*
X167790677Y-111498071D01*
X167792420Y-111499780D01*
X168499968Y-112207328D01*
X168501678Y-112209072D01*
X168503345Y-112210806D01*
X168505010Y-112212572D01*
X169165107Y-112926661D01*
X169184228Y-112947345D01*
X169185834Y-112949116D01*
X169187537Y-112951034D01*
X169189038Y-112952757D01*
X169838976Y-113713737D01*
X169840437Y-113715482D01*
X169842059Y-113717458D01*
X169843561Y-113719325D01*
X170463038Y-114505129D01*
X170464527Y-114507057D01*
X170465994Y-114508995D01*
X170467444Y-114510950D01*
X171055572Y-115320438D01*
X171056993Y-115322435D01*
X171058390Y-115324440D01*
X171059753Y-115326437D01*
X171615678Y-116158437D01*
X171617006Y-116160468D01*
X171618298Y-116162486D01*
X171619590Y-116164548D01*
X171698539Y-116293381D01*
X172142405Y-117017705D01*
X172143655Y-117019790D01*
X172144917Y-117021943D01*
X172146129Y-117024059D01*
X172494268Y-117645705D01*
X172506957Y-117678642D01*
X172509512Y-117689811D01*
X172505272Y-117759552D01*
X172464001Y-117815930D01*
X172399246Y-117841008D01*
X172388139Y-117841962D01*
X172353336Y-117840034D01*
X172240050Y-117817500D01*
X172240046Y-117817500D01*
X172240042Y-117817500D01*
X172082358Y-117817500D01*
X172082355Y-117817500D01*
X172082353Y-117817500D01*
X171927727Y-117848257D01*
X171927696Y-117848264D01*
X171782033Y-117908598D01*
X171782024Y-117908603D01*
X171782007Y-117908613D01*
X171650908Y-117996211D01*
X171650907Y-117996212D01*
X171650901Y-117996217D01*
X171539417Y-118107701D01*
X171539412Y-118107707D01*
X171539411Y-118107708D01*
X171451813Y-118238807D01*
X171451803Y-118238824D01*
X171451798Y-118238833D01*
X171391464Y-118384496D01*
X171391457Y-118384527D01*
X171360700Y-118539150D01*
X171360700Y-118539153D01*
X171360700Y-118696846D01*
X171360700Y-118696848D01*
X171360699Y-118696848D01*
X171391457Y-118851471D01*
X171391464Y-118851502D01*
X171451798Y-118997165D01*
X171451802Y-118997172D01*
X171451809Y-118997185D01*
X171529897Y-119114050D01*
X171545128Y-119145886D01*
X171555034Y-119177522D01*
X171560700Y-119214575D01*
X171560700Y-119340272D01*
X171555676Y-119375210D01*
X171552489Y-119386063D01*
X171514714Y-119444840D01*
X171451157Y-119473863D01*
X171382007Y-119463922D01*
X171375029Y-119460735D01*
X171338857Y-119435621D01*
X167319128Y-115415893D01*
X167314790Y-115411555D01*
X167314788Y-115411552D01*
X167195917Y-115292681D01*
X167195916Y-115292680D01*
X167195915Y-115292679D01*
X167195912Y-115292677D01*
X167129998Y-115254621D01*
X167129998Y-115254622D01*
X167094043Y-115233864D01*
X167094042Y-115233863D01*
X167058986Y-115213623D01*
X167020803Y-115203392D01*
X166906257Y-115172699D01*
X166906254Y-115172699D01*
X166738643Y-115172699D01*
X166738580Y-115172700D01*
X165966178Y-115172700D01*
X165930367Y-115162184D01*
X165904595Y-115158661D01*
X165851475Y-115113273D01*
X165831327Y-115046372D01*
X165842529Y-114994005D01*
X165843502Y-114991874D01*
X165887406Y-114940285D01*
X165893446Y-114936250D01*
X165915089Y-114921789D01*
X166026589Y-114810289D01*
X166114194Y-114679179D01*
X166121087Y-114662539D01*
X166163551Y-114560020D01*
X166174537Y-114533497D01*
X166205300Y-114378842D01*
X166205300Y-114221158D01*
X166205300Y-114221155D01*
X166205300Y-114220971D01*
X166204864Y-114218966D01*
X166203101Y-114210106D01*
X166174537Y-114066503D01*
X166174535Y-114066498D01*
X166114197Y-113920827D01*
X166114190Y-113920814D01*
X166026589Y-113789711D01*
X166026586Y-113789707D01*
X166026585Y-113789706D01*
X166026581Y-113789701D01*
X165915097Y-113678217D01*
X165915091Y-113678212D01*
X165915090Y-113678211D01*
X165783991Y-113590613D01*
X165783990Y-113590612D01*
X165783985Y-113590609D01*
X165783972Y-113590602D01*
X165783965Y-113590598D01*
X165638302Y-113530264D01*
X165638271Y-113530257D01*
X165483647Y-113499500D01*
X165483645Y-113499500D01*
X165483642Y-113499500D01*
X165325958Y-113499500D01*
X165325955Y-113499500D01*
X165325953Y-113499500D01*
X165171327Y-113530257D01*
X165171296Y-113530264D01*
X165025633Y-113590598D01*
X165025624Y-113590603D01*
X165025607Y-113590613D01*
X164894508Y-113678211D01*
X164894507Y-113678212D01*
X164894501Y-113678217D01*
X164783017Y-113789701D01*
X164783012Y-113789707D01*
X164695413Y-113920807D01*
X164695403Y-113920824D01*
X164695398Y-113920833D01*
X164635064Y-114066496D01*
X164635057Y-114066527D01*
X164604300Y-114221150D01*
X164604300Y-114276089D01*
X164599276Y-114311026D01*
X164591864Y-114336267D01*
X164560569Y-114389011D01*
X162301808Y-116647773D01*
X162273557Y-116668922D01*
X162250469Y-116681530D01*
X162191039Y-116696700D01*
X161617343Y-116696700D01*
X161480386Y-116733397D01*
X161477282Y-116734186D01*
X161457394Y-116738968D01*
X161456549Y-116738926D01*
X161451507Y-116740457D01*
X161428082Y-116745117D01*
X161403892Y-116747500D01*
X160042537Y-116747500D01*
X160039862Y-116747852D01*
X160037606Y-116747500D01*
X160034416Y-116747500D01*
X160034416Y-116747002D01*
X159970827Y-116737082D01*
X159918575Y-116690698D01*
X159899694Y-116623428D01*
X159920179Y-116556629D01*
X159944274Y-116529677D01*
X166253635Y-111269382D01*
X165169277Y-109958407D01*
X164438875Y-109075360D01*
X164411315Y-109011156D01*
X164422841Y-108942243D01*
X164469795Y-108890502D01*
X164537268Y-108872360D01*
X164603316Y-108893225D01*
G37*
G04 #@! TD.AperFunction*
G04 #@! TD*
M02*
