G04 #@! TF.GenerationSoftware,KiCad,Pcbnew,10.0.0*
G04 #@! TF.CreationDate,2026-06-21T21:15:56-04:00*
G04 #@! TF.ProjectId,LightFusion,4c696768-7446-4757-9369-6f6e2e6b6963,rev?*
G04 #@! TF.SameCoordinates,Original*
G04 #@! TF.FileFunction,Legend,Bot*
G04 #@! TF.FilePolarity,Positive*
%FSLAX46Y46*%
G04 Gerber Fmt 4.6, Leading zero omitted, Abs format (unit mm)*
G04 Created by KiCad (PCBNEW 10.0.0) date 2026-06-21 21:15:56*
%MOMM*%
%LPD*%
G01*
G04 APERTURE LIST*
G04 Aperture macros list*
%AMRoundRect*
0 Rectangle with rounded corners*
0 $1 Rounding radius*
0 $2 $3 $4 $5 $6 $7 $8 $9 X,Y pos of 4 corners*
0 Add a 4 corners polygon primitive as box body*
4,1,4,$2,$3,$4,$5,$6,$7,$8,$9,$2,$3,0*
0 Add four circle primitives for the rounded corners*
1,1,$1+$1,$2,$3*
1,1,$1+$1,$4,$5*
1,1,$1+$1,$6,$7*
1,1,$1+$1,$8,$9*
0 Add four rect primitives between the rounded corners*
20,1,$1+$1,$2,$3,$4,$5,0*
20,1,$1+$1,$4,$5,$6,$7,0*
20,1,$1+$1,$6,$7,$8,$9,0*
20,1,$1+$1,$8,$9,$2,$3,0*%
G04 Aperture macros list end*
%ADD10C,0.120000*%
%ADD11C,0.100000*%
%ADD12C,0.127000*%
%ADD13C,0.200000*%
%ADD14C,0.000000*%
%ADD15RoundRect,0.250000X-0.325000X-0.650000X0.325000X-0.650000X0.325000X0.650000X-0.325000X0.650000X0*%
%ADD16RoundRect,0.250000X0.325000X0.650000X-0.325000X0.650000X-0.325000X-0.650000X0.325000X-0.650000X0*%
%ADD17C,1.000000*%
%ADD18C,5.000000*%
%ADD19RoundRect,0.102000X-0.110931X-1.267949X1.267949X-0.110931X0.110931X1.267949X-1.267949X0.110931X0*%
%ADD20C,2.004000*%
%ADD21RoundRect,0.250001X-0.899999X-0.899999X0.899999X-0.899999X0.899999X0.899999X-0.899999X0.899999X0*%
%ADD22C,2.300000*%
%ADD23C,0.863000*%
%ADD24C,1.550000*%
%ADD25C,1.220000*%
%ADD26R,2.700000X0.500000*%
%ADD27R,2.700000X1.000000*%
%ADD28R,0.540000X0.550000*%
G04 APERTURE END LIST*
G04 #@! TO.C,C_ADC_PHOTO_N1*
D10*
X137412148Y-139949601D02*
X138834652Y-139949601D01*
X137412148Y-138129601D02*
X138834652Y-138129601D01*
G04 #@! TO.C,C_ADC_PHOTO_P1*
X134008652Y-138129599D02*
X132586148Y-138129599D01*
X134008652Y-139949599D02*
X132586148Y-139949599D01*
G04 #@! TO.C,J_PROG1*
D11*
X131989815Y-146558605D02*
X135742892Y-141754894D01*
X132970568Y-147324861D02*
X131989815Y-146558605D01*
X135742892Y-141754894D02*
X131989815Y-146558605D01*
X135742892Y-141754894D02*
X136723655Y-142521150D01*
X139795848Y-152657350D02*
X137313938Y-150718265D01*
X139795848Y-152657350D02*
X143548925Y-147853639D01*
X141087015Y-145930187D02*
X143548925Y-147853639D01*
X143548925Y-147853639D02*
X139795848Y-152657350D01*
G04 #@! TO.C,E_EEG1*
D12*
X165344400Y-148205000D02*
G75*
G02*
X163515600Y-148205000I-914400J0D01*
G01*
X163515600Y-148205000D02*
G75*
G02*
X165344400Y-148205000I914400J0D01*
G01*
G04 #@! TO.C,STIM_E_P1*
X153416000Y-153974800D02*
G75*
G02*
X151587200Y-153974800I-914400J0D01*
G01*
X151587200Y-153974800D02*
G75*
G02*
X153416000Y-153974800I914400J0D01*
G01*
G04 #@! TO.C,STIM_E_N1*
X146558000Y-153568400D02*
G75*
G02*
X144729200Y-153568400I-914400J0D01*
G01*
X144729200Y-153568400D02*
G75*
G02*
X146558000Y-153568400I914400J0D01*
G01*
G04 #@! TO.C,D_850*
D13*
X152046600Y-128373800D02*
X152046600Y-131823800D01*
X152046600Y-131823800D02*
X155496600Y-131823800D01*
D11*
D14*
X153771600Y-132298800D02*
X153771599Y-132298800D01*
X153771599Y-132298800D01*
X153771599Y-132298800D01*
X153771599Y-132298800D01*
X153771599Y-132298800D01*
X153771599Y-132298800D01*
X153771599Y-132298800D01*
X153771599Y-132298799D01*
X153771599Y-132298799D01*
X153771599Y-132298799D01*
X153771599Y-132298799D01*
X153771599Y-132298799D01*
X153771600Y-132298799D01*
X153771600Y-132298799D01*
X153771600Y-132298799D01*
X153771600Y-132298799D01*
X153771600Y-132298799D01*
X153771600Y-132298799D01*
X153771600Y-132298799D01*
X153771600Y-132298799D01*
X153771600Y-132298799D01*
X153771600Y-132298799D01*
X153771600Y-132298799D01*
X153771600Y-132298799D01*
X153771601Y-132298799D01*
X153771601Y-132298799D01*
X153771601Y-132298799D01*
X153771601Y-132298799D01*
X153771601Y-132298799D01*
X153771601Y-132298799D01*
X153771601Y-132298800D01*
X153771601Y-132298800D01*
X153771601Y-132298800D01*
X153771601Y-132298800D01*
X153771601Y-132298800D01*
X153771601Y-132298800D01*
X153771601Y-132298800D01*
X153771600Y-132298800D01*
X153771600Y-132298800D02*
X153771601Y-132298800D01*
X153771601Y-132298800D01*
X153771601Y-132298800D01*
X153771601Y-132298800D01*
X153771601Y-132298800D01*
X153771601Y-132298800D01*
X153771601Y-132298801D01*
X153771601Y-132298801D01*
X153771601Y-132298801D01*
X153771601Y-132298801D01*
X153771601Y-132298801D01*
X153771601Y-132298801D01*
X153771601Y-132298801D01*
X153771600Y-132298801D01*
X153771600Y-132298801D01*
X153771600Y-132298801D01*
X153771600Y-132298801D01*
X153771600Y-132298801D01*
X153771600Y-132298801D01*
X153771600Y-132298801D01*
X153771600Y-132298801D01*
X153771600Y-132298801D01*
X153771600Y-132298801D01*
X153771600Y-132298801D01*
X153771600Y-132298801D01*
X153771599Y-132298801D01*
X153771599Y-132298801D01*
X153771599Y-132298801D01*
X153771599Y-132298801D01*
X153771599Y-132298801D01*
X153771599Y-132298801D01*
X153771599Y-132298800D01*
X153771599Y-132298800D01*
X153771599Y-132298800D01*
X153771599Y-132298800D01*
X153771599Y-132298800D01*
X153771599Y-132298800D01*
X153771600Y-132298800D01*
D11*
D14*
X153771600Y-132398800D02*
X153771599Y-132398800D01*
X153771599Y-132398800D01*
X153771599Y-132398800D01*
X153771599Y-132398800D01*
X153771599Y-132398800D01*
X153771599Y-132398800D01*
X153771599Y-132398800D01*
X153771599Y-132398799D01*
X153771599Y-132398799D01*
X153771599Y-132398799D01*
X153771599Y-132398799D01*
X153771599Y-132398799D01*
X153771600Y-132398799D01*
X153771600Y-132398799D01*
X153771600Y-132398799D01*
X153771600Y-132398799D01*
X153771600Y-132398799D01*
X153771600Y-132398799D01*
X153771600Y-132398799D01*
X153771600Y-132398799D01*
X153771600Y-132398799D01*
X153771600Y-132398799D01*
X153771600Y-132398799D01*
X153771600Y-132398799D01*
X153771601Y-132398799D01*
X153771601Y-132398799D01*
X153771601Y-132398799D01*
X153771601Y-132398799D01*
X153771601Y-132398799D01*
X153771601Y-132398799D01*
X153771601Y-132398800D01*
X153771601Y-132398800D01*
X153771601Y-132398800D01*
X153771601Y-132398800D01*
X153771601Y-132398800D01*
X153771601Y-132398800D01*
X153771601Y-132398800D01*
X153771600Y-132398800D01*
X153771600Y-132398800D02*
X153771601Y-132398800D01*
X153771601Y-132398800D01*
X153771601Y-132398800D01*
X153771601Y-132398800D01*
X153771601Y-132398800D01*
X153771601Y-132398800D01*
X153771601Y-132398801D01*
X153771601Y-132398801D01*
X153771601Y-132398801D01*
X153771601Y-132398801D01*
X153771601Y-132398801D01*
X153771601Y-132398801D01*
X153771601Y-132398801D01*
X153771600Y-132398801D01*
X153771600Y-132398801D01*
X153771600Y-132398801D01*
X153771600Y-132398801D01*
X153771600Y-132398801D01*
X153771600Y-132398801D01*
X153771600Y-132398801D01*
X153771600Y-132398801D01*
X153771600Y-132398801D01*
X153771600Y-132398801D01*
X153771600Y-132398801D01*
X153771600Y-132398801D01*
X153771599Y-132398801D01*
X153771599Y-132398801D01*
X153771599Y-132398801D01*
X153771599Y-132398801D01*
X153771599Y-132398801D01*
X153771599Y-132398801D01*
X153771599Y-132398800D01*
X153771599Y-132398800D01*
X153771599Y-132398800D01*
X153771599Y-132398800D01*
X153771599Y-132398800D01*
X153771599Y-132398800D01*
X153771600Y-132398800D01*
D13*
X155496600Y-128373800D02*
X152046600Y-128373800D01*
X155496600Y-131823800D02*
X155496600Y-128373800D01*
D11*
X153771600Y-132298800D02*
G75*
G02*
X153771600Y-132398800I0J-50000D01*
G01*
X153771600Y-132398800D02*
G75*
G02*
X153771600Y-132298800I0J50000D01*
G01*
G04 #@! TO.C,E_EEG2*
D12*
X128422400Y-134670800D02*
G75*
G02*
X126593600Y-134670800I-914400J0D01*
G01*
X126593600Y-134670800D02*
G75*
G02*
X128422400Y-134670800I914400J0D01*
G01*
G04 #@! TO.C,D_730*
D13*
X143613800Y-128442200D02*
X143613800Y-131892200D01*
X143613800Y-131892200D02*
X147063800Y-131892200D01*
D11*
D14*
X145338800Y-132367200D02*
X145338799Y-132367200D01*
X145338799Y-132367200D01*
X145338799Y-132367200D01*
X145338799Y-132367200D01*
X145338799Y-132367200D01*
X145338799Y-132367200D01*
X145338799Y-132367200D01*
X145338799Y-132367199D01*
X145338799Y-132367199D01*
X145338799Y-132367199D01*
X145338799Y-132367199D01*
X145338799Y-132367199D01*
X145338800Y-132367199D01*
X145338800Y-132367199D01*
X145338800Y-132367199D01*
X145338800Y-132367199D01*
X145338800Y-132367199D01*
X145338800Y-132367199D01*
X145338800Y-132367199D01*
X145338800Y-132367199D01*
X145338800Y-132367199D01*
X145338800Y-132367199D01*
X145338800Y-132367199D01*
X145338800Y-132367199D01*
X145338801Y-132367199D01*
X145338801Y-132367199D01*
X145338801Y-132367199D01*
X145338801Y-132367199D01*
X145338801Y-132367199D01*
X145338801Y-132367199D01*
X145338801Y-132367200D01*
X145338801Y-132367200D01*
X145338801Y-132367200D01*
X145338801Y-132367200D01*
X145338801Y-132367200D01*
X145338801Y-132367200D01*
X145338801Y-132367200D01*
X145338800Y-132367200D01*
X145338800Y-132367200D02*
X145338801Y-132367200D01*
X145338801Y-132367200D01*
X145338801Y-132367200D01*
X145338801Y-132367200D01*
X145338801Y-132367200D01*
X145338801Y-132367200D01*
X145338801Y-132367201D01*
X145338801Y-132367201D01*
X145338801Y-132367201D01*
X145338801Y-132367201D01*
X145338801Y-132367201D01*
X145338801Y-132367201D01*
X145338801Y-132367201D01*
X145338800Y-132367201D01*
X145338800Y-132367201D01*
X145338800Y-132367201D01*
X145338800Y-132367201D01*
X145338800Y-132367201D01*
X145338800Y-132367201D01*
X145338800Y-132367201D01*
X145338800Y-132367201D01*
X145338800Y-132367201D01*
X145338800Y-132367201D01*
X145338800Y-132367201D01*
X145338800Y-132367201D01*
X145338799Y-132367201D01*
X145338799Y-132367201D01*
X145338799Y-132367201D01*
X145338799Y-132367201D01*
X145338799Y-132367201D01*
X145338799Y-132367201D01*
X145338799Y-132367200D01*
X145338799Y-132367200D01*
X145338799Y-132367200D01*
X145338799Y-132367200D01*
X145338799Y-132367200D01*
X145338799Y-132367200D01*
X145338800Y-132367200D01*
D11*
D14*
X145338800Y-132467200D02*
X145338799Y-132467200D01*
X145338799Y-132467200D01*
X145338799Y-132467200D01*
X145338799Y-132467200D01*
X145338799Y-132467200D01*
X145338799Y-132467200D01*
X145338799Y-132467200D01*
X145338799Y-132467199D01*
X145338799Y-132467199D01*
X145338799Y-132467199D01*
X145338799Y-132467199D01*
X145338799Y-132467199D01*
X145338800Y-132467199D01*
X145338800Y-132467199D01*
X145338800Y-132467199D01*
X145338800Y-132467199D01*
X145338800Y-132467199D01*
X145338800Y-132467199D01*
X145338800Y-132467199D01*
X145338800Y-132467199D01*
X145338800Y-132467199D01*
X145338800Y-132467199D01*
X145338800Y-132467199D01*
X145338800Y-132467199D01*
X145338801Y-132467199D01*
X145338801Y-132467199D01*
X145338801Y-132467199D01*
X145338801Y-132467199D01*
X145338801Y-132467199D01*
X145338801Y-132467199D01*
X145338801Y-132467200D01*
X145338801Y-132467200D01*
X145338801Y-132467200D01*
X145338801Y-132467200D01*
X145338801Y-132467200D01*
X145338801Y-132467200D01*
X145338801Y-132467200D01*
X145338800Y-132467200D01*
X145338800Y-132467200D02*
X145338801Y-132467200D01*
X145338801Y-132467200D01*
X145338801Y-132467200D01*
X145338801Y-132467200D01*
X145338801Y-132467200D01*
X145338801Y-132467200D01*
X145338801Y-132467201D01*
X145338801Y-132467201D01*
X145338801Y-132467201D01*
X145338801Y-132467201D01*
X145338801Y-132467201D01*
X145338801Y-132467201D01*
X145338801Y-132467201D01*
X145338800Y-132467201D01*
X145338800Y-132467201D01*
X145338800Y-132467201D01*
X145338800Y-132467201D01*
X145338800Y-132467201D01*
X145338800Y-132467201D01*
X145338800Y-132467201D01*
X145338800Y-132467201D01*
X145338800Y-132467201D01*
X145338800Y-132467201D01*
X145338800Y-132467201D01*
X145338800Y-132467201D01*
X145338799Y-132467201D01*
X145338799Y-132467201D01*
X145338799Y-132467201D01*
X145338799Y-132467201D01*
X145338799Y-132467201D01*
X145338799Y-132467201D01*
X145338799Y-132467200D01*
X145338799Y-132467200D01*
X145338799Y-132467200D01*
X145338799Y-132467200D01*
X145338799Y-132467200D01*
X145338799Y-132467200D01*
X145338800Y-132467200D01*
D13*
X147063800Y-128442200D02*
X143613800Y-128442200D01*
X147063800Y-131892200D02*
X147063800Y-128442200D01*
D11*
X145338800Y-132367200D02*
G75*
G02*
X145338800Y-132467200I0J-50000D01*
G01*
X145338800Y-132467200D02*
G75*
G02*
X145338800Y-132367200I0J50000D01*
G01*
G04 #@! TO.C,D_PD1*
D13*
X146871600Y-136233600D02*
X146871600Y-137433600D01*
D11*
D14*
X151271600Y-138733600D02*
X151271599Y-138733600D01*
X151271599Y-138733600D01*
X151271599Y-138733600D01*
X151271599Y-138733600D01*
X151271599Y-138733600D01*
X151271599Y-138733600D01*
X151271599Y-138733600D01*
X151271599Y-138733599D01*
X151271599Y-138733599D01*
X151271599Y-138733599D01*
X151271599Y-138733599D01*
X151271599Y-138733599D01*
X151271600Y-138733599D01*
X151271600Y-138733599D01*
X151271600Y-138733599D01*
X151271600Y-138733599D01*
X151271600Y-138733599D01*
X151271600Y-138733599D01*
X151271600Y-138733599D01*
X151271600Y-138733599D01*
X151271600Y-138733599D01*
X151271600Y-138733599D01*
X151271600Y-138733599D01*
X151271600Y-138733599D01*
X151271601Y-138733599D01*
X151271601Y-138733599D01*
X151271601Y-138733599D01*
X151271601Y-138733599D01*
X151271601Y-138733599D01*
X151271601Y-138733599D01*
X151271601Y-138733600D01*
X151271601Y-138733600D01*
X151271601Y-138733600D01*
X151271601Y-138733600D01*
X151271601Y-138733600D01*
X151271601Y-138733600D01*
X151271601Y-138733600D01*
X151271600Y-138733600D01*
X151271600Y-138733600D02*
X151271601Y-138733600D01*
X151271601Y-138733600D01*
X151271601Y-138733600D01*
X151271601Y-138733600D01*
X151271601Y-138733600D01*
X151271601Y-138733600D01*
X151271601Y-138733601D01*
X151271601Y-138733601D01*
X151271601Y-138733601D01*
X151271601Y-138733601D01*
X151271601Y-138733601D01*
X151271601Y-138733601D01*
X151271601Y-138733601D01*
X151271600Y-138733601D01*
X151271600Y-138733601D01*
X151271600Y-138733601D01*
X151271600Y-138733601D01*
X151271600Y-138733601D01*
X151271600Y-138733601D01*
X151271600Y-138733601D01*
X151271600Y-138733601D01*
X151271600Y-138733601D01*
X151271600Y-138733601D01*
X151271600Y-138733601D01*
X151271600Y-138733601D01*
X151271599Y-138733601D01*
X151271599Y-138733601D01*
X151271599Y-138733601D01*
X151271599Y-138733601D01*
X151271599Y-138733601D01*
X151271599Y-138733601D01*
X151271599Y-138733600D01*
X151271599Y-138733600D01*
X151271599Y-138733600D01*
X151271599Y-138733600D01*
X151271599Y-138733600D01*
X151271599Y-138733600D01*
X151271600Y-138733600D01*
D11*
D14*
X151271600Y-138833600D02*
X151271599Y-138833600D01*
X151271599Y-138833600D01*
X151271599Y-138833600D01*
X151271599Y-138833600D01*
X151271599Y-138833600D01*
X151271599Y-138833600D01*
X151271599Y-138833600D01*
X151271599Y-138833599D01*
X151271599Y-138833599D01*
X151271599Y-138833599D01*
X151271599Y-138833599D01*
X151271599Y-138833599D01*
X151271600Y-138833599D01*
X151271600Y-138833599D01*
X151271600Y-138833599D01*
X151271600Y-138833599D01*
X151271600Y-138833599D01*
X151271600Y-138833599D01*
X151271600Y-138833599D01*
X151271600Y-138833599D01*
X151271600Y-138833599D01*
X151271600Y-138833599D01*
X151271600Y-138833599D01*
X151271600Y-138833599D01*
X151271601Y-138833599D01*
X151271601Y-138833599D01*
X151271601Y-138833599D01*
X151271601Y-138833599D01*
X151271601Y-138833599D01*
X151271601Y-138833599D01*
X151271601Y-138833600D01*
X151271601Y-138833600D01*
X151271601Y-138833600D01*
X151271601Y-138833600D01*
X151271601Y-138833600D01*
X151271601Y-138833600D01*
X151271601Y-138833600D01*
X151271600Y-138833600D01*
X151271600Y-138833600D02*
X151271601Y-138833600D01*
X151271601Y-138833600D01*
X151271601Y-138833600D01*
X151271601Y-138833600D01*
X151271601Y-138833600D01*
X151271601Y-138833600D01*
X151271601Y-138833601D01*
X151271601Y-138833601D01*
X151271601Y-138833601D01*
X151271601Y-138833601D01*
X151271601Y-138833601D01*
X151271601Y-138833601D01*
X151271601Y-138833601D01*
X151271600Y-138833601D01*
X151271600Y-138833601D01*
X151271600Y-138833601D01*
X151271600Y-138833601D01*
X151271600Y-138833601D01*
X151271600Y-138833601D01*
X151271600Y-138833601D01*
X151271600Y-138833601D01*
X151271600Y-138833601D01*
X151271600Y-138833601D01*
X151271600Y-138833601D01*
X151271600Y-138833601D01*
X151271599Y-138833601D01*
X151271599Y-138833601D01*
X151271599Y-138833601D01*
X151271599Y-138833601D01*
X151271599Y-138833601D01*
X151271599Y-138833601D01*
X151271599Y-138833600D01*
X151271599Y-138833600D01*
X151271599Y-138833600D01*
X151271599Y-138833600D01*
X151271599Y-138833600D01*
X151271599Y-138833600D01*
X151271600Y-138833600D01*
D13*
X151671600Y-136233600D02*
X151671600Y-137433600D01*
D11*
X151271600Y-138733600D02*
G75*
G02*
X151271600Y-138833600I0J-50000D01*
G01*
X151271600Y-138833600D02*
G75*
G02*
X151271600Y-138733600I0J50000D01*
G01*
G04 #@! TO.C,E_EEG3*
D12*
X151536400Y-142087600D02*
G75*
G02*
X149707600Y-142087600I-914400J0D01*
G01*
X149707600Y-142087600D02*
G75*
G02*
X151536400Y-142087600I914400J0D01*
G01*
G04 #@! TD*
%LPC*%
D15*
G04 #@! TO.C,C_ADC_PHOTO_N1*
X136648400Y-139039601D03*
X139598400Y-139039601D03*
G04 #@! TD*
D16*
G04 #@! TO.C,C_ADC_PHOTO_P1*
X134772400Y-139039599D03*
X131822400Y-139039599D03*
G04 #@! TD*
D17*
G04 #@! TO.C,S1*
X151970800Y-107871600D03*
X147970800Y-107871600D03*
G04 #@! TD*
D18*
G04 #@! TO.C,J1*
X132037613Y-116999708D03*
X141536565Y-109029140D03*
D19*
X135255000Y-114300001D03*
D20*
X138319178Y-111728847D03*
G04 #@! TD*
D21*
G04 #@! TO.C,P1*
X147290000Y-113030000D03*
D22*
X152090000Y-113030000D03*
G04 #@! TD*
D23*
G04 #@! TO.C,J_PROG1*
X137159540Y-145923844D03*
X136377656Y-146924621D03*
X138160311Y-146705729D03*
X137378429Y-147706515D03*
X139161084Y-147487623D03*
X138379200Y-148488400D03*
D24*
X135767821Y-145642344D03*
X140396430Y-147969282D03*
X139145409Y-149570516D03*
G04 #@! TD*
D25*
G04 #@! TO.C,E_EEG1*
X164430000Y-148205000D03*
G04 #@! TD*
G04 #@! TO.C,STIM_E_P1*
X152501600Y-153974800D03*
G04 #@! TD*
G04 #@! TO.C,STIM_E_N1*
X145643600Y-153568400D03*
G04 #@! TD*
D26*
G04 #@! TO.C,D_850*
X153771600Y-131198800D03*
X153771600Y-128998800D03*
D27*
X153771600Y-130098800D03*
G04 #@! TD*
D25*
G04 #@! TO.C,E_EEG2*
X127508000Y-134670800D03*
G04 #@! TD*
D26*
G04 #@! TO.C,D_730*
X145338800Y-131267200D03*
X145338800Y-129067200D03*
D27*
X145338800Y-130167200D03*
G04 #@! TD*
D28*
G04 #@! TO.C,D_PD1*
X151271600Y-138023600D03*
X149961600Y-138023600D03*
X148581600Y-138023600D03*
X147271600Y-138023600D03*
X147271600Y-135643600D03*
X148581600Y-135643600D03*
X149961600Y-135643600D03*
X151271600Y-135643600D03*
G04 #@! TD*
D25*
G04 #@! TO.C,E_EEG3*
X150622000Y-142087600D03*
G04 #@! TD*
%LPD*%
M02*
