M48
; DRILL file KiCad 10.0.0 date 2026-06-21T21:32:24
; FORMAT={-:-/ absolute / metric / decimal}
; #@! TF.CreationDate,2026-06-21T21:32:24-04:00
; #@! TF.GenerationSoftware,Kicad,Pcbnew,10.0.0
; #@! TF.FileFunction,Plated,1,4,PTH
FMAT,2
METRIC
; #@! TA.AperFunction,Plated,PTH,ViaDrill
T1C0.300
; #@! TA.AperFunction,Plated,PTH,ComponentDrill
T2C0.508
; #@! TA.AperFunction,Plated,PTH,ComponentDrill
T3C1.067
; #@! TA.AperFunction,Plated,PTH,ComponentDrill
T4C1.150
; #@! TA.AperFunction,Plated,PTH,ComponentDrill
T5C1.200
%
G90
G05
T1
X125.69Y-130.95
X126.644Y-127.102
X129.134Y-132.588
X129.743Y-139.954
X129.946Y-121.26
X131.5Y-128.4
X132.28Y-130.47
X132.436Y-129.235
X132.537Y-127.051
X132.791Y-131.978
X132.842Y-137.82
X133.604Y-140.919
X134.021Y-132.029
X134.264Y-128.27
X134.315Y-135.687
X135.28Y-139.598
X135.585Y-119.939
X135.864Y-123.664
X135.941Y-147.472
X135.971Y-128.281
X136.5Y-126.511
X136.621Y-127.736
X136.906Y-148.234
X137.271Y-127.011
X137.5Y-124.25
X137.566Y-139.598
X137.617Y-145.491
X137.864Y-121.664
X138.633Y-137.871
X138.633Y-146.202
X139.649Y-140.208
X139.8Y-129.1
X140.03Y-130.91
X140.487Y-137.49
X141.0Y-120.0
X141.072Y-134.163
X141.935Y-145.288
X142.291Y-151.943
X142.32Y-128.98
X142.7Y-121.25
X143.053Y-137.973
X143.755Y-130.454
X143.78Y-129.81
X143.916Y-148.082
X144.4Y-119.1
X145.034Y-134.468
X145.339Y-149.555
X145.39Y-123.901
X145.999Y-107.086
X146.507Y-137.719
X146.558Y-135.23
X146.89Y-130.47
X146.9Y-129.83
X147.117Y-150.216
X147.625Y-116.885
X147.98Y-121.209
X148.285Y-146.202
X148.438Y-125.71
X148.608Y-151.711
X149.352Y-115.672
X150.012Y-125.222
X150.24Y-121.43
X150.266Y-144.17
X150.368Y-153.162
X150.825Y-110.338
X150.825Y-147.93
X150.927Y-146.558
X151.483Y-125.527
X151.892Y-145.644
X152.095Y-149.657
X152.197Y-126.187
X152.197Y-129.794
X152.197Y-130.404
X152.349Y-123.19
X153.006Y-114.952
X153.84Y-132.47
X153.975Y-148.793
X154.076Y-107.137
X154.432Y-152.654
X154.586Y-119.077
X155.296Y-129.794
X155.296Y-130.404
X156.616Y-118.161
X157.734Y-120.853
X157.85Y-131.95
X157.937Y-140.259
X158.496Y-123.038
X158.547Y-146.202
X159.258Y-119.482
X159.258Y-144.882
X159.614Y-122.098
X159.614Y-126.086
X159.817Y-121.006
X160.122Y-127.0
X161.011Y-127.381
X161.036Y-121.666
X161.138Y-118.77
X161.392Y-128.067
X161.595Y-122.123
X161.646Y-119.278
X162.103Y-119.837
X162.611Y-125.273
X162.814Y-118.77
X162.933Y-120.686
X163.424Y-121.412
X164.2Y-136.59
X164.724Y-127.325
X165.405Y-114.3
X165.506Y-125.984
X165.862Y-137.516
X165.913Y-116.434
X165.913Y-131.216
X166.014Y-111.912
X166.319Y-125.628
X166.347Y-122.963
X166.421Y-130.2
X166.66Y-136.18
X167.538Y-134.976
X168.12Y-131.239
X168.148Y-124.257
X168.219Y-121.497
X168.62Y-143.29
X168.808Y-125.222
X169.012Y-128.067
X169.164Y-135.788
X170.66Y-140.45
X170.934Y-122.321
X171.0Y-128.22
X171.1Y-132.85
X171.602Y-119.837
X171.64Y-127.81
X172.159Y-120.804
X172.161Y-118.618
X172.31Y-127.4
X172.413Y-134.264
X172.568Y-119.99
X172.923Y-123.19
X174.45Y-123.8
T2
X127.508Y-134.671
X145.644Y-153.568
X150.622Y-142.088
X152.502Y-153.975
X164.43Y-148.205
T3
X135.768Y-145.642
X139.145Y-149.571
X140.396Y-147.969
T4
X147.29Y-113.03
X152.09Y-113.03
T5
X135.255Y-114.3
X138.319Y-111.729
M30
